M48
; DRILL file {KiCad (5.1.12)-1} date 05/14/22 07:58:42
; FORMAT={-:-/ absolute / metric / decimal}
; #@! TF.CreationDate,2022-05-14T07:58:42+02:00
; #@! TF.GenerationSoftware,Kicad,Pcbnew,(5.1.12)-1
; #@! TF.FileFunction,Plated,1,2,PTH
FMAT,2
METRIC
T1C0.400
T2C0.700
T3C0.800
T4C1.000
%
G90
G05
T1
X106.68Y-92.71
X109.22Y-90.17
T2
X120.015Y-74.93
X120.015Y-80.01
X127.0Y-74.93
X127.0Y-77.47
X129.54Y-74.93
X129.54Y-77.47
X132.08Y-74.93
X132.08Y-77.47
X134.62Y-74.93
X134.62Y-77.47
X137.16Y-74.93
X137.16Y-77.47
X138.43Y-105.41
X138.43Y-113.03
X139.7Y-74.93
X139.7Y-77.47
X140.97Y-105.41
X140.97Y-113.03
X142.24Y-74.93
X142.24Y-77.47
X144.78Y-74.93
X144.78Y-77.47
T3
X93.98Y-85.09
X93.98Y-87.63
X93.98Y-90.17
X93.98Y-92.71
X93.98Y-95.25
X93.98Y-97.79
X93.98Y-100.33
X93.98Y-102.87
X99.06Y-75.01
X99.06Y-80.01
X101.6Y-85.09
X101.6Y-87.63
X101.6Y-90.17
X101.6Y-92.71
X101.6Y-95.25
X101.6Y-97.79
X101.6Y-100.33
X101.6Y-102.87
X104.775Y-77.51
X104.775Y-80.01
X107.95Y-85.09
X107.95Y-100.33
X110.49Y-85.09
X110.49Y-100.33
X110.49Y-105.41
X110.49Y-113.03
X113.03Y-85.09
X113.03Y-100.33
X113.03Y-105.41
X113.03Y-113.03
X115.57Y-85.09
X115.57Y-100.33
X115.57Y-105.41
X115.57Y-113.03
X118.11Y-85.09
X118.11Y-100.33
X118.11Y-105.41
X118.11Y-113.03
X120.65Y-85.09
X120.65Y-100.33
X120.65Y-105.41
X120.65Y-113.03
X123.19Y-85.09
X123.19Y-100.33
X123.19Y-105.41
X123.19Y-113.03
X125.73Y-85.09
X125.73Y-100.33
X125.73Y-105.41
X125.73Y-113.03
X128.27Y-85.09
X128.27Y-100.33
X128.27Y-105.41
X128.27Y-113.03
X130.81Y-85.09
X130.81Y-100.33
X133.35Y-85.09
X133.35Y-100.33
X133.35Y-106.76
X133.35Y-111.76
X135.89Y-85.09
X135.89Y-100.33
X138.43Y-85.09
X138.43Y-100.33
X140.97Y-85.09
X140.97Y-100.33
T4
X93.98Y-109.22
X96.52Y-109.22
X99.06Y-109.22
X107.315Y-71.12
X109.855Y-71.12
X110.49Y-80.01
X112.395Y-71.12
X113.03Y-80.01
X114.3Y-120.65
X114.935Y-71.12
X115.57Y-80.01
X116.84Y-120.65
X117.475Y-71.12
X119.38Y-120.65
X120.015Y-71.12
X121.92Y-120.65
X122.555Y-71.12
X124.46Y-120.65
X127.0Y-71.12
X127.0Y-120.65
X129.54Y-71.12
X132.08Y-71.12
X132.08Y-120.65
X134.62Y-71.12
X134.62Y-120.65
X137.16Y-71.12
X137.16Y-120.65
X139.7Y-71.12
X139.7Y-120.65
X142.24Y-71.12
X142.24Y-120.65
X144.78Y-71.12
X144.78Y-120.65
T0
M30
