G04 #@! TF.GenerationSoftware,KiCad,Pcbnew,(5.1.12)-1*
G04 #@! TF.CreationDate,2022-05-14T07:58:38+02:00*
G04 #@! TF.ProjectId,EPROM-Shield,4550524f-4d2d-4536-9869-656c642e6b69,rev?*
G04 #@! TF.SameCoordinates,Original*
G04 #@! TF.FileFunction,Soldermask,Bot*
G04 #@! TF.FilePolarity,Negative*
%FSLAX46Y46*%
G04 Gerber Fmt 4.6, Leading zero omitted, Abs format (unit mm)*
G04 Created by KiCad (PCBNEW (5.1.12)-1) date 2022-05-14 07:58:38*
%MOMM*%
%LPD*%
G01*
G04 APERTURE LIST*
%ADD10C,1.600000*%
%ADD11R,1.600000X1.600000*%
%ADD12O,1.400000X1.400000*%
%ADD13C,1.400000*%
%ADD14O,1.600000X2.400000*%
%ADD15R,1.600000X2.400000*%
%ADD16O,1.700000X1.700000*%
%ADD17R,1.700000X1.700000*%
%ADD18O,2.400000X1.600000*%
%ADD19R,2.400000X1.600000*%
G04 APERTURE END LIST*
D10*
G04 #@! TO.C,C3*
X104775000Y-77510000D03*
D11*
X104775000Y-80010000D03*
G04 #@! TD*
D12*
G04 #@! TO.C,R1*
X120015000Y-80010000D03*
D13*
X120015000Y-74930000D03*
G04 #@! TD*
D14*
G04 #@! TO.C,U3*
X107950000Y-85090000D03*
X140970000Y-100330000D03*
X110490000Y-85090000D03*
X138430000Y-100330000D03*
X113030000Y-85090000D03*
X135890000Y-100330000D03*
X115570000Y-85090000D03*
X133350000Y-100330000D03*
X118110000Y-85090000D03*
X130810000Y-100330000D03*
X120650000Y-85090000D03*
X128270000Y-100330000D03*
X123190000Y-85090000D03*
X125730000Y-100330000D03*
X125730000Y-85090000D03*
X123190000Y-100330000D03*
X128270000Y-85090000D03*
X120650000Y-100330000D03*
X130810000Y-85090000D03*
X118110000Y-100330000D03*
X133350000Y-85090000D03*
X115570000Y-100330000D03*
X135890000Y-85090000D03*
X113030000Y-100330000D03*
X138430000Y-85090000D03*
X110490000Y-100330000D03*
X140970000Y-85090000D03*
D15*
X107950000Y-100330000D03*
G04 #@! TD*
D12*
G04 #@! TO.C,R11*
X140970000Y-105410000D03*
D13*
X140970000Y-113030000D03*
G04 #@! TD*
D12*
G04 #@! TO.C,R10*
X138430000Y-105410000D03*
D13*
X138430000Y-113030000D03*
G04 #@! TD*
D16*
G04 #@! TO.C,J3*
X127000000Y-71120000D03*
X129540000Y-71120000D03*
X132080000Y-71120000D03*
X134620000Y-71120000D03*
X137160000Y-71120000D03*
X139700000Y-71120000D03*
X142240000Y-71120000D03*
D17*
X144780000Y-71120000D03*
G04 #@! TD*
D16*
G04 #@! TO.C,J4*
X144780000Y-120650000D03*
X142240000Y-120650000D03*
X139700000Y-120650000D03*
X137160000Y-120650000D03*
X134620000Y-120650000D03*
D17*
X132080000Y-120650000D03*
G04 #@! TD*
D16*
G04 #@! TO.C,J2*
X114300000Y-120650000D03*
X116840000Y-120650000D03*
X119380000Y-120650000D03*
X121920000Y-120650000D03*
X124460000Y-120650000D03*
D17*
X127000000Y-120650000D03*
G04 #@! TD*
D12*
G04 #@! TO.C,R4*
X139700000Y-77470000D03*
D13*
X139700000Y-74930000D03*
G04 #@! TD*
D12*
G04 #@! TO.C,R3*
X142240000Y-77470000D03*
D13*
X142240000Y-74930000D03*
G04 #@! TD*
D12*
G04 #@! TO.C,R2*
X144780000Y-77470000D03*
D13*
X144780000Y-74930000D03*
G04 #@! TD*
D16*
G04 #@! TO.C,J1*
X107315000Y-71120000D03*
X109855000Y-71120000D03*
X112395000Y-71120000D03*
X114935000Y-71120000D03*
X117475000Y-71120000D03*
X120015000Y-71120000D03*
D17*
X122555000Y-71120000D03*
G04 #@! TD*
D12*
G04 #@! TO.C,R6*
X134620000Y-77470000D03*
D13*
X134620000Y-74930000D03*
G04 #@! TD*
D12*
G04 #@! TO.C,R8*
X129540000Y-77470000D03*
D13*
X129540000Y-74930000D03*
G04 #@! TD*
D12*
G04 #@! TO.C,R9*
X127000000Y-77470000D03*
D13*
X127000000Y-74930000D03*
G04 #@! TD*
D12*
G04 #@! TO.C,R7*
X132080000Y-77470000D03*
D13*
X132080000Y-74930000D03*
G04 #@! TD*
D12*
G04 #@! TO.C,R5*
X137160000Y-77470000D03*
D13*
X137160000Y-74930000D03*
G04 #@! TD*
D10*
G04 #@! TO.C,C2*
X99060000Y-75010000D03*
X99060000Y-80010000D03*
G04 #@! TD*
G04 #@! TO.C,C1*
X133350000Y-106760000D03*
X133350000Y-111760000D03*
G04 #@! TD*
D14*
G04 #@! TO.C,U2*
X128270000Y-113030000D03*
X110490000Y-105410000D03*
X125730000Y-113030000D03*
X113030000Y-105410000D03*
X123190000Y-113030000D03*
X115570000Y-105410000D03*
X120650000Y-113030000D03*
X118110000Y-105410000D03*
X118110000Y-113030000D03*
X120650000Y-105410000D03*
X115570000Y-113030000D03*
X123190000Y-105410000D03*
X113030000Y-113030000D03*
X125730000Y-105410000D03*
X110490000Y-113030000D03*
D15*
X128270000Y-105410000D03*
G04 #@! TD*
D18*
G04 #@! TO.C,U1*
X93980000Y-102870000D03*
X101600000Y-85090000D03*
X93980000Y-100330000D03*
X101600000Y-87630000D03*
X93980000Y-97790000D03*
X101600000Y-90170000D03*
X93980000Y-95250000D03*
X101600000Y-92710000D03*
X93980000Y-92710000D03*
X101600000Y-95250000D03*
X93980000Y-90170000D03*
X101600000Y-97790000D03*
X93980000Y-87630000D03*
X101600000Y-100330000D03*
X93980000Y-85090000D03*
D19*
X101600000Y-102870000D03*
G04 #@! TD*
D16*
G04 #@! TO.C,JP2*
X93980000Y-109220000D03*
X96520000Y-109220000D03*
D17*
X99060000Y-109220000D03*
G04 #@! TD*
D16*
G04 #@! TO.C,JP1*
X115570000Y-80010000D03*
X113030000Y-80010000D03*
D17*
X110490000Y-80010000D03*
G04 #@! TD*
M02*
