G04 #@! TF.GenerationSoftware,KiCad,Pcbnew,(5.1.12)-1*
G04 #@! TF.CreationDate,2022-05-14T07:58:37+02:00*
G04 #@! TF.ProjectId,EPROM-Shield,4550524f-4d2d-4536-9869-656c642e6b69,rev?*
G04 #@! TF.SameCoordinates,Original*
G04 #@! TF.FileFunction,Copper,L2,Bot*
G04 #@! TF.FilePolarity,Positive*
%FSLAX46Y46*%
G04 Gerber Fmt 4.6, Leading zero omitted, Abs format (unit mm)*
G04 Created by KiCad (PCBNEW (5.1.12)-1) date 2022-05-14 07:58:37*
%MOMM*%
%LPD*%
G01*
G04 APERTURE LIST*
G04 #@! TA.AperFunction,ComponentPad*
%ADD10C,1.600000*%
G04 #@! TD*
G04 #@! TA.AperFunction,ComponentPad*
%ADD11R,1.600000X1.600000*%
G04 #@! TD*
G04 #@! TA.AperFunction,ComponentPad*
%ADD12O,1.400000X1.400000*%
G04 #@! TD*
G04 #@! TA.AperFunction,ComponentPad*
%ADD13C,1.400000*%
G04 #@! TD*
G04 #@! TA.AperFunction,ComponentPad*
%ADD14O,1.600000X2.400000*%
G04 #@! TD*
G04 #@! TA.AperFunction,ComponentPad*
%ADD15R,1.600000X2.400000*%
G04 #@! TD*
G04 #@! TA.AperFunction,ComponentPad*
%ADD16O,1.700000X1.700000*%
G04 #@! TD*
G04 #@! TA.AperFunction,ComponentPad*
%ADD17R,1.700000X1.700000*%
G04 #@! TD*
G04 #@! TA.AperFunction,ComponentPad*
%ADD18O,2.400000X1.600000*%
G04 #@! TD*
G04 #@! TA.AperFunction,ComponentPad*
%ADD19R,2.400000X1.600000*%
G04 #@! TD*
G04 #@! TA.AperFunction,ViaPad*
%ADD20C,0.800000*%
G04 #@! TD*
G04 #@! TA.AperFunction,Conductor*
%ADD21C,1.000000*%
G04 #@! TD*
G04 #@! TA.AperFunction,Conductor*
%ADD22C,0.500000*%
G04 #@! TD*
G04 #@! TA.AperFunction,Conductor*
%ADD23C,0.254000*%
G04 #@! TD*
G04 #@! TA.AperFunction,Conductor*
%ADD24C,0.100000*%
G04 #@! TD*
G04 APERTURE END LIST*
D10*
G04 #@! TO.P,C3,2*
G04 #@! TO.N,GND*
X104775000Y-77510000D03*
D11*
G04 #@! TO.P,C3,1*
G04 #@! TO.N,VCC*
X104775000Y-80010000D03*
G04 #@! TD*
D12*
G04 #@! TO.P,R1,2*
G04 #@! TO.N,VCC*
X120015000Y-80010000D03*
D13*
G04 #@! TO.P,R1,1*
G04 #@! TO.N,/_OE*
X120015000Y-74930000D03*
G04 #@! TD*
D14*
G04 #@! TO.P,U3,28*
G04 #@! TO.N,VCC*
X107950000Y-85090000D03*
G04 #@! TO.P,U3,14*
G04 #@! TO.N,GND*
X140970000Y-100330000D03*
G04 #@! TO.P,U3,27*
G04 #@! TO.N,/WE*
X110490000Y-85090000D03*
G04 #@! TO.P,U3,13*
G04 #@! TO.N,Net-(R4-Pad2)*
X138430000Y-100330000D03*
G04 #@! TO.P,U3,26*
G04 #@! TO.N,/A13*
X113030000Y-85090000D03*
G04 #@! TO.P,U3,12*
G04 #@! TO.N,Net-(R11-Pad2)*
X135890000Y-100330000D03*
G04 #@! TO.P,U3,25*
G04 #@! TO.N,/A8*
X115570000Y-85090000D03*
G04 #@! TO.P,U3,11*
G04 #@! TO.N,Net-(R10-Pad2)*
X133350000Y-100330000D03*
G04 #@! TO.P,U3,24*
G04 #@! TO.N,/A9*
X118110000Y-85090000D03*
G04 #@! TO.P,U3,10*
G04 #@! TO.N,/A0*
X130810000Y-100330000D03*
G04 #@! TO.P,U3,23*
G04 #@! TO.N,/A11*
X120650000Y-85090000D03*
G04 #@! TO.P,U3,9*
G04 #@! TO.N,/A1*
X128270000Y-100330000D03*
G04 #@! TO.P,U3,22*
G04 #@! TO.N,/OE*
X123190000Y-85090000D03*
G04 #@! TO.P,U3,8*
G04 #@! TO.N,/A2*
X125730000Y-100330000D03*
G04 #@! TO.P,U3,21*
G04 #@! TO.N,/A10*
X125730000Y-85090000D03*
G04 #@! TO.P,U3,7*
G04 #@! TO.N,/A3*
X123190000Y-100330000D03*
G04 #@! TO.P,U3,20*
G04 #@! TO.N,/CS*
X128270000Y-85090000D03*
G04 #@! TO.P,U3,6*
G04 #@! TO.N,/A4*
X120650000Y-100330000D03*
G04 #@! TO.P,U3,19*
G04 #@! TO.N,Net-(R9-Pad2)*
X130810000Y-85090000D03*
G04 #@! TO.P,U3,5*
G04 #@! TO.N,/A5*
X118110000Y-100330000D03*
G04 #@! TO.P,U3,18*
G04 #@! TO.N,Net-(R8-Pad2)*
X133350000Y-85090000D03*
G04 #@! TO.P,U3,4*
G04 #@! TO.N,/A6*
X115570000Y-100330000D03*
G04 #@! TO.P,U3,17*
G04 #@! TO.N,Net-(R7-Pad2)*
X135890000Y-85090000D03*
G04 #@! TO.P,U3,3*
G04 #@! TO.N,/A7*
X113030000Y-100330000D03*
G04 #@! TO.P,U3,16*
G04 #@! TO.N,Net-(R6-Pad2)*
X138430000Y-85090000D03*
G04 #@! TO.P,U3,2*
G04 #@! TO.N,/A12*
X110490000Y-100330000D03*
G04 #@! TO.P,U3,15*
G04 #@! TO.N,Net-(R5-Pad2)*
X140970000Y-85090000D03*
D15*
G04 #@! TO.P,U3,1*
G04 #@! TO.N,/A14*
X107950000Y-100330000D03*
G04 #@! TD*
D12*
G04 #@! TO.P,R11,2*
G04 #@! TO.N,Net-(R11-Pad2)*
X140970000Y-105410000D03*
D13*
G04 #@! TO.P,R11,1*
G04 #@! TO.N,/AD1*
X140970000Y-113030000D03*
G04 #@! TD*
D12*
G04 #@! TO.P,R10,2*
G04 #@! TO.N,Net-(R10-Pad2)*
X138430000Y-105410000D03*
D13*
G04 #@! TO.P,R10,1*
G04 #@! TO.N,/AD0*
X138430000Y-113030000D03*
G04 #@! TD*
D16*
G04 #@! TO.P,J3,8*
G04 #@! TO.N,/D7*
X127000000Y-71120000D03*
G04 #@! TO.P,J3,7*
G04 #@! TO.N,/D6*
X129540000Y-71120000D03*
G04 #@! TO.P,J3,6*
G04 #@! TO.N,/D5*
X132080000Y-71120000D03*
G04 #@! TO.P,J3,5*
G04 #@! TO.N,/D4*
X134620000Y-71120000D03*
G04 #@! TO.P,J3,4*
G04 #@! TO.N,/D3*
X137160000Y-71120000D03*
G04 #@! TO.P,J3,3*
G04 #@! TO.N,/D2*
X139700000Y-71120000D03*
G04 #@! TO.P,J3,2*
G04 #@! TO.N,/D1*
X142240000Y-71120000D03*
D17*
G04 #@! TO.P,J3,1*
G04 #@! TO.N,/D0*
X144780000Y-71120000D03*
G04 #@! TD*
D16*
G04 #@! TO.P,J4,6*
G04 #@! TO.N,N/C*
X144780000Y-120650000D03*
G04 #@! TO.P,J4,5*
X142240000Y-120650000D03*
G04 #@! TO.P,J4,4*
X139700000Y-120650000D03*
G04 #@! TO.P,J4,3*
X137160000Y-120650000D03*
G04 #@! TO.P,J4,2*
G04 #@! TO.N,/AD1*
X134620000Y-120650000D03*
D17*
G04 #@! TO.P,J4,1*
G04 #@! TO.N,/AD0*
X132080000Y-120650000D03*
G04 #@! TD*
D16*
G04 #@! TO.P,J2,6*
G04 #@! TO.N,N/C*
X114300000Y-120650000D03*
G04 #@! TO.P,J2,5*
X116840000Y-120650000D03*
G04 #@! TO.P,J2,4*
G04 #@! TO.N,VCC*
X119380000Y-120650000D03*
G04 #@! TO.P,J2,3*
G04 #@! TO.N,GND*
X121920000Y-120650000D03*
G04 #@! TO.P,J2,2*
X124460000Y-120650000D03*
D17*
G04 #@! TO.P,J2,1*
G04 #@! TO.N,N/C*
X127000000Y-120650000D03*
G04 #@! TD*
D12*
G04 #@! TO.P,R4,2*
G04 #@! TO.N,Net-(R4-Pad2)*
X139700000Y-77470000D03*
D13*
G04 #@! TO.P,R4,1*
G04 #@! TO.N,/D2*
X139700000Y-74930000D03*
G04 #@! TD*
D12*
G04 #@! TO.P,R3,2*
G04 #@! TO.N,Net-(R11-Pad2)*
X142240000Y-77470000D03*
D13*
G04 #@! TO.P,R3,1*
G04 #@! TO.N,/D1*
X142240000Y-74930000D03*
G04 #@! TD*
D12*
G04 #@! TO.P,R2,2*
G04 #@! TO.N,Net-(R10-Pad2)*
X144780000Y-77470000D03*
D13*
G04 #@! TO.P,R2,1*
G04 #@! TO.N,/D0*
X144780000Y-74930000D03*
G04 #@! TD*
D16*
G04 #@! TO.P,J1,7*
G04 #@! TO.N,GND*
X107315000Y-71120000D03*
G04 #@! TO.P,J1,6*
G04 #@! TO.N,N/C*
X109855000Y-71120000D03*
G04 #@! TO.P,J1,5*
X112395000Y-71120000D03*
G04 #@! TO.P,J1,4*
G04 #@! TO.N,/SERCLK*
X114935000Y-71120000D03*
G04 #@! TO.P,J1,3*
G04 #@! TO.N,/RCLK*
X117475000Y-71120000D03*
G04 #@! TO.P,J1,2*
G04 #@! TO.N,/_OE*
X120015000Y-71120000D03*
D17*
G04 #@! TO.P,J1,1*
G04 #@! TO.N,/SER*
X122555000Y-71120000D03*
G04 #@! TD*
D12*
G04 #@! TO.P,R6,2*
G04 #@! TO.N,Net-(R6-Pad2)*
X134620000Y-77470000D03*
D13*
G04 #@! TO.P,R6,1*
G04 #@! TO.N,/D4*
X134620000Y-74930000D03*
G04 #@! TD*
D12*
G04 #@! TO.P,R8,2*
G04 #@! TO.N,Net-(R8-Pad2)*
X129540000Y-77470000D03*
D13*
G04 #@! TO.P,R8,1*
G04 #@! TO.N,/D6*
X129540000Y-74930000D03*
G04 #@! TD*
D12*
G04 #@! TO.P,R9,2*
G04 #@! TO.N,Net-(R9-Pad2)*
X127000000Y-77470000D03*
D13*
G04 #@! TO.P,R9,1*
G04 #@! TO.N,/D7*
X127000000Y-74930000D03*
G04 #@! TD*
D12*
G04 #@! TO.P,R7,2*
G04 #@! TO.N,Net-(R7-Pad2)*
X132080000Y-77470000D03*
D13*
G04 #@! TO.P,R7,1*
G04 #@! TO.N,/D5*
X132080000Y-74930000D03*
G04 #@! TD*
D12*
G04 #@! TO.P,R5,2*
G04 #@! TO.N,Net-(R5-Pad2)*
X137160000Y-77470000D03*
D13*
G04 #@! TO.P,R5,1*
G04 #@! TO.N,/D3*
X137160000Y-74930000D03*
G04 #@! TD*
D10*
G04 #@! TO.P,C2,2*
G04 #@! TO.N,GND*
X99060000Y-75010000D03*
G04 #@! TO.P,C2,1*
G04 #@! TO.N,VCC*
X99060000Y-80010000D03*
G04 #@! TD*
G04 #@! TO.P,C1,2*
G04 #@! TO.N,GND*
X133350000Y-106760000D03*
G04 #@! TO.P,C1,1*
G04 #@! TO.N,VCC*
X133350000Y-111760000D03*
G04 #@! TD*
D14*
G04 #@! TO.P,U2,16*
G04 #@! TO.N,VCC*
X128270000Y-113030000D03*
G04 #@! TO.P,U2,8*
G04 #@! TO.N,GND*
X110490000Y-105410000D03*
G04 #@! TO.P,U2,15*
G04 #@! TO.N,/A0*
X125730000Y-113030000D03*
G04 #@! TO.P,U2,7*
G04 #@! TO.N,/A7*
X113030000Y-105410000D03*
G04 #@! TO.P,U2,14*
G04 #@! TO.N,Net-(U1-Pad9)*
X123190000Y-113030000D03*
G04 #@! TO.P,U2,6*
G04 #@! TO.N,/A6*
X115570000Y-105410000D03*
G04 #@! TO.P,U2,13*
G04 #@! TO.N,/_OE*
X120650000Y-113030000D03*
G04 #@! TO.P,U2,5*
G04 #@! TO.N,/A5*
X118110000Y-105410000D03*
G04 #@! TO.P,U2,12*
G04 #@! TO.N,/RCLK*
X118110000Y-113030000D03*
G04 #@! TO.P,U2,4*
G04 #@! TO.N,/A4*
X120650000Y-105410000D03*
G04 #@! TO.P,U2,11*
G04 #@! TO.N,/SERCLK*
X115570000Y-113030000D03*
G04 #@! TO.P,U2,3*
G04 #@! TO.N,/A3*
X123190000Y-105410000D03*
G04 #@! TO.P,U2,10*
G04 #@! TO.N,VCC*
X113030000Y-113030000D03*
G04 #@! TO.P,U2,2*
G04 #@! TO.N,/A2*
X125730000Y-105410000D03*
G04 #@! TO.P,U2,9*
G04 #@! TO.N,N/C*
X110490000Y-113030000D03*
D15*
G04 #@! TO.P,U2,1*
G04 #@! TO.N,/A1*
X128270000Y-105410000D03*
G04 #@! TD*
D18*
G04 #@! TO.P,U1,16*
G04 #@! TO.N,VCC*
X93980000Y-102870000D03*
G04 #@! TO.P,U1,8*
G04 #@! TO.N,GND*
X101600000Y-85090000D03*
G04 #@! TO.P,U1,15*
G04 #@! TO.N,/A8*
X93980000Y-100330000D03*
G04 #@! TO.P,U1,7*
G04 #@! TO.N,/CS*
X101600000Y-87630000D03*
G04 #@! TO.P,U1,14*
G04 #@! TO.N,/SER*
X93980000Y-97790000D03*
G04 #@! TO.P,U1,6*
G04 #@! TO.N,/OE*
X101600000Y-90170000D03*
G04 #@! TO.P,U1,13*
G04 #@! TO.N,/_OE*
X93980000Y-95250000D03*
G04 #@! TO.P,U1,5*
G04 #@! TO.N,/WE*
X101600000Y-92710000D03*
G04 #@! TO.P,U1,12*
G04 #@! TO.N,/RCLK*
X93980000Y-92710000D03*
G04 #@! TO.P,U1,4*
G04 #@! TO.N,/A12*
X101600000Y-95250000D03*
G04 #@! TO.P,U1,11*
G04 #@! TO.N,/SERCLK*
X93980000Y-90170000D03*
G04 #@! TO.P,U1,3*
G04 #@! TO.N,/A11*
X101600000Y-97790000D03*
G04 #@! TO.P,U1,10*
G04 #@! TO.N,VCC*
X93980000Y-87630000D03*
G04 #@! TO.P,U1,2*
G04 #@! TO.N,/A10*
X101600000Y-100330000D03*
G04 #@! TO.P,U1,9*
G04 #@! TO.N,Net-(U1-Pad9)*
X93980000Y-85090000D03*
D19*
G04 #@! TO.P,U1,1*
G04 #@! TO.N,/A9*
X101600000Y-102870000D03*
G04 #@! TD*
D16*
G04 #@! TO.P,JP2,3*
G04 #@! TO.N,VCC*
X93980000Y-109220000D03*
G04 #@! TO.P,JP2,2*
G04 #@! TO.N,/A14*
X96520000Y-109220000D03*
D17*
G04 #@! TO.P,JP2,1*
G04 #@! TO.N,GND*
X99060000Y-109220000D03*
G04 #@! TD*
D16*
G04 #@! TO.P,JP1,3*
G04 #@! TO.N,VCC*
X115570000Y-80010000D03*
G04 #@! TO.P,JP1,2*
G04 #@! TO.N,/A13*
X113030000Y-80010000D03*
D17*
G04 #@! TO.P,JP1,1*
G04 #@! TO.N,GND*
X110490000Y-80010000D03*
G04 #@! TD*
D20*
G04 #@! TO.N,/A8*
X109220000Y-90170000D03*
G04 #@! TO.N,/A9*
X106680000Y-92710000D03*
G04 #@! TD*
D21*
G04 #@! TO.N,VCC*
X93980000Y-109220000D02*
X93980000Y-102870000D01*
X132080000Y-113030000D02*
X133350000Y-111760000D01*
X128270000Y-113030000D02*
X132080000Y-113030000D01*
X119380000Y-120650000D02*
X119380000Y-118110000D01*
X119380000Y-118110000D02*
X116840000Y-115570000D01*
X116840000Y-115570000D02*
X114300000Y-115570000D01*
X114300000Y-115570000D02*
X113030000Y-114300000D01*
X113030000Y-114300000D02*
X113030000Y-113030000D01*
X115570000Y-80010000D02*
X120015000Y-80010000D01*
X107950000Y-82550000D02*
X107950000Y-85090000D01*
X107950000Y-82550000D02*
X105410000Y-80010000D01*
X105410000Y-80010000D02*
X99060000Y-80010000D01*
G04 #@! TO.N,GND*
X133350000Y-106760000D02*
X135810000Y-106760000D01*
X110490000Y-105410000D02*
X109220000Y-106680000D01*
X109220000Y-106680000D02*
X99060000Y-106680000D01*
X99060000Y-106680000D02*
X99060000Y-109220000D01*
X121920000Y-120650000D02*
X124460000Y-120650000D01*
X107990000Y-77510000D02*
X110490000Y-80010000D01*
X105410000Y-77510000D02*
X107990000Y-77510000D01*
X101600000Y-77470000D02*
X105410000Y-77510000D01*
X99060000Y-75010000D02*
X101600000Y-77470000D01*
X100330000Y-85090000D02*
X101600000Y-85090000D01*
X99060000Y-86360000D02*
X100330000Y-85090000D01*
X99060000Y-93980000D02*
X99060000Y-86360000D01*
X97790000Y-95250000D02*
X99060000Y-93980000D01*
X97790000Y-105410000D02*
X97790000Y-95250000D01*
X99060000Y-106680000D02*
X97790000Y-105410000D01*
X140970000Y-101600000D02*
X140970000Y-100330000D01*
X139700000Y-102870000D02*
X140970000Y-101600000D01*
X135890000Y-104140000D02*
X137160000Y-102870000D01*
X137160000Y-102870000D02*
X139700000Y-102870000D01*
X135890000Y-113030000D02*
X135890000Y-104140000D01*
X133350000Y-115570000D02*
X135890000Y-113030000D01*
X127000000Y-115570000D02*
X133350000Y-115570000D01*
X124460000Y-118110000D02*
X127000000Y-115570000D01*
X124460000Y-120650000D02*
X124460000Y-118110000D01*
D22*
G04 #@! TO.N,/D0*
X144780000Y-71120000D02*
X144780000Y-74930000D01*
G04 #@! TO.N,/D1*
X142240000Y-71120000D02*
X142240000Y-74930000D01*
G04 #@! TO.N,/D2*
X139700000Y-71120000D02*
X139700000Y-74930000D01*
G04 #@! TO.N,/D3*
X137160000Y-71120000D02*
X137160000Y-74930000D01*
G04 #@! TO.N,/D4*
X134620000Y-71120000D02*
X134620000Y-74930000D01*
G04 #@! TO.N,/D5*
X132080000Y-71120000D02*
X132080000Y-74930000D01*
G04 #@! TO.N,/D6*
X129540000Y-71120000D02*
X129540000Y-74930000D01*
G04 #@! TO.N,/D7*
X127000000Y-71120000D02*
X127000000Y-74930000D01*
G04 #@! TO.N,/A13*
X113030000Y-85090000D02*
X113030000Y-80010000D01*
G04 #@! TO.N,Net-(R4-Pad2)*
X139700000Y-77470000D02*
X139700000Y-78740000D01*
X139700000Y-78740000D02*
X143510000Y-82550000D01*
X143510000Y-82550000D02*
X143510000Y-87630000D01*
X143510000Y-87630000D02*
X138430000Y-92710000D01*
X138430000Y-92710000D02*
X138430000Y-100330000D01*
G04 #@! TO.N,Net-(R5-Pad2)*
X137160000Y-77470000D02*
X137160000Y-79375000D01*
X137160000Y-79375000D02*
X140970000Y-83185000D01*
X140970000Y-83185000D02*
X140970000Y-85090000D01*
G04 #@! TO.N,Net-(R6-Pad2)*
X134620000Y-77470000D02*
X134620000Y-79375000D01*
X134620000Y-79375000D02*
X138430000Y-83185000D01*
X138430000Y-83185000D02*
X138430000Y-85090000D01*
G04 #@! TO.N,Net-(R7-Pad2)*
X132080000Y-77470000D02*
X132080000Y-79375000D01*
X135890000Y-83185000D02*
X135890000Y-85090000D01*
X132080000Y-79375000D02*
X135890000Y-83185000D01*
G04 #@! TO.N,Net-(R8-Pad2)*
X129540000Y-77470000D02*
X129540000Y-79375000D01*
X133350000Y-83185000D02*
X133350000Y-85090000D01*
X129540000Y-79375000D02*
X133350000Y-83185000D01*
G04 #@! TO.N,Net-(R9-Pad2)*
X127000000Y-77470000D02*
X127000000Y-79375000D01*
X130810000Y-83185000D02*
X130810000Y-85090000D01*
X127000000Y-79375000D02*
X130810000Y-83185000D01*
G04 #@! TO.N,/A8*
X115570000Y-85090000D02*
X115570000Y-86360000D01*
X115570000Y-86360000D02*
X111760000Y-90170000D01*
X111760000Y-90170000D02*
X109220000Y-90170000D01*
G04 #@! TO.N,/WE*
X101600000Y-92710000D02*
X102870000Y-92710000D01*
X102870000Y-92710000D02*
X107950000Y-87630000D01*
X107950000Y-87630000D02*
X109220000Y-87630000D01*
X109220000Y-87630000D02*
X110490000Y-86360000D01*
X110490000Y-86360000D02*
X110490000Y-85090000D01*
G04 #@! TO.N,/A12*
X110490000Y-100330000D02*
X110490000Y-101600000D01*
X110490000Y-101600000D02*
X106680000Y-105410000D01*
X106680000Y-105410000D02*
X100330000Y-105410000D01*
X100330000Y-105410000D02*
X99060000Y-104140000D01*
X99060000Y-104140000D02*
X99060000Y-96520000D01*
X99060000Y-96520000D02*
X100330000Y-95250000D01*
X100330000Y-95250000D02*
X101600000Y-95250000D01*
G04 #@! TO.N,/A11*
X120650000Y-86360000D02*
X120650000Y-85090000D01*
X111760000Y-95250000D02*
X120650000Y-86360000D01*
X101600000Y-97790000D02*
X102870000Y-97790000D01*
X102870000Y-97790000D02*
X105410000Y-95250000D01*
X105410000Y-95250000D02*
X111760000Y-95250000D01*
G04 #@! TO.N,/A10*
X125730000Y-86360000D02*
X125730000Y-85090000D01*
X115570000Y-96520000D02*
X125730000Y-86360000D01*
X101600000Y-100330000D02*
X102870000Y-100330000D01*
X102870000Y-100330000D02*
X106680000Y-96520000D01*
X106680000Y-96520000D02*
X115570000Y-96520000D01*
G04 #@! TO.N,/A9*
X118110000Y-86360000D02*
X118110000Y-85090000D01*
X111760000Y-92710000D02*
X118110000Y-86360000D01*
X106680000Y-92710000D02*
X111760000Y-92710000D01*
G04 #@! TO.N,/A0*
X130810000Y-100330000D02*
X130810000Y-106680000D01*
X130810000Y-106680000D02*
X125730000Y-111760000D01*
X125730000Y-111760000D02*
X125730000Y-113030000D01*
G04 #@! TO.N,/A7*
X113030000Y-105410000D02*
X113030000Y-100330000D01*
G04 #@! TO.N,/A6*
X115570000Y-105410000D02*
X115570000Y-100330000D01*
G04 #@! TO.N,/A5*
X118110000Y-105410000D02*
X118110000Y-100330000D01*
G04 #@! TO.N,/A4*
X120650000Y-105410000D02*
X120650000Y-100330000D01*
G04 #@! TO.N,/A3*
X123190000Y-105410000D02*
X123190000Y-100330000D01*
G04 #@! TO.N,/A2*
X125730000Y-105410000D02*
X125730000Y-100330000D01*
G04 #@! TO.N,/A1*
X128270000Y-105410000D02*
X128270000Y-100330000D01*
G04 #@! TO.N,/_OE*
X120015000Y-74930000D02*
X120015000Y-71120000D01*
X120650000Y-111760000D02*
X120650000Y-113030000D01*
X106680000Y-107950000D02*
X116840000Y-107950000D01*
X102870000Y-111760000D02*
X106680000Y-107950000D01*
X116840000Y-107950000D02*
X120650000Y-111760000D01*
X92710000Y-111760000D02*
X102870000Y-111760000D01*
X91440000Y-110490000D02*
X92710000Y-111760000D01*
X92710000Y-95250000D02*
X91440000Y-96520000D01*
X91440000Y-96520000D02*
X91440000Y-110490000D01*
X93980000Y-95250000D02*
X92710000Y-95250000D01*
G04 #@! TO.N,/RCLK*
X92710000Y-92710000D02*
X93980000Y-92710000D01*
X90170000Y-110490000D02*
X90170000Y-95250000D01*
X92710000Y-113030000D02*
X90170000Y-110490000D01*
X106680000Y-109220000D02*
X102870000Y-113030000D01*
X115570000Y-109220000D02*
X106680000Y-109220000D01*
X102870000Y-113030000D02*
X92710000Y-113030000D01*
X118110000Y-111760000D02*
X115570000Y-109220000D01*
X90170000Y-95250000D02*
X92710000Y-92710000D01*
X118110000Y-113030000D02*
X118110000Y-111760000D01*
X97790000Y-82550000D02*
X97790000Y-90170000D01*
X96520000Y-73660000D02*
X96520000Y-81280000D01*
X97790000Y-72390000D02*
X96520000Y-73660000D01*
X95250000Y-92710000D02*
X93980000Y-92710000D01*
X97790000Y-90170000D02*
X95250000Y-92710000D01*
X101600000Y-72390000D02*
X97790000Y-72390000D01*
X104140000Y-74930000D02*
X101600000Y-72390000D01*
X114935000Y-74930000D02*
X104140000Y-74930000D01*
X117475000Y-72390000D02*
X114935000Y-74930000D01*
X96520000Y-81280000D02*
X97790000Y-82550000D01*
X117475000Y-71120000D02*
X117475000Y-72390000D01*
G04 #@! TO.N,/SERCLK*
X92710000Y-90170000D02*
X93980000Y-90170000D01*
X88900000Y-93980000D02*
X92710000Y-90170000D01*
X88900000Y-110490000D02*
X88900000Y-93980000D01*
X92710000Y-114300000D02*
X88900000Y-110490000D01*
X102870000Y-114300000D02*
X92710000Y-114300000D01*
X106680000Y-110490000D02*
X102870000Y-114300000D01*
X114300000Y-110490000D02*
X106680000Y-110490000D01*
X115570000Y-111760000D02*
X114300000Y-110490000D01*
X115570000Y-113030000D02*
X115570000Y-111760000D01*
X95250000Y-90170000D02*
X93980000Y-90170000D01*
X96520000Y-88900000D02*
X95250000Y-90170000D01*
X96520000Y-83185000D02*
X96520000Y-88900000D01*
X95250000Y-81915000D02*
X96520000Y-83185000D01*
X95250000Y-73025000D02*
X95250000Y-81915000D01*
X97155000Y-71120000D02*
X95250000Y-73025000D01*
X102235000Y-71120000D02*
X97155000Y-71120000D01*
X113665000Y-73660000D02*
X104775000Y-73660000D01*
X114935000Y-72390000D02*
X113665000Y-73660000D01*
X104775000Y-73660000D02*
X102235000Y-71120000D01*
X114935000Y-71120000D02*
X114935000Y-72390000D01*
G04 #@! TO.N,/AD1*
X140970000Y-113665000D02*
X140970000Y-113030000D01*
X134620000Y-120650000D02*
X134620000Y-120015000D01*
X134620000Y-120015000D02*
X140970000Y-113665000D01*
G04 #@! TO.N,/AD0*
X132080000Y-120650000D02*
X132080000Y-120015000D01*
X132080000Y-120015000D02*
X138430000Y-113665000D01*
X138430000Y-113665000D02*
X138430000Y-113030000D01*
G04 #@! TD*
D23*
G04 #@! TO.N,GND*
X146635001Y-122505000D02*
X87045000Y-122505000D01*
X87045000Y-93980000D01*
X88010719Y-93980000D01*
X88015001Y-94023479D01*
X88015000Y-110446531D01*
X88010719Y-110490000D01*
X88015000Y-110533469D01*
X88015000Y-110533476D01*
X88027805Y-110663489D01*
X88078411Y-110830312D01*
X88160589Y-110984058D01*
X88271183Y-111118817D01*
X88304956Y-111146534D01*
X92053470Y-114895049D01*
X92081183Y-114928817D01*
X92114951Y-114956530D01*
X92114953Y-114956532D01*
X92215941Y-115039411D01*
X92369686Y-115121589D01*
X92536510Y-115172195D01*
X92666523Y-115185000D01*
X92666531Y-115185000D01*
X92710000Y-115189281D01*
X92753469Y-115185000D01*
X102826531Y-115185000D01*
X102870000Y-115189281D01*
X102913469Y-115185000D01*
X102913477Y-115185000D01*
X103043490Y-115172195D01*
X103210313Y-115121589D01*
X103364059Y-115039411D01*
X103498817Y-114928817D01*
X103526534Y-114895044D01*
X107046579Y-111375000D01*
X109793796Y-111375000D01*
X109688900Y-111431068D01*
X109470393Y-111610392D01*
X109291068Y-111828899D01*
X109157818Y-112078192D01*
X109075764Y-112348691D01*
X109055000Y-112559508D01*
X109055000Y-113500491D01*
X109075764Y-113711308D01*
X109157818Y-113981807D01*
X109291068Y-114231100D01*
X109470392Y-114449607D01*
X109688899Y-114628932D01*
X109938192Y-114762182D01*
X110208691Y-114844236D01*
X110490000Y-114871943D01*
X110771308Y-114844236D01*
X111041807Y-114762182D01*
X111291100Y-114628932D01*
X111509607Y-114449608D01*
X111688932Y-114231101D01*
X111760000Y-114098142D01*
X111831068Y-114231100D01*
X111889768Y-114302626D01*
X111895000Y-114355751D01*
X111911423Y-114522498D01*
X111976324Y-114736446D01*
X112081716Y-114933623D01*
X112223551Y-115106449D01*
X112266865Y-115141996D01*
X113458008Y-116333140D01*
X113493551Y-116376449D01*
X113666377Y-116518284D01*
X113863553Y-116623676D01*
X114027705Y-116673471D01*
X114077500Y-116688577D01*
X114098493Y-116690644D01*
X114244248Y-116705000D01*
X114244255Y-116705000D01*
X114299999Y-116710490D01*
X114355743Y-116705000D01*
X116369869Y-116705000D01*
X118245001Y-118580133D01*
X118245000Y-119684893D01*
X118226525Y-119703368D01*
X118110000Y-119877760D01*
X117993475Y-119703368D01*
X117786632Y-119496525D01*
X117543411Y-119334010D01*
X117273158Y-119222068D01*
X116986260Y-119165000D01*
X116693740Y-119165000D01*
X116406842Y-119222068D01*
X116136589Y-119334010D01*
X115893368Y-119496525D01*
X115686525Y-119703368D01*
X115570000Y-119877760D01*
X115453475Y-119703368D01*
X115246632Y-119496525D01*
X115003411Y-119334010D01*
X114733158Y-119222068D01*
X114446260Y-119165000D01*
X114153740Y-119165000D01*
X113866842Y-119222068D01*
X113596589Y-119334010D01*
X113353368Y-119496525D01*
X113146525Y-119703368D01*
X112984010Y-119946589D01*
X112872068Y-120216842D01*
X112815000Y-120503740D01*
X112815000Y-120796260D01*
X112872068Y-121083158D01*
X112984010Y-121353411D01*
X113146525Y-121596632D01*
X113353368Y-121803475D01*
X113596589Y-121965990D01*
X113866842Y-122077932D01*
X114153740Y-122135000D01*
X114446260Y-122135000D01*
X114733158Y-122077932D01*
X115003411Y-121965990D01*
X115246632Y-121803475D01*
X115453475Y-121596632D01*
X115570000Y-121422240D01*
X115686525Y-121596632D01*
X115893368Y-121803475D01*
X116136589Y-121965990D01*
X116406842Y-122077932D01*
X116693740Y-122135000D01*
X116986260Y-122135000D01*
X117273158Y-122077932D01*
X117543411Y-121965990D01*
X117786632Y-121803475D01*
X117993475Y-121596632D01*
X118110000Y-121422240D01*
X118226525Y-121596632D01*
X118433368Y-121803475D01*
X118676589Y-121965990D01*
X118946842Y-122077932D01*
X119233740Y-122135000D01*
X119526260Y-122135000D01*
X119813158Y-122077932D01*
X120083411Y-121965990D01*
X120326632Y-121803475D01*
X120533475Y-121596632D01*
X120655195Y-121414466D01*
X120724822Y-121531355D01*
X120919731Y-121747588D01*
X121153080Y-121921641D01*
X121415901Y-122046825D01*
X121563110Y-122091476D01*
X121793000Y-121970155D01*
X121793000Y-120777000D01*
X122047000Y-120777000D01*
X122047000Y-121970155D01*
X122276890Y-122091476D01*
X122424099Y-122046825D01*
X122686920Y-121921641D01*
X122920269Y-121747588D01*
X123115178Y-121531355D01*
X123190000Y-121405745D01*
X123264822Y-121531355D01*
X123459731Y-121747588D01*
X123693080Y-121921641D01*
X123955901Y-122046825D01*
X124103110Y-122091476D01*
X124333000Y-121970155D01*
X124333000Y-120777000D01*
X122047000Y-120777000D01*
X121793000Y-120777000D01*
X121773000Y-120777000D01*
X121773000Y-120523000D01*
X121793000Y-120523000D01*
X121793000Y-119329845D01*
X122047000Y-119329845D01*
X122047000Y-120523000D01*
X124333000Y-120523000D01*
X124333000Y-119329845D01*
X124587000Y-119329845D01*
X124587000Y-120523000D01*
X124607000Y-120523000D01*
X124607000Y-120777000D01*
X124587000Y-120777000D01*
X124587000Y-121970155D01*
X124816890Y-122091476D01*
X124964099Y-122046825D01*
X125226920Y-121921641D01*
X125460269Y-121747588D01*
X125536034Y-121663534D01*
X125560498Y-121744180D01*
X125619463Y-121854494D01*
X125698815Y-121951185D01*
X125795506Y-122030537D01*
X125905820Y-122089502D01*
X126025518Y-122125812D01*
X126150000Y-122138072D01*
X127850000Y-122138072D01*
X127974482Y-122125812D01*
X128094180Y-122089502D01*
X128204494Y-122030537D01*
X128301185Y-121951185D01*
X128380537Y-121854494D01*
X128439502Y-121744180D01*
X128475812Y-121624482D01*
X128488072Y-121500000D01*
X128488072Y-119800000D01*
X130591928Y-119800000D01*
X130591928Y-121500000D01*
X130604188Y-121624482D01*
X130640498Y-121744180D01*
X130699463Y-121854494D01*
X130778815Y-121951185D01*
X130875506Y-122030537D01*
X130985820Y-122089502D01*
X131105518Y-122125812D01*
X131230000Y-122138072D01*
X132930000Y-122138072D01*
X133054482Y-122125812D01*
X133174180Y-122089502D01*
X133284494Y-122030537D01*
X133381185Y-121951185D01*
X133460537Y-121854494D01*
X133519502Y-121744180D01*
X133541513Y-121671620D01*
X133673368Y-121803475D01*
X133916589Y-121965990D01*
X134186842Y-122077932D01*
X134473740Y-122135000D01*
X134766260Y-122135000D01*
X135053158Y-122077932D01*
X135323411Y-121965990D01*
X135566632Y-121803475D01*
X135773475Y-121596632D01*
X135890000Y-121422240D01*
X136006525Y-121596632D01*
X136213368Y-121803475D01*
X136456589Y-121965990D01*
X136726842Y-122077932D01*
X137013740Y-122135000D01*
X137306260Y-122135000D01*
X137593158Y-122077932D01*
X137863411Y-121965990D01*
X138106632Y-121803475D01*
X138313475Y-121596632D01*
X138430000Y-121422240D01*
X138546525Y-121596632D01*
X138753368Y-121803475D01*
X138996589Y-121965990D01*
X139266842Y-122077932D01*
X139553740Y-122135000D01*
X139846260Y-122135000D01*
X140133158Y-122077932D01*
X140403411Y-121965990D01*
X140646632Y-121803475D01*
X140853475Y-121596632D01*
X140970000Y-121422240D01*
X141086525Y-121596632D01*
X141293368Y-121803475D01*
X141536589Y-121965990D01*
X141806842Y-122077932D01*
X142093740Y-122135000D01*
X142386260Y-122135000D01*
X142673158Y-122077932D01*
X142943411Y-121965990D01*
X143186632Y-121803475D01*
X143393475Y-121596632D01*
X143510000Y-121422240D01*
X143626525Y-121596632D01*
X143833368Y-121803475D01*
X144076589Y-121965990D01*
X144346842Y-122077932D01*
X144633740Y-122135000D01*
X144926260Y-122135000D01*
X145213158Y-122077932D01*
X145483411Y-121965990D01*
X145726632Y-121803475D01*
X145933475Y-121596632D01*
X146095990Y-121353411D01*
X146207932Y-121083158D01*
X146265000Y-120796260D01*
X146265000Y-120503740D01*
X146207932Y-120216842D01*
X146095990Y-119946589D01*
X145933475Y-119703368D01*
X145726632Y-119496525D01*
X145483411Y-119334010D01*
X145213158Y-119222068D01*
X144926260Y-119165000D01*
X144633740Y-119165000D01*
X144346842Y-119222068D01*
X144076589Y-119334010D01*
X143833368Y-119496525D01*
X143626525Y-119703368D01*
X143510000Y-119877760D01*
X143393475Y-119703368D01*
X143186632Y-119496525D01*
X142943411Y-119334010D01*
X142673158Y-119222068D01*
X142386260Y-119165000D01*
X142093740Y-119165000D01*
X141806842Y-119222068D01*
X141536589Y-119334010D01*
X141293368Y-119496525D01*
X141086525Y-119703368D01*
X140970000Y-119877760D01*
X140853475Y-119703368D01*
X140646632Y-119496525D01*
X140403411Y-119334010D01*
X140133158Y-119222068D01*
X139846260Y-119165000D01*
X139553740Y-119165000D01*
X139266842Y-119222068D01*
X138996589Y-119334010D01*
X138753368Y-119496525D01*
X138546525Y-119703368D01*
X138430000Y-119877760D01*
X138313475Y-119703368D01*
X138106632Y-119496525D01*
X137863411Y-119334010D01*
X137593158Y-119222068D01*
X137306260Y-119165000D01*
X137013740Y-119165000D01*
X136726842Y-119222068D01*
X136620435Y-119266143D01*
X141565051Y-114321528D01*
X141598817Y-114293817D01*
X141709411Y-114159059D01*
X141723984Y-114131794D01*
X141821013Y-114066962D01*
X142006962Y-113881013D01*
X142153061Y-113662359D01*
X142253696Y-113419405D01*
X142305000Y-113161486D01*
X142305000Y-112898514D01*
X142253696Y-112640595D01*
X142153061Y-112397641D01*
X142006962Y-112178987D01*
X141821013Y-111993038D01*
X141602359Y-111846939D01*
X141359405Y-111746304D01*
X141101486Y-111695000D01*
X140838514Y-111695000D01*
X140580595Y-111746304D01*
X140337641Y-111846939D01*
X140118987Y-111993038D01*
X139933038Y-112178987D01*
X139786939Y-112397641D01*
X139700000Y-112607530D01*
X139613061Y-112397641D01*
X139466962Y-112178987D01*
X139281013Y-111993038D01*
X139062359Y-111846939D01*
X138819405Y-111746304D01*
X138561486Y-111695000D01*
X138298514Y-111695000D01*
X138040595Y-111746304D01*
X137797641Y-111846939D01*
X137578987Y-111993038D01*
X137393038Y-112178987D01*
X137246939Y-112397641D01*
X137146304Y-112640595D01*
X137095000Y-112898514D01*
X137095000Y-113161486D01*
X137146304Y-113419405D01*
X137227644Y-113615777D01*
X131681494Y-119161928D01*
X131230000Y-119161928D01*
X131105518Y-119174188D01*
X130985820Y-119210498D01*
X130875506Y-119269463D01*
X130778815Y-119348815D01*
X130699463Y-119445506D01*
X130640498Y-119555820D01*
X130604188Y-119675518D01*
X130591928Y-119800000D01*
X128488072Y-119800000D01*
X128475812Y-119675518D01*
X128439502Y-119555820D01*
X128380537Y-119445506D01*
X128301185Y-119348815D01*
X128204494Y-119269463D01*
X128094180Y-119210498D01*
X127974482Y-119174188D01*
X127850000Y-119161928D01*
X126150000Y-119161928D01*
X126025518Y-119174188D01*
X125905820Y-119210498D01*
X125795506Y-119269463D01*
X125698815Y-119348815D01*
X125619463Y-119445506D01*
X125560498Y-119555820D01*
X125536034Y-119636466D01*
X125460269Y-119552412D01*
X125226920Y-119378359D01*
X124964099Y-119253175D01*
X124816890Y-119208524D01*
X124587000Y-119329845D01*
X124333000Y-119329845D01*
X124103110Y-119208524D01*
X123955901Y-119253175D01*
X123693080Y-119378359D01*
X123459731Y-119552412D01*
X123264822Y-119768645D01*
X123190000Y-119894255D01*
X123115178Y-119768645D01*
X122920269Y-119552412D01*
X122686920Y-119378359D01*
X122424099Y-119253175D01*
X122276890Y-119208524D01*
X122047000Y-119329845D01*
X121793000Y-119329845D01*
X121563110Y-119208524D01*
X121415901Y-119253175D01*
X121153080Y-119378359D01*
X120919731Y-119552412D01*
X120724822Y-119768645D01*
X120655195Y-119885534D01*
X120533475Y-119703368D01*
X120515000Y-119684893D01*
X120515000Y-118165741D01*
X120520490Y-118109999D01*
X120515000Y-118054257D01*
X120515000Y-118054248D01*
X120498577Y-117887501D01*
X120433676Y-117673553D01*
X120328284Y-117476377D01*
X120186449Y-117303551D01*
X120143141Y-117268009D01*
X117681996Y-114806865D01*
X117674207Y-114797374D01*
X117828691Y-114844236D01*
X118110000Y-114871943D01*
X118391308Y-114844236D01*
X118661807Y-114762182D01*
X118911100Y-114628932D01*
X119129607Y-114449608D01*
X119308932Y-114231101D01*
X119380000Y-114098142D01*
X119451068Y-114231100D01*
X119630392Y-114449607D01*
X119848899Y-114628932D01*
X120098192Y-114762182D01*
X120368691Y-114844236D01*
X120650000Y-114871943D01*
X120931308Y-114844236D01*
X121201807Y-114762182D01*
X121451100Y-114628932D01*
X121669607Y-114449608D01*
X121848932Y-114231101D01*
X121920000Y-114098142D01*
X121991068Y-114231100D01*
X122170392Y-114449607D01*
X122388899Y-114628932D01*
X122638192Y-114762182D01*
X122908691Y-114844236D01*
X123190000Y-114871943D01*
X123471308Y-114844236D01*
X123741807Y-114762182D01*
X123991100Y-114628932D01*
X124209607Y-114449608D01*
X124388932Y-114231101D01*
X124460000Y-114098142D01*
X124531068Y-114231100D01*
X124710392Y-114449607D01*
X124928899Y-114628932D01*
X125178192Y-114762182D01*
X125448691Y-114844236D01*
X125730000Y-114871943D01*
X126011308Y-114844236D01*
X126281807Y-114762182D01*
X126531100Y-114628932D01*
X126749607Y-114449608D01*
X126928932Y-114231101D01*
X127000000Y-114098142D01*
X127071068Y-114231100D01*
X127250392Y-114449607D01*
X127468899Y-114628932D01*
X127718192Y-114762182D01*
X127988691Y-114844236D01*
X128270000Y-114871943D01*
X128551308Y-114844236D01*
X128821807Y-114762182D01*
X129071100Y-114628932D01*
X129289607Y-114449608D01*
X129468932Y-114231101D01*
X129504264Y-114165000D01*
X132024249Y-114165000D01*
X132080000Y-114170491D01*
X132135751Y-114165000D01*
X132135752Y-114165000D01*
X132302499Y-114148577D01*
X132516447Y-114083676D01*
X132713623Y-113978284D01*
X132886449Y-113836449D01*
X132921996Y-113793135D01*
X133527282Y-113187850D01*
X133768574Y-113139853D01*
X134029727Y-113031680D01*
X134264759Y-112874637D01*
X134464637Y-112674759D01*
X134621680Y-112439727D01*
X134729853Y-112178574D01*
X134785000Y-111901335D01*
X134785000Y-111618665D01*
X134729853Y-111341426D01*
X134621680Y-111080273D01*
X134464637Y-110845241D01*
X134264759Y-110645363D01*
X134029727Y-110488320D01*
X133768574Y-110380147D01*
X133491335Y-110325000D01*
X133208665Y-110325000D01*
X132931426Y-110380147D01*
X132670273Y-110488320D01*
X132435241Y-110645363D01*
X132235363Y-110845241D01*
X132078320Y-111080273D01*
X131970147Y-111341426D01*
X131922150Y-111582718D01*
X131609869Y-111895000D01*
X129504264Y-111895000D01*
X129468932Y-111828899D01*
X129289608Y-111610392D01*
X129071101Y-111431068D01*
X128821808Y-111297818D01*
X128551309Y-111215764D01*
X128270000Y-111188057D01*
X127988692Y-111215764D01*
X127718193Y-111297818D01*
X127468900Y-111431068D01*
X127250393Y-111610392D01*
X127071068Y-111828899D01*
X127000000Y-111961858D01*
X126928932Y-111828899D01*
X126921606Y-111819972D01*
X130988876Y-107752702D01*
X132536903Y-107752702D01*
X132608486Y-107996671D01*
X132863996Y-108117571D01*
X133138184Y-108186300D01*
X133420512Y-108200217D01*
X133700130Y-108158787D01*
X133966292Y-108063603D01*
X134091514Y-107996671D01*
X134163097Y-107752702D01*
X133350000Y-106939605D01*
X132536903Y-107752702D01*
X130988876Y-107752702D01*
X131405049Y-107336530D01*
X131438817Y-107308817D01*
X131508232Y-107224236D01*
X131549411Y-107174059D01*
X131567329Y-107140537D01*
X131631589Y-107020313D01*
X131682195Y-106853490D01*
X131684458Y-106830512D01*
X131909783Y-106830512D01*
X131951213Y-107110130D01*
X132046397Y-107376292D01*
X132113329Y-107501514D01*
X132357298Y-107573097D01*
X133170395Y-106760000D01*
X133529605Y-106760000D01*
X134342702Y-107573097D01*
X134586671Y-107501514D01*
X134707571Y-107246004D01*
X134776300Y-106971816D01*
X134790217Y-106689488D01*
X134748787Y-106409870D01*
X134653603Y-106143708D01*
X134586671Y-106018486D01*
X134342702Y-105946903D01*
X133529605Y-106760000D01*
X133170395Y-106760000D01*
X132357298Y-105946903D01*
X132113329Y-106018486D01*
X131992429Y-106273996D01*
X131923700Y-106548184D01*
X131909783Y-106830512D01*
X131684458Y-106830512D01*
X131695000Y-106723477D01*
X131695000Y-106723469D01*
X131699281Y-106680000D01*
X131695000Y-106636531D01*
X131695000Y-105767298D01*
X132536903Y-105767298D01*
X133350000Y-106580395D01*
X134163097Y-105767298D01*
X134091514Y-105523329D01*
X133836004Y-105402429D01*
X133561816Y-105333700D01*
X133279488Y-105319783D01*
X132999870Y-105361213D01*
X132733708Y-105456397D01*
X132608486Y-105523329D01*
X132536903Y-105767298D01*
X131695000Y-105767298D01*
X131695000Y-105278514D01*
X137095000Y-105278514D01*
X137095000Y-105541486D01*
X137146304Y-105799405D01*
X137246939Y-106042359D01*
X137393038Y-106261013D01*
X137578987Y-106446962D01*
X137797641Y-106593061D01*
X138040595Y-106693696D01*
X138298514Y-106745000D01*
X138561486Y-106745000D01*
X138819405Y-106693696D01*
X139062359Y-106593061D01*
X139281013Y-106446962D01*
X139466962Y-106261013D01*
X139613061Y-106042359D01*
X139700000Y-105832470D01*
X139786939Y-106042359D01*
X139933038Y-106261013D01*
X140118987Y-106446962D01*
X140337641Y-106593061D01*
X140580595Y-106693696D01*
X140838514Y-106745000D01*
X141101486Y-106745000D01*
X141359405Y-106693696D01*
X141602359Y-106593061D01*
X141821013Y-106446962D01*
X142006962Y-106261013D01*
X142153061Y-106042359D01*
X142253696Y-105799405D01*
X142305000Y-105541486D01*
X142305000Y-105278514D01*
X142253696Y-105020595D01*
X142153061Y-104777641D01*
X142006962Y-104558987D01*
X141821013Y-104373038D01*
X141602359Y-104226939D01*
X141359405Y-104126304D01*
X141101486Y-104075000D01*
X140838514Y-104075000D01*
X140580595Y-104126304D01*
X140337641Y-104226939D01*
X140118987Y-104373038D01*
X139933038Y-104558987D01*
X139786939Y-104777641D01*
X139700000Y-104987530D01*
X139613061Y-104777641D01*
X139466962Y-104558987D01*
X139281013Y-104373038D01*
X139062359Y-104226939D01*
X138819405Y-104126304D01*
X138561486Y-104075000D01*
X138298514Y-104075000D01*
X138040595Y-104126304D01*
X137797641Y-104226939D01*
X137578987Y-104373038D01*
X137393038Y-104558987D01*
X137246939Y-104777641D01*
X137146304Y-105020595D01*
X137095000Y-105278514D01*
X131695000Y-105278514D01*
X131695000Y-101860078D01*
X131829608Y-101749608D01*
X132008932Y-101531101D01*
X132080000Y-101398142D01*
X132151068Y-101531101D01*
X132330393Y-101749608D01*
X132548900Y-101928932D01*
X132798193Y-102062182D01*
X133068692Y-102144236D01*
X133350000Y-102171943D01*
X133631309Y-102144236D01*
X133901808Y-102062182D01*
X134151101Y-101928932D01*
X134369608Y-101749608D01*
X134548932Y-101531101D01*
X134620000Y-101398142D01*
X134691068Y-101531101D01*
X134870393Y-101749608D01*
X135088900Y-101928932D01*
X135338193Y-102062182D01*
X135608692Y-102144236D01*
X135890000Y-102171943D01*
X136171309Y-102144236D01*
X136441808Y-102062182D01*
X136691101Y-101928932D01*
X136909608Y-101749608D01*
X137088932Y-101531101D01*
X137160000Y-101398142D01*
X137231068Y-101531101D01*
X137410393Y-101749608D01*
X137628900Y-101928932D01*
X137878193Y-102062182D01*
X138148692Y-102144236D01*
X138430000Y-102171943D01*
X138711309Y-102144236D01*
X138981808Y-102062182D01*
X139231101Y-101928932D01*
X139449608Y-101749608D01*
X139628932Y-101531101D01*
X139697265Y-101403259D01*
X139847399Y-101632839D01*
X140045105Y-101834500D01*
X140278354Y-101993715D01*
X140538182Y-102104367D01*
X140620961Y-102121904D01*
X140843000Y-101999915D01*
X140843000Y-100457000D01*
X141097000Y-100457000D01*
X141097000Y-101999915D01*
X141319039Y-102121904D01*
X141401818Y-102104367D01*
X141661646Y-101993715D01*
X141894895Y-101834500D01*
X142092601Y-101632839D01*
X142247166Y-101396483D01*
X142352650Y-101134514D01*
X142405000Y-100857000D01*
X142405000Y-100457000D01*
X141097000Y-100457000D01*
X140843000Y-100457000D01*
X140823000Y-100457000D01*
X140823000Y-100203000D01*
X140843000Y-100203000D01*
X140843000Y-98660085D01*
X141097000Y-98660085D01*
X141097000Y-100203000D01*
X142405000Y-100203000D01*
X142405000Y-99803000D01*
X142352650Y-99525486D01*
X142247166Y-99263517D01*
X142092601Y-99027161D01*
X141894895Y-98825500D01*
X141661646Y-98666285D01*
X141401818Y-98555633D01*
X141319039Y-98538096D01*
X141097000Y-98660085D01*
X140843000Y-98660085D01*
X140620961Y-98538096D01*
X140538182Y-98555633D01*
X140278354Y-98666285D01*
X140045105Y-98825500D01*
X139847399Y-99027161D01*
X139697265Y-99256741D01*
X139628932Y-99128899D01*
X139449607Y-98910392D01*
X139315000Y-98799923D01*
X139315000Y-93076578D01*
X144105049Y-88286530D01*
X144138817Y-88258817D01*
X144249411Y-88124059D01*
X144331589Y-87970313D01*
X144382195Y-87803490D01*
X144395000Y-87673477D01*
X144395000Y-87673469D01*
X144399281Y-87630000D01*
X144395000Y-87586531D01*
X144395000Y-82593469D01*
X144399281Y-82550000D01*
X144395000Y-82506531D01*
X144395000Y-82506523D01*
X144382195Y-82376510D01*
X144345430Y-82255313D01*
X144331589Y-82209686D01*
X144249411Y-82055941D01*
X144166532Y-81954953D01*
X144166530Y-81954951D01*
X144138817Y-81921183D01*
X144105050Y-81893471D01*
X140634777Y-78423198D01*
X140736962Y-78321013D01*
X140883061Y-78102359D01*
X140970000Y-77892470D01*
X141056939Y-78102359D01*
X141203038Y-78321013D01*
X141388987Y-78506962D01*
X141607641Y-78653061D01*
X141850595Y-78753696D01*
X142108514Y-78805000D01*
X142371486Y-78805000D01*
X142629405Y-78753696D01*
X142872359Y-78653061D01*
X143091013Y-78506962D01*
X143276962Y-78321013D01*
X143423061Y-78102359D01*
X143510000Y-77892470D01*
X143596939Y-78102359D01*
X143743038Y-78321013D01*
X143928987Y-78506962D01*
X144147641Y-78653061D01*
X144390595Y-78753696D01*
X144648514Y-78805000D01*
X144911486Y-78805000D01*
X145169405Y-78753696D01*
X145412359Y-78653061D01*
X145631013Y-78506962D01*
X145816962Y-78321013D01*
X145963061Y-78102359D01*
X146063696Y-77859405D01*
X146115000Y-77601486D01*
X146115000Y-77338514D01*
X146063696Y-77080595D01*
X145963061Y-76837641D01*
X145816962Y-76618987D01*
X145631013Y-76433038D01*
X145412359Y-76286939D01*
X145202470Y-76200000D01*
X145412359Y-76113061D01*
X145631013Y-75966962D01*
X145816962Y-75781013D01*
X145963061Y-75562359D01*
X146063696Y-75319405D01*
X146115000Y-75061486D01*
X146115000Y-74798514D01*
X146063696Y-74540595D01*
X145963061Y-74297641D01*
X145816962Y-74078987D01*
X145665000Y-73927025D01*
X145665000Y-72604625D01*
X145754482Y-72595812D01*
X145874180Y-72559502D01*
X145984494Y-72500537D01*
X146081185Y-72421185D01*
X146160537Y-72324494D01*
X146219502Y-72214180D01*
X146255812Y-72094482D01*
X146268072Y-71970000D01*
X146268072Y-70270000D01*
X146255812Y-70145518D01*
X146219502Y-70025820D01*
X146160537Y-69915506D01*
X146081185Y-69818815D01*
X145984494Y-69739463D01*
X145874180Y-69680498D01*
X145754482Y-69644188D01*
X145630000Y-69631928D01*
X143930000Y-69631928D01*
X143805518Y-69644188D01*
X143685820Y-69680498D01*
X143575506Y-69739463D01*
X143478815Y-69818815D01*
X143399463Y-69915506D01*
X143340498Y-70025820D01*
X143318487Y-70098380D01*
X143186632Y-69966525D01*
X142943411Y-69804010D01*
X142673158Y-69692068D01*
X142386260Y-69635000D01*
X142093740Y-69635000D01*
X141806842Y-69692068D01*
X141536589Y-69804010D01*
X141293368Y-69966525D01*
X141086525Y-70173368D01*
X140970000Y-70347760D01*
X140853475Y-70173368D01*
X140646632Y-69966525D01*
X140403411Y-69804010D01*
X140133158Y-69692068D01*
X139846260Y-69635000D01*
X139553740Y-69635000D01*
X139266842Y-69692068D01*
X138996589Y-69804010D01*
X138753368Y-69966525D01*
X138546525Y-70173368D01*
X138430000Y-70347760D01*
X138313475Y-70173368D01*
X138106632Y-69966525D01*
X137863411Y-69804010D01*
X137593158Y-69692068D01*
X137306260Y-69635000D01*
X137013740Y-69635000D01*
X136726842Y-69692068D01*
X136456589Y-69804010D01*
X136213368Y-69966525D01*
X136006525Y-70173368D01*
X135890000Y-70347760D01*
X135773475Y-70173368D01*
X135566632Y-69966525D01*
X135323411Y-69804010D01*
X135053158Y-69692068D01*
X134766260Y-69635000D01*
X134473740Y-69635000D01*
X134186842Y-69692068D01*
X133916589Y-69804010D01*
X133673368Y-69966525D01*
X133466525Y-70173368D01*
X133350000Y-70347760D01*
X133233475Y-70173368D01*
X133026632Y-69966525D01*
X132783411Y-69804010D01*
X132513158Y-69692068D01*
X132226260Y-69635000D01*
X131933740Y-69635000D01*
X131646842Y-69692068D01*
X131376589Y-69804010D01*
X131133368Y-69966525D01*
X130926525Y-70173368D01*
X130810000Y-70347760D01*
X130693475Y-70173368D01*
X130486632Y-69966525D01*
X130243411Y-69804010D01*
X129973158Y-69692068D01*
X129686260Y-69635000D01*
X129393740Y-69635000D01*
X129106842Y-69692068D01*
X128836589Y-69804010D01*
X128593368Y-69966525D01*
X128386525Y-70173368D01*
X128270000Y-70347760D01*
X128153475Y-70173368D01*
X127946632Y-69966525D01*
X127703411Y-69804010D01*
X127433158Y-69692068D01*
X127146260Y-69635000D01*
X126853740Y-69635000D01*
X126566842Y-69692068D01*
X126296589Y-69804010D01*
X126053368Y-69966525D01*
X125846525Y-70173368D01*
X125684010Y-70416589D01*
X125572068Y-70686842D01*
X125515000Y-70973740D01*
X125515000Y-71266260D01*
X125572068Y-71553158D01*
X125684010Y-71823411D01*
X125846525Y-72066632D01*
X126053368Y-72273475D01*
X126115000Y-72314656D01*
X126115001Y-73927024D01*
X125963038Y-74078987D01*
X125816939Y-74297641D01*
X125716304Y-74540595D01*
X125665000Y-74798514D01*
X125665000Y-75061486D01*
X125716304Y-75319405D01*
X125816939Y-75562359D01*
X125963038Y-75781013D01*
X126148987Y-75966962D01*
X126367641Y-76113061D01*
X126577530Y-76200000D01*
X126367641Y-76286939D01*
X126148987Y-76433038D01*
X125963038Y-76618987D01*
X125816939Y-76837641D01*
X125716304Y-77080595D01*
X125665000Y-77338514D01*
X125665000Y-77601486D01*
X125716304Y-77859405D01*
X125816939Y-78102359D01*
X125963038Y-78321013D01*
X126115001Y-78472976D01*
X126115001Y-79331521D01*
X126110719Y-79375000D01*
X126127805Y-79548490D01*
X126178412Y-79715313D01*
X126260590Y-79869059D01*
X126343468Y-79970046D01*
X126343471Y-79970049D01*
X126371184Y-80003817D01*
X126404951Y-80031530D01*
X129925000Y-83551579D01*
X129925000Y-83559922D01*
X129790392Y-83670393D01*
X129611068Y-83888900D01*
X129540000Y-84021858D01*
X129468932Y-83888899D01*
X129289607Y-83670392D01*
X129071100Y-83491068D01*
X128821807Y-83357818D01*
X128551308Y-83275764D01*
X128270000Y-83248057D01*
X127988691Y-83275764D01*
X127718192Y-83357818D01*
X127468899Y-83491068D01*
X127250392Y-83670393D01*
X127071068Y-83888900D01*
X127000000Y-84021858D01*
X126928932Y-83888899D01*
X126749607Y-83670392D01*
X126531100Y-83491068D01*
X126281807Y-83357818D01*
X126011308Y-83275764D01*
X125730000Y-83248057D01*
X125448691Y-83275764D01*
X125178192Y-83357818D01*
X124928899Y-83491068D01*
X124710392Y-83670393D01*
X124531068Y-83888900D01*
X124460000Y-84021858D01*
X124388932Y-83888899D01*
X124209607Y-83670392D01*
X123991100Y-83491068D01*
X123741807Y-83357818D01*
X123471308Y-83275764D01*
X123190000Y-83248057D01*
X122908691Y-83275764D01*
X122638192Y-83357818D01*
X122388899Y-83491068D01*
X122170392Y-83670393D01*
X121991068Y-83888900D01*
X121920000Y-84021858D01*
X121848932Y-83888899D01*
X121669607Y-83670392D01*
X121451100Y-83491068D01*
X121201807Y-83357818D01*
X120931308Y-83275764D01*
X120650000Y-83248057D01*
X120368691Y-83275764D01*
X120098192Y-83357818D01*
X119848899Y-83491068D01*
X119630392Y-83670393D01*
X119451068Y-83888900D01*
X119380000Y-84021858D01*
X119308932Y-83888899D01*
X119129607Y-83670392D01*
X118911100Y-83491068D01*
X118661807Y-83357818D01*
X118391308Y-83275764D01*
X118110000Y-83248057D01*
X117828691Y-83275764D01*
X117558192Y-83357818D01*
X117308899Y-83491068D01*
X117090392Y-83670393D01*
X116911068Y-83888900D01*
X116840000Y-84021858D01*
X116768932Y-83888899D01*
X116589607Y-83670392D01*
X116371100Y-83491068D01*
X116121807Y-83357818D01*
X115851308Y-83275764D01*
X115570000Y-83248057D01*
X115288691Y-83275764D01*
X115018192Y-83357818D01*
X114768899Y-83491068D01*
X114550392Y-83670393D01*
X114371068Y-83888900D01*
X114300000Y-84021858D01*
X114228932Y-83888899D01*
X114049607Y-83670392D01*
X113915000Y-83559923D01*
X113915000Y-81204656D01*
X113976632Y-81163475D01*
X114183475Y-80956632D01*
X114300000Y-80782240D01*
X114416525Y-80956632D01*
X114623368Y-81163475D01*
X114866589Y-81325990D01*
X115136842Y-81437932D01*
X115423740Y-81495000D01*
X115716260Y-81495000D01*
X116003158Y-81437932D01*
X116273411Y-81325990D01*
X116516632Y-81163475D01*
X116535107Y-81145000D01*
X119310712Y-81145000D01*
X119382641Y-81193061D01*
X119625595Y-81293696D01*
X119883514Y-81345000D01*
X120146486Y-81345000D01*
X120404405Y-81293696D01*
X120647359Y-81193061D01*
X120866013Y-81046962D01*
X121051962Y-80861013D01*
X121198061Y-80642359D01*
X121298696Y-80399405D01*
X121350000Y-80141486D01*
X121350000Y-79878514D01*
X121298696Y-79620595D01*
X121198061Y-79377641D01*
X121051962Y-79158987D01*
X120866013Y-78973038D01*
X120647359Y-78826939D01*
X120404405Y-78726304D01*
X120146486Y-78675000D01*
X119883514Y-78675000D01*
X119625595Y-78726304D01*
X119382641Y-78826939D01*
X119310712Y-78875000D01*
X116535107Y-78875000D01*
X116516632Y-78856525D01*
X116273411Y-78694010D01*
X116003158Y-78582068D01*
X115716260Y-78525000D01*
X115423740Y-78525000D01*
X115136842Y-78582068D01*
X114866589Y-78694010D01*
X114623368Y-78856525D01*
X114416525Y-79063368D01*
X114300000Y-79237760D01*
X114183475Y-79063368D01*
X113976632Y-78856525D01*
X113733411Y-78694010D01*
X113463158Y-78582068D01*
X113176260Y-78525000D01*
X112883740Y-78525000D01*
X112596842Y-78582068D01*
X112326589Y-78694010D01*
X112083368Y-78856525D01*
X111951513Y-78988380D01*
X111929502Y-78915820D01*
X111870537Y-78805506D01*
X111791185Y-78708815D01*
X111694494Y-78629463D01*
X111584180Y-78570498D01*
X111464482Y-78534188D01*
X111340000Y-78521928D01*
X110775750Y-78525000D01*
X110617000Y-78683750D01*
X110617000Y-79883000D01*
X110637000Y-79883000D01*
X110637000Y-80137000D01*
X110617000Y-80137000D01*
X110617000Y-81336250D01*
X110775750Y-81495000D01*
X111340000Y-81498072D01*
X111464482Y-81485812D01*
X111584180Y-81449502D01*
X111694494Y-81390537D01*
X111791185Y-81311185D01*
X111870537Y-81214494D01*
X111929502Y-81104180D01*
X111951513Y-81031620D01*
X112083368Y-81163475D01*
X112145001Y-81204657D01*
X112145000Y-83559922D01*
X112010392Y-83670393D01*
X111831068Y-83888900D01*
X111760000Y-84021858D01*
X111688932Y-83888899D01*
X111509607Y-83670392D01*
X111291100Y-83491068D01*
X111041807Y-83357818D01*
X110771308Y-83275764D01*
X110490000Y-83248057D01*
X110208691Y-83275764D01*
X109938192Y-83357818D01*
X109688899Y-83491068D01*
X109470392Y-83670393D01*
X109291068Y-83888900D01*
X109220000Y-84021858D01*
X109148932Y-83888899D01*
X109085000Y-83810998D01*
X109085000Y-82605741D01*
X109090490Y-82549999D01*
X109085000Y-82494257D01*
X109085000Y-82494248D01*
X109068577Y-82327501D01*
X109003676Y-82113553D01*
X108898284Y-81916377D01*
X108756449Y-81743551D01*
X108713141Y-81708009D01*
X107865132Y-80860000D01*
X109001928Y-80860000D01*
X109014188Y-80984482D01*
X109050498Y-81104180D01*
X109109463Y-81214494D01*
X109188815Y-81311185D01*
X109285506Y-81390537D01*
X109395820Y-81449502D01*
X109515518Y-81485812D01*
X109640000Y-81498072D01*
X110204250Y-81495000D01*
X110363000Y-81336250D01*
X110363000Y-80137000D01*
X109163750Y-80137000D01*
X109005000Y-80295750D01*
X109001928Y-80860000D01*
X107865132Y-80860000D01*
X106251996Y-79246865D01*
X106216449Y-79203551D01*
X106212084Y-79199969D01*
X106208148Y-79160000D01*
X109001928Y-79160000D01*
X109005000Y-79724250D01*
X109163750Y-79883000D01*
X110363000Y-79883000D01*
X110363000Y-78683750D01*
X110204250Y-78525000D01*
X109640000Y-78521928D01*
X109515518Y-78534188D01*
X109395820Y-78570498D01*
X109285506Y-78629463D01*
X109188815Y-78708815D01*
X109109463Y-78805506D01*
X109050498Y-78915820D01*
X109014188Y-79035518D01*
X109001928Y-79160000D01*
X106208148Y-79160000D01*
X106200812Y-79085518D01*
X106164502Y-78965820D01*
X106105537Y-78855506D01*
X106026185Y-78758815D01*
X105929494Y-78679463D01*
X105819180Y-78620498D01*
X105699482Y-78584188D01*
X105575000Y-78571928D01*
X105567785Y-78571928D01*
X105588097Y-78502702D01*
X104775000Y-77689605D01*
X103961903Y-78502702D01*
X103982215Y-78571928D01*
X103975000Y-78571928D01*
X103850518Y-78584188D01*
X103730820Y-78620498D01*
X103620506Y-78679463D01*
X103523815Y-78758815D01*
X103444463Y-78855506D01*
X103434043Y-78875000D01*
X99944284Y-78875000D01*
X99739727Y-78738320D01*
X99478574Y-78630147D01*
X99201335Y-78575000D01*
X98918665Y-78575000D01*
X98641426Y-78630147D01*
X98380273Y-78738320D01*
X98145241Y-78895363D01*
X97945363Y-79095241D01*
X97788320Y-79330273D01*
X97680147Y-79591426D01*
X97625000Y-79868665D01*
X97625000Y-80151335D01*
X97680147Y-80428574D01*
X97788320Y-80689727D01*
X97945363Y-80924759D01*
X98145241Y-81124637D01*
X98380273Y-81281680D01*
X98641426Y-81389853D01*
X98918665Y-81445000D01*
X99201335Y-81445000D01*
X99478574Y-81389853D01*
X99739727Y-81281680D01*
X99944284Y-81145000D01*
X103434043Y-81145000D01*
X103444463Y-81164494D01*
X103523815Y-81261185D01*
X103620506Y-81340537D01*
X103730820Y-81399502D01*
X103850518Y-81435812D01*
X103975000Y-81448072D01*
X105242941Y-81448072D01*
X106815000Y-83020132D01*
X106815000Y-83810998D01*
X106751068Y-83888900D01*
X106617818Y-84138193D01*
X106535764Y-84408692D01*
X106515000Y-84619509D01*
X106515000Y-85560492D01*
X106535764Y-85771309D01*
X106617818Y-86041808D01*
X106751068Y-86291101D01*
X106930393Y-86509608D01*
X107148900Y-86688932D01*
X107398193Y-86822182D01*
X107516680Y-86858124D01*
X107455941Y-86890589D01*
X107354953Y-86973468D01*
X107354951Y-86973470D01*
X107321183Y-87001183D01*
X107293470Y-87034951D01*
X102810028Y-91518394D01*
X102801101Y-91511068D01*
X102668142Y-91440000D01*
X102801101Y-91368932D01*
X103019608Y-91189608D01*
X103198932Y-90971101D01*
X103332182Y-90721808D01*
X103414236Y-90451309D01*
X103441943Y-90170000D01*
X103414236Y-89888691D01*
X103332182Y-89618192D01*
X103198932Y-89368899D01*
X103019608Y-89150392D01*
X102801101Y-88971068D01*
X102668142Y-88900000D01*
X102801101Y-88828932D01*
X103019608Y-88649608D01*
X103198932Y-88431101D01*
X103332182Y-88181808D01*
X103414236Y-87911309D01*
X103441943Y-87630000D01*
X103414236Y-87348691D01*
X103332182Y-87078192D01*
X103198932Y-86828899D01*
X103019608Y-86610392D01*
X102801101Y-86431068D01*
X102673259Y-86362735D01*
X102902839Y-86212601D01*
X103104500Y-86014895D01*
X103263715Y-85781646D01*
X103374367Y-85521818D01*
X103391904Y-85439039D01*
X103269915Y-85217000D01*
X101727000Y-85217000D01*
X101727000Y-85237000D01*
X101473000Y-85237000D01*
X101473000Y-85217000D01*
X99930085Y-85217000D01*
X99808096Y-85439039D01*
X99825633Y-85521818D01*
X99936285Y-85781646D01*
X100095500Y-86014895D01*
X100297161Y-86212601D01*
X100526741Y-86362735D01*
X100398899Y-86431068D01*
X100180392Y-86610392D01*
X100001068Y-86828899D01*
X99867818Y-87078192D01*
X99785764Y-87348691D01*
X99758057Y-87630000D01*
X99785764Y-87911309D01*
X99867818Y-88181808D01*
X100001068Y-88431101D01*
X100180392Y-88649608D01*
X100398899Y-88828932D01*
X100531858Y-88900000D01*
X100398899Y-88971068D01*
X100180392Y-89150392D01*
X100001068Y-89368899D01*
X99867818Y-89618192D01*
X99785764Y-89888691D01*
X99758057Y-90170000D01*
X99785764Y-90451309D01*
X99867818Y-90721808D01*
X100001068Y-90971101D01*
X100180392Y-91189608D01*
X100398899Y-91368932D01*
X100531858Y-91440000D01*
X100398899Y-91511068D01*
X100180392Y-91690392D01*
X100001068Y-91908899D01*
X99867818Y-92158192D01*
X99785764Y-92428691D01*
X99758057Y-92710000D01*
X99785764Y-92991309D01*
X99867818Y-93261808D01*
X100001068Y-93511101D01*
X100180392Y-93729608D01*
X100398899Y-93908932D01*
X100531858Y-93980000D01*
X100398899Y-94051068D01*
X100180392Y-94230392D01*
X100027228Y-94417023D01*
X99989687Y-94428411D01*
X99835941Y-94510589D01*
X99835939Y-94510590D01*
X99835940Y-94510590D01*
X99734953Y-94593468D01*
X99734951Y-94593470D01*
X99701183Y-94621183D01*
X99673470Y-94654951D01*
X98464951Y-95863471D01*
X98431184Y-95891183D01*
X98403471Y-95924951D01*
X98403468Y-95924954D01*
X98320590Y-96025941D01*
X98238412Y-96179687D01*
X98187805Y-96346510D01*
X98170719Y-96520000D01*
X98175001Y-96563479D01*
X98175000Y-104096531D01*
X98170719Y-104140000D01*
X98175000Y-104183469D01*
X98175000Y-104183476D01*
X98187805Y-104313489D01*
X98238411Y-104480312D01*
X98320589Y-104634058D01*
X98431183Y-104768817D01*
X98464956Y-104796534D01*
X99673470Y-106005049D01*
X99701183Y-106038817D01*
X99734951Y-106066530D01*
X99734953Y-106066532D01*
X99765143Y-106091308D01*
X99835941Y-106149411D01*
X99989687Y-106231589D01*
X100156510Y-106282195D01*
X100286523Y-106295000D01*
X100286533Y-106295000D01*
X100329999Y-106299281D01*
X100373465Y-106295000D01*
X106636531Y-106295000D01*
X106680000Y-106299281D01*
X106723469Y-106295000D01*
X106723477Y-106295000D01*
X106853490Y-106282195D01*
X107020313Y-106231589D01*
X107174059Y-106149411D01*
X107308817Y-106038817D01*
X107336534Y-106005044D01*
X108458578Y-104883000D01*
X109055000Y-104883000D01*
X109055000Y-105283000D01*
X110363000Y-105283000D01*
X110363000Y-103740085D01*
X110140961Y-103618096D01*
X110058182Y-103635633D01*
X109798354Y-103746285D01*
X109565105Y-103905500D01*
X109367399Y-104107161D01*
X109212834Y-104343517D01*
X109107350Y-104605486D01*
X109055000Y-104883000D01*
X108458578Y-104883000D01*
X111085049Y-102256530D01*
X111118817Y-102228817D01*
X111188232Y-102144236D01*
X111229411Y-102094059D01*
X111311589Y-101940314D01*
X111322977Y-101902772D01*
X111509608Y-101749608D01*
X111688932Y-101531101D01*
X111760000Y-101398142D01*
X111831068Y-101531101D01*
X112010393Y-101749608D01*
X112145001Y-101860078D01*
X112145000Y-103879923D01*
X112010393Y-103990392D01*
X111831068Y-104208899D01*
X111762735Y-104336741D01*
X111612601Y-104107161D01*
X111414895Y-103905500D01*
X111181646Y-103746285D01*
X110921818Y-103635633D01*
X110839039Y-103618096D01*
X110617000Y-103740085D01*
X110617000Y-105283000D01*
X110637000Y-105283000D01*
X110637000Y-105537000D01*
X110617000Y-105537000D01*
X110617000Y-105557000D01*
X110363000Y-105557000D01*
X110363000Y-105537000D01*
X109055000Y-105537000D01*
X109055000Y-105937000D01*
X109107350Y-106214514D01*
X109212834Y-106476483D01*
X109367399Y-106712839D01*
X109565105Y-106914500D01*
X109785587Y-107065000D01*
X106723469Y-107065000D01*
X106680000Y-107060719D01*
X106636531Y-107065000D01*
X106636523Y-107065000D01*
X106506510Y-107077805D01*
X106339686Y-107128411D01*
X106185941Y-107210589D01*
X106084953Y-107293468D01*
X106084951Y-107293470D01*
X106051183Y-107321183D01*
X106023470Y-107354951D01*
X102503422Y-110875000D01*
X93076579Y-110875000D01*
X92325000Y-110123422D01*
X92325000Y-103566205D01*
X92381068Y-103671101D01*
X92560392Y-103889608D01*
X92778899Y-104068932D01*
X92845001Y-104104264D01*
X92845000Y-108254893D01*
X92826525Y-108273368D01*
X92664010Y-108516589D01*
X92552068Y-108786842D01*
X92495000Y-109073740D01*
X92495000Y-109366260D01*
X92552068Y-109653158D01*
X92664010Y-109923411D01*
X92826525Y-110166632D01*
X93033368Y-110373475D01*
X93276589Y-110535990D01*
X93546842Y-110647932D01*
X93833740Y-110705000D01*
X94126260Y-110705000D01*
X94413158Y-110647932D01*
X94683411Y-110535990D01*
X94926632Y-110373475D01*
X95133475Y-110166632D01*
X95250000Y-109992240D01*
X95366525Y-110166632D01*
X95573368Y-110373475D01*
X95816589Y-110535990D01*
X96086842Y-110647932D01*
X96373740Y-110705000D01*
X96666260Y-110705000D01*
X96953158Y-110647932D01*
X97223411Y-110535990D01*
X97466632Y-110373475D01*
X97598487Y-110241620D01*
X97620498Y-110314180D01*
X97679463Y-110424494D01*
X97758815Y-110521185D01*
X97855506Y-110600537D01*
X97965820Y-110659502D01*
X98085518Y-110695812D01*
X98210000Y-110708072D01*
X98774250Y-110705000D01*
X98933000Y-110546250D01*
X98933000Y-109347000D01*
X99187000Y-109347000D01*
X99187000Y-110546250D01*
X99345750Y-110705000D01*
X99910000Y-110708072D01*
X100034482Y-110695812D01*
X100154180Y-110659502D01*
X100264494Y-110600537D01*
X100361185Y-110521185D01*
X100440537Y-110424494D01*
X100499502Y-110314180D01*
X100535812Y-110194482D01*
X100548072Y-110070000D01*
X100545000Y-109505750D01*
X100386250Y-109347000D01*
X99187000Y-109347000D01*
X98933000Y-109347000D01*
X98913000Y-109347000D01*
X98913000Y-109093000D01*
X98933000Y-109093000D01*
X98933000Y-107893750D01*
X99187000Y-107893750D01*
X99187000Y-109093000D01*
X100386250Y-109093000D01*
X100545000Y-108934250D01*
X100548072Y-108370000D01*
X100535812Y-108245518D01*
X100499502Y-108125820D01*
X100440537Y-108015506D01*
X100361185Y-107918815D01*
X100264494Y-107839463D01*
X100154180Y-107780498D01*
X100034482Y-107744188D01*
X99910000Y-107731928D01*
X99345750Y-107735000D01*
X99187000Y-107893750D01*
X98933000Y-107893750D01*
X98774250Y-107735000D01*
X98210000Y-107731928D01*
X98085518Y-107744188D01*
X97965820Y-107780498D01*
X97855506Y-107839463D01*
X97758815Y-107918815D01*
X97679463Y-108015506D01*
X97620498Y-108125820D01*
X97598487Y-108198380D01*
X97466632Y-108066525D01*
X97223411Y-107904010D01*
X96953158Y-107792068D01*
X96666260Y-107735000D01*
X96373740Y-107735000D01*
X96086842Y-107792068D01*
X95816589Y-107904010D01*
X95573368Y-108066525D01*
X95366525Y-108273368D01*
X95250000Y-108447760D01*
X95133475Y-108273368D01*
X95115000Y-108254893D01*
X95115000Y-104104264D01*
X95181101Y-104068932D01*
X95399608Y-103889608D01*
X95578932Y-103671101D01*
X95712182Y-103421808D01*
X95794236Y-103151309D01*
X95821943Y-102870000D01*
X95794236Y-102588691D01*
X95712182Y-102318192D01*
X95578932Y-102068899D01*
X95399608Y-101850392D01*
X95181101Y-101671068D01*
X95048142Y-101600000D01*
X95181101Y-101528932D01*
X95399608Y-101349608D01*
X95578932Y-101131101D01*
X95712182Y-100881808D01*
X95794236Y-100611309D01*
X95821943Y-100330000D01*
X95794236Y-100048691D01*
X95712182Y-99778192D01*
X95578932Y-99528899D01*
X95399608Y-99310392D01*
X95181101Y-99131068D01*
X95048142Y-99060000D01*
X95181101Y-98988932D01*
X95399608Y-98809608D01*
X95578932Y-98591101D01*
X95712182Y-98341808D01*
X95794236Y-98071309D01*
X95821943Y-97790000D01*
X95794236Y-97508691D01*
X95712182Y-97238192D01*
X95578932Y-96988899D01*
X95399608Y-96770392D01*
X95181101Y-96591068D01*
X95048142Y-96520000D01*
X95181101Y-96448932D01*
X95399608Y-96269608D01*
X95578932Y-96051101D01*
X95712182Y-95801808D01*
X95794236Y-95531309D01*
X95821943Y-95250000D01*
X95794236Y-94968691D01*
X95712182Y-94698192D01*
X95578932Y-94448899D01*
X95399608Y-94230392D01*
X95181101Y-94051068D01*
X95048142Y-93980000D01*
X95181101Y-93908932D01*
X95399608Y-93729608D01*
X95552772Y-93542977D01*
X95590313Y-93531589D01*
X95744059Y-93449411D01*
X95878817Y-93338817D01*
X95906534Y-93305044D01*
X98385049Y-90826530D01*
X98418817Y-90798817D01*
X98529411Y-90664059D01*
X98611589Y-90510313D01*
X98662195Y-90343490D01*
X98675000Y-90213477D01*
X98675000Y-90213467D01*
X98679281Y-90170001D01*
X98675000Y-90126535D01*
X98675000Y-84740961D01*
X99808096Y-84740961D01*
X99930085Y-84963000D01*
X101473000Y-84963000D01*
X101473000Y-83655000D01*
X101727000Y-83655000D01*
X101727000Y-84963000D01*
X103269915Y-84963000D01*
X103391904Y-84740961D01*
X103374367Y-84658182D01*
X103263715Y-84398354D01*
X103104500Y-84165105D01*
X102902839Y-83967399D01*
X102666483Y-83812834D01*
X102404514Y-83707350D01*
X102127000Y-83655000D01*
X101727000Y-83655000D01*
X101473000Y-83655000D01*
X101073000Y-83655000D01*
X100795486Y-83707350D01*
X100533517Y-83812834D01*
X100297161Y-83967399D01*
X100095500Y-84165105D01*
X99936285Y-84398354D01*
X99825633Y-84658182D01*
X99808096Y-84740961D01*
X98675000Y-84740961D01*
X98675000Y-82593465D01*
X98679281Y-82549999D01*
X98675000Y-82506533D01*
X98675000Y-82506523D01*
X98662195Y-82376510D01*
X98611589Y-82209687D01*
X98529411Y-82055941D01*
X98418817Y-81921183D01*
X98385050Y-81893471D01*
X97405000Y-80913422D01*
X97405000Y-77580512D01*
X103334783Y-77580512D01*
X103376213Y-77860130D01*
X103471397Y-78126292D01*
X103538329Y-78251514D01*
X103782298Y-78323097D01*
X104595395Y-77510000D01*
X104954605Y-77510000D01*
X105767702Y-78323097D01*
X106011671Y-78251514D01*
X106132571Y-77996004D01*
X106201300Y-77721816D01*
X106215217Y-77439488D01*
X106173787Y-77159870D01*
X106078603Y-76893708D01*
X106011671Y-76768486D01*
X105767702Y-76696903D01*
X104954605Y-77510000D01*
X104595395Y-77510000D01*
X103782298Y-76696903D01*
X103538329Y-76768486D01*
X103417429Y-77023996D01*
X103348700Y-77298184D01*
X103334783Y-77580512D01*
X97405000Y-77580512D01*
X97405000Y-76517298D01*
X103961903Y-76517298D01*
X104775000Y-77330395D01*
X105588097Y-76517298D01*
X105516514Y-76273329D01*
X105261004Y-76152429D01*
X104986816Y-76083700D01*
X104704488Y-76069783D01*
X104424870Y-76111213D01*
X104158708Y-76206397D01*
X104033486Y-76273329D01*
X103961903Y-76517298D01*
X97405000Y-76517298D01*
X97405000Y-76002702D01*
X98246903Y-76002702D01*
X98318486Y-76246671D01*
X98573996Y-76367571D01*
X98848184Y-76436300D01*
X99130512Y-76450217D01*
X99410130Y-76408787D01*
X99676292Y-76313603D01*
X99801514Y-76246671D01*
X99873097Y-76002702D01*
X99060000Y-75189605D01*
X98246903Y-76002702D01*
X97405000Y-76002702D01*
X97405000Y-75080512D01*
X97619783Y-75080512D01*
X97661213Y-75360130D01*
X97756397Y-75626292D01*
X97823329Y-75751514D01*
X98067298Y-75823097D01*
X98880395Y-75010000D01*
X99239605Y-75010000D01*
X100052702Y-75823097D01*
X100296671Y-75751514D01*
X100417571Y-75496004D01*
X100486300Y-75221816D01*
X100500217Y-74939488D01*
X100458787Y-74659870D01*
X100363603Y-74393708D01*
X100296671Y-74268486D01*
X100052702Y-74196903D01*
X99239605Y-75010000D01*
X98880395Y-75010000D01*
X98067298Y-74196903D01*
X97823329Y-74268486D01*
X97702429Y-74523996D01*
X97633700Y-74798184D01*
X97619783Y-75080512D01*
X97405000Y-75080512D01*
X97405000Y-74026578D01*
X97414280Y-74017298D01*
X98246903Y-74017298D01*
X99060000Y-74830395D01*
X99873097Y-74017298D01*
X99801514Y-73773329D01*
X99546004Y-73652429D01*
X99271816Y-73583700D01*
X98989488Y-73569783D01*
X98709870Y-73611213D01*
X98443708Y-73706397D01*
X98318486Y-73773329D01*
X98246903Y-74017298D01*
X97414280Y-74017298D01*
X98156579Y-73275000D01*
X101233422Y-73275000D01*
X103483470Y-75525049D01*
X103511183Y-75558817D01*
X103544951Y-75586530D01*
X103544953Y-75586532D01*
X103593401Y-75626292D01*
X103645941Y-75669411D01*
X103799687Y-75751589D01*
X103966510Y-75802195D01*
X104096523Y-75815000D01*
X104096533Y-75815000D01*
X104139999Y-75819281D01*
X104183465Y-75815000D01*
X114891531Y-75815000D01*
X114935000Y-75819281D01*
X114978469Y-75815000D01*
X114978477Y-75815000D01*
X115108490Y-75802195D01*
X115275313Y-75751589D01*
X115429059Y-75669411D01*
X115563817Y-75558817D01*
X115591534Y-75525044D01*
X118070049Y-73046530D01*
X118103817Y-73018817D01*
X118131533Y-72985046D01*
X118214410Y-72884060D01*
X118231808Y-72851511D01*
X118296589Y-72730313D01*
X118347195Y-72563490D01*
X118360000Y-72433477D01*
X118360000Y-72433467D01*
X118364281Y-72390001D01*
X118360000Y-72346535D01*
X118360000Y-72314656D01*
X118421632Y-72273475D01*
X118628475Y-72066632D01*
X118745000Y-71892240D01*
X118861525Y-72066632D01*
X119068368Y-72273475D01*
X119130001Y-72314657D01*
X119130000Y-73927025D01*
X118978038Y-74078987D01*
X118831939Y-74297641D01*
X118731304Y-74540595D01*
X118680000Y-74798514D01*
X118680000Y-75061486D01*
X118731304Y-75319405D01*
X118831939Y-75562359D01*
X118978038Y-75781013D01*
X119163987Y-75966962D01*
X119382641Y-76113061D01*
X119625595Y-76213696D01*
X119883514Y-76265000D01*
X120146486Y-76265000D01*
X120404405Y-76213696D01*
X120647359Y-76113061D01*
X120866013Y-75966962D01*
X121051962Y-75781013D01*
X121198061Y-75562359D01*
X121298696Y-75319405D01*
X121350000Y-75061486D01*
X121350000Y-74798514D01*
X121298696Y-74540595D01*
X121198061Y-74297641D01*
X121051962Y-74078987D01*
X120900000Y-73927025D01*
X120900000Y-72314656D01*
X120961632Y-72273475D01*
X121093487Y-72141620D01*
X121115498Y-72214180D01*
X121174463Y-72324494D01*
X121253815Y-72421185D01*
X121350506Y-72500537D01*
X121460820Y-72559502D01*
X121580518Y-72595812D01*
X121705000Y-72608072D01*
X123405000Y-72608072D01*
X123529482Y-72595812D01*
X123649180Y-72559502D01*
X123759494Y-72500537D01*
X123856185Y-72421185D01*
X123935537Y-72324494D01*
X123994502Y-72214180D01*
X124030812Y-72094482D01*
X124043072Y-71970000D01*
X124043072Y-70270000D01*
X124030812Y-70145518D01*
X123994502Y-70025820D01*
X123935537Y-69915506D01*
X123856185Y-69818815D01*
X123759494Y-69739463D01*
X123649180Y-69680498D01*
X123529482Y-69644188D01*
X123405000Y-69631928D01*
X121705000Y-69631928D01*
X121580518Y-69644188D01*
X121460820Y-69680498D01*
X121350506Y-69739463D01*
X121253815Y-69818815D01*
X121174463Y-69915506D01*
X121115498Y-70025820D01*
X121093487Y-70098380D01*
X120961632Y-69966525D01*
X120718411Y-69804010D01*
X120448158Y-69692068D01*
X120161260Y-69635000D01*
X119868740Y-69635000D01*
X119581842Y-69692068D01*
X119311589Y-69804010D01*
X119068368Y-69966525D01*
X118861525Y-70173368D01*
X118745000Y-70347760D01*
X118628475Y-70173368D01*
X118421632Y-69966525D01*
X118178411Y-69804010D01*
X117908158Y-69692068D01*
X117621260Y-69635000D01*
X117328740Y-69635000D01*
X117041842Y-69692068D01*
X116771589Y-69804010D01*
X116528368Y-69966525D01*
X116321525Y-70173368D01*
X116205000Y-70347760D01*
X116088475Y-70173368D01*
X115881632Y-69966525D01*
X115638411Y-69804010D01*
X115368158Y-69692068D01*
X115081260Y-69635000D01*
X114788740Y-69635000D01*
X114501842Y-69692068D01*
X114231589Y-69804010D01*
X113988368Y-69966525D01*
X113781525Y-70173368D01*
X113665000Y-70347760D01*
X113548475Y-70173368D01*
X113341632Y-69966525D01*
X113098411Y-69804010D01*
X112828158Y-69692068D01*
X112541260Y-69635000D01*
X112248740Y-69635000D01*
X111961842Y-69692068D01*
X111691589Y-69804010D01*
X111448368Y-69966525D01*
X111241525Y-70173368D01*
X111125000Y-70347760D01*
X111008475Y-70173368D01*
X110801632Y-69966525D01*
X110558411Y-69804010D01*
X110288158Y-69692068D01*
X110001260Y-69635000D01*
X109708740Y-69635000D01*
X109421842Y-69692068D01*
X109151589Y-69804010D01*
X108908368Y-69966525D01*
X108701525Y-70173368D01*
X108579805Y-70355534D01*
X108510178Y-70238645D01*
X108315269Y-70022412D01*
X108081920Y-69848359D01*
X107819099Y-69723175D01*
X107671890Y-69678524D01*
X107442000Y-69799845D01*
X107442000Y-70993000D01*
X107462000Y-70993000D01*
X107462000Y-71247000D01*
X107442000Y-71247000D01*
X107442000Y-72440155D01*
X107671890Y-72561476D01*
X107819099Y-72516825D01*
X108081920Y-72391641D01*
X108315269Y-72217588D01*
X108510178Y-72001355D01*
X108579805Y-71884466D01*
X108701525Y-72066632D01*
X108908368Y-72273475D01*
X109151589Y-72435990D01*
X109421842Y-72547932D01*
X109708740Y-72605000D01*
X110001260Y-72605000D01*
X110288158Y-72547932D01*
X110558411Y-72435990D01*
X110801632Y-72273475D01*
X111008475Y-72066632D01*
X111125000Y-71892240D01*
X111241525Y-72066632D01*
X111448368Y-72273475D01*
X111691589Y-72435990D01*
X111961842Y-72547932D01*
X112248740Y-72605000D01*
X112541260Y-72605000D01*
X112828158Y-72547932D01*
X113098411Y-72435990D01*
X113341632Y-72273475D01*
X113548475Y-72066632D01*
X113665000Y-71892240D01*
X113781525Y-72066632D01*
X113894157Y-72179264D01*
X113298422Y-72775000D01*
X105141579Y-72775000D01*
X103843470Y-71476891D01*
X105873519Y-71476891D01*
X105970843Y-71751252D01*
X106119822Y-72001355D01*
X106314731Y-72217588D01*
X106548080Y-72391641D01*
X106810901Y-72516825D01*
X106958110Y-72561476D01*
X107188000Y-72440155D01*
X107188000Y-71247000D01*
X105994186Y-71247000D01*
X105873519Y-71476891D01*
X103843470Y-71476891D01*
X103129688Y-70763109D01*
X105873519Y-70763109D01*
X105994186Y-70993000D01*
X107188000Y-70993000D01*
X107188000Y-69799845D01*
X106958110Y-69678524D01*
X106810901Y-69723175D01*
X106548080Y-69848359D01*
X106314731Y-70022412D01*
X106119822Y-70238645D01*
X105970843Y-70488748D01*
X105873519Y-70763109D01*
X103129688Y-70763109D01*
X102891534Y-70524956D01*
X102863817Y-70491183D01*
X102729059Y-70380589D01*
X102575313Y-70298411D01*
X102408490Y-70247805D01*
X102278477Y-70235000D01*
X102278469Y-70235000D01*
X102235000Y-70230719D01*
X102191531Y-70235000D01*
X97198469Y-70235000D01*
X97155000Y-70230719D01*
X97111531Y-70235000D01*
X97111523Y-70235000D01*
X96981510Y-70247805D01*
X96814687Y-70298411D01*
X96660941Y-70380589D01*
X96559953Y-70463468D01*
X96559951Y-70463470D01*
X96526183Y-70491183D01*
X96498470Y-70524951D01*
X94654956Y-72368466D01*
X94621183Y-72396183D01*
X94510589Y-72530942D01*
X94428411Y-72684688D01*
X94377805Y-72851511D01*
X94365000Y-72981524D01*
X94365000Y-72981531D01*
X94360719Y-73025000D01*
X94365000Y-73068469D01*
X94365001Y-81871521D01*
X94360719Y-81915000D01*
X94377805Y-82088490D01*
X94428412Y-82255313D01*
X94510590Y-82409059D01*
X94593468Y-82510046D01*
X94593471Y-82510049D01*
X94621184Y-82543817D01*
X94654951Y-82571529D01*
X95635000Y-83551579D01*
X95635000Y-84393795D01*
X95578932Y-84288899D01*
X95399608Y-84070392D01*
X95181101Y-83891068D01*
X94931808Y-83757818D01*
X94661309Y-83675764D01*
X94450492Y-83655000D01*
X93509508Y-83655000D01*
X93298691Y-83675764D01*
X93028192Y-83757818D01*
X92778899Y-83891068D01*
X92560392Y-84070392D01*
X92381068Y-84288899D01*
X92247818Y-84538192D01*
X92165764Y-84808691D01*
X92138057Y-85090000D01*
X92165764Y-85371309D01*
X92247818Y-85641808D01*
X92381068Y-85891101D01*
X92560392Y-86109608D01*
X92778899Y-86288932D01*
X92911858Y-86360000D01*
X92778899Y-86431068D01*
X92560392Y-86610392D01*
X92381068Y-86828899D01*
X92247818Y-87078192D01*
X92165764Y-87348691D01*
X92138057Y-87630000D01*
X92165764Y-87911309D01*
X92247818Y-88181808D01*
X92381068Y-88431101D01*
X92560392Y-88649608D01*
X92778899Y-88828932D01*
X92911858Y-88900000D01*
X92778899Y-88971068D01*
X92560392Y-89150392D01*
X92407228Y-89337023D01*
X92369686Y-89348411D01*
X92215941Y-89430589D01*
X92114953Y-89513468D01*
X92114951Y-89513470D01*
X92081183Y-89541183D01*
X92053470Y-89574951D01*
X88304951Y-93323470D01*
X88271184Y-93351183D01*
X88243471Y-93384951D01*
X88243468Y-93384954D01*
X88160590Y-93485941D01*
X88078412Y-93639687D01*
X88027805Y-93806510D01*
X88010719Y-93980000D01*
X87045000Y-93980000D01*
X87045000Y-69265000D01*
X146635000Y-69265000D01*
X146635001Y-122505000D01*
G04 #@! TA.AperFunction,Conductor*
D24*
G36*
X146635001Y-122505000D02*
G01*
X87045000Y-122505000D01*
X87045000Y-93980000D01*
X88010719Y-93980000D01*
X88015001Y-94023479D01*
X88015000Y-110446531D01*
X88010719Y-110490000D01*
X88015000Y-110533469D01*
X88015000Y-110533476D01*
X88027805Y-110663489D01*
X88078411Y-110830312D01*
X88160589Y-110984058D01*
X88271183Y-111118817D01*
X88304956Y-111146534D01*
X92053470Y-114895049D01*
X92081183Y-114928817D01*
X92114951Y-114956530D01*
X92114953Y-114956532D01*
X92215941Y-115039411D01*
X92369686Y-115121589D01*
X92536510Y-115172195D01*
X92666523Y-115185000D01*
X92666531Y-115185000D01*
X92710000Y-115189281D01*
X92753469Y-115185000D01*
X102826531Y-115185000D01*
X102870000Y-115189281D01*
X102913469Y-115185000D01*
X102913477Y-115185000D01*
X103043490Y-115172195D01*
X103210313Y-115121589D01*
X103364059Y-115039411D01*
X103498817Y-114928817D01*
X103526534Y-114895044D01*
X107046579Y-111375000D01*
X109793796Y-111375000D01*
X109688900Y-111431068D01*
X109470393Y-111610392D01*
X109291068Y-111828899D01*
X109157818Y-112078192D01*
X109075764Y-112348691D01*
X109055000Y-112559508D01*
X109055000Y-113500491D01*
X109075764Y-113711308D01*
X109157818Y-113981807D01*
X109291068Y-114231100D01*
X109470392Y-114449607D01*
X109688899Y-114628932D01*
X109938192Y-114762182D01*
X110208691Y-114844236D01*
X110490000Y-114871943D01*
X110771308Y-114844236D01*
X111041807Y-114762182D01*
X111291100Y-114628932D01*
X111509607Y-114449608D01*
X111688932Y-114231101D01*
X111760000Y-114098142D01*
X111831068Y-114231100D01*
X111889768Y-114302626D01*
X111895000Y-114355751D01*
X111911423Y-114522498D01*
X111976324Y-114736446D01*
X112081716Y-114933623D01*
X112223551Y-115106449D01*
X112266865Y-115141996D01*
X113458008Y-116333140D01*
X113493551Y-116376449D01*
X113666377Y-116518284D01*
X113863553Y-116623676D01*
X114027705Y-116673471D01*
X114077500Y-116688577D01*
X114098493Y-116690644D01*
X114244248Y-116705000D01*
X114244255Y-116705000D01*
X114299999Y-116710490D01*
X114355743Y-116705000D01*
X116369869Y-116705000D01*
X118245001Y-118580133D01*
X118245000Y-119684893D01*
X118226525Y-119703368D01*
X118110000Y-119877760D01*
X117993475Y-119703368D01*
X117786632Y-119496525D01*
X117543411Y-119334010D01*
X117273158Y-119222068D01*
X116986260Y-119165000D01*
X116693740Y-119165000D01*
X116406842Y-119222068D01*
X116136589Y-119334010D01*
X115893368Y-119496525D01*
X115686525Y-119703368D01*
X115570000Y-119877760D01*
X115453475Y-119703368D01*
X115246632Y-119496525D01*
X115003411Y-119334010D01*
X114733158Y-119222068D01*
X114446260Y-119165000D01*
X114153740Y-119165000D01*
X113866842Y-119222068D01*
X113596589Y-119334010D01*
X113353368Y-119496525D01*
X113146525Y-119703368D01*
X112984010Y-119946589D01*
X112872068Y-120216842D01*
X112815000Y-120503740D01*
X112815000Y-120796260D01*
X112872068Y-121083158D01*
X112984010Y-121353411D01*
X113146525Y-121596632D01*
X113353368Y-121803475D01*
X113596589Y-121965990D01*
X113866842Y-122077932D01*
X114153740Y-122135000D01*
X114446260Y-122135000D01*
X114733158Y-122077932D01*
X115003411Y-121965990D01*
X115246632Y-121803475D01*
X115453475Y-121596632D01*
X115570000Y-121422240D01*
X115686525Y-121596632D01*
X115893368Y-121803475D01*
X116136589Y-121965990D01*
X116406842Y-122077932D01*
X116693740Y-122135000D01*
X116986260Y-122135000D01*
X117273158Y-122077932D01*
X117543411Y-121965990D01*
X117786632Y-121803475D01*
X117993475Y-121596632D01*
X118110000Y-121422240D01*
X118226525Y-121596632D01*
X118433368Y-121803475D01*
X118676589Y-121965990D01*
X118946842Y-122077932D01*
X119233740Y-122135000D01*
X119526260Y-122135000D01*
X119813158Y-122077932D01*
X120083411Y-121965990D01*
X120326632Y-121803475D01*
X120533475Y-121596632D01*
X120655195Y-121414466D01*
X120724822Y-121531355D01*
X120919731Y-121747588D01*
X121153080Y-121921641D01*
X121415901Y-122046825D01*
X121563110Y-122091476D01*
X121793000Y-121970155D01*
X121793000Y-120777000D01*
X122047000Y-120777000D01*
X122047000Y-121970155D01*
X122276890Y-122091476D01*
X122424099Y-122046825D01*
X122686920Y-121921641D01*
X122920269Y-121747588D01*
X123115178Y-121531355D01*
X123190000Y-121405745D01*
X123264822Y-121531355D01*
X123459731Y-121747588D01*
X123693080Y-121921641D01*
X123955901Y-122046825D01*
X124103110Y-122091476D01*
X124333000Y-121970155D01*
X124333000Y-120777000D01*
X122047000Y-120777000D01*
X121793000Y-120777000D01*
X121773000Y-120777000D01*
X121773000Y-120523000D01*
X121793000Y-120523000D01*
X121793000Y-119329845D01*
X122047000Y-119329845D01*
X122047000Y-120523000D01*
X124333000Y-120523000D01*
X124333000Y-119329845D01*
X124587000Y-119329845D01*
X124587000Y-120523000D01*
X124607000Y-120523000D01*
X124607000Y-120777000D01*
X124587000Y-120777000D01*
X124587000Y-121970155D01*
X124816890Y-122091476D01*
X124964099Y-122046825D01*
X125226920Y-121921641D01*
X125460269Y-121747588D01*
X125536034Y-121663534D01*
X125560498Y-121744180D01*
X125619463Y-121854494D01*
X125698815Y-121951185D01*
X125795506Y-122030537D01*
X125905820Y-122089502D01*
X126025518Y-122125812D01*
X126150000Y-122138072D01*
X127850000Y-122138072D01*
X127974482Y-122125812D01*
X128094180Y-122089502D01*
X128204494Y-122030537D01*
X128301185Y-121951185D01*
X128380537Y-121854494D01*
X128439502Y-121744180D01*
X128475812Y-121624482D01*
X128488072Y-121500000D01*
X128488072Y-119800000D01*
X130591928Y-119800000D01*
X130591928Y-121500000D01*
X130604188Y-121624482D01*
X130640498Y-121744180D01*
X130699463Y-121854494D01*
X130778815Y-121951185D01*
X130875506Y-122030537D01*
X130985820Y-122089502D01*
X131105518Y-122125812D01*
X131230000Y-122138072D01*
X132930000Y-122138072D01*
X133054482Y-122125812D01*
X133174180Y-122089502D01*
X133284494Y-122030537D01*
X133381185Y-121951185D01*
X133460537Y-121854494D01*
X133519502Y-121744180D01*
X133541513Y-121671620D01*
X133673368Y-121803475D01*
X133916589Y-121965990D01*
X134186842Y-122077932D01*
X134473740Y-122135000D01*
X134766260Y-122135000D01*
X135053158Y-122077932D01*
X135323411Y-121965990D01*
X135566632Y-121803475D01*
X135773475Y-121596632D01*
X135890000Y-121422240D01*
X136006525Y-121596632D01*
X136213368Y-121803475D01*
X136456589Y-121965990D01*
X136726842Y-122077932D01*
X137013740Y-122135000D01*
X137306260Y-122135000D01*
X137593158Y-122077932D01*
X137863411Y-121965990D01*
X138106632Y-121803475D01*
X138313475Y-121596632D01*
X138430000Y-121422240D01*
X138546525Y-121596632D01*
X138753368Y-121803475D01*
X138996589Y-121965990D01*
X139266842Y-122077932D01*
X139553740Y-122135000D01*
X139846260Y-122135000D01*
X140133158Y-122077932D01*
X140403411Y-121965990D01*
X140646632Y-121803475D01*
X140853475Y-121596632D01*
X140970000Y-121422240D01*
X141086525Y-121596632D01*
X141293368Y-121803475D01*
X141536589Y-121965990D01*
X141806842Y-122077932D01*
X142093740Y-122135000D01*
X142386260Y-122135000D01*
X142673158Y-122077932D01*
X142943411Y-121965990D01*
X143186632Y-121803475D01*
X143393475Y-121596632D01*
X143510000Y-121422240D01*
X143626525Y-121596632D01*
X143833368Y-121803475D01*
X144076589Y-121965990D01*
X144346842Y-122077932D01*
X144633740Y-122135000D01*
X144926260Y-122135000D01*
X145213158Y-122077932D01*
X145483411Y-121965990D01*
X145726632Y-121803475D01*
X145933475Y-121596632D01*
X146095990Y-121353411D01*
X146207932Y-121083158D01*
X146265000Y-120796260D01*
X146265000Y-120503740D01*
X146207932Y-120216842D01*
X146095990Y-119946589D01*
X145933475Y-119703368D01*
X145726632Y-119496525D01*
X145483411Y-119334010D01*
X145213158Y-119222068D01*
X144926260Y-119165000D01*
X144633740Y-119165000D01*
X144346842Y-119222068D01*
X144076589Y-119334010D01*
X143833368Y-119496525D01*
X143626525Y-119703368D01*
X143510000Y-119877760D01*
X143393475Y-119703368D01*
X143186632Y-119496525D01*
X142943411Y-119334010D01*
X142673158Y-119222068D01*
X142386260Y-119165000D01*
X142093740Y-119165000D01*
X141806842Y-119222068D01*
X141536589Y-119334010D01*
X141293368Y-119496525D01*
X141086525Y-119703368D01*
X140970000Y-119877760D01*
X140853475Y-119703368D01*
X140646632Y-119496525D01*
X140403411Y-119334010D01*
X140133158Y-119222068D01*
X139846260Y-119165000D01*
X139553740Y-119165000D01*
X139266842Y-119222068D01*
X138996589Y-119334010D01*
X138753368Y-119496525D01*
X138546525Y-119703368D01*
X138430000Y-119877760D01*
X138313475Y-119703368D01*
X138106632Y-119496525D01*
X137863411Y-119334010D01*
X137593158Y-119222068D01*
X137306260Y-119165000D01*
X137013740Y-119165000D01*
X136726842Y-119222068D01*
X136620435Y-119266143D01*
X141565051Y-114321528D01*
X141598817Y-114293817D01*
X141709411Y-114159059D01*
X141723984Y-114131794D01*
X141821013Y-114066962D01*
X142006962Y-113881013D01*
X142153061Y-113662359D01*
X142253696Y-113419405D01*
X142305000Y-113161486D01*
X142305000Y-112898514D01*
X142253696Y-112640595D01*
X142153061Y-112397641D01*
X142006962Y-112178987D01*
X141821013Y-111993038D01*
X141602359Y-111846939D01*
X141359405Y-111746304D01*
X141101486Y-111695000D01*
X140838514Y-111695000D01*
X140580595Y-111746304D01*
X140337641Y-111846939D01*
X140118987Y-111993038D01*
X139933038Y-112178987D01*
X139786939Y-112397641D01*
X139700000Y-112607530D01*
X139613061Y-112397641D01*
X139466962Y-112178987D01*
X139281013Y-111993038D01*
X139062359Y-111846939D01*
X138819405Y-111746304D01*
X138561486Y-111695000D01*
X138298514Y-111695000D01*
X138040595Y-111746304D01*
X137797641Y-111846939D01*
X137578987Y-111993038D01*
X137393038Y-112178987D01*
X137246939Y-112397641D01*
X137146304Y-112640595D01*
X137095000Y-112898514D01*
X137095000Y-113161486D01*
X137146304Y-113419405D01*
X137227644Y-113615777D01*
X131681494Y-119161928D01*
X131230000Y-119161928D01*
X131105518Y-119174188D01*
X130985820Y-119210498D01*
X130875506Y-119269463D01*
X130778815Y-119348815D01*
X130699463Y-119445506D01*
X130640498Y-119555820D01*
X130604188Y-119675518D01*
X130591928Y-119800000D01*
X128488072Y-119800000D01*
X128475812Y-119675518D01*
X128439502Y-119555820D01*
X128380537Y-119445506D01*
X128301185Y-119348815D01*
X128204494Y-119269463D01*
X128094180Y-119210498D01*
X127974482Y-119174188D01*
X127850000Y-119161928D01*
X126150000Y-119161928D01*
X126025518Y-119174188D01*
X125905820Y-119210498D01*
X125795506Y-119269463D01*
X125698815Y-119348815D01*
X125619463Y-119445506D01*
X125560498Y-119555820D01*
X125536034Y-119636466D01*
X125460269Y-119552412D01*
X125226920Y-119378359D01*
X124964099Y-119253175D01*
X124816890Y-119208524D01*
X124587000Y-119329845D01*
X124333000Y-119329845D01*
X124103110Y-119208524D01*
X123955901Y-119253175D01*
X123693080Y-119378359D01*
X123459731Y-119552412D01*
X123264822Y-119768645D01*
X123190000Y-119894255D01*
X123115178Y-119768645D01*
X122920269Y-119552412D01*
X122686920Y-119378359D01*
X122424099Y-119253175D01*
X122276890Y-119208524D01*
X122047000Y-119329845D01*
X121793000Y-119329845D01*
X121563110Y-119208524D01*
X121415901Y-119253175D01*
X121153080Y-119378359D01*
X120919731Y-119552412D01*
X120724822Y-119768645D01*
X120655195Y-119885534D01*
X120533475Y-119703368D01*
X120515000Y-119684893D01*
X120515000Y-118165741D01*
X120520490Y-118109999D01*
X120515000Y-118054257D01*
X120515000Y-118054248D01*
X120498577Y-117887501D01*
X120433676Y-117673553D01*
X120328284Y-117476377D01*
X120186449Y-117303551D01*
X120143141Y-117268009D01*
X117681996Y-114806865D01*
X117674207Y-114797374D01*
X117828691Y-114844236D01*
X118110000Y-114871943D01*
X118391308Y-114844236D01*
X118661807Y-114762182D01*
X118911100Y-114628932D01*
X119129607Y-114449608D01*
X119308932Y-114231101D01*
X119380000Y-114098142D01*
X119451068Y-114231100D01*
X119630392Y-114449607D01*
X119848899Y-114628932D01*
X120098192Y-114762182D01*
X120368691Y-114844236D01*
X120650000Y-114871943D01*
X120931308Y-114844236D01*
X121201807Y-114762182D01*
X121451100Y-114628932D01*
X121669607Y-114449608D01*
X121848932Y-114231101D01*
X121920000Y-114098142D01*
X121991068Y-114231100D01*
X122170392Y-114449607D01*
X122388899Y-114628932D01*
X122638192Y-114762182D01*
X122908691Y-114844236D01*
X123190000Y-114871943D01*
X123471308Y-114844236D01*
X123741807Y-114762182D01*
X123991100Y-114628932D01*
X124209607Y-114449608D01*
X124388932Y-114231101D01*
X124460000Y-114098142D01*
X124531068Y-114231100D01*
X124710392Y-114449607D01*
X124928899Y-114628932D01*
X125178192Y-114762182D01*
X125448691Y-114844236D01*
X125730000Y-114871943D01*
X126011308Y-114844236D01*
X126281807Y-114762182D01*
X126531100Y-114628932D01*
X126749607Y-114449608D01*
X126928932Y-114231101D01*
X127000000Y-114098142D01*
X127071068Y-114231100D01*
X127250392Y-114449607D01*
X127468899Y-114628932D01*
X127718192Y-114762182D01*
X127988691Y-114844236D01*
X128270000Y-114871943D01*
X128551308Y-114844236D01*
X128821807Y-114762182D01*
X129071100Y-114628932D01*
X129289607Y-114449608D01*
X129468932Y-114231101D01*
X129504264Y-114165000D01*
X132024249Y-114165000D01*
X132080000Y-114170491D01*
X132135751Y-114165000D01*
X132135752Y-114165000D01*
X132302499Y-114148577D01*
X132516447Y-114083676D01*
X132713623Y-113978284D01*
X132886449Y-113836449D01*
X132921996Y-113793135D01*
X133527282Y-113187850D01*
X133768574Y-113139853D01*
X134029727Y-113031680D01*
X134264759Y-112874637D01*
X134464637Y-112674759D01*
X134621680Y-112439727D01*
X134729853Y-112178574D01*
X134785000Y-111901335D01*
X134785000Y-111618665D01*
X134729853Y-111341426D01*
X134621680Y-111080273D01*
X134464637Y-110845241D01*
X134264759Y-110645363D01*
X134029727Y-110488320D01*
X133768574Y-110380147D01*
X133491335Y-110325000D01*
X133208665Y-110325000D01*
X132931426Y-110380147D01*
X132670273Y-110488320D01*
X132435241Y-110645363D01*
X132235363Y-110845241D01*
X132078320Y-111080273D01*
X131970147Y-111341426D01*
X131922150Y-111582718D01*
X131609869Y-111895000D01*
X129504264Y-111895000D01*
X129468932Y-111828899D01*
X129289608Y-111610392D01*
X129071101Y-111431068D01*
X128821808Y-111297818D01*
X128551309Y-111215764D01*
X128270000Y-111188057D01*
X127988692Y-111215764D01*
X127718193Y-111297818D01*
X127468900Y-111431068D01*
X127250393Y-111610392D01*
X127071068Y-111828899D01*
X127000000Y-111961858D01*
X126928932Y-111828899D01*
X126921606Y-111819972D01*
X130988876Y-107752702D01*
X132536903Y-107752702D01*
X132608486Y-107996671D01*
X132863996Y-108117571D01*
X133138184Y-108186300D01*
X133420512Y-108200217D01*
X133700130Y-108158787D01*
X133966292Y-108063603D01*
X134091514Y-107996671D01*
X134163097Y-107752702D01*
X133350000Y-106939605D01*
X132536903Y-107752702D01*
X130988876Y-107752702D01*
X131405049Y-107336530D01*
X131438817Y-107308817D01*
X131508232Y-107224236D01*
X131549411Y-107174059D01*
X131567329Y-107140537D01*
X131631589Y-107020313D01*
X131682195Y-106853490D01*
X131684458Y-106830512D01*
X131909783Y-106830512D01*
X131951213Y-107110130D01*
X132046397Y-107376292D01*
X132113329Y-107501514D01*
X132357298Y-107573097D01*
X133170395Y-106760000D01*
X133529605Y-106760000D01*
X134342702Y-107573097D01*
X134586671Y-107501514D01*
X134707571Y-107246004D01*
X134776300Y-106971816D01*
X134790217Y-106689488D01*
X134748787Y-106409870D01*
X134653603Y-106143708D01*
X134586671Y-106018486D01*
X134342702Y-105946903D01*
X133529605Y-106760000D01*
X133170395Y-106760000D01*
X132357298Y-105946903D01*
X132113329Y-106018486D01*
X131992429Y-106273996D01*
X131923700Y-106548184D01*
X131909783Y-106830512D01*
X131684458Y-106830512D01*
X131695000Y-106723477D01*
X131695000Y-106723469D01*
X131699281Y-106680000D01*
X131695000Y-106636531D01*
X131695000Y-105767298D01*
X132536903Y-105767298D01*
X133350000Y-106580395D01*
X134163097Y-105767298D01*
X134091514Y-105523329D01*
X133836004Y-105402429D01*
X133561816Y-105333700D01*
X133279488Y-105319783D01*
X132999870Y-105361213D01*
X132733708Y-105456397D01*
X132608486Y-105523329D01*
X132536903Y-105767298D01*
X131695000Y-105767298D01*
X131695000Y-105278514D01*
X137095000Y-105278514D01*
X137095000Y-105541486D01*
X137146304Y-105799405D01*
X137246939Y-106042359D01*
X137393038Y-106261013D01*
X137578987Y-106446962D01*
X137797641Y-106593061D01*
X138040595Y-106693696D01*
X138298514Y-106745000D01*
X138561486Y-106745000D01*
X138819405Y-106693696D01*
X139062359Y-106593061D01*
X139281013Y-106446962D01*
X139466962Y-106261013D01*
X139613061Y-106042359D01*
X139700000Y-105832470D01*
X139786939Y-106042359D01*
X139933038Y-106261013D01*
X140118987Y-106446962D01*
X140337641Y-106593061D01*
X140580595Y-106693696D01*
X140838514Y-106745000D01*
X141101486Y-106745000D01*
X141359405Y-106693696D01*
X141602359Y-106593061D01*
X141821013Y-106446962D01*
X142006962Y-106261013D01*
X142153061Y-106042359D01*
X142253696Y-105799405D01*
X142305000Y-105541486D01*
X142305000Y-105278514D01*
X142253696Y-105020595D01*
X142153061Y-104777641D01*
X142006962Y-104558987D01*
X141821013Y-104373038D01*
X141602359Y-104226939D01*
X141359405Y-104126304D01*
X141101486Y-104075000D01*
X140838514Y-104075000D01*
X140580595Y-104126304D01*
X140337641Y-104226939D01*
X140118987Y-104373038D01*
X139933038Y-104558987D01*
X139786939Y-104777641D01*
X139700000Y-104987530D01*
X139613061Y-104777641D01*
X139466962Y-104558987D01*
X139281013Y-104373038D01*
X139062359Y-104226939D01*
X138819405Y-104126304D01*
X138561486Y-104075000D01*
X138298514Y-104075000D01*
X138040595Y-104126304D01*
X137797641Y-104226939D01*
X137578987Y-104373038D01*
X137393038Y-104558987D01*
X137246939Y-104777641D01*
X137146304Y-105020595D01*
X137095000Y-105278514D01*
X131695000Y-105278514D01*
X131695000Y-101860078D01*
X131829608Y-101749608D01*
X132008932Y-101531101D01*
X132080000Y-101398142D01*
X132151068Y-101531101D01*
X132330393Y-101749608D01*
X132548900Y-101928932D01*
X132798193Y-102062182D01*
X133068692Y-102144236D01*
X133350000Y-102171943D01*
X133631309Y-102144236D01*
X133901808Y-102062182D01*
X134151101Y-101928932D01*
X134369608Y-101749608D01*
X134548932Y-101531101D01*
X134620000Y-101398142D01*
X134691068Y-101531101D01*
X134870393Y-101749608D01*
X135088900Y-101928932D01*
X135338193Y-102062182D01*
X135608692Y-102144236D01*
X135890000Y-102171943D01*
X136171309Y-102144236D01*
X136441808Y-102062182D01*
X136691101Y-101928932D01*
X136909608Y-101749608D01*
X137088932Y-101531101D01*
X137160000Y-101398142D01*
X137231068Y-101531101D01*
X137410393Y-101749608D01*
X137628900Y-101928932D01*
X137878193Y-102062182D01*
X138148692Y-102144236D01*
X138430000Y-102171943D01*
X138711309Y-102144236D01*
X138981808Y-102062182D01*
X139231101Y-101928932D01*
X139449608Y-101749608D01*
X139628932Y-101531101D01*
X139697265Y-101403259D01*
X139847399Y-101632839D01*
X140045105Y-101834500D01*
X140278354Y-101993715D01*
X140538182Y-102104367D01*
X140620961Y-102121904D01*
X140843000Y-101999915D01*
X140843000Y-100457000D01*
X141097000Y-100457000D01*
X141097000Y-101999915D01*
X141319039Y-102121904D01*
X141401818Y-102104367D01*
X141661646Y-101993715D01*
X141894895Y-101834500D01*
X142092601Y-101632839D01*
X142247166Y-101396483D01*
X142352650Y-101134514D01*
X142405000Y-100857000D01*
X142405000Y-100457000D01*
X141097000Y-100457000D01*
X140843000Y-100457000D01*
X140823000Y-100457000D01*
X140823000Y-100203000D01*
X140843000Y-100203000D01*
X140843000Y-98660085D01*
X141097000Y-98660085D01*
X141097000Y-100203000D01*
X142405000Y-100203000D01*
X142405000Y-99803000D01*
X142352650Y-99525486D01*
X142247166Y-99263517D01*
X142092601Y-99027161D01*
X141894895Y-98825500D01*
X141661646Y-98666285D01*
X141401818Y-98555633D01*
X141319039Y-98538096D01*
X141097000Y-98660085D01*
X140843000Y-98660085D01*
X140620961Y-98538096D01*
X140538182Y-98555633D01*
X140278354Y-98666285D01*
X140045105Y-98825500D01*
X139847399Y-99027161D01*
X139697265Y-99256741D01*
X139628932Y-99128899D01*
X139449607Y-98910392D01*
X139315000Y-98799923D01*
X139315000Y-93076578D01*
X144105049Y-88286530D01*
X144138817Y-88258817D01*
X144249411Y-88124059D01*
X144331589Y-87970313D01*
X144382195Y-87803490D01*
X144395000Y-87673477D01*
X144395000Y-87673469D01*
X144399281Y-87630000D01*
X144395000Y-87586531D01*
X144395000Y-82593469D01*
X144399281Y-82550000D01*
X144395000Y-82506531D01*
X144395000Y-82506523D01*
X144382195Y-82376510D01*
X144345430Y-82255313D01*
X144331589Y-82209686D01*
X144249411Y-82055941D01*
X144166532Y-81954953D01*
X144166530Y-81954951D01*
X144138817Y-81921183D01*
X144105050Y-81893471D01*
X140634777Y-78423198D01*
X140736962Y-78321013D01*
X140883061Y-78102359D01*
X140970000Y-77892470D01*
X141056939Y-78102359D01*
X141203038Y-78321013D01*
X141388987Y-78506962D01*
X141607641Y-78653061D01*
X141850595Y-78753696D01*
X142108514Y-78805000D01*
X142371486Y-78805000D01*
X142629405Y-78753696D01*
X142872359Y-78653061D01*
X143091013Y-78506962D01*
X143276962Y-78321013D01*
X143423061Y-78102359D01*
X143510000Y-77892470D01*
X143596939Y-78102359D01*
X143743038Y-78321013D01*
X143928987Y-78506962D01*
X144147641Y-78653061D01*
X144390595Y-78753696D01*
X144648514Y-78805000D01*
X144911486Y-78805000D01*
X145169405Y-78753696D01*
X145412359Y-78653061D01*
X145631013Y-78506962D01*
X145816962Y-78321013D01*
X145963061Y-78102359D01*
X146063696Y-77859405D01*
X146115000Y-77601486D01*
X146115000Y-77338514D01*
X146063696Y-77080595D01*
X145963061Y-76837641D01*
X145816962Y-76618987D01*
X145631013Y-76433038D01*
X145412359Y-76286939D01*
X145202470Y-76200000D01*
X145412359Y-76113061D01*
X145631013Y-75966962D01*
X145816962Y-75781013D01*
X145963061Y-75562359D01*
X146063696Y-75319405D01*
X146115000Y-75061486D01*
X146115000Y-74798514D01*
X146063696Y-74540595D01*
X145963061Y-74297641D01*
X145816962Y-74078987D01*
X145665000Y-73927025D01*
X145665000Y-72604625D01*
X145754482Y-72595812D01*
X145874180Y-72559502D01*
X145984494Y-72500537D01*
X146081185Y-72421185D01*
X146160537Y-72324494D01*
X146219502Y-72214180D01*
X146255812Y-72094482D01*
X146268072Y-71970000D01*
X146268072Y-70270000D01*
X146255812Y-70145518D01*
X146219502Y-70025820D01*
X146160537Y-69915506D01*
X146081185Y-69818815D01*
X145984494Y-69739463D01*
X145874180Y-69680498D01*
X145754482Y-69644188D01*
X145630000Y-69631928D01*
X143930000Y-69631928D01*
X143805518Y-69644188D01*
X143685820Y-69680498D01*
X143575506Y-69739463D01*
X143478815Y-69818815D01*
X143399463Y-69915506D01*
X143340498Y-70025820D01*
X143318487Y-70098380D01*
X143186632Y-69966525D01*
X142943411Y-69804010D01*
X142673158Y-69692068D01*
X142386260Y-69635000D01*
X142093740Y-69635000D01*
X141806842Y-69692068D01*
X141536589Y-69804010D01*
X141293368Y-69966525D01*
X141086525Y-70173368D01*
X140970000Y-70347760D01*
X140853475Y-70173368D01*
X140646632Y-69966525D01*
X140403411Y-69804010D01*
X140133158Y-69692068D01*
X139846260Y-69635000D01*
X139553740Y-69635000D01*
X139266842Y-69692068D01*
X138996589Y-69804010D01*
X138753368Y-69966525D01*
X138546525Y-70173368D01*
X138430000Y-70347760D01*
X138313475Y-70173368D01*
X138106632Y-69966525D01*
X137863411Y-69804010D01*
X137593158Y-69692068D01*
X137306260Y-69635000D01*
X137013740Y-69635000D01*
X136726842Y-69692068D01*
X136456589Y-69804010D01*
X136213368Y-69966525D01*
X136006525Y-70173368D01*
X135890000Y-70347760D01*
X135773475Y-70173368D01*
X135566632Y-69966525D01*
X135323411Y-69804010D01*
X135053158Y-69692068D01*
X134766260Y-69635000D01*
X134473740Y-69635000D01*
X134186842Y-69692068D01*
X133916589Y-69804010D01*
X133673368Y-69966525D01*
X133466525Y-70173368D01*
X133350000Y-70347760D01*
X133233475Y-70173368D01*
X133026632Y-69966525D01*
X132783411Y-69804010D01*
X132513158Y-69692068D01*
X132226260Y-69635000D01*
X131933740Y-69635000D01*
X131646842Y-69692068D01*
X131376589Y-69804010D01*
X131133368Y-69966525D01*
X130926525Y-70173368D01*
X130810000Y-70347760D01*
X130693475Y-70173368D01*
X130486632Y-69966525D01*
X130243411Y-69804010D01*
X129973158Y-69692068D01*
X129686260Y-69635000D01*
X129393740Y-69635000D01*
X129106842Y-69692068D01*
X128836589Y-69804010D01*
X128593368Y-69966525D01*
X128386525Y-70173368D01*
X128270000Y-70347760D01*
X128153475Y-70173368D01*
X127946632Y-69966525D01*
X127703411Y-69804010D01*
X127433158Y-69692068D01*
X127146260Y-69635000D01*
X126853740Y-69635000D01*
X126566842Y-69692068D01*
X126296589Y-69804010D01*
X126053368Y-69966525D01*
X125846525Y-70173368D01*
X125684010Y-70416589D01*
X125572068Y-70686842D01*
X125515000Y-70973740D01*
X125515000Y-71266260D01*
X125572068Y-71553158D01*
X125684010Y-71823411D01*
X125846525Y-72066632D01*
X126053368Y-72273475D01*
X126115000Y-72314656D01*
X126115001Y-73927024D01*
X125963038Y-74078987D01*
X125816939Y-74297641D01*
X125716304Y-74540595D01*
X125665000Y-74798514D01*
X125665000Y-75061486D01*
X125716304Y-75319405D01*
X125816939Y-75562359D01*
X125963038Y-75781013D01*
X126148987Y-75966962D01*
X126367641Y-76113061D01*
X126577530Y-76200000D01*
X126367641Y-76286939D01*
X126148987Y-76433038D01*
X125963038Y-76618987D01*
X125816939Y-76837641D01*
X125716304Y-77080595D01*
X125665000Y-77338514D01*
X125665000Y-77601486D01*
X125716304Y-77859405D01*
X125816939Y-78102359D01*
X125963038Y-78321013D01*
X126115001Y-78472976D01*
X126115001Y-79331521D01*
X126110719Y-79375000D01*
X126127805Y-79548490D01*
X126178412Y-79715313D01*
X126260590Y-79869059D01*
X126343468Y-79970046D01*
X126343471Y-79970049D01*
X126371184Y-80003817D01*
X126404951Y-80031530D01*
X129925000Y-83551579D01*
X129925000Y-83559922D01*
X129790392Y-83670393D01*
X129611068Y-83888900D01*
X129540000Y-84021858D01*
X129468932Y-83888899D01*
X129289607Y-83670392D01*
X129071100Y-83491068D01*
X128821807Y-83357818D01*
X128551308Y-83275764D01*
X128270000Y-83248057D01*
X127988691Y-83275764D01*
X127718192Y-83357818D01*
X127468899Y-83491068D01*
X127250392Y-83670393D01*
X127071068Y-83888900D01*
X127000000Y-84021858D01*
X126928932Y-83888899D01*
X126749607Y-83670392D01*
X126531100Y-83491068D01*
X126281807Y-83357818D01*
X126011308Y-83275764D01*
X125730000Y-83248057D01*
X125448691Y-83275764D01*
X125178192Y-83357818D01*
X124928899Y-83491068D01*
X124710392Y-83670393D01*
X124531068Y-83888900D01*
X124460000Y-84021858D01*
X124388932Y-83888899D01*
X124209607Y-83670392D01*
X123991100Y-83491068D01*
X123741807Y-83357818D01*
X123471308Y-83275764D01*
X123190000Y-83248057D01*
X122908691Y-83275764D01*
X122638192Y-83357818D01*
X122388899Y-83491068D01*
X122170392Y-83670393D01*
X121991068Y-83888900D01*
X121920000Y-84021858D01*
X121848932Y-83888899D01*
X121669607Y-83670392D01*
X121451100Y-83491068D01*
X121201807Y-83357818D01*
X120931308Y-83275764D01*
X120650000Y-83248057D01*
X120368691Y-83275764D01*
X120098192Y-83357818D01*
X119848899Y-83491068D01*
X119630392Y-83670393D01*
X119451068Y-83888900D01*
X119380000Y-84021858D01*
X119308932Y-83888899D01*
X119129607Y-83670392D01*
X118911100Y-83491068D01*
X118661807Y-83357818D01*
X118391308Y-83275764D01*
X118110000Y-83248057D01*
X117828691Y-83275764D01*
X117558192Y-83357818D01*
X117308899Y-83491068D01*
X117090392Y-83670393D01*
X116911068Y-83888900D01*
X116840000Y-84021858D01*
X116768932Y-83888899D01*
X116589607Y-83670392D01*
X116371100Y-83491068D01*
X116121807Y-83357818D01*
X115851308Y-83275764D01*
X115570000Y-83248057D01*
X115288691Y-83275764D01*
X115018192Y-83357818D01*
X114768899Y-83491068D01*
X114550392Y-83670393D01*
X114371068Y-83888900D01*
X114300000Y-84021858D01*
X114228932Y-83888899D01*
X114049607Y-83670392D01*
X113915000Y-83559923D01*
X113915000Y-81204656D01*
X113976632Y-81163475D01*
X114183475Y-80956632D01*
X114300000Y-80782240D01*
X114416525Y-80956632D01*
X114623368Y-81163475D01*
X114866589Y-81325990D01*
X115136842Y-81437932D01*
X115423740Y-81495000D01*
X115716260Y-81495000D01*
X116003158Y-81437932D01*
X116273411Y-81325990D01*
X116516632Y-81163475D01*
X116535107Y-81145000D01*
X119310712Y-81145000D01*
X119382641Y-81193061D01*
X119625595Y-81293696D01*
X119883514Y-81345000D01*
X120146486Y-81345000D01*
X120404405Y-81293696D01*
X120647359Y-81193061D01*
X120866013Y-81046962D01*
X121051962Y-80861013D01*
X121198061Y-80642359D01*
X121298696Y-80399405D01*
X121350000Y-80141486D01*
X121350000Y-79878514D01*
X121298696Y-79620595D01*
X121198061Y-79377641D01*
X121051962Y-79158987D01*
X120866013Y-78973038D01*
X120647359Y-78826939D01*
X120404405Y-78726304D01*
X120146486Y-78675000D01*
X119883514Y-78675000D01*
X119625595Y-78726304D01*
X119382641Y-78826939D01*
X119310712Y-78875000D01*
X116535107Y-78875000D01*
X116516632Y-78856525D01*
X116273411Y-78694010D01*
X116003158Y-78582068D01*
X115716260Y-78525000D01*
X115423740Y-78525000D01*
X115136842Y-78582068D01*
X114866589Y-78694010D01*
X114623368Y-78856525D01*
X114416525Y-79063368D01*
X114300000Y-79237760D01*
X114183475Y-79063368D01*
X113976632Y-78856525D01*
X113733411Y-78694010D01*
X113463158Y-78582068D01*
X113176260Y-78525000D01*
X112883740Y-78525000D01*
X112596842Y-78582068D01*
X112326589Y-78694010D01*
X112083368Y-78856525D01*
X111951513Y-78988380D01*
X111929502Y-78915820D01*
X111870537Y-78805506D01*
X111791185Y-78708815D01*
X111694494Y-78629463D01*
X111584180Y-78570498D01*
X111464482Y-78534188D01*
X111340000Y-78521928D01*
X110775750Y-78525000D01*
X110617000Y-78683750D01*
X110617000Y-79883000D01*
X110637000Y-79883000D01*
X110637000Y-80137000D01*
X110617000Y-80137000D01*
X110617000Y-81336250D01*
X110775750Y-81495000D01*
X111340000Y-81498072D01*
X111464482Y-81485812D01*
X111584180Y-81449502D01*
X111694494Y-81390537D01*
X111791185Y-81311185D01*
X111870537Y-81214494D01*
X111929502Y-81104180D01*
X111951513Y-81031620D01*
X112083368Y-81163475D01*
X112145001Y-81204657D01*
X112145000Y-83559922D01*
X112010392Y-83670393D01*
X111831068Y-83888900D01*
X111760000Y-84021858D01*
X111688932Y-83888899D01*
X111509607Y-83670392D01*
X111291100Y-83491068D01*
X111041807Y-83357818D01*
X110771308Y-83275764D01*
X110490000Y-83248057D01*
X110208691Y-83275764D01*
X109938192Y-83357818D01*
X109688899Y-83491068D01*
X109470392Y-83670393D01*
X109291068Y-83888900D01*
X109220000Y-84021858D01*
X109148932Y-83888899D01*
X109085000Y-83810998D01*
X109085000Y-82605741D01*
X109090490Y-82549999D01*
X109085000Y-82494257D01*
X109085000Y-82494248D01*
X109068577Y-82327501D01*
X109003676Y-82113553D01*
X108898284Y-81916377D01*
X108756449Y-81743551D01*
X108713141Y-81708009D01*
X107865132Y-80860000D01*
X109001928Y-80860000D01*
X109014188Y-80984482D01*
X109050498Y-81104180D01*
X109109463Y-81214494D01*
X109188815Y-81311185D01*
X109285506Y-81390537D01*
X109395820Y-81449502D01*
X109515518Y-81485812D01*
X109640000Y-81498072D01*
X110204250Y-81495000D01*
X110363000Y-81336250D01*
X110363000Y-80137000D01*
X109163750Y-80137000D01*
X109005000Y-80295750D01*
X109001928Y-80860000D01*
X107865132Y-80860000D01*
X106251996Y-79246865D01*
X106216449Y-79203551D01*
X106212084Y-79199969D01*
X106208148Y-79160000D01*
X109001928Y-79160000D01*
X109005000Y-79724250D01*
X109163750Y-79883000D01*
X110363000Y-79883000D01*
X110363000Y-78683750D01*
X110204250Y-78525000D01*
X109640000Y-78521928D01*
X109515518Y-78534188D01*
X109395820Y-78570498D01*
X109285506Y-78629463D01*
X109188815Y-78708815D01*
X109109463Y-78805506D01*
X109050498Y-78915820D01*
X109014188Y-79035518D01*
X109001928Y-79160000D01*
X106208148Y-79160000D01*
X106200812Y-79085518D01*
X106164502Y-78965820D01*
X106105537Y-78855506D01*
X106026185Y-78758815D01*
X105929494Y-78679463D01*
X105819180Y-78620498D01*
X105699482Y-78584188D01*
X105575000Y-78571928D01*
X105567785Y-78571928D01*
X105588097Y-78502702D01*
X104775000Y-77689605D01*
X103961903Y-78502702D01*
X103982215Y-78571928D01*
X103975000Y-78571928D01*
X103850518Y-78584188D01*
X103730820Y-78620498D01*
X103620506Y-78679463D01*
X103523815Y-78758815D01*
X103444463Y-78855506D01*
X103434043Y-78875000D01*
X99944284Y-78875000D01*
X99739727Y-78738320D01*
X99478574Y-78630147D01*
X99201335Y-78575000D01*
X98918665Y-78575000D01*
X98641426Y-78630147D01*
X98380273Y-78738320D01*
X98145241Y-78895363D01*
X97945363Y-79095241D01*
X97788320Y-79330273D01*
X97680147Y-79591426D01*
X97625000Y-79868665D01*
X97625000Y-80151335D01*
X97680147Y-80428574D01*
X97788320Y-80689727D01*
X97945363Y-80924759D01*
X98145241Y-81124637D01*
X98380273Y-81281680D01*
X98641426Y-81389853D01*
X98918665Y-81445000D01*
X99201335Y-81445000D01*
X99478574Y-81389853D01*
X99739727Y-81281680D01*
X99944284Y-81145000D01*
X103434043Y-81145000D01*
X103444463Y-81164494D01*
X103523815Y-81261185D01*
X103620506Y-81340537D01*
X103730820Y-81399502D01*
X103850518Y-81435812D01*
X103975000Y-81448072D01*
X105242941Y-81448072D01*
X106815000Y-83020132D01*
X106815000Y-83810998D01*
X106751068Y-83888900D01*
X106617818Y-84138193D01*
X106535764Y-84408692D01*
X106515000Y-84619509D01*
X106515000Y-85560492D01*
X106535764Y-85771309D01*
X106617818Y-86041808D01*
X106751068Y-86291101D01*
X106930393Y-86509608D01*
X107148900Y-86688932D01*
X107398193Y-86822182D01*
X107516680Y-86858124D01*
X107455941Y-86890589D01*
X107354953Y-86973468D01*
X107354951Y-86973470D01*
X107321183Y-87001183D01*
X107293470Y-87034951D01*
X102810028Y-91518394D01*
X102801101Y-91511068D01*
X102668142Y-91440000D01*
X102801101Y-91368932D01*
X103019608Y-91189608D01*
X103198932Y-90971101D01*
X103332182Y-90721808D01*
X103414236Y-90451309D01*
X103441943Y-90170000D01*
X103414236Y-89888691D01*
X103332182Y-89618192D01*
X103198932Y-89368899D01*
X103019608Y-89150392D01*
X102801101Y-88971068D01*
X102668142Y-88900000D01*
X102801101Y-88828932D01*
X103019608Y-88649608D01*
X103198932Y-88431101D01*
X103332182Y-88181808D01*
X103414236Y-87911309D01*
X103441943Y-87630000D01*
X103414236Y-87348691D01*
X103332182Y-87078192D01*
X103198932Y-86828899D01*
X103019608Y-86610392D01*
X102801101Y-86431068D01*
X102673259Y-86362735D01*
X102902839Y-86212601D01*
X103104500Y-86014895D01*
X103263715Y-85781646D01*
X103374367Y-85521818D01*
X103391904Y-85439039D01*
X103269915Y-85217000D01*
X101727000Y-85217000D01*
X101727000Y-85237000D01*
X101473000Y-85237000D01*
X101473000Y-85217000D01*
X99930085Y-85217000D01*
X99808096Y-85439039D01*
X99825633Y-85521818D01*
X99936285Y-85781646D01*
X100095500Y-86014895D01*
X100297161Y-86212601D01*
X100526741Y-86362735D01*
X100398899Y-86431068D01*
X100180392Y-86610392D01*
X100001068Y-86828899D01*
X99867818Y-87078192D01*
X99785764Y-87348691D01*
X99758057Y-87630000D01*
X99785764Y-87911309D01*
X99867818Y-88181808D01*
X100001068Y-88431101D01*
X100180392Y-88649608D01*
X100398899Y-88828932D01*
X100531858Y-88900000D01*
X100398899Y-88971068D01*
X100180392Y-89150392D01*
X100001068Y-89368899D01*
X99867818Y-89618192D01*
X99785764Y-89888691D01*
X99758057Y-90170000D01*
X99785764Y-90451309D01*
X99867818Y-90721808D01*
X100001068Y-90971101D01*
X100180392Y-91189608D01*
X100398899Y-91368932D01*
X100531858Y-91440000D01*
X100398899Y-91511068D01*
X100180392Y-91690392D01*
X100001068Y-91908899D01*
X99867818Y-92158192D01*
X99785764Y-92428691D01*
X99758057Y-92710000D01*
X99785764Y-92991309D01*
X99867818Y-93261808D01*
X100001068Y-93511101D01*
X100180392Y-93729608D01*
X100398899Y-93908932D01*
X100531858Y-93980000D01*
X100398899Y-94051068D01*
X100180392Y-94230392D01*
X100027228Y-94417023D01*
X99989687Y-94428411D01*
X99835941Y-94510589D01*
X99835939Y-94510590D01*
X99835940Y-94510590D01*
X99734953Y-94593468D01*
X99734951Y-94593470D01*
X99701183Y-94621183D01*
X99673470Y-94654951D01*
X98464951Y-95863471D01*
X98431184Y-95891183D01*
X98403471Y-95924951D01*
X98403468Y-95924954D01*
X98320590Y-96025941D01*
X98238412Y-96179687D01*
X98187805Y-96346510D01*
X98170719Y-96520000D01*
X98175001Y-96563479D01*
X98175000Y-104096531D01*
X98170719Y-104140000D01*
X98175000Y-104183469D01*
X98175000Y-104183476D01*
X98187805Y-104313489D01*
X98238411Y-104480312D01*
X98320589Y-104634058D01*
X98431183Y-104768817D01*
X98464956Y-104796534D01*
X99673470Y-106005049D01*
X99701183Y-106038817D01*
X99734951Y-106066530D01*
X99734953Y-106066532D01*
X99765143Y-106091308D01*
X99835941Y-106149411D01*
X99989687Y-106231589D01*
X100156510Y-106282195D01*
X100286523Y-106295000D01*
X100286533Y-106295000D01*
X100329999Y-106299281D01*
X100373465Y-106295000D01*
X106636531Y-106295000D01*
X106680000Y-106299281D01*
X106723469Y-106295000D01*
X106723477Y-106295000D01*
X106853490Y-106282195D01*
X107020313Y-106231589D01*
X107174059Y-106149411D01*
X107308817Y-106038817D01*
X107336534Y-106005044D01*
X108458578Y-104883000D01*
X109055000Y-104883000D01*
X109055000Y-105283000D01*
X110363000Y-105283000D01*
X110363000Y-103740085D01*
X110140961Y-103618096D01*
X110058182Y-103635633D01*
X109798354Y-103746285D01*
X109565105Y-103905500D01*
X109367399Y-104107161D01*
X109212834Y-104343517D01*
X109107350Y-104605486D01*
X109055000Y-104883000D01*
X108458578Y-104883000D01*
X111085049Y-102256530D01*
X111118817Y-102228817D01*
X111188232Y-102144236D01*
X111229411Y-102094059D01*
X111311589Y-101940314D01*
X111322977Y-101902772D01*
X111509608Y-101749608D01*
X111688932Y-101531101D01*
X111760000Y-101398142D01*
X111831068Y-101531101D01*
X112010393Y-101749608D01*
X112145001Y-101860078D01*
X112145000Y-103879923D01*
X112010393Y-103990392D01*
X111831068Y-104208899D01*
X111762735Y-104336741D01*
X111612601Y-104107161D01*
X111414895Y-103905500D01*
X111181646Y-103746285D01*
X110921818Y-103635633D01*
X110839039Y-103618096D01*
X110617000Y-103740085D01*
X110617000Y-105283000D01*
X110637000Y-105283000D01*
X110637000Y-105537000D01*
X110617000Y-105537000D01*
X110617000Y-105557000D01*
X110363000Y-105557000D01*
X110363000Y-105537000D01*
X109055000Y-105537000D01*
X109055000Y-105937000D01*
X109107350Y-106214514D01*
X109212834Y-106476483D01*
X109367399Y-106712839D01*
X109565105Y-106914500D01*
X109785587Y-107065000D01*
X106723469Y-107065000D01*
X106680000Y-107060719D01*
X106636531Y-107065000D01*
X106636523Y-107065000D01*
X106506510Y-107077805D01*
X106339686Y-107128411D01*
X106185941Y-107210589D01*
X106084953Y-107293468D01*
X106084951Y-107293470D01*
X106051183Y-107321183D01*
X106023470Y-107354951D01*
X102503422Y-110875000D01*
X93076579Y-110875000D01*
X92325000Y-110123422D01*
X92325000Y-103566205D01*
X92381068Y-103671101D01*
X92560392Y-103889608D01*
X92778899Y-104068932D01*
X92845001Y-104104264D01*
X92845000Y-108254893D01*
X92826525Y-108273368D01*
X92664010Y-108516589D01*
X92552068Y-108786842D01*
X92495000Y-109073740D01*
X92495000Y-109366260D01*
X92552068Y-109653158D01*
X92664010Y-109923411D01*
X92826525Y-110166632D01*
X93033368Y-110373475D01*
X93276589Y-110535990D01*
X93546842Y-110647932D01*
X93833740Y-110705000D01*
X94126260Y-110705000D01*
X94413158Y-110647932D01*
X94683411Y-110535990D01*
X94926632Y-110373475D01*
X95133475Y-110166632D01*
X95250000Y-109992240D01*
X95366525Y-110166632D01*
X95573368Y-110373475D01*
X95816589Y-110535990D01*
X96086842Y-110647932D01*
X96373740Y-110705000D01*
X96666260Y-110705000D01*
X96953158Y-110647932D01*
X97223411Y-110535990D01*
X97466632Y-110373475D01*
X97598487Y-110241620D01*
X97620498Y-110314180D01*
X97679463Y-110424494D01*
X97758815Y-110521185D01*
X97855506Y-110600537D01*
X97965820Y-110659502D01*
X98085518Y-110695812D01*
X98210000Y-110708072D01*
X98774250Y-110705000D01*
X98933000Y-110546250D01*
X98933000Y-109347000D01*
X99187000Y-109347000D01*
X99187000Y-110546250D01*
X99345750Y-110705000D01*
X99910000Y-110708072D01*
X100034482Y-110695812D01*
X100154180Y-110659502D01*
X100264494Y-110600537D01*
X100361185Y-110521185D01*
X100440537Y-110424494D01*
X100499502Y-110314180D01*
X100535812Y-110194482D01*
X100548072Y-110070000D01*
X100545000Y-109505750D01*
X100386250Y-109347000D01*
X99187000Y-109347000D01*
X98933000Y-109347000D01*
X98913000Y-109347000D01*
X98913000Y-109093000D01*
X98933000Y-109093000D01*
X98933000Y-107893750D01*
X99187000Y-107893750D01*
X99187000Y-109093000D01*
X100386250Y-109093000D01*
X100545000Y-108934250D01*
X100548072Y-108370000D01*
X100535812Y-108245518D01*
X100499502Y-108125820D01*
X100440537Y-108015506D01*
X100361185Y-107918815D01*
X100264494Y-107839463D01*
X100154180Y-107780498D01*
X100034482Y-107744188D01*
X99910000Y-107731928D01*
X99345750Y-107735000D01*
X99187000Y-107893750D01*
X98933000Y-107893750D01*
X98774250Y-107735000D01*
X98210000Y-107731928D01*
X98085518Y-107744188D01*
X97965820Y-107780498D01*
X97855506Y-107839463D01*
X97758815Y-107918815D01*
X97679463Y-108015506D01*
X97620498Y-108125820D01*
X97598487Y-108198380D01*
X97466632Y-108066525D01*
X97223411Y-107904010D01*
X96953158Y-107792068D01*
X96666260Y-107735000D01*
X96373740Y-107735000D01*
X96086842Y-107792068D01*
X95816589Y-107904010D01*
X95573368Y-108066525D01*
X95366525Y-108273368D01*
X95250000Y-108447760D01*
X95133475Y-108273368D01*
X95115000Y-108254893D01*
X95115000Y-104104264D01*
X95181101Y-104068932D01*
X95399608Y-103889608D01*
X95578932Y-103671101D01*
X95712182Y-103421808D01*
X95794236Y-103151309D01*
X95821943Y-102870000D01*
X95794236Y-102588691D01*
X95712182Y-102318192D01*
X95578932Y-102068899D01*
X95399608Y-101850392D01*
X95181101Y-101671068D01*
X95048142Y-101600000D01*
X95181101Y-101528932D01*
X95399608Y-101349608D01*
X95578932Y-101131101D01*
X95712182Y-100881808D01*
X95794236Y-100611309D01*
X95821943Y-100330000D01*
X95794236Y-100048691D01*
X95712182Y-99778192D01*
X95578932Y-99528899D01*
X95399608Y-99310392D01*
X95181101Y-99131068D01*
X95048142Y-99060000D01*
X95181101Y-98988932D01*
X95399608Y-98809608D01*
X95578932Y-98591101D01*
X95712182Y-98341808D01*
X95794236Y-98071309D01*
X95821943Y-97790000D01*
X95794236Y-97508691D01*
X95712182Y-97238192D01*
X95578932Y-96988899D01*
X95399608Y-96770392D01*
X95181101Y-96591068D01*
X95048142Y-96520000D01*
X95181101Y-96448932D01*
X95399608Y-96269608D01*
X95578932Y-96051101D01*
X95712182Y-95801808D01*
X95794236Y-95531309D01*
X95821943Y-95250000D01*
X95794236Y-94968691D01*
X95712182Y-94698192D01*
X95578932Y-94448899D01*
X95399608Y-94230392D01*
X95181101Y-94051068D01*
X95048142Y-93980000D01*
X95181101Y-93908932D01*
X95399608Y-93729608D01*
X95552772Y-93542977D01*
X95590313Y-93531589D01*
X95744059Y-93449411D01*
X95878817Y-93338817D01*
X95906534Y-93305044D01*
X98385049Y-90826530D01*
X98418817Y-90798817D01*
X98529411Y-90664059D01*
X98611589Y-90510313D01*
X98662195Y-90343490D01*
X98675000Y-90213477D01*
X98675000Y-90213467D01*
X98679281Y-90170001D01*
X98675000Y-90126535D01*
X98675000Y-84740961D01*
X99808096Y-84740961D01*
X99930085Y-84963000D01*
X101473000Y-84963000D01*
X101473000Y-83655000D01*
X101727000Y-83655000D01*
X101727000Y-84963000D01*
X103269915Y-84963000D01*
X103391904Y-84740961D01*
X103374367Y-84658182D01*
X103263715Y-84398354D01*
X103104500Y-84165105D01*
X102902839Y-83967399D01*
X102666483Y-83812834D01*
X102404514Y-83707350D01*
X102127000Y-83655000D01*
X101727000Y-83655000D01*
X101473000Y-83655000D01*
X101073000Y-83655000D01*
X100795486Y-83707350D01*
X100533517Y-83812834D01*
X100297161Y-83967399D01*
X100095500Y-84165105D01*
X99936285Y-84398354D01*
X99825633Y-84658182D01*
X99808096Y-84740961D01*
X98675000Y-84740961D01*
X98675000Y-82593465D01*
X98679281Y-82549999D01*
X98675000Y-82506533D01*
X98675000Y-82506523D01*
X98662195Y-82376510D01*
X98611589Y-82209687D01*
X98529411Y-82055941D01*
X98418817Y-81921183D01*
X98385050Y-81893471D01*
X97405000Y-80913422D01*
X97405000Y-77580512D01*
X103334783Y-77580512D01*
X103376213Y-77860130D01*
X103471397Y-78126292D01*
X103538329Y-78251514D01*
X103782298Y-78323097D01*
X104595395Y-77510000D01*
X104954605Y-77510000D01*
X105767702Y-78323097D01*
X106011671Y-78251514D01*
X106132571Y-77996004D01*
X106201300Y-77721816D01*
X106215217Y-77439488D01*
X106173787Y-77159870D01*
X106078603Y-76893708D01*
X106011671Y-76768486D01*
X105767702Y-76696903D01*
X104954605Y-77510000D01*
X104595395Y-77510000D01*
X103782298Y-76696903D01*
X103538329Y-76768486D01*
X103417429Y-77023996D01*
X103348700Y-77298184D01*
X103334783Y-77580512D01*
X97405000Y-77580512D01*
X97405000Y-76517298D01*
X103961903Y-76517298D01*
X104775000Y-77330395D01*
X105588097Y-76517298D01*
X105516514Y-76273329D01*
X105261004Y-76152429D01*
X104986816Y-76083700D01*
X104704488Y-76069783D01*
X104424870Y-76111213D01*
X104158708Y-76206397D01*
X104033486Y-76273329D01*
X103961903Y-76517298D01*
X97405000Y-76517298D01*
X97405000Y-76002702D01*
X98246903Y-76002702D01*
X98318486Y-76246671D01*
X98573996Y-76367571D01*
X98848184Y-76436300D01*
X99130512Y-76450217D01*
X99410130Y-76408787D01*
X99676292Y-76313603D01*
X99801514Y-76246671D01*
X99873097Y-76002702D01*
X99060000Y-75189605D01*
X98246903Y-76002702D01*
X97405000Y-76002702D01*
X97405000Y-75080512D01*
X97619783Y-75080512D01*
X97661213Y-75360130D01*
X97756397Y-75626292D01*
X97823329Y-75751514D01*
X98067298Y-75823097D01*
X98880395Y-75010000D01*
X99239605Y-75010000D01*
X100052702Y-75823097D01*
X100296671Y-75751514D01*
X100417571Y-75496004D01*
X100486300Y-75221816D01*
X100500217Y-74939488D01*
X100458787Y-74659870D01*
X100363603Y-74393708D01*
X100296671Y-74268486D01*
X100052702Y-74196903D01*
X99239605Y-75010000D01*
X98880395Y-75010000D01*
X98067298Y-74196903D01*
X97823329Y-74268486D01*
X97702429Y-74523996D01*
X97633700Y-74798184D01*
X97619783Y-75080512D01*
X97405000Y-75080512D01*
X97405000Y-74026578D01*
X97414280Y-74017298D01*
X98246903Y-74017298D01*
X99060000Y-74830395D01*
X99873097Y-74017298D01*
X99801514Y-73773329D01*
X99546004Y-73652429D01*
X99271816Y-73583700D01*
X98989488Y-73569783D01*
X98709870Y-73611213D01*
X98443708Y-73706397D01*
X98318486Y-73773329D01*
X98246903Y-74017298D01*
X97414280Y-74017298D01*
X98156579Y-73275000D01*
X101233422Y-73275000D01*
X103483470Y-75525049D01*
X103511183Y-75558817D01*
X103544951Y-75586530D01*
X103544953Y-75586532D01*
X103593401Y-75626292D01*
X103645941Y-75669411D01*
X103799687Y-75751589D01*
X103966510Y-75802195D01*
X104096523Y-75815000D01*
X104096533Y-75815000D01*
X104139999Y-75819281D01*
X104183465Y-75815000D01*
X114891531Y-75815000D01*
X114935000Y-75819281D01*
X114978469Y-75815000D01*
X114978477Y-75815000D01*
X115108490Y-75802195D01*
X115275313Y-75751589D01*
X115429059Y-75669411D01*
X115563817Y-75558817D01*
X115591534Y-75525044D01*
X118070049Y-73046530D01*
X118103817Y-73018817D01*
X118131533Y-72985046D01*
X118214410Y-72884060D01*
X118231808Y-72851511D01*
X118296589Y-72730313D01*
X118347195Y-72563490D01*
X118360000Y-72433477D01*
X118360000Y-72433467D01*
X118364281Y-72390001D01*
X118360000Y-72346535D01*
X118360000Y-72314656D01*
X118421632Y-72273475D01*
X118628475Y-72066632D01*
X118745000Y-71892240D01*
X118861525Y-72066632D01*
X119068368Y-72273475D01*
X119130001Y-72314657D01*
X119130000Y-73927025D01*
X118978038Y-74078987D01*
X118831939Y-74297641D01*
X118731304Y-74540595D01*
X118680000Y-74798514D01*
X118680000Y-75061486D01*
X118731304Y-75319405D01*
X118831939Y-75562359D01*
X118978038Y-75781013D01*
X119163987Y-75966962D01*
X119382641Y-76113061D01*
X119625595Y-76213696D01*
X119883514Y-76265000D01*
X120146486Y-76265000D01*
X120404405Y-76213696D01*
X120647359Y-76113061D01*
X120866013Y-75966962D01*
X121051962Y-75781013D01*
X121198061Y-75562359D01*
X121298696Y-75319405D01*
X121350000Y-75061486D01*
X121350000Y-74798514D01*
X121298696Y-74540595D01*
X121198061Y-74297641D01*
X121051962Y-74078987D01*
X120900000Y-73927025D01*
X120900000Y-72314656D01*
X120961632Y-72273475D01*
X121093487Y-72141620D01*
X121115498Y-72214180D01*
X121174463Y-72324494D01*
X121253815Y-72421185D01*
X121350506Y-72500537D01*
X121460820Y-72559502D01*
X121580518Y-72595812D01*
X121705000Y-72608072D01*
X123405000Y-72608072D01*
X123529482Y-72595812D01*
X123649180Y-72559502D01*
X123759494Y-72500537D01*
X123856185Y-72421185D01*
X123935537Y-72324494D01*
X123994502Y-72214180D01*
X124030812Y-72094482D01*
X124043072Y-71970000D01*
X124043072Y-70270000D01*
X124030812Y-70145518D01*
X123994502Y-70025820D01*
X123935537Y-69915506D01*
X123856185Y-69818815D01*
X123759494Y-69739463D01*
X123649180Y-69680498D01*
X123529482Y-69644188D01*
X123405000Y-69631928D01*
X121705000Y-69631928D01*
X121580518Y-69644188D01*
X121460820Y-69680498D01*
X121350506Y-69739463D01*
X121253815Y-69818815D01*
X121174463Y-69915506D01*
X121115498Y-70025820D01*
X121093487Y-70098380D01*
X120961632Y-69966525D01*
X120718411Y-69804010D01*
X120448158Y-69692068D01*
X120161260Y-69635000D01*
X119868740Y-69635000D01*
X119581842Y-69692068D01*
X119311589Y-69804010D01*
X119068368Y-69966525D01*
X118861525Y-70173368D01*
X118745000Y-70347760D01*
X118628475Y-70173368D01*
X118421632Y-69966525D01*
X118178411Y-69804010D01*
X117908158Y-69692068D01*
X117621260Y-69635000D01*
X117328740Y-69635000D01*
X117041842Y-69692068D01*
X116771589Y-69804010D01*
X116528368Y-69966525D01*
X116321525Y-70173368D01*
X116205000Y-70347760D01*
X116088475Y-70173368D01*
X115881632Y-69966525D01*
X115638411Y-69804010D01*
X115368158Y-69692068D01*
X115081260Y-69635000D01*
X114788740Y-69635000D01*
X114501842Y-69692068D01*
X114231589Y-69804010D01*
X113988368Y-69966525D01*
X113781525Y-70173368D01*
X113665000Y-70347760D01*
X113548475Y-70173368D01*
X113341632Y-69966525D01*
X113098411Y-69804010D01*
X112828158Y-69692068D01*
X112541260Y-69635000D01*
X112248740Y-69635000D01*
X111961842Y-69692068D01*
X111691589Y-69804010D01*
X111448368Y-69966525D01*
X111241525Y-70173368D01*
X111125000Y-70347760D01*
X111008475Y-70173368D01*
X110801632Y-69966525D01*
X110558411Y-69804010D01*
X110288158Y-69692068D01*
X110001260Y-69635000D01*
X109708740Y-69635000D01*
X109421842Y-69692068D01*
X109151589Y-69804010D01*
X108908368Y-69966525D01*
X108701525Y-70173368D01*
X108579805Y-70355534D01*
X108510178Y-70238645D01*
X108315269Y-70022412D01*
X108081920Y-69848359D01*
X107819099Y-69723175D01*
X107671890Y-69678524D01*
X107442000Y-69799845D01*
X107442000Y-70993000D01*
X107462000Y-70993000D01*
X107462000Y-71247000D01*
X107442000Y-71247000D01*
X107442000Y-72440155D01*
X107671890Y-72561476D01*
X107819099Y-72516825D01*
X108081920Y-72391641D01*
X108315269Y-72217588D01*
X108510178Y-72001355D01*
X108579805Y-71884466D01*
X108701525Y-72066632D01*
X108908368Y-72273475D01*
X109151589Y-72435990D01*
X109421842Y-72547932D01*
X109708740Y-72605000D01*
X110001260Y-72605000D01*
X110288158Y-72547932D01*
X110558411Y-72435990D01*
X110801632Y-72273475D01*
X111008475Y-72066632D01*
X111125000Y-71892240D01*
X111241525Y-72066632D01*
X111448368Y-72273475D01*
X111691589Y-72435990D01*
X111961842Y-72547932D01*
X112248740Y-72605000D01*
X112541260Y-72605000D01*
X112828158Y-72547932D01*
X113098411Y-72435990D01*
X113341632Y-72273475D01*
X113548475Y-72066632D01*
X113665000Y-71892240D01*
X113781525Y-72066632D01*
X113894157Y-72179264D01*
X113298422Y-72775000D01*
X105141579Y-72775000D01*
X103843470Y-71476891D01*
X105873519Y-71476891D01*
X105970843Y-71751252D01*
X106119822Y-72001355D01*
X106314731Y-72217588D01*
X106548080Y-72391641D01*
X106810901Y-72516825D01*
X106958110Y-72561476D01*
X107188000Y-72440155D01*
X107188000Y-71247000D01*
X105994186Y-71247000D01*
X105873519Y-71476891D01*
X103843470Y-71476891D01*
X103129688Y-70763109D01*
X105873519Y-70763109D01*
X105994186Y-70993000D01*
X107188000Y-70993000D01*
X107188000Y-69799845D01*
X106958110Y-69678524D01*
X106810901Y-69723175D01*
X106548080Y-69848359D01*
X106314731Y-70022412D01*
X106119822Y-70238645D01*
X105970843Y-70488748D01*
X105873519Y-70763109D01*
X103129688Y-70763109D01*
X102891534Y-70524956D01*
X102863817Y-70491183D01*
X102729059Y-70380589D01*
X102575313Y-70298411D01*
X102408490Y-70247805D01*
X102278477Y-70235000D01*
X102278469Y-70235000D01*
X102235000Y-70230719D01*
X102191531Y-70235000D01*
X97198469Y-70235000D01*
X97155000Y-70230719D01*
X97111531Y-70235000D01*
X97111523Y-70235000D01*
X96981510Y-70247805D01*
X96814687Y-70298411D01*
X96660941Y-70380589D01*
X96559953Y-70463468D01*
X96559951Y-70463470D01*
X96526183Y-70491183D01*
X96498470Y-70524951D01*
X94654956Y-72368466D01*
X94621183Y-72396183D01*
X94510589Y-72530942D01*
X94428411Y-72684688D01*
X94377805Y-72851511D01*
X94365000Y-72981524D01*
X94365000Y-72981531D01*
X94360719Y-73025000D01*
X94365000Y-73068469D01*
X94365001Y-81871521D01*
X94360719Y-81915000D01*
X94377805Y-82088490D01*
X94428412Y-82255313D01*
X94510590Y-82409059D01*
X94593468Y-82510046D01*
X94593471Y-82510049D01*
X94621184Y-82543817D01*
X94654951Y-82571529D01*
X95635000Y-83551579D01*
X95635000Y-84393795D01*
X95578932Y-84288899D01*
X95399608Y-84070392D01*
X95181101Y-83891068D01*
X94931808Y-83757818D01*
X94661309Y-83675764D01*
X94450492Y-83655000D01*
X93509508Y-83655000D01*
X93298691Y-83675764D01*
X93028192Y-83757818D01*
X92778899Y-83891068D01*
X92560392Y-84070392D01*
X92381068Y-84288899D01*
X92247818Y-84538192D01*
X92165764Y-84808691D01*
X92138057Y-85090000D01*
X92165764Y-85371309D01*
X92247818Y-85641808D01*
X92381068Y-85891101D01*
X92560392Y-86109608D01*
X92778899Y-86288932D01*
X92911858Y-86360000D01*
X92778899Y-86431068D01*
X92560392Y-86610392D01*
X92381068Y-86828899D01*
X92247818Y-87078192D01*
X92165764Y-87348691D01*
X92138057Y-87630000D01*
X92165764Y-87911309D01*
X92247818Y-88181808D01*
X92381068Y-88431101D01*
X92560392Y-88649608D01*
X92778899Y-88828932D01*
X92911858Y-88900000D01*
X92778899Y-88971068D01*
X92560392Y-89150392D01*
X92407228Y-89337023D01*
X92369686Y-89348411D01*
X92215941Y-89430589D01*
X92114953Y-89513468D01*
X92114951Y-89513470D01*
X92081183Y-89541183D01*
X92053470Y-89574951D01*
X88304951Y-93323470D01*
X88271184Y-93351183D01*
X88243471Y-93384951D01*
X88243468Y-93384954D01*
X88160590Y-93485941D01*
X88078412Y-93639687D01*
X88027805Y-93806510D01*
X88010719Y-93980000D01*
X87045000Y-93980000D01*
X87045000Y-69265000D01*
X146635000Y-69265000D01*
X146635001Y-122505000D01*
G37*
G04 #@! TD.AperFunction*
G04 #@! TD*
M02*
