%FSLAX45Y45*%
G04 Gerber Fmt 4.5, Leading zero omitted, Abs format (unit mm)*
G04 Created by KiCad (PCBNEW (5.1.12)-1) date 2022-05-14 07:58:42*
%MOMM*%
%LPD*%
G01*
G04 APERTURE LIST*
%TA.AperFunction,Profile*%
%ADD10C,0.100000*%
%TD*%
%ADD11C,0.200000*%
%ADD12C,0.300000*%
G04 APERTURE END LIST*
D10*
X14732000Y-6858000D02*
X14732000Y-12319000D01*
X8636000Y-6858000D02*
X14732000Y-6858000D01*
X8636000Y-12319000D02*
X8636000Y-6858000D01*
X14732000Y-12319000D02*
X8636000Y-12319000D01*
D11*
X10648000Y-9251000D02*
X10688000Y-9291000D01*
X10688000Y-9251000D02*
X10648000Y-9291000D01*
X10902000Y-8997000D02*
X10942000Y-9037000D01*
X10942000Y-8997000D02*
X10902000Y-9037000D01*
X12036500Y-7493000D02*
G75*
G03*
X12036500Y-7493000I-35000J0D01*
G01*
X12036500Y-8001000D02*
G75*
G03*
X12036500Y-8001000I-35000J0D01*
G01*
X12735000Y-7493000D02*
G75*
G03*
X12735000Y-7493000I-35000J0D01*
G01*
X12735000Y-7747000D02*
G75*
G03*
X12735000Y-7747000I-35000J0D01*
G01*
X12989000Y-7493000D02*
G75*
G03*
X12989000Y-7493000I-35000J0D01*
G01*
X12989000Y-7747000D02*
G75*
G03*
X12989000Y-7747000I-35000J0D01*
G01*
X13243000Y-7493000D02*
G75*
G03*
X13243000Y-7493000I-35000J0D01*
G01*
X13243000Y-7747000D02*
G75*
G03*
X13243000Y-7747000I-35000J0D01*
G01*
X13497000Y-7493000D02*
G75*
G03*
X13497000Y-7493000I-35000J0D01*
G01*
X13497000Y-7747000D02*
G75*
G03*
X13497000Y-7747000I-35000J0D01*
G01*
X13751000Y-7493000D02*
G75*
G03*
X13751000Y-7493000I-35000J0D01*
G01*
X13751000Y-7747000D02*
G75*
G03*
X13751000Y-7747000I-35000J0D01*
G01*
X13878000Y-10541000D02*
G75*
G03*
X13878000Y-10541000I-35000J0D01*
G01*
X13878000Y-11303000D02*
G75*
G03*
X13878000Y-11303000I-35000J0D01*
G01*
X14005000Y-7493000D02*
G75*
G03*
X14005000Y-7493000I-35000J0D01*
G01*
X14005000Y-7747000D02*
G75*
G03*
X14005000Y-7747000I-35000J0D01*
G01*
X14132000Y-10541000D02*
G75*
G03*
X14132000Y-10541000I-35000J0D01*
G01*
X14132000Y-11303000D02*
G75*
G03*
X14132000Y-11303000I-35000J0D01*
G01*
X14259000Y-7493000D02*
G75*
G03*
X14259000Y-7493000I-35000J0D01*
G01*
X14259000Y-7747000D02*
G75*
G03*
X14259000Y-7747000I-35000J0D01*
G01*
X14513000Y-7493000D02*
G75*
G03*
X14513000Y-7493000I-35000J0D01*
G01*
X14513000Y-7747000D02*
G75*
G03*
X14513000Y-7747000I-35000J0D01*
G01*
X9398000Y-8469000D02*
X9398000Y-8549000D01*
X9358000Y-8509000D02*
X9438000Y-8509000D01*
X9398000Y-8723000D02*
X9398000Y-8803000D01*
X9358000Y-8763000D02*
X9438000Y-8763000D01*
X9398000Y-8977000D02*
X9398000Y-9057000D01*
X9358000Y-9017000D02*
X9438000Y-9017000D01*
X9398000Y-9231000D02*
X9398000Y-9311000D01*
X9358000Y-9271000D02*
X9438000Y-9271000D01*
X9398000Y-9485000D02*
X9398000Y-9565000D01*
X9358000Y-9525000D02*
X9438000Y-9525000D01*
X9398000Y-9739000D02*
X9398000Y-9819000D01*
X9358000Y-9779000D02*
X9438000Y-9779000D01*
X9398000Y-9993000D02*
X9398000Y-10073000D01*
X9358000Y-10033000D02*
X9438000Y-10033000D01*
X9398000Y-10247000D02*
X9398000Y-10327000D01*
X9358000Y-10287000D02*
X9438000Y-10287000D01*
X9906000Y-7461000D02*
X9906000Y-7541000D01*
X9866000Y-7501000D02*
X9946000Y-7501000D01*
X9906000Y-7961000D02*
X9906000Y-8041000D01*
X9866000Y-8001000D02*
X9946000Y-8001000D01*
X10160000Y-8469000D02*
X10160000Y-8549000D01*
X10120000Y-8509000D02*
X10200000Y-8509000D01*
X10160000Y-8723000D02*
X10160000Y-8803000D01*
X10120000Y-8763000D02*
X10200000Y-8763000D01*
X10160000Y-8977000D02*
X10160000Y-9057000D01*
X10120000Y-9017000D02*
X10200000Y-9017000D01*
X10160000Y-9231000D02*
X10160000Y-9311000D01*
X10120000Y-9271000D02*
X10200000Y-9271000D01*
X10160000Y-9485000D02*
X10160000Y-9565000D01*
X10120000Y-9525000D02*
X10200000Y-9525000D01*
X10160000Y-9739000D02*
X10160000Y-9819000D01*
X10120000Y-9779000D02*
X10200000Y-9779000D01*
X10160000Y-9993000D02*
X10160000Y-10073000D01*
X10120000Y-10033000D02*
X10200000Y-10033000D01*
X10160000Y-10247000D02*
X10160000Y-10327000D01*
X10120000Y-10287000D02*
X10200000Y-10287000D01*
X10477500Y-7711000D02*
X10477500Y-7791000D01*
X10437500Y-7751000D02*
X10517500Y-7751000D01*
X10477500Y-7961000D02*
X10477500Y-8041000D01*
X10437500Y-8001000D02*
X10517500Y-8001000D01*
X10795000Y-8469000D02*
X10795000Y-8549000D01*
X10755000Y-8509000D02*
X10835000Y-8509000D01*
X10795000Y-9993000D02*
X10795000Y-10073000D01*
X10755000Y-10033000D02*
X10835000Y-10033000D01*
X11049000Y-8469000D02*
X11049000Y-8549000D01*
X11009000Y-8509000D02*
X11089000Y-8509000D01*
X11049000Y-9993000D02*
X11049000Y-10073000D01*
X11009000Y-10033000D02*
X11089000Y-10033000D01*
X11049000Y-10501000D02*
X11049000Y-10581000D01*
X11009000Y-10541000D02*
X11089000Y-10541000D01*
X11049000Y-11263000D02*
X11049000Y-11343000D01*
X11009000Y-11303000D02*
X11089000Y-11303000D01*
X11303000Y-8469000D02*
X11303000Y-8549000D01*
X11263000Y-8509000D02*
X11343000Y-8509000D01*
X11303000Y-9993000D02*
X11303000Y-10073000D01*
X11263000Y-10033000D02*
X11343000Y-10033000D01*
X11303000Y-10501000D02*
X11303000Y-10581000D01*
X11263000Y-10541000D02*
X11343000Y-10541000D01*
X11303000Y-11263000D02*
X11303000Y-11343000D01*
X11263000Y-11303000D02*
X11343000Y-11303000D01*
X11557000Y-8469000D02*
X11557000Y-8549000D01*
X11517000Y-8509000D02*
X11597000Y-8509000D01*
X11557000Y-9993000D02*
X11557000Y-10073000D01*
X11517000Y-10033000D02*
X11597000Y-10033000D01*
X11557000Y-10501000D02*
X11557000Y-10581000D01*
X11517000Y-10541000D02*
X11597000Y-10541000D01*
X11557000Y-11263000D02*
X11557000Y-11343000D01*
X11517000Y-11303000D02*
X11597000Y-11303000D01*
X11811000Y-8469000D02*
X11811000Y-8549000D01*
X11771000Y-8509000D02*
X11851000Y-8509000D01*
X11811000Y-9993000D02*
X11811000Y-10073000D01*
X11771000Y-10033000D02*
X11851000Y-10033000D01*
X11811000Y-10501000D02*
X11811000Y-10581000D01*
X11771000Y-10541000D02*
X11851000Y-10541000D01*
X11811000Y-11263000D02*
X11811000Y-11343000D01*
X11771000Y-11303000D02*
X11851000Y-11303000D01*
X12065000Y-8469000D02*
X12065000Y-8549000D01*
X12025000Y-8509000D02*
X12105000Y-8509000D01*
X12065000Y-9993000D02*
X12065000Y-10073000D01*
X12025000Y-10033000D02*
X12105000Y-10033000D01*
X12065000Y-10501000D02*
X12065000Y-10581000D01*
X12025000Y-10541000D02*
X12105000Y-10541000D01*
X12065000Y-11263000D02*
X12065000Y-11343000D01*
X12025000Y-11303000D02*
X12105000Y-11303000D01*
X12319000Y-8469000D02*
X12319000Y-8549000D01*
X12279000Y-8509000D02*
X12359000Y-8509000D01*
X12319000Y-9993000D02*
X12319000Y-10073000D01*
X12279000Y-10033000D02*
X12359000Y-10033000D01*
X12319000Y-10501000D02*
X12319000Y-10581000D01*
X12279000Y-10541000D02*
X12359000Y-10541000D01*
X12319000Y-11263000D02*
X12319000Y-11343000D01*
X12279000Y-11303000D02*
X12359000Y-11303000D01*
X12573000Y-8469000D02*
X12573000Y-8549000D01*
X12533000Y-8509000D02*
X12613000Y-8509000D01*
X12573000Y-9993000D02*
X12573000Y-10073000D01*
X12533000Y-10033000D02*
X12613000Y-10033000D01*
X12573000Y-10501000D02*
X12573000Y-10581000D01*
X12533000Y-10541000D02*
X12613000Y-10541000D01*
X12573000Y-11263000D02*
X12573000Y-11343000D01*
X12533000Y-11303000D02*
X12613000Y-11303000D01*
X12827000Y-8469000D02*
X12827000Y-8549000D01*
X12787000Y-8509000D02*
X12867000Y-8509000D01*
X12827000Y-9993000D02*
X12827000Y-10073000D01*
X12787000Y-10033000D02*
X12867000Y-10033000D01*
X12827000Y-10501000D02*
X12827000Y-10581000D01*
X12787000Y-10541000D02*
X12867000Y-10541000D01*
X12827000Y-11263000D02*
X12827000Y-11343000D01*
X12787000Y-11303000D02*
X12867000Y-11303000D01*
X13081000Y-8469000D02*
X13081000Y-8549000D01*
X13041000Y-8509000D02*
X13121000Y-8509000D01*
X13081000Y-9993000D02*
X13081000Y-10073000D01*
X13041000Y-10033000D02*
X13121000Y-10033000D01*
X13335000Y-8469000D02*
X13335000Y-8549000D01*
X13295000Y-8509000D02*
X13375000Y-8509000D01*
X13335000Y-9993000D02*
X13335000Y-10073000D01*
X13295000Y-10033000D02*
X13375000Y-10033000D01*
X13335000Y-10636000D02*
X13335000Y-10716000D01*
X13295000Y-10676000D02*
X13375000Y-10676000D01*
X13335000Y-11136000D02*
X13335000Y-11216000D01*
X13295000Y-11176000D02*
X13375000Y-11176000D01*
X13589000Y-8469000D02*
X13589000Y-8549000D01*
X13549000Y-8509000D02*
X13629000Y-8509000D01*
X13589000Y-9993000D02*
X13589000Y-10073000D01*
X13549000Y-10033000D02*
X13629000Y-10033000D01*
X13843000Y-8469000D02*
X13843000Y-8549000D01*
X13803000Y-8509000D02*
X13883000Y-8509000D01*
X13843000Y-9993000D02*
X13843000Y-10073000D01*
X13803000Y-10033000D02*
X13883000Y-10033000D01*
X14097000Y-8469000D02*
X14097000Y-8549000D01*
X14057000Y-8509000D02*
X14137000Y-8509000D01*
X14097000Y-9993000D02*
X14097000Y-10073000D01*
X14057000Y-10033000D02*
X14137000Y-10033000D01*
X9433356Y-10957356D02*
X9433356Y-10886644D01*
X9362644Y-10886644D01*
X9362644Y-10957356D01*
X9433356Y-10957356D01*
X9687356Y-10957356D02*
X9687356Y-10886644D01*
X9616644Y-10886644D01*
X9616644Y-10957356D01*
X9687356Y-10957356D01*
X9941356Y-10957356D02*
X9941356Y-10886644D01*
X9870644Y-10886644D01*
X9870644Y-10957356D01*
X9941356Y-10957356D01*
X10766856Y-7147356D02*
X10766856Y-7076644D01*
X10696144Y-7076644D01*
X10696144Y-7147356D01*
X10766856Y-7147356D01*
X11020856Y-7147356D02*
X11020856Y-7076644D01*
X10950144Y-7076644D01*
X10950144Y-7147356D01*
X11020856Y-7147356D01*
X11084356Y-8036356D02*
X11084356Y-7965644D01*
X11013644Y-7965644D01*
X11013644Y-8036356D01*
X11084356Y-8036356D01*
X11274856Y-7147356D02*
X11274856Y-7076644D01*
X11204144Y-7076644D01*
X11204144Y-7147356D01*
X11274856Y-7147356D01*
X11338356Y-8036356D02*
X11338356Y-7965644D01*
X11267644Y-7965644D01*
X11267644Y-8036356D01*
X11338356Y-8036356D01*
X11465356Y-12100356D02*
X11465356Y-12029644D01*
X11394644Y-12029644D01*
X11394644Y-12100356D01*
X11465356Y-12100356D01*
X11528856Y-7147356D02*
X11528856Y-7076644D01*
X11458144Y-7076644D01*
X11458144Y-7147356D01*
X11528856Y-7147356D01*
X11592356Y-8036356D02*
X11592356Y-7965644D01*
X11521644Y-7965644D01*
X11521644Y-8036356D01*
X11592356Y-8036356D01*
X11719356Y-12100356D02*
X11719356Y-12029644D01*
X11648644Y-12029644D01*
X11648644Y-12100356D01*
X11719356Y-12100356D01*
X11782856Y-7147356D02*
X11782856Y-7076644D01*
X11712144Y-7076644D01*
X11712144Y-7147356D01*
X11782856Y-7147356D01*
X11973356Y-12100356D02*
X11973356Y-12029644D01*
X11902644Y-12029644D01*
X11902644Y-12100356D01*
X11973356Y-12100356D01*
X12036856Y-7147356D02*
X12036856Y-7076644D01*
X11966144Y-7076644D01*
X11966144Y-7147356D01*
X12036856Y-7147356D01*
X12227356Y-12100356D02*
X12227356Y-12029644D01*
X12156644Y-12029644D01*
X12156644Y-12100356D01*
X12227356Y-12100356D01*
X12290856Y-7147356D02*
X12290856Y-7076644D01*
X12220144Y-7076644D01*
X12220144Y-7147356D01*
X12290856Y-7147356D01*
X12481356Y-12100356D02*
X12481356Y-12029644D01*
X12410644Y-12029644D01*
X12410644Y-12100356D01*
X12481356Y-12100356D01*
X12735356Y-7147356D02*
X12735356Y-7076644D01*
X12664644Y-7076644D01*
X12664644Y-7147356D01*
X12735356Y-7147356D01*
X12735356Y-12100356D02*
X12735356Y-12029644D01*
X12664644Y-12029644D01*
X12664644Y-12100356D01*
X12735356Y-12100356D01*
X12989356Y-7147356D02*
X12989356Y-7076644D01*
X12918644Y-7076644D01*
X12918644Y-7147356D01*
X12989356Y-7147356D01*
X13243356Y-7147356D02*
X13243356Y-7076644D01*
X13172644Y-7076644D01*
X13172644Y-7147356D01*
X13243356Y-7147356D01*
X13243356Y-12100356D02*
X13243356Y-12029644D01*
X13172644Y-12029644D01*
X13172644Y-12100356D01*
X13243356Y-12100356D01*
X13497356Y-7147356D02*
X13497356Y-7076644D01*
X13426644Y-7076644D01*
X13426644Y-7147356D01*
X13497356Y-7147356D01*
X13497356Y-12100356D02*
X13497356Y-12029644D01*
X13426644Y-12029644D01*
X13426644Y-12100356D01*
X13497356Y-12100356D01*
X13751356Y-7147356D02*
X13751356Y-7076644D01*
X13680644Y-7076644D01*
X13680644Y-7147356D01*
X13751356Y-7147356D01*
X13751356Y-12100356D02*
X13751356Y-12029644D01*
X13680644Y-12029644D01*
X13680644Y-12100356D01*
X13751356Y-12100356D01*
X14005356Y-7147356D02*
X14005356Y-7076644D01*
X13934644Y-7076644D01*
X13934644Y-7147356D01*
X14005356Y-7147356D01*
X14005356Y-12100356D02*
X14005356Y-12029644D01*
X13934644Y-12029644D01*
X13934644Y-12100356D01*
X14005356Y-12100356D01*
X14259356Y-7147356D02*
X14259356Y-7076644D01*
X14188644Y-7076644D01*
X14188644Y-7147356D01*
X14259356Y-7147356D01*
X14259356Y-12100356D02*
X14259356Y-12029644D01*
X14188644Y-12029644D01*
X14188644Y-12100356D01*
X14259356Y-12100356D01*
X14513356Y-7147356D02*
X14513356Y-7076644D01*
X14442644Y-7076644D01*
X14442644Y-7147356D01*
X14513356Y-7147356D01*
X14513356Y-12100356D02*
X14513356Y-12029644D01*
X14442644Y-12029644D01*
X14442644Y-12100356D01*
X14513356Y-12100356D01*
D12*
X8917428Y-12789714D02*
X8917428Y-12489714D01*
X8988857Y-12489714D01*
X9031714Y-12504000D01*
X9060286Y-12532571D01*
X9074571Y-12561143D01*
X9088857Y-12618286D01*
X9088857Y-12661143D01*
X9074571Y-12718286D01*
X9060286Y-12746857D01*
X9031714Y-12775429D01*
X8988857Y-12789714D01*
X8917428Y-12789714D01*
X9217428Y-12789714D02*
X9217428Y-12589714D01*
X9217428Y-12646857D02*
X9231714Y-12618286D01*
X9246000Y-12604000D01*
X9274571Y-12589714D01*
X9303143Y-12589714D01*
X9403143Y-12789714D02*
X9403143Y-12589714D01*
X9403143Y-12489714D02*
X9388857Y-12504000D01*
X9403143Y-12518286D01*
X9417428Y-12504000D01*
X9403143Y-12489714D01*
X9403143Y-12518286D01*
X9588857Y-12789714D02*
X9560286Y-12775429D01*
X9546000Y-12746857D01*
X9546000Y-12489714D01*
X9746000Y-12789714D02*
X9717428Y-12775429D01*
X9703143Y-12746857D01*
X9703143Y-12489714D01*
X10088857Y-12789714D02*
X10088857Y-12489714D01*
X10188857Y-12704000D01*
X10288857Y-12489714D01*
X10288857Y-12789714D01*
X10560286Y-12789714D02*
X10560286Y-12632571D01*
X10546000Y-12604000D01*
X10517428Y-12589714D01*
X10460286Y-12589714D01*
X10431714Y-12604000D01*
X10560286Y-12775429D02*
X10531714Y-12789714D01*
X10460286Y-12789714D01*
X10431714Y-12775429D01*
X10417428Y-12746857D01*
X10417428Y-12718286D01*
X10431714Y-12689714D01*
X10460286Y-12675429D01*
X10531714Y-12675429D01*
X10560286Y-12661143D01*
X10703143Y-12589714D02*
X10703143Y-12889714D01*
X10703143Y-12604000D02*
X10731714Y-12589714D01*
X10788857Y-12589714D01*
X10817428Y-12604000D01*
X10831714Y-12618286D01*
X10846000Y-12646857D01*
X10846000Y-12732571D01*
X10831714Y-12761143D01*
X10817428Y-12775429D01*
X10788857Y-12789714D01*
X10731714Y-12789714D01*
X10703143Y-12775429D01*
X10974571Y-12761143D02*
X10988857Y-12775429D01*
X10974571Y-12789714D01*
X10960286Y-12775429D01*
X10974571Y-12761143D01*
X10974571Y-12789714D01*
X10974571Y-12604000D02*
X10988857Y-12618286D01*
X10974571Y-12632571D01*
X10960286Y-12618286D01*
X10974571Y-12604000D01*
X10974571Y-12632571D01*
X8591000Y-13264000D02*
X8631000Y-13304000D01*
X8631000Y-13264000D02*
X8591000Y-13304000D01*
X8974571Y-13119714D02*
X9003143Y-13119714D01*
X9031714Y-13134000D01*
X9046000Y-13148286D01*
X9060286Y-13176857D01*
X9074571Y-13234000D01*
X9074571Y-13305429D01*
X9060286Y-13362571D01*
X9046000Y-13391143D01*
X9031714Y-13405429D01*
X9003143Y-13419714D01*
X8974571Y-13419714D01*
X8946000Y-13405429D01*
X8931714Y-13391143D01*
X8917428Y-13362571D01*
X8903143Y-13305429D01*
X8903143Y-13234000D01*
X8917428Y-13176857D01*
X8931714Y-13148286D01*
X8946000Y-13134000D01*
X8974571Y-13119714D01*
X9203143Y-13391143D02*
X9217428Y-13405429D01*
X9203143Y-13419714D01*
X9188857Y-13405429D01*
X9203143Y-13391143D01*
X9203143Y-13419714D01*
X9474571Y-13219714D02*
X9474571Y-13419714D01*
X9403143Y-13105429D02*
X9331714Y-13319714D01*
X9517428Y-13319714D01*
X9688857Y-13119714D02*
X9717428Y-13119714D01*
X9746000Y-13134000D01*
X9760286Y-13148286D01*
X9774571Y-13176857D01*
X9788857Y-13234000D01*
X9788857Y-13305429D01*
X9774571Y-13362571D01*
X9760286Y-13391143D01*
X9746000Y-13405429D01*
X9717428Y-13419714D01*
X9688857Y-13419714D01*
X9660286Y-13405429D01*
X9646000Y-13391143D01*
X9631714Y-13362571D01*
X9617428Y-13305429D01*
X9617428Y-13234000D01*
X9631714Y-13176857D01*
X9646000Y-13148286D01*
X9660286Y-13134000D01*
X9688857Y-13119714D01*
X9974571Y-13119714D02*
X10003143Y-13119714D01*
X10031714Y-13134000D01*
X10046000Y-13148286D01*
X10060286Y-13176857D01*
X10074571Y-13234000D01*
X10074571Y-13305429D01*
X10060286Y-13362571D01*
X10046000Y-13391143D01*
X10031714Y-13405429D01*
X10003143Y-13419714D01*
X9974571Y-13419714D01*
X9946000Y-13405429D01*
X9931714Y-13391143D01*
X9917428Y-13362571D01*
X9903143Y-13305429D01*
X9903143Y-13234000D01*
X9917428Y-13176857D01*
X9931714Y-13148286D01*
X9946000Y-13134000D01*
X9974571Y-13119714D01*
X10203143Y-13419714D02*
X10203143Y-13219714D01*
X10203143Y-13248286D02*
X10217428Y-13234000D01*
X10246000Y-13219714D01*
X10288857Y-13219714D01*
X10317428Y-13234000D01*
X10331714Y-13262571D01*
X10331714Y-13419714D01*
X10331714Y-13262571D02*
X10346000Y-13234000D01*
X10374571Y-13219714D01*
X10417428Y-13219714D01*
X10446000Y-13234000D01*
X10460286Y-13262571D01*
X10460286Y-13419714D01*
X10603143Y-13419714D02*
X10603143Y-13219714D01*
X10603143Y-13248286D02*
X10617428Y-13234000D01*
X10646000Y-13219714D01*
X10688857Y-13219714D01*
X10717428Y-13234000D01*
X10731714Y-13262571D01*
X10731714Y-13419714D01*
X10731714Y-13262571D02*
X10746000Y-13234000D01*
X10774571Y-13219714D01*
X10817428Y-13219714D01*
X10846000Y-13234000D01*
X10860286Y-13262571D01*
X10860286Y-13419714D01*
X11446000Y-13105429D02*
X11188857Y-13491143D01*
X11831714Y-13119714D02*
X11860286Y-13119714D01*
X11888857Y-13134000D01*
X11903143Y-13148286D01*
X11917428Y-13176857D01*
X11931714Y-13234000D01*
X11931714Y-13305429D01*
X11917428Y-13362571D01*
X11903143Y-13391143D01*
X11888857Y-13405429D01*
X11860286Y-13419714D01*
X11831714Y-13419714D01*
X11803143Y-13405429D01*
X11788857Y-13391143D01*
X11774571Y-13362571D01*
X11760286Y-13305429D01*
X11760286Y-13234000D01*
X11774571Y-13176857D01*
X11788857Y-13148286D01*
X11803143Y-13134000D01*
X11831714Y-13119714D01*
X12060286Y-13391143D02*
X12074571Y-13405429D01*
X12060286Y-13419714D01*
X12046000Y-13405429D01*
X12060286Y-13391143D01*
X12060286Y-13419714D01*
X12260286Y-13119714D02*
X12288857Y-13119714D01*
X12317428Y-13134000D01*
X12331714Y-13148286D01*
X12346000Y-13176857D01*
X12360286Y-13234000D01*
X12360286Y-13305429D01*
X12346000Y-13362571D01*
X12331714Y-13391143D01*
X12317428Y-13405429D01*
X12288857Y-13419714D01*
X12260286Y-13419714D01*
X12231714Y-13405429D01*
X12217428Y-13391143D01*
X12203143Y-13362571D01*
X12188857Y-13305429D01*
X12188857Y-13234000D01*
X12203143Y-13176857D01*
X12217428Y-13148286D01*
X12231714Y-13134000D01*
X12260286Y-13119714D01*
X12646000Y-13419714D02*
X12474571Y-13419714D01*
X12560286Y-13419714D02*
X12560286Y-13119714D01*
X12531714Y-13162571D01*
X12503143Y-13191143D01*
X12474571Y-13205429D01*
X12917428Y-13119714D02*
X12774571Y-13119714D01*
X12760286Y-13262571D01*
X12774571Y-13248286D01*
X12803143Y-13234000D01*
X12874571Y-13234000D01*
X12903143Y-13248286D01*
X12917428Y-13262571D01*
X12931714Y-13291143D01*
X12931714Y-13362571D01*
X12917428Y-13391143D01*
X12903143Y-13405429D01*
X12874571Y-13419714D01*
X12803143Y-13419714D01*
X12774571Y-13405429D01*
X12760286Y-13391143D01*
X13031714Y-13119714D02*
X13231714Y-13119714D01*
X13103143Y-13419714D01*
X13331714Y-13119714D02*
X13331714Y-13176857D01*
X13446000Y-13119714D02*
X13446000Y-13176857D01*
X13888857Y-13534000D02*
X13874571Y-13519714D01*
X13846000Y-13476857D01*
X13831714Y-13448286D01*
X13817428Y-13405429D01*
X13803143Y-13334000D01*
X13803143Y-13276857D01*
X13817428Y-13205429D01*
X13831714Y-13162571D01*
X13846000Y-13134000D01*
X13874571Y-13091143D01*
X13888857Y-13076857D01*
X13988857Y-13148286D02*
X14003143Y-13134000D01*
X14031714Y-13119714D01*
X14103143Y-13119714D01*
X14131714Y-13134000D01*
X14146000Y-13148286D01*
X14160286Y-13176857D01*
X14160286Y-13205429D01*
X14146000Y-13248286D01*
X13974571Y-13419714D01*
X14160286Y-13419714D01*
X14517428Y-13419714D02*
X14517428Y-13119714D01*
X14646000Y-13419714D02*
X14646000Y-13262571D01*
X14631714Y-13234000D01*
X14603143Y-13219714D01*
X14560286Y-13219714D01*
X14531714Y-13234000D01*
X14517428Y-13248286D01*
X14831714Y-13419714D02*
X14803143Y-13405429D01*
X14788857Y-13391143D01*
X14774571Y-13362571D01*
X14774571Y-13276857D01*
X14788857Y-13248286D01*
X14803143Y-13234000D01*
X14831714Y-13219714D01*
X14874571Y-13219714D01*
X14903143Y-13234000D01*
X14917428Y-13248286D01*
X14931714Y-13276857D01*
X14931714Y-13362571D01*
X14917428Y-13391143D01*
X14903143Y-13405429D01*
X14874571Y-13419714D01*
X14831714Y-13419714D01*
X15103143Y-13419714D02*
X15074571Y-13405429D01*
X15060286Y-13376857D01*
X15060286Y-13119714D01*
X15331714Y-13405429D02*
X15303143Y-13419714D01*
X15246000Y-13419714D01*
X15217428Y-13405429D01*
X15203143Y-13376857D01*
X15203143Y-13262571D01*
X15217428Y-13234000D01*
X15246000Y-13219714D01*
X15303143Y-13219714D01*
X15331714Y-13234000D01*
X15346000Y-13262571D01*
X15346000Y-13291143D01*
X15203143Y-13319714D01*
X15460286Y-13405429D02*
X15488857Y-13419714D01*
X15546000Y-13419714D01*
X15574571Y-13405429D01*
X15588857Y-13376857D01*
X15588857Y-13362571D01*
X15574571Y-13334000D01*
X15546000Y-13319714D01*
X15503143Y-13319714D01*
X15474571Y-13305429D01*
X15460286Y-13276857D01*
X15460286Y-13262571D01*
X15474571Y-13234000D01*
X15503143Y-13219714D01*
X15546000Y-13219714D01*
X15574571Y-13234000D01*
X15688857Y-13534000D02*
X15703143Y-13519714D01*
X15731714Y-13476857D01*
X15746000Y-13448286D01*
X15760286Y-13405429D01*
X15774571Y-13334000D01*
X15774571Y-13276857D01*
X15760286Y-13205429D01*
X15746000Y-13162571D01*
X15731714Y-13134000D01*
X15703143Y-13091143D01*
X15688857Y-13076857D01*
X8631000Y-13680000D02*
G75*
G03*
X8631000Y-13680000I-35000J0D01*
G01*
X8974571Y-13515714D02*
X9003143Y-13515714D01*
X9031714Y-13530000D01*
X9046000Y-13544286D01*
X9060286Y-13572857D01*
X9074571Y-13630000D01*
X9074571Y-13701429D01*
X9060286Y-13758571D01*
X9046000Y-13787143D01*
X9031714Y-13801429D01*
X9003143Y-13815714D01*
X8974571Y-13815714D01*
X8946000Y-13801429D01*
X8931714Y-13787143D01*
X8917428Y-13758571D01*
X8903143Y-13701429D01*
X8903143Y-13630000D01*
X8917428Y-13572857D01*
X8931714Y-13544286D01*
X8946000Y-13530000D01*
X8974571Y-13515714D01*
X9203143Y-13787143D02*
X9217428Y-13801429D01*
X9203143Y-13815714D01*
X9188857Y-13801429D01*
X9203143Y-13787143D01*
X9203143Y-13815714D01*
X9317428Y-13515714D02*
X9517428Y-13515714D01*
X9388857Y-13815714D01*
X9688857Y-13515714D02*
X9717428Y-13515714D01*
X9746000Y-13530000D01*
X9760286Y-13544286D01*
X9774571Y-13572857D01*
X9788857Y-13630000D01*
X9788857Y-13701429D01*
X9774571Y-13758571D01*
X9760286Y-13787143D01*
X9746000Y-13801429D01*
X9717428Y-13815714D01*
X9688857Y-13815714D01*
X9660286Y-13801429D01*
X9646000Y-13787143D01*
X9631714Y-13758571D01*
X9617428Y-13701429D01*
X9617428Y-13630000D01*
X9631714Y-13572857D01*
X9646000Y-13544286D01*
X9660286Y-13530000D01*
X9688857Y-13515714D01*
X9974571Y-13515714D02*
X10003143Y-13515714D01*
X10031714Y-13530000D01*
X10046000Y-13544286D01*
X10060286Y-13572857D01*
X10074571Y-13630000D01*
X10074571Y-13701429D01*
X10060286Y-13758571D01*
X10046000Y-13787143D01*
X10031714Y-13801429D01*
X10003143Y-13815714D01*
X9974571Y-13815714D01*
X9946000Y-13801429D01*
X9931714Y-13787143D01*
X9917428Y-13758571D01*
X9903143Y-13701429D01*
X9903143Y-13630000D01*
X9917428Y-13572857D01*
X9931714Y-13544286D01*
X9946000Y-13530000D01*
X9974571Y-13515714D01*
X10203143Y-13815714D02*
X10203143Y-13615714D01*
X10203143Y-13644286D02*
X10217428Y-13630000D01*
X10246000Y-13615714D01*
X10288857Y-13615714D01*
X10317428Y-13630000D01*
X10331714Y-13658571D01*
X10331714Y-13815714D01*
X10331714Y-13658571D02*
X10346000Y-13630000D01*
X10374571Y-13615714D01*
X10417428Y-13615714D01*
X10446000Y-13630000D01*
X10460286Y-13658571D01*
X10460286Y-13815714D01*
X10603143Y-13815714D02*
X10603143Y-13615714D01*
X10603143Y-13644286D02*
X10617428Y-13630000D01*
X10646000Y-13615714D01*
X10688857Y-13615714D01*
X10717428Y-13630000D01*
X10731714Y-13658571D01*
X10731714Y-13815714D01*
X10731714Y-13658571D02*
X10746000Y-13630000D01*
X10774571Y-13615714D01*
X10817428Y-13615714D01*
X10846000Y-13630000D01*
X10860286Y-13658571D01*
X10860286Y-13815714D01*
X11446000Y-13501429D02*
X11188857Y-13887143D01*
X11831714Y-13515714D02*
X11860286Y-13515714D01*
X11888857Y-13530000D01*
X11903143Y-13544286D01*
X11917428Y-13572857D01*
X11931714Y-13630000D01*
X11931714Y-13701429D01*
X11917428Y-13758571D01*
X11903143Y-13787143D01*
X11888857Y-13801429D01*
X11860286Y-13815714D01*
X11831714Y-13815714D01*
X11803143Y-13801429D01*
X11788857Y-13787143D01*
X11774571Y-13758571D01*
X11760286Y-13701429D01*
X11760286Y-13630000D01*
X11774571Y-13572857D01*
X11788857Y-13544286D01*
X11803143Y-13530000D01*
X11831714Y-13515714D01*
X12060286Y-13787143D02*
X12074571Y-13801429D01*
X12060286Y-13815714D01*
X12046000Y-13801429D01*
X12060286Y-13787143D01*
X12060286Y-13815714D01*
X12260286Y-13515714D02*
X12288857Y-13515714D01*
X12317428Y-13530000D01*
X12331714Y-13544286D01*
X12346000Y-13572857D01*
X12360286Y-13630000D01*
X12360286Y-13701429D01*
X12346000Y-13758571D01*
X12331714Y-13787143D01*
X12317428Y-13801429D01*
X12288857Y-13815714D01*
X12260286Y-13815714D01*
X12231714Y-13801429D01*
X12217428Y-13787143D01*
X12203143Y-13758571D01*
X12188857Y-13701429D01*
X12188857Y-13630000D01*
X12203143Y-13572857D01*
X12217428Y-13544286D01*
X12231714Y-13530000D01*
X12260286Y-13515714D01*
X12474571Y-13544286D02*
X12488857Y-13530000D01*
X12517428Y-13515714D01*
X12588857Y-13515714D01*
X12617428Y-13530000D01*
X12631714Y-13544286D01*
X12646000Y-13572857D01*
X12646000Y-13601429D01*
X12631714Y-13644286D01*
X12460286Y-13815714D01*
X12646000Y-13815714D01*
X12746000Y-13515714D02*
X12946000Y-13515714D01*
X12817428Y-13815714D01*
X13188857Y-13515714D02*
X13131714Y-13515714D01*
X13103143Y-13530000D01*
X13088857Y-13544286D01*
X13060286Y-13587143D01*
X13046000Y-13644286D01*
X13046000Y-13758571D01*
X13060286Y-13787143D01*
X13074571Y-13801429D01*
X13103143Y-13815714D01*
X13160286Y-13815714D01*
X13188857Y-13801429D01*
X13203143Y-13787143D01*
X13217428Y-13758571D01*
X13217428Y-13687143D01*
X13203143Y-13658571D01*
X13188857Y-13644286D01*
X13160286Y-13630000D01*
X13103143Y-13630000D01*
X13074571Y-13644286D01*
X13060286Y-13658571D01*
X13046000Y-13687143D01*
X13331714Y-13515714D02*
X13331714Y-13572857D01*
X13446000Y-13515714D02*
X13446000Y-13572857D01*
X13888857Y-13930000D02*
X13874571Y-13915714D01*
X13846000Y-13872857D01*
X13831714Y-13844286D01*
X13817428Y-13801429D01*
X13803143Y-13730000D01*
X13803143Y-13672857D01*
X13817428Y-13601429D01*
X13831714Y-13558571D01*
X13846000Y-13530000D01*
X13874571Y-13487143D01*
X13888857Y-13472857D01*
X13988857Y-13544286D02*
X14003143Y-13530000D01*
X14031714Y-13515714D01*
X14103143Y-13515714D01*
X14131714Y-13530000D01*
X14146000Y-13544286D01*
X14160286Y-13572857D01*
X14160286Y-13601429D01*
X14146000Y-13644286D01*
X13974571Y-13815714D01*
X14160286Y-13815714D01*
X14274571Y-13544286D02*
X14288857Y-13530000D01*
X14317428Y-13515714D01*
X14388857Y-13515714D01*
X14417428Y-13530000D01*
X14431714Y-13544286D01*
X14446000Y-13572857D01*
X14446000Y-13601429D01*
X14431714Y-13644286D01*
X14260286Y-13815714D01*
X14446000Y-13815714D01*
X14803143Y-13815714D02*
X14803143Y-13515714D01*
X14931714Y-13815714D02*
X14931714Y-13658571D01*
X14917428Y-13630000D01*
X14888857Y-13615714D01*
X14846000Y-13615714D01*
X14817428Y-13630000D01*
X14803143Y-13644286D01*
X15117428Y-13815714D02*
X15088857Y-13801429D01*
X15074571Y-13787143D01*
X15060286Y-13758571D01*
X15060286Y-13672857D01*
X15074571Y-13644286D01*
X15088857Y-13630000D01*
X15117428Y-13615714D01*
X15160286Y-13615714D01*
X15188857Y-13630000D01*
X15203143Y-13644286D01*
X15217428Y-13672857D01*
X15217428Y-13758571D01*
X15203143Y-13787143D01*
X15188857Y-13801429D01*
X15160286Y-13815714D01*
X15117428Y-13815714D01*
X15388857Y-13815714D02*
X15360286Y-13801429D01*
X15346000Y-13772857D01*
X15346000Y-13515714D01*
X15617428Y-13801429D02*
X15588857Y-13815714D01*
X15531714Y-13815714D01*
X15503143Y-13801429D01*
X15488857Y-13772857D01*
X15488857Y-13658571D01*
X15503143Y-13630000D01*
X15531714Y-13615714D01*
X15588857Y-13615714D01*
X15617428Y-13630000D01*
X15631714Y-13658571D01*
X15631714Y-13687143D01*
X15488857Y-13715714D01*
X15746000Y-13801429D02*
X15774571Y-13815714D01*
X15831714Y-13815714D01*
X15860286Y-13801429D01*
X15874571Y-13772857D01*
X15874571Y-13758571D01*
X15860286Y-13730000D01*
X15831714Y-13715714D01*
X15788857Y-13715714D01*
X15760286Y-13701429D01*
X15746000Y-13672857D01*
X15746000Y-13658571D01*
X15760286Y-13630000D01*
X15788857Y-13615714D01*
X15831714Y-13615714D01*
X15860286Y-13630000D01*
X15974571Y-13930000D02*
X15988857Y-13915714D01*
X16017428Y-13872857D01*
X16031714Y-13844286D01*
X16046000Y-13801429D01*
X16060286Y-13730000D01*
X16060286Y-13672857D01*
X16046000Y-13601429D01*
X16031714Y-13558571D01*
X16017428Y-13530000D01*
X15988857Y-13487143D01*
X15974571Y-13472857D01*
X8591000Y-14036000D02*
X8591000Y-14116000D01*
X8551000Y-14076000D02*
X8631000Y-14076000D01*
X8974571Y-13911714D02*
X9003143Y-13911714D01*
X9031714Y-13926000D01*
X9046000Y-13940286D01*
X9060286Y-13968857D01*
X9074571Y-14026000D01*
X9074571Y-14097429D01*
X9060286Y-14154571D01*
X9046000Y-14183143D01*
X9031714Y-14197429D01*
X9003143Y-14211714D01*
X8974571Y-14211714D01*
X8946000Y-14197429D01*
X8931714Y-14183143D01*
X8917428Y-14154571D01*
X8903143Y-14097429D01*
X8903143Y-14026000D01*
X8917428Y-13968857D01*
X8931714Y-13940286D01*
X8946000Y-13926000D01*
X8974571Y-13911714D01*
X9203143Y-14183143D02*
X9217428Y-14197429D01*
X9203143Y-14211714D01*
X9188857Y-14197429D01*
X9203143Y-14183143D01*
X9203143Y-14211714D01*
X9388857Y-14040286D02*
X9360286Y-14026000D01*
X9346000Y-14011714D01*
X9331714Y-13983143D01*
X9331714Y-13968857D01*
X9346000Y-13940286D01*
X9360286Y-13926000D01*
X9388857Y-13911714D01*
X9446000Y-13911714D01*
X9474571Y-13926000D01*
X9488857Y-13940286D01*
X9503143Y-13968857D01*
X9503143Y-13983143D01*
X9488857Y-14011714D01*
X9474571Y-14026000D01*
X9446000Y-14040286D01*
X9388857Y-14040286D01*
X9360286Y-14054571D01*
X9346000Y-14068857D01*
X9331714Y-14097429D01*
X9331714Y-14154571D01*
X9346000Y-14183143D01*
X9360286Y-14197429D01*
X9388857Y-14211714D01*
X9446000Y-14211714D01*
X9474571Y-14197429D01*
X9488857Y-14183143D01*
X9503143Y-14154571D01*
X9503143Y-14097429D01*
X9488857Y-14068857D01*
X9474571Y-14054571D01*
X9446000Y-14040286D01*
X9688857Y-13911714D02*
X9717428Y-13911714D01*
X9746000Y-13926000D01*
X9760286Y-13940286D01*
X9774571Y-13968857D01*
X9788857Y-14026000D01*
X9788857Y-14097429D01*
X9774571Y-14154571D01*
X9760286Y-14183143D01*
X9746000Y-14197429D01*
X9717428Y-14211714D01*
X9688857Y-14211714D01*
X9660286Y-14197429D01*
X9646000Y-14183143D01*
X9631714Y-14154571D01*
X9617428Y-14097429D01*
X9617428Y-14026000D01*
X9631714Y-13968857D01*
X9646000Y-13940286D01*
X9660286Y-13926000D01*
X9688857Y-13911714D01*
X9974571Y-13911714D02*
X10003143Y-13911714D01*
X10031714Y-13926000D01*
X10046000Y-13940286D01*
X10060286Y-13968857D01*
X10074571Y-14026000D01*
X10074571Y-14097429D01*
X10060286Y-14154571D01*
X10046000Y-14183143D01*
X10031714Y-14197429D01*
X10003143Y-14211714D01*
X9974571Y-14211714D01*
X9946000Y-14197429D01*
X9931714Y-14183143D01*
X9917428Y-14154571D01*
X9903143Y-14097429D01*
X9903143Y-14026000D01*
X9917428Y-13968857D01*
X9931714Y-13940286D01*
X9946000Y-13926000D01*
X9974571Y-13911714D01*
X10203143Y-14211714D02*
X10203143Y-14011714D01*
X10203143Y-14040286D02*
X10217428Y-14026000D01*
X10246000Y-14011714D01*
X10288857Y-14011714D01*
X10317428Y-14026000D01*
X10331714Y-14054571D01*
X10331714Y-14211714D01*
X10331714Y-14054571D02*
X10346000Y-14026000D01*
X10374571Y-14011714D01*
X10417428Y-14011714D01*
X10446000Y-14026000D01*
X10460286Y-14054571D01*
X10460286Y-14211714D01*
X10603143Y-14211714D02*
X10603143Y-14011714D01*
X10603143Y-14040286D02*
X10617428Y-14026000D01*
X10646000Y-14011714D01*
X10688857Y-14011714D01*
X10717428Y-14026000D01*
X10731714Y-14054571D01*
X10731714Y-14211714D01*
X10731714Y-14054571D02*
X10746000Y-14026000D01*
X10774571Y-14011714D01*
X10817428Y-14011714D01*
X10846000Y-14026000D01*
X10860286Y-14054571D01*
X10860286Y-14211714D01*
X11446000Y-13897429D02*
X11188857Y-14283143D01*
X11831714Y-13911714D02*
X11860286Y-13911714D01*
X11888857Y-13926000D01*
X11903143Y-13940286D01*
X11917428Y-13968857D01*
X11931714Y-14026000D01*
X11931714Y-14097429D01*
X11917428Y-14154571D01*
X11903143Y-14183143D01*
X11888857Y-14197429D01*
X11860286Y-14211714D01*
X11831714Y-14211714D01*
X11803143Y-14197429D01*
X11788857Y-14183143D01*
X11774571Y-14154571D01*
X11760286Y-14097429D01*
X11760286Y-14026000D01*
X11774571Y-13968857D01*
X11788857Y-13940286D01*
X11803143Y-13926000D01*
X11831714Y-13911714D01*
X12060286Y-14183143D02*
X12074571Y-14197429D01*
X12060286Y-14211714D01*
X12046000Y-14197429D01*
X12060286Y-14183143D01*
X12060286Y-14211714D01*
X12260286Y-13911714D02*
X12288857Y-13911714D01*
X12317428Y-13926000D01*
X12331714Y-13940286D01*
X12346000Y-13968857D01*
X12360286Y-14026000D01*
X12360286Y-14097429D01*
X12346000Y-14154571D01*
X12331714Y-14183143D01*
X12317428Y-14197429D01*
X12288857Y-14211714D01*
X12260286Y-14211714D01*
X12231714Y-14197429D01*
X12217428Y-14183143D01*
X12203143Y-14154571D01*
X12188857Y-14097429D01*
X12188857Y-14026000D01*
X12203143Y-13968857D01*
X12217428Y-13940286D01*
X12231714Y-13926000D01*
X12260286Y-13911714D01*
X12460286Y-13911714D02*
X12646000Y-13911714D01*
X12546000Y-14026000D01*
X12588857Y-14026000D01*
X12617428Y-14040286D01*
X12631714Y-14054571D01*
X12646000Y-14083143D01*
X12646000Y-14154571D01*
X12631714Y-14183143D01*
X12617428Y-14197429D01*
X12588857Y-14211714D01*
X12503143Y-14211714D01*
X12474571Y-14197429D01*
X12460286Y-14183143D01*
X12931714Y-14211714D02*
X12760286Y-14211714D01*
X12846000Y-14211714D02*
X12846000Y-13911714D01*
X12817428Y-13954571D01*
X12788857Y-13983143D01*
X12760286Y-13997429D01*
X13203143Y-13911714D02*
X13060286Y-13911714D01*
X13046000Y-14054571D01*
X13060286Y-14040286D01*
X13088857Y-14026000D01*
X13160286Y-14026000D01*
X13188857Y-14040286D01*
X13203143Y-14054571D01*
X13217428Y-14083143D01*
X13217428Y-14154571D01*
X13203143Y-14183143D01*
X13188857Y-14197429D01*
X13160286Y-14211714D01*
X13088857Y-14211714D01*
X13060286Y-14197429D01*
X13046000Y-14183143D01*
X13331714Y-13911714D02*
X13331714Y-13968857D01*
X13446000Y-13911714D02*
X13446000Y-13968857D01*
X13888857Y-14326000D02*
X13874571Y-14311714D01*
X13846000Y-14268857D01*
X13831714Y-14240286D01*
X13817428Y-14197429D01*
X13803143Y-14126000D01*
X13803143Y-14068857D01*
X13817428Y-13997429D01*
X13831714Y-13954571D01*
X13846000Y-13926000D01*
X13874571Y-13883143D01*
X13888857Y-13868857D01*
X14131714Y-13911714D02*
X14074571Y-13911714D01*
X14046000Y-13926000D01*
X14031714Y-13940286D01*
X14003143Y-13983143D01*
X13988857Y-14040286D01*
X13988857Y-14154571D01*
X14003143Y-14183143D01*
X14017428Y-14197429D01*
X14046000Y-14211714D01*
X14103143Y-14211714D01*
X14131714Y-14197429D01*
X14146000Y-14183143D01*
X14160286Y-14154571D01*
X14160286Y-14083143D01*
X14146000Y-14054571D01*
X14131714Y-14040286D01*
X14103143Y-14026000D01*
X14046000Y-14026000D01*
X14017428Y-14040286D01*
X14003143Y-14054571D01*
X13988857Y-14083143D01*
X14417428Y-13911714D02*
X14360286Y-13911714D01*
X14331714Y-13926000D01*
X14317428Y-13940286D01*
X14288857Y-13983143D01*
X14274571Y-14040286D01*
X14274571Y-14154571D01*
X14288857Y-14183143D01*
X14303143Y-14197429D01*
X14331714Y-14211714D01*
X14388857Y-14211714D01*
X14417428Y-14197429D01*
X14431714Y-14183143D01*
X14446000Y-14154571D01*
X14446000Y-14083143D01*
X14431714Y-14054571D01*
X14417428Y-14040286D01*
X14388857Y-14026000D01*
X14331714Y-14026000D01*
X14303143Y-14040286D01*
X14288857Y-14054571D01*
X14274571Y-14083143D01*
X14803143Y-14211714D02*
X14803143Y-13911714D01*
X14931714Y-14211714D02*
X14931714Y-14054571D01*
X14917428Y-14026000D01*
X14888857Y-14011714D01*
X14846000Y-14011714D01*
X14817428Y-14026000D01*
X14803143Y-14040286D01*
X15117428Y-14211714D02*
X15088857Y-14197429D01*
X15074571Y-14183143D01*
X15060286Y-14154571D01*
X15060286Y-14068857D01*
X15074571Y-14040286D01*
X15088857Y-14026000D01*
X15117428Y-14011714D01*
X15160286Y-14011714D01*
X15188857Y-14026000D01*
X15203143Y-14040286D01*
X15217428Y-14068857D01*
X15217428Y-14154571D01*
X15203143Y-14183143D01*
X15188857Y-14197429D01*
X15160286Y-14211714D01*
X15117428Y-14211714D01*
X15388857Y-14211714D02*
X15360286Y-14197429D01*
X15346000Y-14168857D01*
X15346000Y-13911714D01*
X15617428Y-14197429D02*
X15588857Y-14211714D01*
X15531714Y-14211714D01*
X15503143Y-14197429D01*
X15488857Y-14168857D01*
X15488857Y-14054571D01*
X15503143Y-14026000D01*
X15531714Y-14011714D01*
X15588857Y-14011714D01*
X15617428Y-14026000D01*
X15631714Y-14054571D01*
X15631714Y-14083143D01*
X15488857Y-14111714D01*
X15746000Y-14197429D02*
X15774571Y-14211714D01*
X15831714Y-14211714D01*
X15860286Y-14197429D01*
X15874571Y-14168857D01*
X15874571Y-14154571D01*
X15860286Y-14126000D01*
X15831714Y-14111714D01*
X15788857Y-14111714D01*
X15760286Y-14097429D01*
X15746000Y-14068857D01*
X15746000Y-14054571D01*
X15760286Y-14026000D01*
X15788857Y-14011714D01*
X15831714Y-14011714D01*
X15860286Y-14026000D01*
X15974571Y-14326000D02*
X15988857Y-14311714D01*
X16017428Y-14268857D01*
X16031714Y-14240286D01*
X16046000Y-14197429D01*
X16060286Y-14126000D01*
X16060286Y-14068857D01*
X16046000Y-13997429D01*
X16031714Y-13954571D01*
X16017428Y-13926000D01*
X15988857Y-13883143D01*
X15974571Y-13868857D01*
X8616356Y-14507356D02*
X8616356Y-14436644D01*
X8545644Y-14436644D01*
X8545644Y-14507356D01*
X8616356Y-14507356D01*
X9074571Y-14607714D02*
X8903143Y-14607714D01*
X8988857Y-14607714D02*
X8988857Y-14307714D01*
X8960286Y-14350571D01*
X8931714Y-14379143D01*
X8903143Y-14393429D01*
X9203143Y-14579143D02*
X9217428Y-14593429D01*
X9203143Y-14607714D01*
X9188857Y-14593429D01*
X9203143Y-14579143D01*
X9203143Y-14607714D01*
X9403143Y-14307714D02*
X9431714Y-14307714D01*
X9460286Y-14322000D01*
X9474571Y-14336286D01*
X9488857Y-14364857D01*
X9503143Y-14422000D01*
X9503143Y-14493429D01*
X9488857Y-14550571D01*
X9474571Y-14579143D01*
X9460286Y-14593429D01*
X9431714Y-14607714D01*
X9403143Y-14607714D01*
X9374571Y-14593429D01*
X9360286Y-14579143D01*
X9346000Y-14550571D01*
X9331714Y-14493429D01*
X9331714Y-14422000D01*
X9346000Y-14364857D01*
X9360286Y-14336286D01*
X9374571Y-14322000D01*
X9403143Y-14307714D01*
X9688857Y-14307714D02*
X9717428Y-14307714D01*
X9746000Y-14322000D01*
X9760286Y-14336286D01*
X9774571Y-14364857D01*
X9788857Y-14422000D01*
X9788857Y-14493429D01*
X9774571Y-14550571D01*
X9760286Y-14579143D01*
X9746000Y-14593429D01*
X9717428Y-14607714D01*
X9688857Y-14607714D01*
X9660286Y-14593429D01*
X9646000Y-14579143D01*
X9631714Y-14550571D01*
X9617428Y-14493429D01*
X9617428Y-14422000D01*
X9631714Y-14364857D01*
X9646000Y-14336286D01*
X9660286Y-14322000D01*
X9688857Y-14307714D01*
X9974571Y-14307714D02*
X10003143Y-14307714D01*
X10031714Y-14322000D01*
X10046000Y-14336286D01*
X10060286Y-14364857D01*
X10074571Y-14422000D01*
X10074571Y-14493429D01*
X10060286Y-14550571D01*
X10046000Y-14579143D01*
X10031714Y-14593429D01*
X10003143Y-14607714D01*
X9974571Y-14607714D01*
X9946000Y-14593429D01*
X9931714Y-14579143D01*
X9917428Y-14550571D01*
X9903143Y-14493429D01*
X9903143Y-14422000D01*
X9917428Y-14364857D01*
X9931714Y-14336286D01*
X9946000Y-14322000D01*
X9974571Y-14307714D01*
X10203143Y-14607714D02*
X10203143Y-14407714D01*
X10203143Y-14436286D02*
X10217428Y-14422000D01*
X10246000Y-14407714D01*
X10288857Y-14407714D01*
X10317428Y-14422000D01*
X10331714Y-14450571D01*
X10331714Y-14607714D01*
X10331714Y-14450571D02*
X10346000Y-14422000D01*
X10374571Y-14407714D01*
X10417428Y-14407714D01*
X10446000Y-14422000D01*
X10460286Y-14450571D01*
X10460286Y-14607714D01*
X10603143Y-14607714D02*
X10603143Y-14407714D01*
X10603143Y-14436286D02*
X10617428Y-14422000D01*
X10646000Y-14407714D01*
X10688857Y-14407714D01*
X10717428Y-14422000D01*
X10731714Y-14450571D01*
X10731714Y-14607714D01*
X10731714Y-14450571D02*
X10746000Y-14422000D01*
X10774571Y-14407714D01*
X10817428Y-14407714D01*
X10846000Y-14422000D01*
X10860286Y-14450571D01*
X10860286Y-14607714D01*
X11446000Y-14293429D02*
X11188857Y-14679143D01*
X11831714Y-14307714D02*
X11860286Y-14307714D01*
X11888857Y-14322000D01*
X11903143Y-14336286D01*
X11917428Y-14364857D01*
X11931714Y-14422000D01*
X11931714Y-14493429D01*
X11917428Y-14550571D01*
X11903143Y-14579143D01*
X11888857Y-14593429D01*
X11860286Y-14607714D01*
X11831714Y-14607714D01*
X11803143Y-14593429D01*
X11788857Y-14579143D01*
X11774571Y-14550571D01*
X11760286Y-14493429D01*
X11760286Y-14422000D01*
X11774571Y-14364857D01*
X11788857Y-14336286D01*
X11803143Y-14322000D01*
X11831714Y-14307714D01*
X12060286Y-14579143D02*
X12074571Y-14593429D01*
X12060286Y-14607714D01*
X12046000Y-14593429D01*
X12060286Y-14579143D01*
X12060286Y-14607714D01*
X12260286Y-14307714D02*
X12288857Y-14307714D01*
X12317428Y-14322000D01*
X12331714Y-14336286D01*
X12346000Y-14364857D01*
X12360286Y-14422000D01*
X12360286Y-14493429D01*
X12346000Y-14550571D01*
X12331714Y-14579143D01*
X12317428Y-14593429D01*
X12288857Y-14607714D01*
X12260286Y-14607714D01*
X12231714Y-14593429D01*
X12217428Y-14579143D01*
X12203143Y-14550571D01*
X12188857Y-14493429D01*
X12188857Y-14422000D01*
X12203143Y-14364857D01*
X12217428Y-14336286D01*
X12231714Y-14322000D01*
X12260286Y-14307714D01*
X12460286Y-14307714D02*
X12646000Y-14307714D01*
X12546000Y-14422000D01*
X12588857Y-14422000D01*
X12617428Y-14436286D01*
X12631714Y-14450571D01*
X12646000Y-14479143D01*
X12646000Y-14550571D01*
X12631714Y-14579143D01*
X12617428Y-14593429D01*
X12588857Y-14607714D01*
X12503143Y-14607714D01*
X12474571Y-14593429D01*
X12460286Y-14579143D01*
X12788857Y-14607714D02*
X12846000Y-14607714D01*
X12874571Y-14593429D01*
X12888857Y-14579143D01*
X12917428Y-14536286D01*
X12931714Y-14479143D01*
X12931714Y-14364857D01*
X12917428Y-14336286D01*
X12903143Y-14322000D01*
X12874571Y-14307714D01*
X12817428Y-14307714D01*
X12788857Y-14322000D01*
X12774571Y-14336286D01*
X12760286Y-14364857D01*
X12760286Y-14436286D01*
X12774571Y-14464857D01*
X12788857Y-14479143D01*
X12817428Y-14493429D01*
X12874571Y-14493429D01*
X12903143Y-14479143D01*
X12917428Y-14464857D01*
X12931714Y-14436286D01*
X13188857Y-14407714D02*
X13188857Y-14607714D01*
X13117428Y-14293429D02*
X13046000Y-14507714D01*
X13231714Y-14507714D01*
X13331714Y-14307714D02*
X13331714Y-14364857D01*
X13446000Y-14307714D02*
X13446000Y-14364857D01*
X13888857Y-14722000D02*
X13874571Y-14707714D01*
X13846000Y-14664857D01*
X13831714Y-14636286D01*
X13817428Y-14593429D01*
X13803143Y-14522000D01*
X13803143Y-14464857D01*
X13817428Y-14393429D01*
X13831714Y-14350571D01*
X13846000Y-14322000D01*
X13874571Y-14279143D01*
X13888857Y-14264857D01*
X13974571Y-14307714D02*
X14160286Y-14307714D01*
X14060286Y-14422000D01*
X14103143Y-14422000D01*
X14131714Y-14436286D01*
X14146000Y-14450571D01*
X14160286Y-14479143D01*
X14160286Y-14550571D01*
X14146000Y-14579143D01*
X14131714Y-14593429D01*
X14103143Y-14607714D01*
X14017428Y-14607714D01*
X13988857Y-14593429D01*
X13974571Y-14579143D01*
X14260286Y-14307714D02*
X14446000Y-14307714D01*
X14346000Y-14422000D01*
X14388857Y-14422000D01*
X14417428Y-14436286D01*
X14431714Y-14450571D01*
X14446000Y-14479143D01*
X14446000Y-14550571D01*
X14431714Y-14579143D01*
X14417428Y-14593429D01*
X14388857Y-14607714D01*
X14303143Y-14607714D01*
X14274571Y-14593429D01*
X14260286Y-14579143D01*
X14803143Y-14607714D02*
X14803143Y-14307714D01*
X14931714Y-14607714D02*
X14931714Y-14450571D01*
X14917428Y-14422000D01*
X14888857Y-14407714D01*
X14846000Y-14407714D01*
X14817428Y-14422000D01*
X14803143Y-14436286D01*
X15117428Y-14607714D02*
X15088857Y-14593429D01*
X15074571Y-14579143D01*
X15060286Y-14550571D01*
X15060286Y-14464857D01*
X15074571Y-14436286D01*
X15088857Y-14422000D01*
X15117428Y-14407714D01*
X15160286Y-14407714D01*
X15188857Y-14422000D01*
X15203143Y-14436286D01*
X15217428Y-14464857D01*
X15217428Y-14550571D01*
X15203143Y-14579143D01*
X15188857Y-14593429D01*
X15160286Y-14607714D01*
X15117428Y-14607714D01*
X15388857Y-14607714D02*
X15360286Y-14593429D01*
X15346000Y-14564857D01*
X15346000Y-14307714D01*
X15617428Y-14593429D02*
X15588857Y-14607714D01*
X15531714Y-14607714D01*
X15503143Y-14593429D01*
X15488857Y-14564857D01*
X15488857Y-14450571D01*
X15503143Y-14422000D01*
X15531714Y-14407714D01*
X15588857Y-14407714D01*
X15617428Y-14422000D01*
X15631714Y-14450571D01*
X15631714Y-14479143D01*
X15488857Y-14507714D01*
X15746000Y-14593429D02*
X15774571Y-14607714D01*
X15831714Y-14607714D01*
X15860286Y-14593429D01*
X15874571Y-14564857D01*
X15874571Y-14550571D01*
X15860286Y-14522000D01*
X15831714Y-14507714D01*
X15788857Y-14507714D01*
X15760286Y-14493429D01*
X15746000Y-14464857D01*
X15746000Y-14450571D01*
X15760286Y-14422000D01*
X15788857Y-14407714D01*
X15831714Y-14407714D01*
X15860286Y-14422000D01*
X15974571Y-14722000D02*
X15988857Y-14707714D01*
X16017428Y-14664857D01*
X16031714Y-14636286D01*
X16046000Y-14593429D01*
X16060286Y-14522000D01*
X16060286Y-14464857D01*
X16046000Y-14393429D01*
X16031714Y-14350571D01*
X16017428Y-14322000D01*
X15988857Y-14279143D01*
X15974571Y-14264857D01*
M02*
