G04 #@! TF.GenerationSoftware,KiCad,Pcbnew,(5.1.12)-1*
G04 #@! TF.CreationDate,2022-05-14T07:58:37+02:00*
G04 #@! TF.ProjectId,EPROM-Shield,4550524f-4d2d-4536-9869-656c642e6b69,rev?*
G04 #@! TF.SameCoordinates,Original*
G04 #@! TF.FileFunction,Copper,L1,Top*
G04 #@! TF.FilePolarity,Positive*
%FSLAX46Y46*%
G04 Gerber Fmt 4.6, Leading zero omitted, Abs format (unit mm)*
G04 Created by KiCad (PCBNEW (5.1.12)-1) date 2022-05-14 07:58:37*
%MOMM*%
%LPD*%
G01*
G04 APERTURE LIST*
G04 #@! TA.AperFunction,ComponentPad*
%ADD10C,1.600000*%
G04 #@! TD*
G04 #@! TA.AperFunction,ComponentPad*
%ADD11R,1.600000X1.600000*%
G04 #@! TD*
G04 #@! TA.AperFunction,ComponentPad*
%ADD12O,1.400000X1.400000*%
G04 #@! TD*
G04 #@! TA.AperFunction,ComponentPad*
%ADD13C,1.400000*%
G04 #@! TD*
G04 #@! TA.AperFunction,ComponentPad*
%ADD14O,1.600000X2.400000*%
G04 #@! TD*
G04 #@! TA.AperFunction,ComponentPad*
%ADD15R,1.600000X2.400000*%
G04 #@! TD*
G04 #@! TA.AperFunction,ComponentPad*
%ADD16O,1.700000X1.700000*%
G04 #@! TD*
G04 #@! TA.AperFunction,ComponentPad*
%ADD17R,1.700000X1.700000*%
G04 #@! TD*
G04 #@! TA.AperFunction,ComponentPad*
%ADD18O,2.400000X1.600000*%
G04 #@! TD*
G04 #@! TA.AperFunction,ComponentPad*
%ADD19R,2.400000X1.600000*%
G04 #@! TD*
G04 #@! TA.AperFunction,ViaPad*
%ADD20C,0.800000*%
G04 #@! TD*
G04 #@! TA.AperFunction,Conductor*
%ADD21C,1.000000*%
G04 #@! TD*
G04 #@! TA.AperFunction,Conductor*
%ADD22C,0.500000*%
G04 #@! TD*
G04 #@! TA.AperFunction,Conductor*
%ADD23C,0.254000*%
G04 #@! TD*
G04 #@! TA.AperFunction,Conductor*
%ADD24C,0.100000*%
G04 #@! TD*
G04 APERTURE END LIST*
D10*
G04 #@! TO.P,C3,2*
G04 #@! TO.N,GND*
X104775000Y-77510000D03*
D11*
G04 #@! TO.P,C3,1*
G04 #@! TO.N,VCC*
X104775000Y-80010000D03*
G04 #@! TD*
D12*
G04 #@! TO.P,R1,2*
G04 #@! TO.N,VCC*
X120015000Y-80010000D03*
D13*
G04 #@! TO.P,R1,1*
G04 #@! TO.N,/_OE*
X120015000Y-74930000D03*
G04 #@! TD*
D14*
G04 #@! TO.P,U3,28*
G04 #@! TO.N,VCC*
X107950000Y-85090000D03*
G04 #@! TO.P,U3,14*
G04 #@! TO.N,GND*
X140970000Y-100330000D03*
G04 #@! TO.P,U3,27*
G04 #@! TO.N,/WE*
X110490000Y-85090000D03*
G04 #@! TO.P,U3,13*
G04 #@! TO.N,Net-(R4-Pad2)*
X138430000Y-100330000D03*
G04 #@! TO.P,U3,26*
G04 #@! TO.N,/A13*
X113030000Y-85090000D03*
G04 #@! TO.P,U3,12*
G04 #@! TO.N,Net-(R11-Pad2)*
X135890000Y-100330000D03*
G04 #@! TO.P,U3,25*
G04 #@! TO.N,/A8*
X115570000Y-85090000D03*
G04 #@! TO.P,U3,11*
G04 #@! TO.N,Net-(R10-Pad2)*
X133350000Y-100330000D03*
G04 #@! TO.P,U3,24*
G04 #@! TO.N,/A9*
X118110000Y-85090000D03*
G04 #@! TO.P,U3,10*
G04 #@! TO.N,/A0*
X130810000Y-100330000D03*
G04 #@! TO.P,U3,23*
G04 #@! TO.N,/A11*
X120650000Y-85090000D03*
G04 #@! TO.P,U3,9*
G04 #@! TO.N,/A1*
X128270000Y-100330000D03*
G04 #@! TO.P,U3,22*
G04 #@! TO.N,/OE*
X123190000Y-85090000D03*
G04 #@! TO.P,U3,8*
G04 #@! TO.N,/A2*
X125730000Y-100330000D03*
G04 #@! TO.P,U3,21*
G04 #@! TO.N,/A10*
X125730000Y-85090000D03*
G04 #@! TO.P,U3,7*
G04 #@! TO.N,/A3*
X123190000Y-100330000D03*
G04 #@! TO.P,U3,20*
G04 #@! TO.N,/CS*
X128270000Y-85090000D03*
G04 #@! TO.P,U3,6*
G04 #@! TO.N,/A4*
X120650000Y-100330000D03*
G04 #@! TO.P,U3,19*
G04 #@! TO.N,Net-(R9-Pad2)*
X130810000Y-85090000D03*
G04 #@! TO.P,U3,5*
G04 #@! TO.N,/A5*
X118110000Y-100330000D03*
G04 #@! TO.P,U3,18*
G04 #@! TO.N,Net-(R8-Pad2)*
X133350000Y-85090000D03*
G04 #@! TO.P,U3,4*
G04 #@! TO.N,/A6*
X115570000Y-100330000D03*
G04 #@! TO.P,U3,17*
G04 #@! TO.N,Net-(R7-Pad2)*
X135890000Y-85090000D03*
G04 #@! TO.P,U3,3*
G04 #@! TO.N,/A7*
X113030000Y-100330000D03*
G04 #@! TO.P,U3,16*
G04 #@! TO.N,Net-(R6-Pad2)*
X138430000Y-85090000D03*
G04 #@! TO.P,U3,2*
G04 #@! TO.N,/A12*
X110490000Y-100330000D03*
G04 #@! TO.P,U3,15*
G04 #@! TO.N,Net-(R5-Pad2)*
X140970000Y-85090000D03*
D15*
G04 #@! TO.P,U3,1*
G04 #@! TO.N,/A14*
X107950000Y-100330000D03*
G04 #@! TD*
D12*
G04 #@! TO.P,R11,2*
G04 #@! TO.N,Net-(R11-Pad2)*
X140970000Y-105410000D03*
D13*
G04 #@! TO.P,R11,1*
G04 #@! TO.N,/AD1*
X140970000Y-113030000D03*
G04 #@! TD*
D12*
G04 #@! TO.P,R10,2*
G04 #@! TO.N,Net-(R10-Pad2)*
X138430000Y-105410000D03*
D13*
G04 #@! TO.P,R10,1*
G04 #@! TO.N,/AD0*
X138430000Y-113030000D03*
G04 #@! TD*
D16*
G04 #@! TO.P,J3,8*
G04 #@! TO.N,/D7*
X127000000Y-71120000D03*
G04 #@! TO.P,J3,7*
G04 #@! TO.N,/D6*
X129540000Y-71120000D03*
G04 #@! TO.P,J3,6*
G04 #@! TO.N,/D5*
X132080000Y-71120000D03*
G04 #@! TO.P,J3,5*
G04 #@! TO.N,/D4*
X134620000Y-71120000D03*
G04 #@! TO.P,J3,4*
G04 #@! TO.N,/D3*
X137160000Y-71120000D03*
G04 #@! TO.P,J3,3*
G04 #@! TO.N,/D2*
X139700000Y-71120000D03*
G04 #@! TO.P,J3,2*
G04 #@! TO.N,/D1*
X142240000Y-71120000D03*
D17*
G04 #@! TO.P,J3,1*
G04 #@! TO.N,/D0*
X144780000Y-71120000D03*
G04 #@! TD*
D16*
G04 #@! TO.P,J4,6*
G04 #@! TO.N,N/C*
X144780000Y-120650000D03*
G04 #@! TO.P,J4,5*
X142240000Y-120650000D03*
G04 #@! TO.P,J4,4*
X139700000Y-120650000D03*
G04 #@! TO.P,J4,3*
X137160000Y-120650000D03*
G04 #@! TO.P,J4,2*
G04 #@! TO.N,/AD1*
X134620000Y-120650000D03*
D17*
G04 #@! TO.P,J4,1*
G04 #@! TO.N,/AD0*
X132080000Y-120650000D03*
G04 #@! TD*
D16*
G04 #@! TO.P,J2,6*
G04 #@! TO.N,N/C*
X114300000Y-120650000D03*
G04 #@! TO.P,J2,5*
X116840000Y-120650000D03*
G04 #@! TO.P,J2,4*
G04 #@! TO.N,VCC*
X119380000Y-120650000D03*
G04 #@! TO.P,J2,3*
G04 #@! TO.N,GND*
X121920000Y-120650000D03*
G04 #@! TO.P,J2,2*
X124460000Y-120650000D03*
D17*
G04 #@! TO.P,J2,1*
G04 #@! TO.N,N/C*
X127000000Y-120650000D03*
G04 #@! TD*
D12*
G04 #@! TO.P,R4,2*
G04 #@! TO.N,Net-(R4-Pad2)*
X139700000Y-77470000D03*
D13*
G04 #@! TO.P,R4,1*
G04 #@! TO.N,/D2*
X139700000Y-74930000D03*
G04 #@! TD*
D12*
G04 #@! TO.P,R3,2*
G04 #@! TO.N,Net-(R11-Pad2)*
X142240000Y-77470000D03*
D13*
G04 #@! TO.P,R3,1*
G04 #@! TO.N,/D1*
X142240000Y-74930000D03*
G04 #@! TD*
D12*
G04 #@! TO.P,R2,2*
G04 #@! TO.N,Net-(R10-Pad2)*
X144780000Y-77470000D03*
D13*
G04 #@! TO.P,R2,1*
G04 #@! TO.N,/D0*
X144780000Y-74930000D03*
G04 #@! TD*
D16*
G04 #@! TO.P,J1,7*
G04 #@! TO.N,GND*
X107315000Y-71120000D03*
G04 #@! TO.P,J1,6*
G04 #@! TO.N,N/C*
X109855000Y-71120000D03*
G04 #@! TO.P,J1,5*
X112395000Y-71120000D03*
G04 #@! TO.P,J1,4*
G04 #@! TO.N,/SERCLK*
X114935000Y-71120000D03*
G04 #@! TO.P,J1,3*
G04 #@! TO.N,/RCLK*
X117475000Y-71120000D03*
G04 #@! TO.P,J1,2*
G04 #@! TO.N,/_OE*
X120015000Y-71120000D03*
D17*
G04 #@! TO.P,J1,1*
G04 #@! TO.N,/SER*
X122555000Y-71120000D03*
G04 #@! TD*
D12*
G04 #@! TO.P,R6,2*
G04 #@! TO.N,Net-(R6-Pad2)*
X134620000Y-77470000D03*
D13*
G04 #@! TO.P,R6,1*
G04 #@! TO.N,/D4*
X134620000Y-74930000D03*
G04 #@! TD*
D12*
G04 #@! TO.P,R8,2*
G04 #@! TO.N,Net-(R8-Pad2)*
X129540000Y-77470000D03*
D13*
G04 #@! TO.P,R8,1*
G04 #@! TO.N,/D6*
X129540000Y-74930000D03*
G04 #@! TD*
D12*
G04 #@! TO.P,R9,2*
G04 #@! TO.N,Net-(R9-Pad2)*
X127000000Y-77470000D03*
D13*
G04 #@! TO.P,R9,1*
G04 #@! TO.N,/D7*
X127000000Y-74930000D03*
G04 #@! TD*
D12*
G04 #@! TO.P,R7,2*
G04 #@! TO.N,Net-(R7-Pad2)*
X132080000Y-77470000D03*
D13*
G04 #@! TO.P,R7,1*
G04 #@! TO.N,/D5*
X132080000Y-74930000D03*
G04 #@! TD*
D12*
G04 #@! TO.P,R5,2*
G04 #@! TO.N,Net-(R5-Pad2)*
X137160000Y-77470000D03*
D13*
G04 #@! TO.P,R5,1*
G04 #@! TO.N,/D3*
X137160000Y-74930000D03*
G04 #@! TD*
D10*
G04 #@! TO.P,C2,2*
G04 #@! TO.N,GND*
X99060000Y-75010000D03*
G04 #@! TO.P,C2,1*
G04 #@! TO.N,VCC*
X99060000Y-80010000D03*
G04 #@! TD*
G04 #@! TO.P,C1,2*
G04 #@! TO.N,GND*
X133350000Y-106760000D03*
G04 #@! TO.P,C1,1*
G04 #@! TO.N,VCC*
X133350000Y-111760000D03*
G04 #@! TD*
D14*
G04 #@! TO.P,U2,16*
G04 #@! TO.N,VCC*
X128270000Y-113030000D03*
G04 #@! TO.P,U2,8*
G04 #@! TO.N,GND*
X110490000Y-105410000D03*
G04 #@! TO.P,U2,15*
G04 #@! TO.N,/A0*
X125730000Y-113030000D03*
G04 #@! TO.P,U2,7*
G04 #@! TO.N,/A7*
X113030000Y-105410000D03*
G04 #@! TO.P,U2,14*
G04 #@! TO.N,Net-(U1-Pad9)*
X123190000Y-113030000D03*
G04 #@! TO.P,U2,6*
G04 #@! TO.N,/A6*
X115570000Y-105410000D03*
G04 #@! TO.P,U2,13*
G04 #@! TO.N,/_OE*
X120650000Y-113030000D03*
G04 #@! TO.P,U2,5*
G04 #@! TO.N,/A5*
X118110000Y-105410000D03*
G04 #@! TO.P,U2,12*
G04 #@! TO.N,/RCLK*
X118110000Y-113030000D03*
G04 #@! TO.P,U2,4*
G04 #@! TO.N,/A4*
X120650000Y-105410000D03*
G04 #@! TO.P,U2,11*
G04 #@! TO.N,/SERCLK*
X115570000Y-113030000D03*
G04 #@! TO.P,U2,3*
G04 #@! TO.N,/A3*
X123190000Y-105410000D03*
G04 #@! TO.P,U2,10*
G04 #@! TO.N,VCC*
X113030000Y-113030000D03*
G04 #@! TO.P,U2,2*
G04 #@! TO.N,/A2*
X125730000Y-105410000D03*
G04 #@! TO.P,U2,9*
G04 #@! TO.N,N/C*
X110490000Y-113030000D03*
D15*
G04 #@! TO.P,U2,1*
G04 #@! TO.N,/A1*
X128270000Y-105410000D03*
G04 #@! TD*
D18*
G04 #@! TO.P,U1,16*
G04 #@! TO.N,VCC*
X93980000Y-102870000D03*
G04 #@! TO.P,U1,8*
G04 #@! TO.N,GND*
X101600000Y-85090000D03*
G04 #@! TO.P,U1,15*
G04 #@! TO.N,/A8*
X93980000Y-100330000D03*
G04 #@! TO.P,U1,7*
G04 #@! TO.N,/CS*
X101600000Y-87630000D03*
G04 #@! TO.P,U1,14*
G04 #@! TO.N,/SER*
X93980000Y-97790000D03*
G04 #@! TO.P,U1,6*
G04 #@! TO.N,/OE*
X101600000Y-90170000D03*
G04 #@! TO.P,U1,13*
G04 #@! TO.N,/_OE*
X93980000Y-95250000D03*
G04 #@! TO.P,U1,5*
G04 #@! TO.N,/WE*
X101600000Y-92710000D03*
G04 #@! TO.P,U1,12*
G04 #@! TO.N,/RCLK*
X93980000Y-92710000D03*
G04 #@! TO.P,U1,4*
G04 #@! TO.N,/A12*
X101600000Y-95250000D03*
G04 #@! TO.P,U1,11*
G04 #@! TO.N,/SERCLK*
X93980000Y-90170000D03*
G04 #@! TO.P,U1,3*
G04 #@! TO.N,/A11*
X101600000Y-97790000D03*
G04 #@! TO.P,U1,10*
G04 #@! TO.N,VCC*
X93980000Y-87630000D03*
G04 #@! TO.P,U1,2*
G04 #@! TO.N,/A10*
X101600000Y-100330000D03*
G04 #@! TO.P,U1,9*
G04 #@! TO.N,Net-(U1-Pad9)*
X93980000Y-85090000D03*
D19*
G04 #@! TO.P,U1,1*
G04 #@! TO.N,/A9*
X101600000Y-102870000D03*
G04 #@! TD*
D16*
G04 #@! TO.P,JP2,3*
G04 #@! TO.N,VCC*
X93980000Y-109220000D03*
G04 #@! TO.P,JP2,2*
G04 #@! TO.N,/A14*
X96520000Y-109220000D03*
D17*
G04 #@! TO.P,JP2,1*
G04 #@! TO.N,GND*
X99060000Y-109220000D03*
G04 #@! TD*
D16*
G04 #@! TO.P,JP1,3*
G04 #@! TO.N,VCC*
X115570000Y-80010000D03*
G04 #@! TO.P,JP1,2*
G04 #@! TO.N,/A13*
X113030000Y-80010000D03*
D17*
G04 #@! TO.P,JP1,1*
G04 #@! TO.N,GND*
X110490000Y-80010000D03*
G04 #@! TD*
D20*
G04 #@! TO.N,/A8*
X109220000Y-90170000D03*
G04 #@! TO.N,/A9*
X106680000Y-92710000D03*
G04 #@! TD*
D21*
G04 #@! TO.N,VCC*
X93980000Y-109220000D02*
X90170000Y-105410000D01*
X90170000Y-105410000D02*
X90170000Y-90170000D01*
X92710000Y-87630000D02*
X93980000Y-87630000D01*
X90170000Y-90170000D02*
X92710000Y-87630000D01*
X93980000Y-109220000D02*
X93980000Y-110490000D01*
X93980000Y-110490000D02*
X95250000Y-111760000D01*
X95250000Y-111760000D02*
X106680000Y-111760000D01*
X106680000Y-111760000D02*
X107950000Y-110490000D01*
X107950000Y-110490000D02*
X113030000Y-110490000D01*
X113030000Y-110490000D02*
X113030000Y-113030000D01*
X113030000Y-110490000D02*
X127000000Y-110490000D01*
X128270000Y-111760000D02*
X128270000Y-113030000D01*
X127000000Y-110490000D02*
X128270000Y-111760000D01*
X99060000Y-99060000D02*
X99060000Y-80010000D01*
X95250000Y-102870000D02*
X99060000Y-99060000D01*
X93980000Y-102870000D02*
X95250000Y-102870000D01*
X104775000Y-80010000D02*
X106680000Y-80010000D01*
X106680000Y-80010000D02*
X109220000Y-77470000D01*
X109220000Y-77470000D02*
X114300000Y-77470000D01*
X114300000Y-77470000D02*
X115570000Y-78740000D01*
X115570000Y-78740000D02*
X115570000Y-80010000D01*
G04 #@! TO.N,GND*
X132160000Y-107950000D02*
X133350000Y-106760000D01*
X110490000Y-106680000D02*
X111760000Y-107950000D01*
X110490000Y-105410000D02*
X110490000Y-106680000D01*
X124460000Y-120650000D02*
X124460000Y-118110000D01*
X124460000Y-118110000D02*
X127000000Y-115570000D01*
X127000000Y-115570000D02*
X130810000Y-115570000D01*
X130810000Y-115570000D02*
X130810000Y-107950000D01*
X130810000Y-107950000D02*
X132160000Y-107950000D01*
X111760000Y-107950000D02*
X130810000Y-107950000D01*
X102950000Y-71120000D02*
X107315000Y-71120000D01*
X99060000Y-75010000D02*
X102950000Y-71120000D01*
X101600000Y-85090000D02*
X101600000Y-80010000D01*
X101600000Y-80010000D02*
X104140000Y-77470000D01*
X104180000Y-77510000D02*
X104775000Y-77510000D01*
X104140000Y-77470000D02*
X104180000Y-77510000D01*
D22*
G04 #@! TO.N,/A14*
X107950000Y-102235000D02*
X107950000Y-100330000D01*
X103505000Y-106680000D02*
X107950000Y-102235000D01*
X97790000Y-106680000D02*
X103505000Y-106680000D01*
X96520000Y-107950000D02*
X97790000Y-106680000D01*
X96520000Y-109220000D02*
X96520000Y-107950000D01*
G04 #@! TO.N,/A8*
X109220000Y-90170000D02*
X109220000Y-93980000D01*
X109220000Y-93980000D02*
X105410000Y-97790000D01*
X105410000Y-97790000D02*
X105410000Y-102870000D01*
X105410000Y-102870000D02*
X102870000Y-105410000D01*
X102870000Y-105410000D02*
X92710000Y-105410000D01*
X92710000Y-105410000D02*
X91440000Y-104140000D01*
X91440000Y-104140000D02*
X91440000Y-101600000D01*
X91440000Y-101600000D02*
X92710000Y-100330000D01*
X92710000Y-100330000D02*
X93980000Y-100330000D01*
G04 #@! TO.N,/CS*
X128270000Y-83820000D02*
X128270000Y-85090000D01*
X127000000Y-82550000D02*
X128270000Y-83820000D01*
X106680000Y-82550000D02*
X127000000Y-82550000D01*
X106680000Y-82550000D02*
X104140000Y-85090000D01*
X104140000Y-85090000D02*
X104140000Y-86360000D01*
X104140000Y-86360000D02*
X102870000Y-87630000D01*
X102870000Y-87630000D02*
X101600000Y-87630000D01*
G04 #@! TO.N,/OE*
X121920000Y-87630000D02*
X123190000Y-86360000D01*
X105410000Y-87630000D02*
X121920000Y-87630000D01*
X102870000Y-90170000D02*
X105410000Y-87630000D01*
X123190000Y-86360000D02*
X123190000Y-85090000D01*
X101600000Y-90170000D02*
X102870000Y-90170000D01*
G04 #@! TO.N,Net-(U1-Pad9)*
X123190000Y-113030000D02*
X123190000Y-114300000D01*
X88900000Y-88900000D02*
X92710000Y-85090000D01*
X92710000Y-85090000D02*
X93980000Y-85090000D01*
X121920000Y-115570000D02*
X96520000Y-115570000D01*
X96520000Y-115570000D02*
X88900000Y-107950000D01*
X123190000Y-114300000D02*
X121920000Y-115570000D01*
X88900000Y-107950000D02*
X88900000Y-88900000D01*
G04 #@! TO.N,/A9*
X101600000Y-102870000D02*
X102870000Y-102870000D01*
X102870000Y-102870000D02*
X103250010Y-102489990D01*
X103250010Y-102489990D02*
X104140000Y-101600000D01*
X104140000Y-95250000D02*
X106680000Y-92710000D01*
X104140000Y-101600000D02*
X104140000Y-95250000D01*
G04 #@! TO.N,/SER*
X121285000Y-76835000D02*
X122555000Y-75565000D01*
X116840000Y-74930000D02*
X118745000Y-76835000D01*
X104140000Y-74930000D02*
X116840000Y-74930000D01*
X118745000Y-76835000D02*
X121285000Y-76835000D01*
X97790000Y-78105000D02*
X100965000Y-78105000D01*
X122555000Y-75565000D02*
X122555000Y-71120000D01*
X100965000Y-78105000D02*
X104140000Y-74930000D01*
X96520000Y-80645000D02*
X96520000Y-79375000D01*
X97790000Y-81915000D02*
X96520000Y-80645000D01*
X96520000Y-79375000D02*
X97790000Y-78105000D01*
X97790000Y-95250000D02*
X97790000Y-81915000D01*
X95250000Y-97790000D02*
X97790000Y-95250000D01*
X93980000Y-97790000D02*
X95250000Y-97790000D01*
G04 #@! TO.N,/_OE*
X95250000Y-95250000D02*
X93980000Y-95250000D01*
X96520000Y-93980000D02*
X95250000Y-95250000D01*
X96520000Y-82550000D02*
X96520000Y-93980000D01*
X95250000Y-81280000D02*
X96520000Y-82550000D01*
X100330000Y-76835000D02*
X97155000Y-76835000D01*
X103505000Y-73660000D02*
X100330000Y-76835000D01*
X97155000Y-76835000D02*
X95250000Y-78740000D01*
X118745000Y-73660000D02*
X103505000Y-73660000D01*
X95250000Y-78740000D02*
X95250000Y-81280000D01*
X120015000Y-72390000D02*
X118745000Y-73660000D01*
X120015000Y-71120000D02*
X120015000Y-72390000D01*
G04 #@! TO.N,Net-(R10-Pad2)*
X138430000Y-105410000D02*
X137160000Y-105410000D01*
X137160000Y-105410000D02*
X133350000Y-101600000D01*
X133350000Y-101600000D02*
X133350000Y-100330000D01*
X138430000Y-106680000D02*
X138430000Y-105410000D01*
X139700000Y-107950000D02*
X138430000Y-106680000D01*
X142240000Y-107950000D02*
X139700000Y-107950000D01*
X144780000Y-105410000D02*
X142240000Y-107950000D01*
X144780000Y-77470000D02*
X144780000Y-105410000D01*
G04 #@! TO.N,Net-(R11-Pad2)*
X142240000Y-78740000D02*
X142240000Y-77470000D01*
X143510000Y-80010000D02*
X142240000Y-78740000D01*
X143510000Y-101600000D02*
X143510000Y-80010000D01*
X135890000Y-101600000D02*
X135890000Y-100330000D01*
X137160000Y-102870000D02*
X135890000Y-101600000D01*
X142240000Y-102870000D02*
X137160000Y-102870000D01*
X142240000Y-102870000D02*
X143510000Y-101600000D01*
X140970000Y-105410000D02*
X140970000Y-102870000D01*
G04 #@! TD*
D23*
G04 #@! TO.N,GND*
X146635001Y-122505000D02*
X87045000Y-122505000D01*
X87045000Y-120503740D01*
X112815000Y-120503740D01*
X112815000Y-120796260D01*
X112872068Y-121083158D01*
X112984010Y-121353411D01*
X113146525Y-121596632D01*
X113353368Y-121803475D01*
X113596589Y-121965990D01*
X113866842Y-122077932D01*
X114153740Y-122135000D01*
X114446260Y-122135000D01*
X114733158Y-122077932D01*
X115003411Y-121965990D01*
X115246632Y-121803475D01*
X115453475Y-121596632D01*
X115570000Y-121422240D01*
X115686525Y-121596632D01*
X115893368Y-121803475D01*
X116136589Y-121965990D01*
X116406842Y-122077932D01*
X116693740Y-122135000D01*
X116986260Y-122135000D01*
X117273158Y-122077932D01*
X117543411Y-121965990D01*
X117786632Y-121803475D01*
X117993475Y-121596632D01*
X118110000Y-121422240D01*
X118226525Y-121596632D01*
X118433368Y-121803475D01*
X118676589Y-121965990D01*
X118946842Y-122077932D01*
X119233740Y-122135000D01*
X119526260Y-122135000D01*
X119813158Y-122077932D01*
X120083411Y-121965990D01*
X120326632Y-121803475D01*
X120533475Y-121596632D01*
X120655195Y-121414466D01*
X120724822Y-121531355D01*
X120919731Y-121747588D01*
X121153080Y-121921641D01*
X121415901Y-122046825D01*
X121563110Y-122091476D01*
X121793000Y-121970155D01*
X121793000Y-120777000D01*
X122047000Y-120777000D01*
X122047000Y-121970155D01*
X122276890Y-122091476D01*
X122424099Y-122046825D01*
X122686920Y-121921641D01*
X122920269Y-121747588D01*
X123115178Y-121531355D01*
X123190000Y-121405745D01*
X123264822Y-121531355D01*
X123459731Y-121747588D01*
X123693080Y-121921641D01*
X123955901Y-122046825D01*
X124103110Y-122091476D01*
X124333000Y-121970155D01*
X124333000Y-120777000D01*
X122047000Y-120777000D01*
X121793000Y-120777000D01*
X121773000Y-120777000D01*
X121773000Y-120523000D01*
X121793000Y-120523000D01*
X121793000Y-119329845D01*
X122047000Y-119329845D01*
X122047000Y-120523000D01*
X124333000Y-120523000D01*
X124333000Y-119329845D01*
X124587000Y-119329845D01*
X124587000Y-120523000D01*
X124607000Y-120523000D01*
X124607000Y-120777000D01*
X124587000Y-120777000D01*
X124587000Y-121970155D01*
X124816890Y-122091476D01*
X124964099Y-122046825D01*
X125226920Y-121921641D01*
X125460269Y-121747588D01*
X125536034Y-121663534D01*
X125560498Y-121744180D01*
X125619463Y-121854494D01*
X125698815Y-121951185D01*
X125795506Y-122030537D01*
X125905820Y-122089502D01*
X126025518Y-122125812D01*
X126150000Y-122138072D01*
X127850000Y-122138072D01*
X127974482Y-122125812D01*
X128094180Y-122089502D01*
X128204494Y-122030537D01*
X128301185Y-121951185D01*
X128380537Y-121854494D01*
X128439502Y-121744180D01*
X128475812Y-121624482D01*
X128488072Y-121500000D01*
X128488072Y-119800000D01*
X130591928Y-119800000D01*
X130591928Y-121500000D01*
X130604188Y-121624482D01*
X130640498Y-121744180D01*
X130699463Y-121854494D01*
X130778815Y-121951185D01*
X130875506Y-122030537D01*
X130985820Y-122089502D01*
X131105518Y-122125812D01*
X131230000Y-122138072D01*
X132930000Y-122138072D01*
X133054482Y-122125812D01*
X133174180Y-122089502D01*
X133284494Y-122030537D01*
X133381185Y-121951185D01*
X133460537Y-121854494D01*
X133519502Y-121744180D01*
X133541513Y-121671620D01*
X133673368Y-121803475D01*
X133916589Y-121965990D01*
X134186842Y-122077932D01*
X134473740Y-122135000D01*
X134766260Y-122135000D01*
X135053158Y-122077932D01*
X135323411Y-121965990D01*
X135566632Y-121803475D01*
X135773475Y-121596632D01*
X135890000Y-121422240D01*
X136006525Y-121596632D01*
X136213368Y-121803475D01*
X136456589Y-121965990D01*
X136726842Y-122077932D01*
X137013740Y-122135000D01*
X137306260Y-122135000D01*
X137593158Y-122077932D01*
X137863411Y-121965990D01*
X138106632Y-121803475D01*
X138313475Y-121596632D01*
X138430000Y-121422240D01*
X138546525Y-121596632D01*
X138753368Y-121803475D01*
X138996589Y-121965990D01*
X139266842Y-122077932D01*
X139553740Y-122135000D01*
X139846260Y-122135000D01*
X140133158Y-122077932D01*
X140403411Y-121965990D01*
X140646632Y-121803475D01*
X140853475Y-121596632D01*
X140970000Y-121422240D01*
X141086525Y-121596632D01*
X141293368Y-121803475D01*
X141536589Y-121965990D01*
X141806842Y-122077932D01*
X142093740Y-122135000D01*
X142386260Y-122135000D01*
X142673158Y-122077932D01*
X142943411Y-121965990D01*
X143186632Y-121803475D01*
X143393475Y-121596632D01*
X143510000Y-121422240D01*
X143626525Y-121596632D01*
X143833368Y-121803475D01*
X144076589Y-121965990D01*
X144346842Y-122077932D01*
X144633740Y-122135000D01*
X144926260Y-122135000D01*
X145213158Y-122077932D01*
X145483411Y-121965990D01*
X145726632Y-121803475D01*
X145933475Y-121596632D01*
X146095990Y-121353411D01*
X146207932Y-121083158D01*
X146265000Y-120796260D01*
X146265000Y-120503740D01*
X146207932Y-120216842D01*
X146095990Y-119946589D01*
X145933475Y-119703368D01*
X145726632Y-119496525D01*
X145483411Y-119334010D01*
X145213158Y-119222068D01*
X144926260Y-119165000D01*
X144633740Y-119165000D01*
X144346842Y-119222068D01*
X144076589Y-119334010D01*
X143833368Y-119496525D01*
X143626525Y-119703368D01*
X143510000Y-119877760D01*
X143393475Y-119703368D01*
X143186632Y-119496525D01*
X142943411Y-119334010D01*
X142673158Y-119222068D01*
X142386260Y-119165000D01*
X142093740Y-119165000D01*
X141806842Y-119222068D01*
X141536589Y-119334010D01*
X141293368Y-119496525D01*
X141086525Y-119703368D01*
X140970000Y-119877760D01*
X140853475Y-119703368D01*
X140646632Y-119496525D01*
X140403411Y-119334010D01*
X140133158Y-119222068D01*
X139846260Y-119165000D01*
X139553740Y-119165000D01*
X139266842Y-119222068D01*
X138996589Y-119334010D01*
X138753368Y-119496525D01*
X138546525Y-119703368D01*
X138430000Y-119877760D01*
X138313475Y-119703368D01*
X138106632Y-119496525D01*
X137863411Y-119334010D01*
X137593158Y-119222068D01*
X137306260Y-119165000D01*
X137013740Y-119165000D01*
X136726842Y-119222068D01*
X136456589Y-119334010D01*
X136213368Y-119496525D01*
X136006525Y-119703368D01*
X135890000Y-119877760D01*
X135773475Y-119703368D01*
X135566632Y-119496525D01*
X135323411Y-119334010D01*
X135053158Y-119222068D01*
X134766260Y-119165000D01*
X134473740Y-119165000D01*
X134186842Y-119222068D01*
X133916589Y-119334010D01*
X133673368Y-119496525D01*
X133541513Y-119628380D01*
X133519502Y-119555820D01*
X133460537Y-119445506D01*
X133381185Y-119348815D01*
X133284494Y-119269463D01*
X133174180Y-119210498D01*
X133054482Y-119174188D01*
X132930000Y-119161928D01*
X131230000Y-119161928D01*
X131105518Y-119174188D01*
X130985820Y-119210498D01*
X130875506Y-119269463D01*
X130778815Y-119348815D01*
X130699463Y-119445506D01*
X130640498Y-119555820D01*
X130604188Y-119675518D01*
X130591928Y-119800000D01*
X128488072Y-119800000D01*
X128475812Y-119675518D01*
X128439502Y-119555820D01*
X128380537Y-119445506D01*
X128301185Y-119348815D01*
X128204494Y-119269463D01*
X128094180Y-119210498D01*
X127974482Y-119174188D01*
X127850000Y-119161928D01*
X126150000Y-119161928D01*
X126025518Y-119174188D01*
X125905820Y-119210498D01*
X125795506Y-119269463D01*
X125698815Y-119348815D01*
X125619463Y-119445506D01*
X125560498Y-119555820D01*
X125536034Y-119636466D01*
X125460269Y-119552412D01*
X125226920Y-119378359D01*
X124964099Y-119253175D01*
X124816890Y-119208524D01*
X124587000Y-119329845D01*
X124333000Y-119329845D01*
X124103110Y-119208524D01*
X123955901Y-119253175D01*
X123693080Y-119378359D01*
X123459731Y-119552412D01*
X123264822Y-119768645D01*
X123190000Y-119894255D01*
X123115178Y-119768645D01*
X122920269Y-119552412D01*
X122686920Y-119378359D01*
X122424099Y-119253175D01*
X122276890Y-119208524D01*
X122047000Y-119329845D01*
X121793000Y-119329845D01*
X121563110Y-119208524D01*
X121415901Y-119253175D01*
X121153080Y-119378359D01*
X120919731Y-119552412D01*
X120724822Y-119768645D01*
X120655195Y-119885534D01*
X120533475Y-119703368D01*
X120326632Y-119496525D01*
X120083411Y-119334010D01*
X119813158Y-119222068D01*
X119526260Y-119165000D01*
X119233740Y-119165000D01*
X118946842Y-119222068D01*
X118676589Y-119334010D01*
X118433368Y-119496525D01*
X118226525Y-119703368D01*
X118110000Y-119877760D01*
X117993475Y-119703368D01*
X117786632Y-119496525D01*
X117543411Y-119334010D01*
X117273158Y-119222068D01*
X116986260Y-119165000D01*
X116693740Y-119165000D01*
X116406842Y-119222068D01*
X116136589Y-119334010D01*
X115893368Y-119496525D01*
X115686525Y-119703368D01*
X115570000Y-119877760D01*
X115453475Y-119703368D01*
X115246632Y-119496525D01*
X115003411Y-119334010D01*
X114733158Y-119222068D01*
X114446260Y-119165000D01*
X114153740Y-119165000D01*
X113866842Y-119222068D01*
X113596589Y-119334010D01*
X113353368Y-119496525D01*
X113146525Y-119703368D01*
X112984010Y-119946589D01*
X112872068Y-120216842D01*
X112815000Y-120503740D01*
X87045000Y-120503740D01*
X87045000Y-88900000D01*
X88010719Y-88900000D01*
X88015001Y-88943479D01*
X88015000Y-107906531D01*
X88010719Y-107950000D01*
X88015000Y-107993469D01*
X88015000Y-107993476D01*
X88027805Y-108123489D01*
X88078411Y-108290312D01*
X88160589Y-108444058D01*
X88271183Y-108578817D01*
X88304954Y-108606532D01*
X95863470Y-116165049D01*
X95891183Y-116198817D01*
X95924951Y-116226530D01*
X95924953Y-116226532D01*
X95996452Y-116285210D01*
X96025941Y-116309411D01*
X96179687Y-116391589D01*
X96346510Y-116442195D01*
X96476523Y-116455000D01*
X96476533Y-116455000D01*
X96519999Y-116459281D01*
X96563465Y-116455000D01*
X121876531Y-116455000D01*
X121920000Y-116459281D01*
X121963469Y-116455000D01*
X121963477Y-116455000D01*
X122093490Y-116442195D01*
X122260313Y-116391589D01*
X122414059Y-116309411D01*
X122548817Y-116198817D01*
X122576534Y-116165044D01*
X123785049Y-114956530D01*
X123818817Y-114928817D01*
X123888232Y-114844236D01*
X123929410Y-114794060D01*
X123980859Y-114697805D01*
X124011589Y-114640313D01*
X124022977Y-114602771D01*
X124209607Y-114449608D01*
X124388932Y-114231101D01*
X124460000Y-114098142D01*
X124531068Y-114231100D01*
X124710392Y-114449607D01*
X124928899Y-114628932D01*
X125178192Y-114762182D01*
X125448691Y-114844236D01*
X125730000Y-114871943D01*
X126011308Y-114844236D01*
X126281807Y-114762182D01*
X126531100Y-114628932D01*
X126749607Y-114449608D01*
X126928932Y-114231101D01*
X127000000Y-114098142D01*
X127071068Y-114231100D01*
X127250392Y-114449607D01*
X127468899Y-114628932D01*
X127718192Y-114762182D01*
X127988691Y-114844236D01*
X128270000Y-114871943D01*
X128551308Y-114844236D01*
X128821807Y-114762182D01*
X129071100Y-114628932D01*
X129289607Y-114449608D01*
X129468932Y-114231101D01*
X129602182Y-113981808D01*
X129684236Y-113711309D01*
X129705000Y-113500492D01*
X129705000Y-112559509D01*
X129684236Y-112348691D01*
X129602182Y-112078192D01*
X129468932Y-111828899D01*
X129410231Y-111757372D01*
X129405000Y-111704255D01*
X129405000Y-111704248D01*
X129396571Y-111618665D01*
X131915000Y-111618665D01*
X131915000Y-111901335D01*
X131970147Y-112178574D01*
X132078320Y-112439727D01*
X132235363Y-112674759D01*
X132435241Y-112874637D01*
X132670273Y-113031680D01*
X132931426Y-113139853D01*
X133208665Y-113195000D01*
X133491335Y-113195000D01*
X133768574Y-113139853D01*
X134029727Y-113031680D01*
X134229024Y-112898514D01*
X137095000Y-112898514D01*
X137095000Y-113161486D01*
X137146304Y-113419405D01*
X137246939Y-113662359D01*
X137393038Y-113881013D01*
X137578987Y-114066962D01*
X137797641Y-114213061D01*
X138040595Y-114313696D01*
X138298514Y-114365000D01*
X138561486Y-114365000D01*
X138819405Y-114313696D01*
X139062359Y-114213061D01*
X139281013Y-114066962D01*
X139466962Y-113881013D01*
X139613061Y-113662359D01*
X139700000Y-113452470D01*
X139786939Y-113662359D01*
X139933038Y-113881013D01*
X140118987Y-114066962D01*
X140337641Y-114213061D01*
X140580595Y-114313696D01*
X140838514Y-114365000D01*
X141101486Y-114365000D01*
X141359405Y-114313696D01*
X141602359Y-114213061D01*
X141821013Y-114066962D01*
X142006962Y-113881013D01*
X142153061Y-113662359D01*
X142253696Y-113419405D01*
X142305000Y-113161486D01*
X142305000Y-112898514D01*
X142253696Y-112640595D01*
X142153061Y-112397641D01*
X142006962Y-112178987D01*
X141821013Y-111993038D01*
X141602359Y-111846939D01*
X141359405Y-111746304D01*
X141101486Y-111695000D01*
X140838514Y-111695000D01*
X140580595Y-111746304D01*
X140337641Y-111846939D01*
X140118987Y-111993038D01*
X139933038Y-112178987D01*
X139786939Y-112397641D01*
X139700000Y-112607530D01*
X139613061Y-112397641D01*
X139466962Y-112178987D01*
X139281013Y-111993038D01*
X139062359Y-111846939D01*
X138819405Y-111746304D01*
X138561486Y-111695000D01*
X138298514Y-111695000D01*
X138040595Y-111746304D01*
X137797641Y-111846939D01*
X137578987Y-111993038D01*
X137393038Y-112178987D01*
X137246939Y-112397641D01*
X137146304Y-112640595D01*
X137095000Y-112898514D01*
X134229024Y-112898514D01*
X134264759Y-112874637D01*
X134464637Y-112674759D01*
X134621680Y-112439727D01*
X134729853Y-112178574D01*
X134785000Y-111901335D01*
X134785000Y-111618665D01*
X134729853Y-111341426D01*
X134621680Y-111080273D01*
X134464637Y-110845241D01*
X134264759Y-110645363D01*
X134029727Y-110488320D01*
X133768574Y-110380147D01*
X133491335Y-110325000D01*
X133208665Y-110325000D01*
X132931426Y-110380147D01*
X132670273Y-110488320D01*
X132435241Y-110645363D01*
X132235363Y-110845241D01*
X132078320Y-111080273D01*
X131970147Y-111341426D01*
X131915000Y-111618665D01*
X129396571Y-111618665D01*
X129388577Y-111537501D01*
X129323676Y-111323553D01*
X129218284Y-111126377D01*
X129076449Y-110953551D01*
X129033140Y-110918008D01*
X127841996Y-109726865D01*
X127806449Y-109683551D01*
X127633623Y-109541716D01*
X127436447Y-109436324D01*
X127222499Y-109371423D01*
X127055752Y-109355000D01*
X127055751Y-109355000D01*
X127000000Y-109349509D01*
X126944249Y-109355000D01*
X113085751Y-109355000D01*
X113030000Y-109349509D01*
X112974248Y-109355000D01*
X108005743Y-109355000D01*
X107949999Y-109349510D01*
X107894255Y-109355000D01*
X107894248Y-109355000D01*
X107748493Y-109369356D01*
X107727500Y-109371423D01*
X107677705Y-109386529D01*
X107513553Y-109436324D01*
X107316377Y-109541716D01*
X107143551Y-109683551D01*
X107108008Y-109726860D01*
X106209869Y-110625000D01*
X100218728Y-110625000D01*
X100264494Y-110600537D01*
X100361185Y-110521185D01*
X100440537Y-110424494D01*
X100499502Y-110314180D01*
X100535812Y-110194482D01*
X100548072Y-110070000D01*
X100545000Y-109505750D01*
X100386250Y-109347000D01*
X99187000Y-109347000D01*
X99187000Y-109367000D01*
X98933000Y-109367000D01*
X98933000Y-109347000D01*
X98913000Y-109347000D01*
X98913000Y-109093000D01*
X98933000Y-109093000D01*
X98933000Y-107893750D01*
X99187000Y-107893750D01*
X99187000Y-109093000D01*
X100386250Y-109093000D01*
X100545000Y-108934250D01*
X100548072Y-108370000D01*
X100535812Y-108245518D01*
X100499502Y-108125820D01*
X100440537Y-108015506D01*
X100361185Y-107918815D01*
X100264494Y-107839463D01*
X100154180Y-107780498D01*
X100062549Y-107752702D01*
X132536903Y-107752702D01*
X132608486Y-107996671D01*
X132863996Y-108117571D01*
X133138184Y-108186300D01*
X133420512Y-108200217D01*
X133700130Y-108158787D01*
X133966292Y-108063603D01*
X134091514Y-107996671D01*
X134163097Y-107752702D01*
X133350000Y-106939605D01*
X132536903Y-107752702D01*
X100062549Y-107752702D01*
X100034482Y-107744188D01*
X99910000Y-107731928D01*
X99345750Y-107735000D01*
X99187000Y-107893750D01*
X98933000Y-107893750D01*
X98774250Y-107735000D01*
X98210000Y-107731928D01*
X98085518Y-107744188D01*
X97965820Y-107780498D01*
X97912672Y-107808907D01*
X98156579Y-107565000D01*
X103461531Y-107565000D01*
X103505000Y-107569281D01*
X103548469Y-107565000D01*
X103548477Y-107565000D01*
X103678490Y-107552195D01*
X103845313Y-107501589D01*
X103999059Y-107419411D01*
X104133817Y-107308817D01*
X104161534Y-107275044D01*
X105899578Y-105537000D01*
X109055000Y-105537000D01*
X109055000Y-105937000D01*
X109107350Y-106214514D01*
X109212834Y-106476483D01*
X109367399Y-106712839D01*
X109565105Y-106914500D01*
X109798354Y-107073715D01*
X110058182Y-107184367D01*
X110140961Y-107201904D01*
X110363000Y-107079915D01*
X110363000Y-105537000D01*
X109055000Y-105537000D01*
X105899578Y-105537000D01*
X106553578Y-104883000D01*
X109055000Y-104883000D01*
X109055000Y-105283000D01*
X110363000Y-105283000D01*
X110363000Y-103740085D01*
X110617000Y-103740085D01*
X110617000Y-105283000D01*
X110637000Y-105283000D01*
X110637000Y-105537000D01*
X110617000Y-105537000D01*
X110617000Y-107079915D01*
X110839039Y-107201904D01*
X110921818Y-107184367D01*
X111181646Y-107073715D01*
X111414895Y-106914500D01*
X111612601Y-106712839D01*
X111762735Y-106483258D01*
X111831068Y-106611100D01*
X112010392Y-106829607D01*
X112228899Y-107008932D01*
X112478192Y-107142182D01*
X112748691Y-107224236D01*
X113030000Y-107251943D01*
X113311308Y-107224236D01*
X113581807Y-107142182D01*
X113831100Y-107008932D01*
X114049607Y-106829608D01*
X114228932Y-106611101D01*
X114300000Y-106478142D01*
X114371068Y-106611100D01*
X114550392Y-106829607D01*
X114768899Y-107008932D01*
X115018192Y-107142182D01*
X115288691Y-107224236D01*
X115570000Y-107251943D01*
X115851308Y-107224236D01*
X116121807Y-107142182D01*
X116371100Y-107008932D01*
X116589607Y-106829608D01*
X116768932Y-106611101D01*
X116840000Y-106478142D01*
X116911068Y-106611100D01*
X117090392Y-106829607D01*
X117308899Y-107008932D01*
X117558192Y-107142182D01*
X117828691Y-107224236D01*
X118110000Y-107251943D01*
X118391308Y-107224236D01*
X118661807Y-107142182D01*
X118911100Y-107008932D01*
X119129607Y-106829608D01*
X119308932Y-106611101D01*
X119380000Y-106478142D01*
X119451068Y-106611100D01*
X119630392Y-106829607D01*
X119848899Y-107008932D01*
X120098192Y-107142182D01*
X120368691Y-107224236D01*
X120650000Y-107251943D01*
X120931308Y-107224236D01*
X121201807Y-107142182D01*
X121451100Y-107008932D01*
X121669607Y-106829608D01*
X121848932Y-106611101D01*
X121920000Y-106478142D01*
X121991068Y-106611100D01*
X122170392Y-106829607D01*
X122388899Y-107008932D01*
X122638192Y-107142182D01*
X122908691Y-107224236D01*
X123190000Y-107251943D01*
X123471308Y-107224236D01*
X123741807Y-107142182D01*
X123991100Y-107008932D01*
X124209607Y-106829608D01*
X124388932Y-106611101D01*
X124460000Y-106478142D01*
X124531068Y-106611100D01*
X124710392Y-106829607D01*
X124928899Y-107008932D01*
X125178192Y-107142182D01*
X125448691Y-107224236D01*
X125730000Y-107251943D01*
X126011308Y-107224236D01*
X126281807Y-107142182D01*
X126531100Y-107008932D01*
X126749607Y-106829608D01*
X126842419Y-106716517D01*
X126844188Y-106734482D01*
X126880498Y-106854180D01*
X126939463Y-106964494D01*
X127018815Y-107061185D01*
X127115506Y-107140537D01*
X127225820Y-107199502D01*
X127345518Y-107235812D01*
X127470000Y-107248072D01*
X129070000Y-107248072D01*
X129194482Y-107235812D01*
X129314180Y-107199502D01*
X129424494Y-107140537D01*
X129521185Y-107061185D01*
X129600537Y-106964494D01*
X129659502Y-106854180D01*
X129666681Y-106830512D01*
X131909783Y-106830512D01*
X131951213Y-107110130D01*
X132046397Y-107376292D01*
X132113329Y-107501514D01*
X132357298Y-107573097D01*
X133170395Y-106760000D01*
X133529605Y-106760000D01*
X134342702Y-107573097D01*
X134586671Y-107501514D01*
X134707571Y-107246004D01*
X134776300Y-106971816D01*
X134790217Y-106689488D01*
X134748787Y-106409870D01*
X134653603Y-106143708D01*
X134586671Y-106018486D01*
X134342702Y-105946903D01*
X133529605Y-106760000D01*
X133170395Y-106760000D01*
X132357298Y-105946903D01*
X132113329Y-106018486D01*
X131992429Y-106273996D01*
X131923700Y-106548184D01*
X131909783Y-106830512D01*
X129666681Y-106830512D01*
X129695812Y-106734482D01*
X129708072Y-106610000D01*
X129708072Y-105767298D01*
X132536903Y-105767298D01*
X133350000Y-106580395D01*
X134163097Y-105767298D01*
X134091514Y-105523329D01*
X133836004Y-105402429D01*
X133561816Y-105333700D01*
X133279488Y-105319783D01*
X132999870Y-105361213D01*
X132733708Y-105456397D01*
X132608486Y-105523329D01*
X132536903Y-105767298D01*
X129708072Y-105767298D01*
X129708072Y-104210000D01*
X129695812Y-104085518D01*
X129659502Y-103965820D01*
X129600537Y-103855506D01*
X129521185Y-103758815D01*
X129424494Y-103679463D01*
X129314180Y-103620498D01*
X129194482Y-103584188D01*
X129070000Y-103571928D01*
X127470000Y-103571928D01*
X127345518Y-103584188D01*
X127225820Y-103620498D01*
X127115506Y-103679463D01*
X127018815Y-103758815D01*
X126939463Y-103855506D01*
X126880498Y-103965820D01*
X126844188Y-104085518D01*
X126842419Y-104103482D01*
X126749608Y-103990392D01*
X126531101Y-103811068D01*
X126281808Y-103677818D01*
X126011309Y-103595764D01*
X125730000Y-103568057D01*
X125448692Y-103595764D01*
X125178193Y-103677818D01*
X124928900Y-103811068D01*
X124710393Y-103990392D01*
X124531068Y-104208899D01*
X124460000Y-104341858D01*
X124388932Y-104208899D01*
X124209608Y-103990392D01*
X123991101Y-103811068D01*
X123741808Y-103677818D01*
X123471309Y-103595764D01*
X123190000Y-103568057D01*
X122908692Y-103595764D01*
X122638193Y-103677818D01*
X122388900Y-103811068D01*
X122170393Y-103990392D01*
X121991068Y-104208899D01*
X121920000Y-104341858D01*
X121848932Y-104208899D01*
X121669608Y-103990392D01*
X121451101Y-103811068D01*
X121201808Y-103677818D01*
X120931309Y-103595764D01*
X120650000Y-103568057D01*
X120368692Y-103595764D01*
X120098193Y-103677818D01*
X119848900Y-103811068D01*
X119630393Y-103990392D01*
X119451068Y-104208899D01*
X119380000Y-104341858D01*
X119308932Y-104208899D01*
X119129608Y-103990392D01*
X118911101Y-103811068D01*
X118661808Y-103677818D01*
X118391309Y-103595764D01*
X118110000Y-103568057D01*
X117828692Y-103595764D01*
X117558193Y-103677818D01*
X117308900Y-103811068D01*
X117090393Y-103990392D01*
X116911068Y-104208899D01*
X116840000Y-104341858D01*
X116768932Y-104208899D01*
X116589608Y-103990392D01*
X116371101Y-103811068D01*
X116121808Y-103677818D01*
X115851309Y-103595764D01*
X115570000Y-103568057D01*
X115288692Y-103595764D01*
X115018193Y-103677818D01*
X114768900Y-103811068D01*
X114550393Y-103990392D01*
X114371068Y-104208899D01*
X114300000Y-104341858D01*
X114228932Y-104208899D01*
X114049608Y-103990392D01*
X113831101Y-103811068D01*
X113581808Y-103677818D01*
X113311309Y-103595764D01*
X113030000Y-103568057D01*
X112748692Y-103595764D01*
X112478193Y-103677818D01*
X112228900Y-103811068D01*
X112010393Y-103990392D01*
X111831068Y-104208899D01*
X111762735Y-104336741D01*
X111612601Y-104107161D01*
X111414895Y-103905500D01*
X111181646Y-103746285D01*
X110921818Y-103635633D01*
X110839039Y-103618096D01*
X110617000Y-103740085D01*
X110363000Y-103740085D01*
X110140961Y-103618096D01*
X110058182Y-103635633D01*
X109798354Y-103746285D01*
X109565105Y-103905500D01*
X109367399Y-104107161D01*
X109212834Y-104343517D01*
X109107350Y-104605486D01*
X109055000Y-104883000D01*
X106553578Y-104883000D01*
X108545050Y-102891528D01*
X108578817Y-102863817D01*
X108689411Y-102729059D01*
X108771589Y-102575313D01*
X108822195Y-102408490D01*
X108835000Y-102278477D01*
X108835000Y-102278467D01*
X108839281Y-102235001D01*
X108835000Y-102191535D01*
X108835000Y-102159701D01*
X108874482Y-102155812D01*
X108994180Y-102119502D01*
X109104494Y-102060537D01*
X109201185Y-101981185D01*
X109280537Y-101884494D01*
X109339502Y-101774180D01*
X109375812Y-101654482D01*
X109377581Y-101636517D01*
X109470393Y-101749608D01*
X109688900Y-101928932D01*
X109938193Y-102062182D01*
X110208692Y-102144236D01*
X110490000Y-102171943D01*
X110771309Y-102144236D01*
X111041808Y-102062182D01*
X111291101Y-101928932D01*
X111509608Y-101749608D01*
X111688932Y-101531101D01*
X111760000Y-101398142D01*
X111831068Y-101531101D01*
X112010393Y-101749608D01*
X112228900Y-101928932D01*
X112478193Y-102062182D01*
X112748692Y-102144236D01*
X113030000Y-102171943D01*
X113311309Y-102144236D01*
X113581808Y-102062182D01*
X113831101Y-101928932D01*
X114049608Y-101749608D01*
X114228932Y-101531101D01*
X114300000Y-101398142D01*
X114371068Y-101531101D01*
X114550393Y-101749608D01*
X114768900Y-101928932D01*
X115018193Y-102062182D01*
X115288692Y-102144236D01*
X115570000Y-102171943D01*
X115851309Y-102144236D01*
X116121808Y-102062182D01*
X116371101Y-101928932D01*
X116589608Y-101749608D01*
X116768932Y-101531101D01*
X116840000Y-101398142D01*
X116911068Y-101531101D01*
X117090393Y-101749608D01*
X117308900Y-101928932D01*
X117558193Y-102062182D01*
X117828692Y-102144236D01*
X118110000Y-102171943D01*
X118391309Y-102144236D01*
X118661808Y-102062182D01*
X118911101Y-101928932D01*
X119129608Y-101749608D01*
X119308932Y-101531101D01*
X119380000Y-101398142D01*
X119451068Y-101531101D01*
X119630393Y-101749608D01*
X119848900Y-101928932D01*
X120098193Y-102062182D01*
X120368692Y-102144236D01*
X120650000Y-102171943D01*
X120931309Y-102144236D01*
X121201808Y-102062182D01*
X121451101Y-101928932D01*
X121669608Y-101749608D01*
X121848932Y-101531101D01*
X121920000Y-101398142D01*
X121991068Y-101531101D01*
X122170393Y-101749608D01*
X122388900Y-101928932D01*
X122638193Y-102062182D01*
X122908692Y-102144236D01*
X123190000Y-102171943D01*
X123471309Y-102144236D01*
X123741808Y-102062182D01*
X123991101Y-101928932D01*
X124209608Y-101749608D01*
X124388932Y-101531101D01*
X124460000Y-101398142D01*
X124531068Y-101531101D01*
X124710393Y-101749608D01*
X124928900Y-101928932D01*
X125178193Y-102062182D01*
X125448692Y-102144236D01*
X125730000Y-102171943D01*
X126011309Y-102144236D01*
X126281808Y-102062182D01*
X126531101Y-101928932D01*
X126749608Y-101749608D01*
X126928932Y-101531101D01*
X127000000Y-101398142D01*
X127071068Y-101531101D01*
X127250393Y-101749608D01*
X127468900Y-101928932D01*
X127718193Y-102062182D01*
X127988692Y-102144236D01*
X128270000Y-102171943D01*
X128551309Y-102144236D01*
X128821808Y-102062182D01*
X129071101Y-101928932D01*
X129289608Y-101749608D01*
X129468932Y-101531101D01*
X129540000Y-101398142D01*
X129611068Y-101531101D01*
X129790393Y-101749608D01*
X130008900Y-101928932D01*
X130258193Y-102062182D01*
X130528692Y-102144236D01*
X130810000Y-102171943D01*
X131091309Y-102144236D01*
X131361808Y-102062182D01*
X131611101Y-101928932D01*
X131829608Y-101749608D01*
X132008932Y-101531101D01*
X132080000Y-101398142D01*
X132151068Y-101531101D01*
X132330393Y-101749608D01*
X132517023Y-101902771D01*
X132528411Y-101940312D01*
X132610589Y-102094058D01*
X132721183Y-102228817D01*
X132754954Y-102256532D01*
X136503468Y-106005047D01*
X136531183Y-106038817D01*
X136564951Y-106066530D01*
X136564953Y-106066532D01*
X136665941Y-106149411D01*
X136819686Y-106231589D01*
X136916683Y-106261013D01*
X136986510Y-106282195D01*
X137116523Y-106295000D01*
X137116531Y-106295000D01*
X137160000Y-106299281D01*
X137203469Y-106295000D01*
X137427025Y-106295000D01*
X137545000Y-106412975D01*
X137545000Y-106636530D01*
X137540719Y-106680000D01*
X137545000Y-106723469D01*
X137545000Y-106723476D01*
X137555453Y-106829607D01*
X137557805Y-106853490D01*
X137573157Y-106904096D01*
X137608411Y-107020312D01*
X137690589Y-107174058D01*
X137801183Y-107308817D01*
X137834954Y-107336532D01*
X139043470Y-108545049D01*
X139071183Y-108578817D01*
X139104951Y-108606530D01*
X139104953Y-108606532D01*
X139176452Y-108665210D01*
X139205941Y-108689411D01*
X139359687Y-108771589D01*
X139526510Y-108822195D01*
X139656523Y-108835000D01*
X139656533Y-108835000D01*
X139699999Y-108839281D01*
X139743465Y-108835000D01*
X142196531Y-108835000D01*
X142240000Y-108839281D01*
X142283469Y-108835000D01*
X142283477Y-108835000D01*
X142413490Y-108822195D01*
X142580313Y-108771589D01*
X142734059Y-108689411D01*
X142868817Y-108578817D01*
X142896534Y-108545044D01*
X145375049Y-106066530D01*
X145408817Y-106038817D01*
X145519411Y-105904059D01*
X145601589Y-105750313D01*
X145652195Y-105583490D01*
X145665000Y-105453477D01*
X145665000Y-105453467D01*
X145669281Y-105410001D01*
X145665000Y-105366535D01*
X145665000Y-78472975D01*
X145816962Y-78321013D01*
X145963061Y-78102359D01*
X146063696Y-77859405D01*
X146115000Y-77601486D01*
X146115000Y-77338514D01*
X146063696Y-77080595D01*
X145963061Y-76837641D01*
X145816962Y-76618987D01*
X145631013Y-76433038D01*
X145412359Y-76286939D01*
X145202470Y-76200000D01*
X145412359Y-76113061D01*
X145631013Y-75966962D01*
X145816962Y-75781013D01*
X145963061Y-75562359D01*
X146063696Y-75319405D01*
X146115000Y-75061486D01*
X146115000Y-74798514D01*
X146063696Y-74540595D01*
X145963061Y-74297641D01*
X145816962Y-74078987D01*
X145631013Y-73893038D01*
X145412359Y-73746939D01*
X145169405Y-73646304D01*
X144911486Y-73595000D01*
X144648514Y-73595000D01*
X144390595Y-73646304D01*
X144147641Y-73746939D01*
X143928987Y-73893038D01*
X143743038Y-74078987D01*
X143596939Y-74297641D01*
X143510000Y-74507530D01*
X143423061Y-74297641D01*
X143276962Y-74078987D01*
X143091013Y-73893038D01*
X142872359Y-73746939D01*
X142629405Y-73646304D01*
X142371486Y-73595000D01*
X142108514Y-73595000D01*
X141850595Y-73646304D01*
X141607641Y-73746939D01*
X141388987Y-73893038D01*
X141203038Y-74078987D01*
X141056939Y-74297641D01*
X140970000Y-74507530D01*
X140883061Y-74297641D01*
X140736962Y-74078987D01*
X140551013Y-73893038D01*
X140332359Y-73746939D01*
X140089405Y-73646304D01*
X139831486Y-73595000D01*
X139568514Y-73595000D01*
X139310595Y-73646304D01*
X139067641Y-73746939D01*
X138848987Y-73893038D01*
X138663038Y-74078987D01*
X138516939Y-74297641D01*
X138430000Y-74507530D01*
X138343061Y-74297641D01*
X138196962Y-74078987D01*
X138011013Y-73893038D01*
X137792359Y-73746939D01*
X137549405Y-73646304D01*
X137291486Y-73595000D01*
X137028514Y-73595000D01*
X136770595Y-73646304D01*
X136527641Y-73746939D01*
X136308987Y-73893038D01*
X136123038Y-74078987D01*
X135976939Y-74297641D01*
X135890000Y-74507530D01*
X135803061Y-74297641D01*
X135656962Y-74078987D01*
X135471013Y-73893038D01*
X135252359Y-73746939D01*
X135009405Y-73646304D01*
X134751486Y-73595000D01*
X134488514Y-73595000D01*
X134230595Y-73646304D01*
X133987641Y-73746939D01*
X133768987Y-73893038D01*
X133583038Y-74078987D01*
X133436939Y-74297641D01*
X133350000Y-74507530D01*
X133263061Y-74297641D01*
X133116962Y-74078987D01*
X132931013Y-73893038D01*
X132712359Y-73746939D01*
X132469405Y-73646304D01*
X132211486Y-73595000D01*
X131948514Y-73595000D01*
X131690595Y-73646304D01*
X131447641Y-73746939D01*
X131228987Y-73893038D01*
X131043038Y-74078987D01*
X130896939Y-74297641D01*
X130810000Y-74507530D01*
X130723061Y-74297641D01*
X130576962Y-74078987D01*
X130391013Y-73893038D01*
X130172359Y-73746939D01*
X129929405Y-73646304D01*
X129671486Y-73595000D01*
X129408514Y-73595000D01*
X129150595Y-73646304D01*
X128907641Y-73746939D01*
X128688987Y-73893038D01*
X128503038Y-74078987D01*
X128356939Y-74297641D01*
X128270000Y-74507530D01*
X128183061Y-74297641D01*
X128036962Y-74078987D01*
X127851013Y-73893038D01*
X127632359Y-73746939D01*
X127389405Y-73646304D01*
X127131486Y-73595000D01*
X126868514Y-73595000D01*
X126610595Y-73646304D01*
X126367641Y-73746939D01*
X126148987Y-73893038D01*
X125963038Y-74078987D01*
X125816939Y-74297641D01*
X125716304Y-74540595D01*
X125665000Y-74798514D01*
X125665000Y-75061486D01*
X125716304Y-75319405D01*
X125816939Y-75562359D01*
X125963038Y-75781013D01*
X126148987Y-75966962D01*
X126367641Y-76113061D01*
X126577530Y-76200000D01*
X126367641Y-76286939D01*
X126148987Y-76433038D01*
X125963038Y-76618987D01*
X125816939Y-76837641D01*
X125716304Y-77080595D01*
X125665000Y-77338514D01*
X125665000Y-77601486D01*
X125716304Y-77859405D01*
X125816939Y-78102359D01*
X125963038Y-78321013D01*
X126148987Y-78506962D01*
X126367641Y-78653061D01*
X126610595Y-78753696D01*
X126868514Y-78805000D01*
X127131486Y-78805000D01*
X127389405Y-78753696D01*
X127632359Y-78653061D01*
X127851013Y-78506962D01*
X128036962Y-78321013D01*
X128183061Y-78102359D01*
X128270000Y-77892470D01*
X128356939Y-78102359D01*
X128503038Y-78321013D01*
X128688987Y-78506962D01*
X128907641Y-78653061D01*
X129150595Y-78753696D01*
X129408514Y-78805000D01*
X129671486Y-78805000D01*
X129929405Y-78753696D01*
X130172359Y-78653061D01*
X130391013Y-78506962D01*
X130576962Y-78321013D01*
X130723061Y-78102359D01*
X130810000Y-77892470D01*
X130896939Y-78102359D01*
X131043038Y-78321013D01*
X131228987Y-78506962D01*
X131447641Y-78653061D01*
X131690595Y-78753696D01*
X131948514Y-78805000D01*
X132211486Y-78805000D01*
X132469405Y-78753696D01*
X132712359Y-78653061D01*
X132931013Y-78506962D01*
X133116962Y-78321013D01*
X133263061Y-78102359D01*
X133350000Y-77892470D01*
X133436939Y-78102359D01*
X133583038Y-78321013D01*
X133768987Y-78506962D01*
X133987641Y-78653061D01*
X134230595Y-78753696D01*
X134488514Y-78805000D01*
X134751486Y-78805000D01*
X135009405Y-78753696D01*
X135252359Y-78653061D01*
X135471013Y-78506962D01*
X135656962Y-78321013D01*
X135803061Y-78102359D01*
X135890000Y-77892470D01*
X135976939Y-78102359D01*
X136123038Y-78321013D01*
X136308987Y-78506962D01*
X136527641Y-78653061D01*
X136770595Y-78753696D01*
X137028514Y-78805000D01*
X137291486Y-78805000D01*
X137549405Y-78753696D01*
X137792359Y-78653061D01*
X138011013Y-78506962D01*
X138196962Y-78321013D01*
X138343061Y-78102359D01*
X138430000Y-77892470D01*
X138516939Y-78102359D01*
X138663038Y-78321013D01*
X138848987Y-78506962D01*
X139067641Y-78653061D01*
X139310595Y-78753696D01*
X139568514Y-78805000D01*
X139831486Y-78805000D01*
X140089405Y-78753696D01*
X140332359Y-78653061D01*
X140551013Y-78506962D01*
X140736962Y-78321013D01*
X140883061Y-78102359D01*
X140970000Y-77892470D01*
X141056939Y-78102359D01*
X141203038Y-78321013D01*
X141355000Y-78472975D01*
X141355000Y-78696530D01*
X141350719Y-78740000D01*
X141355000Y-78783469D01*
X141355000Y-78783476D01*
X141364014Y-78875000D01*
X141367805Y-78913490D01*
X141371779Y-78926589D01*
X141418411Y-79080312D01*
X141500589Y-79234058D01*
X141611183Y-79368817D01*
X141644954Y-79396532D01*
X142625001Y-80376580D01*
X142625000Y-101233421D01*
X141873422Y-101985000D01*
X141674413Y-101985000D01*
X141894895Y-101834500D01*
X142092601Y-101632839D01*
X142247166Y-101396483D01*
X142352650Y-101134514D01*
X142405000Y-100857000D01*
X142405000Y-100457000D01*
X141097000Y-100457000D01*
X141097000Y-100477000D01*
X140843000Y-100477000D01*
X140843000Y-100457000D01*
X140823000Y-100457000D01*
X140823000Y-100203000D01*
X140843000Y-100203000D01*
X140843000Y-98660085D01*
X141097000Y-98660085D01*
X141097000Y-100203000D01*
X142405000Y-100203000D01*
X142405000Y-99803000D01*
X142352650Y-99525486D01*
X142247166Y-99263517D01*
X142092601Y-99027161D01*
X141894895Y-98825500D01*
X141661646Y-98666285D01*
X141401818Y-98555633D01*
X141319039Y-98538096D01*
X141097000Y-98660085D01*
X140843000Y-98660085D01*
X140620961Y-98538096D01*
X140538182Y-98555633D01*
X140278354Y-98666285D01*
X140045105Y-98825500D01*
X139847399Y-99027161D01*
X139697265Y-99256741D01*
X139628932Y-99128899D01*
X139449607Y-98910392D01*
X139231100Y-98731068D01*
X138981807Y-98597818D01*
X138711308Y-98515764D01*
X138430000Y-98488057D01*
X138148691Y-98515764D01*
X137878192Y-98597818D01*
X137628899Y-98731068D01*
X137410392Y-98910393D01*
X137231068Y-99128900D01*
X137160000Y-99261858D01*
X137088932Y-99128899D01*
X136909607Y-98910392D01*
X136691100Y-98731068D01*
X136441807Y-98597818D01*
X136171308Y-98515764D01*
X135890000Y-98488057D01*
X135608691Y-98515764D01*
X135338192Y-98597818D01*
X135088899Y-98731068D01*
X134870392Y-98910393D01*
X134691068Y-99128900D01*
X134620000Y-99261858D01*
X134548932Y-99128899D01*
X134369607Y-98910392D01*
X134151100Y-98731068D01*
X133901807Y-98597818D01*
X133631308Y-98515764D01*
X133350000Y-98488057D01*
X133068691Y-98515764D01*
X132798192Y-98597818D01*
X132548899Y-98731068D01*
X132330392Y-98910393D01*
X132151068Y-99128900D01*
X132080000Y-99261858D01*
X132008932Y-99128899D01*
X131829607Y-98910392D01*
X131611100Y-98731068D01*
X131361807Y-98597818D01*
X131091308Y-98515764D01*
X130810000Y-98488057D01*
X130528691Y-98515764D01*
X130258192Y-98597818D01*
X130008899Y-98731068D01*
X129790392Y-98910393D01*
X129611068Y-99128900D01*
X129540000Y-99261858D01*
X129468932Y-99128899D01*
X129289607Y-98910392D01*
X129071100Y-98731068D01*
X128821807Y-98597818D01*
X128551308Y-98515764D01*
X128270000Y-98488057D01*
X127988691Y-98515764D01*
X127718192Y-98597818D01*
X127468899Y-98731068D01*
X127250392Y-98910393D01*
X127071068Y-99128900D01*
X127000000Y-99261858D01*
X126928932Y-99128899D01*
X126749607Y-98910392D01*
X126531100Y-98731068D01*
X126281807Y-98597818D01*
X126011308Y-98515764D01*
X125730000Y-98488057D01*
X125448691Y-98515764D01*
X125178192Y-98597818D01*
X124928899Y-98731068D01*
X124710392Y-98910393D01*
X124531068Y-99128900D01*
X124460000Y-99261858D01*
X124388932Y-99128899D01*
X124209607Y-98910392D01*
X123991100Y-98731068D01*
X123741807Y-98597818D01*
X123471308Y-98515764D01*
X123190000Y-98488057D01*
X122908691Y-98515764D01*
X122638192Y-98597818D01*
X122388899Y-98731068D01*
X122170392Y-98910393D01*
X121991068Y-99128900D01*
X121920000Y-99261858D01*
X121848932Y-99128899D01*
X121669607Y-98910392D01*
X121451100Y-98731068D01*
X121201807Y-98597818D01*
X120931308Y-98515764D01*
X120650000Y-98488057D01*
X120368691Y-98515764D01*
X120098192Y-98597818D01*
X119848899Y-98731068D01*
X119630392Y-98910393D01*
X119451068Y-99128900D01*
X119380000Y-99261858D01*
X119308932Y-99128899D01*
X119129607Y-98910392D01*
X118911100Y-98731068D01*
X118661807Y-98597818D01*
X118391308Y-98515764D01*
X118110000Y-98488057D01*
X117828691Y-98515764D01*
X117558192Y-98597818D01*
X117308899Y-98731068D01*
X117090392Y-98910393D01*
X116911068Y-99128900D01*
X116840000Y-99261858D01*
X116768932Y-99128899D01*
X116589607Y-98910392D01*
X116371100Y-98731068D01*
X116121807Y-98597818D01*
X115851308Y-98515764D01*
X115570000Y-98488057D01*
X115288691Y-98515764D01*
X115018192Y-98597818D01*
X114768899Y-98731068D01*
X114550392Y-98910393D01*
X114371068Y-99128900D01*
X114300000Y-99261858D01*
X114228932Y-99128899D01*
X114049607Y-98910392D01*
X113831100Y-98731068D01*
X113581807Y-98597818D01*
X113311308Y-98515764D01*
X113030000Y-98488057D01*
X112748691Y-98515764D01*
X112478192Y-98597818D01*
X112228899Y-98731068D01*
X112010392Y-98910393D01*
X111831068Y-99128900D01*
X111760000Y-99261858D01*
X111688932Y-99128899D01*
X111509607Y-98910392D01*
X111291100Y-98731068D01*
X111041807Y-98597818D01*
X110771308Y-98515764D01*
X110490000Y-98488057D01*
X110208691Y-98515764D01*
X109938192Y-98597818D01*
X109688899Y-98731068D01*
X109470392Y-98910393D01*
X109377581Y-99023483D01*
X109375812Y-99005518D01*
X109339502Y-98885820D01*
X109280537Y-98775506D01*
X109201185Y-98678815D01*
X109104494Y-98599463D01*
X108994180Y-98540498D01*
X108874482Y-98504188D01*
X108750000Y-98491928D01*
X107150000Y-98491928D01*
X107025518Y-98504188D01*
X106905820Y-98540498D01*
X106795506Y-98599463D01*
X106698815Y-98678815D01*
X106619463Y-98775506D01*
X106560498Y-98885820D01*
X106524188Y-99005518D01*
X106511928Y-99130000D01*
X106511928Y-101530000D01*
X106524188Y-101654482D01*
X106560498Y-101774180D01*
X106619463Y-101884494D01*
X106698815Y-101981185D01*
X106795506Y-102060537D01*
X106845931Y-102087490D01*
X106295000Y-102638421D01*
X106295000Y-98156578D01*
X109815049Y-94636530D01*
X109848817Y-94608817D01*
X109959411Y-94474059D01*
X110010859Y-94377806D01*
X110041589Y-94320314D01*
X110092195Y-94153490D01*
X110095076Y-94124236D01*
X110105000Y-94023477D01*
X110105000Y-94023469D01*
X110109281Y-93980000D01*
X110105000Y-93936531D01*
X110105000Y-90708454D01*
X110137205Y-90660256D01*
X110215226Y-90471898D01*
X110255000Y-90271939D01*
X110255000Y-90068061D01*
X110215226Y-89868102D01*
X110137205Y-89679744D01*
X110023937Y-89510226D01*
X109879774Y-89366063D01*
X109710256Y-89252795D01*
X109521898Y-89174774D01*
X109321939Y-89135000D01*
X109118061Y-89135000D01*
X108918102Y-89174774D01*
X108729744Y-89252795D01*
X108560226Y-89366063D01*
X108416063Y-89510226D01*
X108302795Y-89679744D01*
X108224774Y-89868102D01*
X108185000Y-90068061D01*
X108185000Y-90271939D01*
X108224774Y-90471898D01*
X108302795Y-90660256D01*
X108335000Y-90708455D01*
X108335001Y-93613420D01*
X105025000Y-96923422D01*
X105025000Y-95616578D01*
X106925044Y-93716535D01*
X106981898Y-93705226D01*
X107170256Y-93627205D01*
X107339774Y-93513937D01*
X107483937Y-93369774D01*
X107597205Y-93200256D01*
X107675226Y-93011898D01*
X107715000Y-92811939D01*
X107715000Y-92608061D01*
X107675226Y-92408102D01*
X107597205Y-92219744D01*
X107483937Y-92050226D01*
X107339774Y-91906063D01*
X107170256Y-91792795D01*
X106981898Y-91714774D01*
X106781939Y-91675000D01*
X106578061Y-91675000D01*
X106378102Y-91714774D01*
X106189744Y-91792795D01*
X106020226Y-91906063D01*
X105876063Y-92050226D01*
X105762795Y-92219744D01*
X105684774Y-92408102D01*
X105673465Y-92464956D01*
X103544951Y-94593471D01*
X103511184Y-94621183D01*
X103483471Y-94654951D01*
X103483468Y-94654954D01*
X103400590Y-94755941D01*
X103368125Y-94816680D01*
X103332182Y-94698192D01*
X103198932Y-94448899D01*
X103019608Y-94230392D01*
X102801101Y-94051068D01*
X102668142Y-93980000D01*
X102801101Y-93908932D01*
X103019608Y-93729608D01*
X103198932Y-93511101D01*
X103332182Y-93261808D01*
X103414236Y-92991309D01*
X103441943Y-92710000D01*
X103414236Y-92428691D01*
X103332182Y-92158192D01*
X103198932Y-91908899D01*
X103019608Y-91690392D01*
X102801101Y-91511068D01*
X102668142Y-91440000D01*
X102801101Y-91368932D01*
X103019608Y-91189608D01*
X103172772Y-91002977D01*
X103210313Y-90991589D01*
X103364059Y-90909411D01*
X103498817Y-90798817D01*
X103526534Y-90765044D01*
X105776579Y-88515000D01*
X121876531Y-88515000D01*
X121920000Y-88519281D01*
X121963469Y-88515000D01*
X121963477Y-88515000D01*
X122093490Y-88502195D01*
X122260313Y-88451589D01*
X122414059Y-88369411D01*
X122548817Y-88258817D01*
X122576534Y-88225044D01*
X123785050Y-87016529D01*
X123818817Y-86988817D01*
X123888232Y-86904236D01*
X123929410Y-86854060D01*
X123929411Y-86854059D01*
X124011589Y-86700313D01*
X124022977Y-86662772D01*
X124209608Y-86509608D01*
X124388932Y-86291101D01*
X124460000Y-86158142D01*
X124531068Y-86291101D01*
X124710393Y-86509608D01*
X124928900Y-86688932D01*
X125178193Y-86822182D01*
X125448692Y-86904236D01*
X125730000Y-86931943D01*
X126011309Y-86904236D01*
X126281808Y-86822182D01*
X126531101Y-86688932D01*
X126749608Y-86509608D01*
X126928932Y-86291101D01*
X127000000Y-86158142D01*
X127071068Y-86291101D01*
X127250393Y-86509608D01*
X127468900Y-86688932D01*
X127718193Y-86822182D01*
X127988692Y-86904236D01*
X128270000Y-86931943D01*
X128551309Y-86904236D01*
X128821808Y-86822182D01*
X129071101Y-86688932D01*
X129289608Y-86509608D01*
X129468932Y-86291101D01*
X129540000Y-86158142D01*
X129611068Y-86291101D01*
X129790393Y-86509608D01*
X130008900Y-86688932D01*
X130258193Y-86822182D01*
X130528692Y-86904236D01*
X130810000Y-86931943D01*
X131091309Y-86904236D01*
X131361808Y-86822182D01*
X131611101Y-86688932D01*
X131829608Y-86509608D01*
X132008932Y-86291101D01*
X132080000Y-86158142D01*
X132151068Y-86291101D01*
X132330393Y-86509608D01*
X132548900Y-86688932D01*
X132798193Y-86822182D01*
X133068692Y-86904236D01*
X133350000Y-86931943D01*
X133631309Y-86904236D01*
X133901808Y-86822182D01*
X134151101Y-86688932D01*
X134369608Y-86509608D01*
X134548932Y-86291101D01*
X134620000Y-86158142D01*
X134691068Y-86291101D01*
X134870393Y-86509608D01*
X135088900Y-86688932D01*
X135338193Y-86822182D01*
X135608692Y-86904236D01*
X135890000Y-86931943D01*
X136171309Y-86904236D01*
X136441808Y-86822182D01*
X136691101Y-86688932D01*
X136909608Y-86509608D01*
X137088932Y-86291101D01*
X137160000Y-86158142D01*
X137231068Y-86291101D01*
X137410393Y-86509608D01*
X137628900Y-86688932D01*
X137878193Y-86822182D01*
X138148692Y-86904236D01*
X138430000Y-86931943D01*
X138711309Y-86904236D01*
X138981808Y-86822182D01*
X139231101Y-86688932D01*
X139449608Y-86509608D01*
X139628932Y-86291101D01*
X139700000Y-86158142D01*
X139771068Y-86291101D01*
X139950393Y-86509608D01*
X140168900Y-86688932D01*
X140418193Y-86822182D01*
X140688692Y-86904236D01*
X140970000Y-86931943D01*
X141251309Y-86904236D01*
X141521808Y-86822182D01*
X141771101Y-86688932D01*
X141989608Y-86509608D01*
X142168932Y-86291101D01*
X142302182Y-86041808D01*
X142384236Y-85771309D01*
X142405000Y-85560491D01*
X142405000Y-84619508D01*
X142384236Y-84408691D01*
X142302182Y-84138192D01*
X142168932Y-83888899D01*
X141989607Y-83670392D01*
X141771100Y-83491068D01*
X141521807Y-83357818D01*
X141251308Y-83275764D01*
X140970000Y-83248057D01*
X140688691Y-83275764D01*
X140418192Y-83357818D01*
X140168899Y-83491068D01*
X139950392Y-83670393D01*
X139771068Y-83888900D01*
X139700000Y-84021858D01*
X139628932Y-83888899D01*
X139449607Y-83670392D01*
X139231100Y-83491068D01*
X138981807Y-83357818D01*
X138711308Y-83275764D01*
X138430000Y-83248057D01*
X138148691Y-83275764D01*
X137878192Y-83357818D01*
X137628899Y-83491068D01*
X137410392Y-83670393D01*
X137231068Y-83888900D01*
X137160000Y-84021858D01*
X137088932Y-83888899D01*
X136909607Y-83670392D01*
X136691100Y-83491068D01*
X136441807Y-83357818D01*
X136171308Y-83275764D01*
X135890000Y-83248057D01*
X135608691Y-83275764D01*
X135338192Y-83357818D01*
X135088899Y-83491068D01*
X134870392Y-83670393D01*
X134691068Y-83888900D01*
X134620000Y-84021858D01*
X134548932Y-83888899D01*
X134369607Y-83670392D01*
X134151100Y-83491068D01*
X133901807Y-83357818D01*
X133631308Y-83275764D01*
X133350000Y-83248057D01*
X133068691Y-83275764D01*
X132798192Y-83357818D01*
X132548899Y-83491068D01*
X132330392Y-83670393D01*
X132151068Y-83888900D01*
X132080000Y-84021858D01*
X132008932Y-83888899D01*
X131829607Y-83670392D01*
X131611100Y-83491068D01*
X131361807Y-83357818D01*
X131091308Y-83275764D01*
X130810000Y-83248057D01*
X130528691Y-83275764D01*
X130258192Y-83357818D01*
X130008899Y-83491068D01*
X129790392Y-83670393D01*
X129611068Y-83888900D01*
X129540000Y-84021858D01*
X129468932Y-83888899D01*
X129289607Y-83670392D01*
X129102977Y-83517229D01*
X129091589Y-83479687D01*
X129009411Y-83325941D01*
X128979431Y-83289410D01*
X128926532Y-83224953D01*
X128926530Y-83224951D01*
X128898817Y-83191183D01*
X128865050Y-83163471D01*
X127656534Y-81954956D01*
X127628817Y-81921183D01*
X127494059Y-81810589D01*
X127340313Y-81728411D01*
X127173490Y-81677805D01*
X127043477Y-81665000D01*
X127043469Y-81665000D01*
X127000000Y-81660719D01*
X126956531Y-81665000D01*
X106723465Y-81665000D01*
X106679999Y-81660719D01*
X106636533Y-81665000D01*
X106636523Y-81665000D01*
X106506510Y-81677805D01*
X106339687Y-81728411D01*
X106185941Y-81810589D01*
X106185939Y-81810590D01*
X106185940Y-81810590D01*
X106084953Y-81893468D01*
X106084951Y-81893470D01*
X106051183Y-81921183D01*
X106023470Y-81954951D01*
X103544956Y-84433466D01*
X103511183Y-84461183D01*
X103400589Y-84595942D01*
X103371243Y-84650846D01*
X103263715Y-84398354D01*
X103104500Y-84165105D01*
X102902839Y-83967399D01*
X102666483Y-83812834D01*
X102404514Y-83707350D01*
X102127000Y-83655000D01*
X101727000Y-83655000D01*
X101727000Y-84963000D01*
X101747000Y-84963000D01*
X101747000Y-85217000D01*
X101727000Y-85217000D01*
X101727000Y-85237000D01*
X101473000Y-85237000D01*
X101473000Y-85217000D01*
X101453000Y-85217000D01*
X101453000Y-84963000D01*
X101473000Y-84963000D01*
X101473000Y-83655000D01*
X101073000Y-83655000D01*
X100795486Y-83707350D01*
X100533517Y-83812834D01*
X100297161Y-83967399D01*
X100195000Y-84067556D01*
X100195000Y-80894284D01*
X100331680Y-80689727D01*
X100439853Y-80428574D01*
X100495000Y-80151335D01*
X100495000Y-79868665D01*
X100439853Y-79591426D01*
X100331680Y-79330273D01*
X100251317Y-79210000D01*
X103336928Y-79210000D01*
X103336928Y-80810000D01*
X103349188Y-80934482D01*
X103385498Y-81054180D01*
X103444463Y-81164494D01*
X103523815Y-81261185D01*
X103620506Y-81340537D01*
X103730820Y-81399502D01*
X103850518Y-81435812D01*
X103975000Y-81448072D01*
X105575000Y-81448072D01*
X105699482Y-81435812D01*
X105819180Y-81399502D01*
X105929494Y-81340537D01*
X106026185Y-81261185D01*
X106105537Y-81164494D01*
X106115957Y-81145000D01*
X106624249Y-81145000D01*
X106680000Y-81150491D01*
X106735751Y-81145000D01*
X106735752Y-81145000D01*
X106902499Y-81128577D01*
X107116447Y-81063676D01*
X107313623Y-80958284D01*
X107433382Y-80860000D01*
X109001928Y-80860000D01*
X109014188Y-80984482D01*
X109050498Y-81104180D01*
X109109463Y-81214494D01*
X109188815Y-81311185D01*
X109285506Y-81390537D01*
X109395820Y-81449502D01*
X109515518Y-81485812D01*
X109640000Y-81498072D01*
X110204250Y-81495000D01*
X110363000Y-81336250D01*
X110363000Y-80137000D01*
X109163750Y-80137000D01*
X109005000Y-80295750D01*
X109001928Y-80860000D01*
X107433382Y-80860000D01*
X107486449Y-80816449D01*
X107521996Y-80773135D01*
X109002649Y-79292482D01*
X109005000Y-79724250D01*
X109163750Y-79883000D01*
X110363000Y-79883000D01*
X110363000Y-79863000D01*
X110617000Y-79863000D01*
X110617000Y-79883000D01*
X110637000Y-79883000D01*
X110637000Y-80137000D01*
X110617000Y-80137000D01*
X110617000Y-81336250D01*
X110775750Y-81495000D01*
X111340000Y-81498072D01*
X111464482Y-81485812D01*
X111584180Y-81449502D01*
X111694494Y-81390537D01*
X111791185Y-81311185D01*
X111870537Y-81214494D01*
X111929502Y-81104180D01*
X111951513Y-81031620D01*
X112083368Y-81163475D01*
X112326589Y-81325990D01*
X112596842Y-81437932D01*
X112883740Y-81495000D01*
X113176260Y-81495000D01*
X113463158Y-81437932D01*
X113733411Y-81325990D01*
X113976632Y-81163475D01*
X114183475Y-80956632D01*
X114300000Y-80782240D01*
X114416525Y-80956632D01*
X114623368Y-81163475D01*
X114866589Y-81325990D01*
X115136842Y-81437932D01*
X115423740Y-81495000D01*
X115716260Y-81495000D01*
X116003158Y-81437932D01*
X116273411Y-81325990D01*
X116516632Y-81163475D01*
X116723475Y-80956632D01*
X116885990Y-80713411D01*
X116997932Y-80443158D01*
X117055000Y-80156260D01*
X117055000Y-79878514D01*
X118680000Y-79878514D01*
X118680000Y-80141486D01*
X118731304Y-80399405D01*
X118831939Y-80642359D01*
X118978038Y-80861013D01*
X119163987Y-81046962D01*
X119382641Y-81193061D01*
X119625595Y-81293696D01*
X119883514Y-81345000D01*
X120146486Y-81345000D01*
X120404405Y-81293696D01*
X120647359Y-81193061D01*
X120866013Y-81046962D01*
X121051962Y-80861013D01*
X121198061Y-80642359D01*
X121298696Y-80399405D01*
X121350000Y-80141486D01*
X121350000Y-79878514D01*
X121298696Y-79620595D01*
X121198061Y-79377641D01*
X121051962Y-79158987D01*
X120866013Y-78973038D01*
X120647359Y-78826939D01*
X120404405Y-78726304D01*
X120146486Y-78675000D01*
X119883514Y-78675000D01*
X119625595Y-78726304D01*
X119382641Y-78826939D01*
X119163987Y-78973038D01*
X118978038Y-79158987D01*
X118831939Y-79377641D01*
X118731304Y-79620595D01*
X118680000Y-79878514D01*
X117055000Y-79878514D01*
X117055000Y-79863740D01*
X116997932Y-79576842D01*
X116885990Y-79306589D01*
X116723475Y-79063368D01*
X116705000Y-79044893D01*
X116705000Y-78795743D01*
X116710490Y-78739999D01*
X116705000Y-78684255D01*
X116705000Y-78684248D01*
X116688577Y-78517501D01*
X116623676Y-78303553D01*
X116518284Y-78106377D01*
X116376449Y-77933551D01*
X116333140Y-77898008D01*
X115141996Y-76706865D01*
X115106449Y-76663551D01*
X114933623Y-76521716D01*
X114736447Y-76416324D01*
X114522499Y-76351423D01*
X114355752Y-76335000D01*
X114355751Y-76335000D01*
X114300000Y-76329509D01*
X114244249Y-76335000D01*
X109275741Y-76335000D01*
X109219999Y-76329510D01*
X109164257Y-76335000D01*
X109164248Y-76335000D01*
X108997501Y-76351423D01*
X108783553Y-76416324D01*
X108586377Y-76521716D01*
X108413551Y-76663551D01*
X108378009Y-76706859D01*
X106209869Y-78875000D01*
X106115957Y-78875000D01*
X106105537Y-78855506D01*
X106026185Y-78758815D01*
X105929494Y-78679463D01*
X105819180Y-78620498D01*
X105699482Y-78584188D01*
X105575000Y-78571928D01*
X105567785Y-78571928D01*
X105588097Y-78502702D01*
X104775000Y-77689605D01*
X103961903Y-78502702D01*
X103982215Y-78571928D01*
X103975000Y-78571928D01*
X103850518Y-78584188D01*
X103730820Y-78620498D01*
X103620506Y-78679463D01*
X103523815Y-78758815D01*
X103444463Y-78855506D01*
X103385498Y-78965820D01*
X103349188Y-79085518D01*
X103336928Y-79210000D01*
X100251317Y-79210000D01*
X100174637Y-79095241D01*
X100069396Y-78990000D01*
X100921531Y-78990000D01*
X100965000Y-78994281D01*
X101008469Y-78990000D01*
X101008477Y-78990000D01*
X101138490Y-78977195D01*
X101305313Y-78926589D01*
X101459059Y-78844411D01*
X101593817Y-78733817D01*
X101621534Y-78700044D01*
X103525069Y-76796510D01*
X103417429Y-77023996D01*
X103348700Y-77298184D01*
X103334783Y-77580512D01*
X103376213Y-77860130D01*
X103471397Y-78126292D01*
X103538329Y-78251514D01*
X103782298Y-78323097D01*
X104595395Y-77510000D01*
X104954605Y-77510000D01*
X105767702Y-78323097D01*
X106011671Y-78251514D01*
X106132571Y-77996004D01*
X106201300Y-77721816D01*
X106215217Y-77439488D01*
X106173787Y-77159870D01*
X106078603Y-76893708D01*
X106011671Y-76768486D01*
X105767702Y-76696903D01*
X104954605Y-77510000D01*
X104595395Y-77510000D01*
X104581253Y-77495858D01*
X104760858Y-77316253D01*
X104775000Y-77330395D01*
X105588097Y-76517298D01*
X105516514Y-76273329D01*
X105261004Y-76152429D01*
X104986816Y-76083700D01*
X104704488Y-76069783D01*
X104424870Y-76111213D01*
X104158708Y-76206397D01*
X104065202Y-76256376D01*
X104506579Y-75815000D01*
X116473422Y-75815000D01*
X118088468Y-77430047D01*
X118116183Y-77463817D01*
X118149951Y-77491530D01*
X118149953Y-77491532D01*
X118250940Y-77574410D01*
X118250941Y-77574411D01*
X118404687Y-77656589D01*
X118571510Y-77707195D01*
X118701523Y-77720000D01*
X118701531Y-77720000D01*
X118745000Y-77724281D01*
X118788469Y-77720000D01*
X121241531Y-77720000D01*
X121285000Y-77724281D01*
X121328469Y-77720000D01*
X121328477Y-77720000D01*
X121458490Y-77707195D01*
X121625313Y-77656589D01*
X121779059Y-77574411D01*
X121913817Y-77463817D01*
X121941534Y-77430044D01*
X123150050Y-76221529D01*
X123183817Y-76193817D01*
X123232088Y-76135000D01*
X123294410Y-76059060D01*
X123294411Y-76059059D01*
X123376589Y-75905313D01*
X123427195Y-75738490D01*
X123440000Y-75608477D01*
X123440000Y-75608467D01*
X123444281Y-75565001D01*
X123440000Y-75521535D01*
X123440000Y-72604625D01*
X123529482Y-72595812D01*
X123649180Y-72559502D01*
X123759494Y-72500537D01*
X123856185Y-72421185D01*
X123935537Y-72324494D01*
X123994502Y-72214180D01*
X124030812Y-72094482D01*
X124043072Y-71970000D01*
X124043072Y-70973740D01*
X125515000Y-70973740D01*
X125515000Y-71266260D01*
X125572068Y-71553158D01*
X125684010Y-71823411D01*
X125846525Y-72066632D01*
X126053368Y-72273475D01*
X126296589Y-72435990D01*
X126566842Y-72547932D01*
X126853740Y-72605000D01*
X127146260Y-72605000D01*
X127433158Y-72547932D01*
X127703411Y-72435990D01*
X127946632Y-72273475D01*
X128153475Y-72066632D01*
X128270000Y-71892240D01*
X128386525Y-72066632D01*
X128593368Y-72273475D01*
X128836589Y-72435990D01*
X129106842Y-72547932D01*
X129393740Y-72605000D01*
X129686260Y-72605000D01*
X129973158Y-72547932D01*
X130243411Y-72435990D01*
X130486632Y-72273475D01*
X130693475Y-72066632D01*
X130810000Y-71892240D01*
X130926525Y-72066632D01*
X131133368Y-72273475D01*
X131376589Y-72435990D01*
X131646842Y-72547932D01*
X131933740Y-72605000D01*
X132226260Y-72605000D01*
X132513158Y-72547932D01*
X132783411Y-72435990D01*
X133026632Y-72273475D01*
X133233475Y-72066632D01*
X133350000Y-71892240D01*
X133466525Y-72066632D01*
X133673368Y-72273475D01*
X133916589Y-72435990D01*
X134186842Y-72547932D01*
X134473740Y-72605000D01*
X134766260Y-72605000D01*
X135053158Y-72547932D01*
X135323411Y-72435990D01*
X135566632Y-72273475D01*
X135773475Y-72066632D01*
X135890000Y-71892240D01*
X136006525Y-72066632D01*
X136213368Y-72273475D01*
X136456589Y-72435990D01*
X136726842Y-72547932D01*
X137013740Y-72605000D01*
X137306260Y-72605000D01*
X137593158Y-72547932D01*
X137863411Y-72435990D01*
X138106632Y-72273475D01*
X138313475Y-72066632D01*
X138430000Y-71892240D01*
X138546525Y-72066632D01*
X138753368Y-72273475D01*
X138996589Y-72435990D01*
X139266842Y-72547932D01*
X139553740Y-72605000D01*
X139846260Y-72605000D01*
X140133158Y-72547932D01*
X140403411Y-72435990D01*
X140646632Y-72273475D01*
X140853475Y-72066632D01*
X140970000Y-71892240D01*
X141086525Y-72066632D01*
X141293368Y-72273475D01*
X141536589Y-72435990D01*
X141806842Y-72547932D01*
X142093740Y-72605000D01*
X142386260Y-72605000D01*
X142673158Y-72547932D01*
X142943411Y-72435990D01*
X143186632Y-72273475D01*
X143318487Y-72141620D01*
X143340498Y-72214180D01*
X143399463Y-72324494D01*
X143478815Y-72421185D01*
X143575506Y-72500537D01*
X143685820Y-72559502D01*
X143805518Y-72595812D01*
X143930000Y-72608072D01*
X145630000Y-72608072D01*
X145754482Y-72595812D01*
X145874180Y-72559502D01*
X145984494Y-72500537D01*
X146081185Y-72421185D01*
X146160537Y-72324494D01*
X146219502Y-72214180D01*
X146255812Y-72094482D01*
X146268072Y-71970000D01*
X146268072Y-70270000D01*
X146255812Y-70145518D01*
X146219502Y-70025820D01*
X146160537Y-69915506D01*
X146081185Y-69818815D01*
X145984494Y-69739463D01*
X145874180Y-69680498D01*
X145754482Y-69644188D01*
X145630000Y-69631928D01*
X143930000Y-69631928D01*
X143805518Y-69644188D01*
X143685820Y-69680498D01*
X143575506Y-69739463D01*
X143478815Y-69818815D01*
X143399463Y-69915506D01*
X143340498Y-70025820D01*
X143318487Y-70098380D01*
X143186632Y-69966525D01*
X142943411Y-69804010D01*
X142673158Y-69692068D01*
X142386260Y-69635000D01*
X142093740Y-69635000D01*
X141806842Y-69692068D01*
X141536589Y-69804010D01*
X141293368Y-69966525D01*
X141086525Y-70173368D01*
X140970000Y-70347760D01*
X140853475Y-70173368D01*
X140646632Y-69966525D01*
X140403411Y-69804010D01*
X140133158Y-69692068D01*
X139846260Y-69635000D01*
X139553740Y-69635000D01*
X139266842Y-69692068D01*
X138996589Y-69804010D01*
X138753368Y-69966525D01*
X138546525Y-70173368D01*
X138430000Y-70347760D01*
X138313475Y-70173368D01*
X138106632Y-69966525D01*
X137863411Y-69804010D01*
X137593158Y-69692068D01*
X137306260Y-69635000D01*
X137013740Y-69635000D01*
X136726842Y-69692068D01*
X136456589Y-69804010D01*
X136213368Y-69966525D01*
X136006525Y-70173368D01*
X135890000Y-70347760D01*
X135773475Y-70173368D01*
X135566632Y-69966525D01*
X135323411Y-69804010D01*
X135053158Y-69692068D01*
X134766260Y-69635000D01*
X134473740Y-69635000D01*
X134186842Y-69692068D01*
X133916589Y-69804010D01*
X133673368Y-69966525D01*
X133466525Y-70173368D01*
X133350000Y-70347760D01*
X133233475Y-70173368D01*
X133026632Y-69966525D01*
X132783411Y-69804010D01*
X132513158Y-69692068D01*
X132226260Y-69635000D01*
X131933740Y-69635000D01*
X131646842Y-69692068D01*
X131376589Y-69804010D01*
X131133368Y-69966525D01*
X130926525Y-70173368D01*
X130810000Y-70347760D01*
X130693475Y-70173368D01*
X130486632Y-69966525D01*
X130243411Y-69804010D01*
X129973158Y-69692068D01*
X129686260Y-69635000D01*
X129393740Y-69635000D01*
X129106842Y-69692068D01*
X128836589Y-69804010D01*
X128593368Y-69966525D01*
X128386525Y-70173368D01*
X128270000Y-70347760D01*
X128153475Y-70173368D01*
X127946632Y-69966525D01*
X127703411Y-69804010D01*
X127433158Y-69692068D01*
X127146260Y-69635000D01*
X126853740Y-69635000D01*
X126566842Y-69692068D01*
X126296589Y-69804010D01*
X126053368Y-69966525D01*
X125846525Y-70173368D01*
X125684010Y-70416589D01*
X125572068Y-70686842D01*
X125515000Y-70973740D01*
X124043072Y-70973740D01*
X124043072Y-70270000D01*
X124030812Y-70145518D01*
X123994502Y-70025820D01*
X123935537Y-69915506D01*
X123856185Y-69818815D01*
X123759494Y-69739463D01*
X123649180Y-69680498D01*
X123529482Y-69644188D01*
X123405000Y-69631928D01*
X121705000Y-69631928D01*
X121580518Y-69644188D01*
X121460820Y-69680498D01*
X121350506Y-69739463D01*
X121253815Y-69818815D01*
X121174463Y-69915506D01*
X121115498Y-70025820D01*
X121093487Y-70098380D01*
X120961632Y-69966525D01*
X120718411Y-69804010D01*
X120448158Y-69692068D01*
X120161260Y-69635000D01*
X119868740Y-69635000D01*
X119581842Y-69692068D01*
X119311589Y-69804010D01*
X119068368Y-69966525D01*
X118861525Y-70173368D01*
X118745000Y-70347760D01*
X118628475Y-70173368D01*
X118421632Y-69966525D01*
X118178411Y-69804010D01*
X117908158Y-69692068D01*
X117621260Y-69635000D01*
X117328740Y-69635000D01*
X117041842Y-69692068D01*
X116771589Y-69804010D01*
X116528368Y-69966525D01*
X116321525Y-70173368D01*
X116205000Y-70347760D01*
X116088475Y-70173368D01*
X115881632Y-69966525D01*
X115638411Y-69804010D01*
X115368158Y-69692068D01*
X115081260Y-69635000D01*
X114788740Y-69635000D01*
X114501842Y-69692068D01*
X114231589Y-69804010D01*
X113988368Y-69966525D01*
X113781525Y-70173368D01*
X113665000Y-70347760D01*
X113548475Y-70173368D01*
X113341632Y-69966525D01*
X113098411Y-69804010D01*
X112828158Y-69692068D01*
X112541260Y-69635000D01*
X112248740Y-69635000D01*
X111961842Y-69692068D01*
X111691589Y-69804010D01*
X111448368Y-69966525D01*
X111241525Y-70173368D01*
X111125000Y-70347760D01*
X111008475Y-70173368D01*
X110801632Y-69966525D01*
X110558411Y-69804010D01*
X110288158Y-69692068D01*
X110001260Y-69635000D01*
X109708740Y-69635000D01*
X109421842Y-69692068D01*
X109151589Y-69804010D01*
X108908368Y-69966525D01*
X108701525Y-70173368D01*
X108579805Y-70355534D01*
X108510178Y-70238645D01*
X108315269Y-70022412D01*
X108081920Y-69848359D01*
X107819099Y-69723175D01*
X107671890Y-69678524D01*
X107442000Y-69799845D01*
X107442000Y-70993000D01*
X107462000Y-70993000D01*
X107462000Y-71247000D01*
X107442000Y-71247000D01*
X107442000Y-72440155D01*
X107671890Y-72561476D01*
X107819099Y-72516825D01*
X108081920Y-72391641D01*
X108315269Y-72217588D01*
X108510178Y-72001355D01*
X108579805Y-71884466D01*
X108701525Y-72066632D01*
X108908368Y-72273475D01*
X109151589Y-72435990D01*
X109421842Y-72547932D01*
X109708740Y-72605000D01*
X110001260Y-72605000D01*
X110288158Y-72547932D01*
X110558411Y-72435990D01*
X110801632Y-72273475D01*
X111008475Y-72066632D01*
X111125000Y-71892240D01*
X111241525Y-72066632D01*
X111448368Y-72273475D01*
X111691589Y-72435990D01*
X111961842Y-72547932D01*
X112248740Y-72605000D01*
X112541260Y-72605000D01*
X112828158Y-72547932D01*
X113098411Y-72435990D01*
X113341632Y-72273475D01*
X113548475Y-72066632D01*
X113665000Y-71892240D01*
X113781525Y-72066632D01*
X113988368Y-72273475D01*
X114231589Y-72435990D01*
X114501842Y-72547932D01*
X114788740Y-72605000D01*
X115081260Y-72605000D01*
X115368158Y-72547932D01*
X115638411Y-72435990D01*
X115881632Y-72273475D01*
X116088475Y-72066632D01*
X116205000Y-71892240D01*
X116321525Y-72066632D01*
X116528368Y-72273475D01*
X116771589Y-72435990D01*
X117041842Y-72547932D01*
X117328740Y-72605000D01*
X117621260Y-72605000D01*
X117908158Y-72547932D01*
X118178411Y-72435990D01*
X118421632Y-72273475D01*
X118628475Y-72066632D01*
X118745000Y-71892240D01*
X118861525Y-72066632D01*
X118974157Y-72179264D01*
X118378422Y-72775000D01*
X103548466Y-72775000D01*
X103504999Y-72770719D01*
X103461533Y-72775000D01*
X103461523Y-72775000D01*
X103331510Y-72787805D01*
X103164687Y-72838411D01*
X103010941Y-72920589D01*
X103010939Y-72920590D01*
X103010940Y-72920590D01*
X102909953Y-73003468D01*
X102909951Y-73003470D01*
X102876183Y-73031183D01*
X102848470Y-73064951D01*
X100417622Y-75495800D01*
X100486300Y-75221816D01*
X100500217Y-74939488D01*
X100458787Y-74659870D01*
X100363603Y-74393708D01*
X100296671Y-74268486D01*
X100052702Y-74196903D01*
X99239605Y-75010000D01*
X99253748Y-75024143D01*
X99074143Y-75203748D01*
X99060000Y-75189605D01*
X99045858Y-75203748D01*
X98866253Y-75024143D01*
X98880395Y-75010000D01*
X98067298Y-74196903D01*
X97823329Y-74268486D01*
X97702429Y-74523996D01*
X97633700Y-74798184D01*
X97619783Y-75080512D01*
X97661213Y-75360130D01*
X97756397Y-75626292D01*
X97823329Y-75751514D01*
X98067296Y-75823097D01*
X97951023Y-75939370D01*
X97961653Y-75950000D01*
X97198469Y-75950000D01*
X97155000Y-75945719D01*
X97111531Y-75950000D01*
X97111523Y-75950000D01*
X96981510Y-75962805D01*
X96814687Y-76013411D01*
X96729285Y-76059059D01*
X96660941Y-76095589D01*
X96559953Y-76178468D01*
X96559951Y-76178470D01*
X96526183Y-76206183D01*
X96498470Y-76239951D01*
X94654956Y-78083466D01*
X94621183Y-78111183D01*
X94510589Y-78245942D01*
X94428411Y-78399688D01*
X94377805Y-78566511D01*
X94365000Y-78696524D01*
X94365000Y-78696531D01*
X94360719Y-78740000D01*
X94365000Y-78783469D01*
X94365001Y-81236521D01*
X94360719Y-81280000D01*
X94377805Y-81453490D01*
X94428412Y-81620313D01*
X94510590Y-81774059D01*
X94593468Y-81875046D01*
X94593471Y-81875049D01*
X94621184Y-81908817D01*
X94654951Y-81936529D01*
X95635000Y-82916579D01*
X95635000Y-84393795D01*
X95578932Y-84288899D01*
X95399608Y-84070392D01*
X95181101Y-83891068D01*
X94931808Y-83757818D01*
X94661309Y-83675764D01*
X94450492Y-83655000D01*
X93509508Y-83655000D01*
X93298691Y-83675764D01*
X93028192Y-83757818D01*
X92778899Y-83891068D01*
X92560392Y-84070392D01*
X92407228Y-84257023D01*
X92369686Y-84268411D01*
X92215941Y-84350589D01*
X92114953Y-84433468D01*
X92114951Y-84433470D01*
X92081183Y-84461183D01*
X92053470Y-84494951D01*
X88304951Y-88243470D01*
X88271184Y-88271183D01*
X88243471Y-88304951D01*
X88243468Y-88304954D01*
X88160590Y-88405941D01*
X88078412Y-88559687D01*
X88027805Y-88726510D01*
X88010719Y-88900000D01*
X87045000Y-88900000D01*
X87045000Y-74017298D01*
X98246903Y-74017298D01*
X99060000Y-74830395D01*
X99873097Y-74017298D01*
X99801514Y-73773329D01*
X99546004Y-73652429D01*
X99271816Y-73583700D01*
X98989488Y-73569783D01*
X98709870Y-73611213D01*
X98443708Y-73706397D01*
X98318486Y-73773329D01*
X98246903Y-74017298D01*
X87045000Y-74017298D01*
X87045000Y-71476891D01*
X105873519Y-71476891D01*
X105970843Y-71751252D01*
X106119822Y-72001355D01*
X106314731Y-72217588D01*
X106548080Y-72391641D01*
X106810901Y-72516825D01*
X106958110Y-72561476D01*
X107188000Y-72440155D01*
X107188000Y-71247000D01*
X105994186Y-71247000D01*
X105873519Y-71476891D01*
X87045000Y-71476891D01*
X87045000Y-70763109D01*
X105873519Y-70763109D01*
X105994186Y-70993000D01*
X107188000Y-70993000D01*
X107188000Y-69799845D01*
X106958110Y-69678524D01*
X106810901Y-69723175D01*
X106548080Y-69848359D01*
X106314731Y-70022412D01*
X106119822Y-70238645D01*
X105970843Y-70488748D01*
X105873519Y-70763109D01*
X87045000Y-70763109D01*
X87045000Y-69265000D01*
X146635000Y-69265000D01*
X146635001Y-122505000D01*
G04 #@! TA.AperFunction,Conductor*
D24*
G36*
X146635001Y-122505000D02*
G01*
X87045000Y-122505000D01*
X87045000Y-120503740D01*
X112815000Y-120503740D01*
X112815000Y-120796260D01*
X112872068Y-121083158D01*
X112984010Y-121353411D01*
X113146525Y-121596632D01*
X113353368Y-121803475D01*
X113596589Y-121965990D01*
X113866842Y-122077932D01*
X114153740Y-122135000D01*
X114446260Y-122135000D01*
X114733158Y-122077932D01*
X115003411Y-121965990D01*
X115246632Y-121803475D01*
X115453475Y-121596632D01*
X115570000Y-121422240D01*
X115686525Y-121596632D01*
X115893368Y-121803475D01*
X116136589Y-121965990D01*
X116406842Y-122077932D01*
X116693740Y-122135000D01*
X116986260Y-122135000D01*
X117273158Y-122077932D01*
X117543411Y-121965990D01*
X117786632Y-121803475D01*
X117993475Y-121596632D01*
X118110000Y-121422240D01*
X118226525Y-121596632D01*
X118433368Y-121803475D01*
X118676589Y-121965990D01*
X118946842Y-122077932D01*
X119233740Y-122135000D01*
X119526260Y-122135000D01*
X119813158Y-122077932D01*
X120083411Y-121965990D01*
X120326632Y-121803475D01*
X120533475Y-121596632D01*
X120655195Y-121414466D01*
X120724822Y-121531355D01*
X120919731Y-121747588D01*
X121153080Y-121921641D01*
X121415901Y-122046825D01*
X121563110Y-122091476D01*
X121793000Y-121970155D01*
X121793000Y-120777000D01*
X122047000Y-120777000D01*
X122047000Y-121970155D01*
X122276890Y-122091476D01*
X122424099Y-122046825D01*
X122686920Y-121921641D01*
X122920269Y-121747588D01*
X123115178Y-121531355D01*
X123190000Y-121405745D01*
X123264822Y-121531355D01*
X123459731Y-121747588D01*
X123693080Y-121921641D01*
X123955901Y-122046825D01*
X124103110Y-122091476D01*
X124333000Y-121970155D01*
X124333000Y-120777000D01*
X122047000Y-120777000D01*
X121793000Y-120777000D01*
X121773000Y-120777000D01*
X121773000Y-120523000D01*
X121793000Y-120523000D01*
X121793000Y-119329845D01*
X122047000Y-119329845D01*
X122047000Y-120523000D01*
X124333000Y-120523000D01*
X124333000Y-119329845D01*
X124587000Y-119329845D01*
X124587000Y-120523000D01*
X124607000Y-120523000D01*
X124607000Y-120777000D01*
X124587000Y-120777000D01*
X124587000Y-121970155D01*
X124816890Y-122091476D01*
X124964099Y-122046825D01*
X125226920Y-121921641D01*
X125460269Y-121747588D01*
X125536034Y-121663534D01*
X125560498Y-121744180D01*
X125619463Y-121854494D01*
X125698815Y-121951185D01*
X125795506Y-122030537D01*
X125905820Y-122089502D01*
X126025518Y-122125812D01*
X126150000Y-122138072D01*
X127850000Y-122138072D01*
X127974482Y-122125812D01*
X128094180Y-122089502D01*
X128204494Y-122030537D01*
X128301185Y-121951185D01*
X128380537Y-121854494D01*
X128439502Y-121744180D01*
X128475812Y-121624482D01*
X128488072Y-121500000D01*
X128488072Y-119800000D01*
X130591928Y-119800000D01*
X130591928Y-121500000D01*
X130604188Y-121624482D01*
X130640498Y-121744180D01*
X130699463Y-121854494D01*
X130778815Y-121951185D01*
X130875506Y-122030537D01*
X130985820Y-122089502D01*
X131105518Y-122125812D01*
X131230000Y-122138072D01*
X132930000Y-122138072D01*
X133054482Y-122125812D01*
X133174180Y-122089502D01*
X133284494Y-122030537D01*
X133381185Y-121951185D01*
X133460537Y-121854494D01*
X133519502Y-121744180D01*
X133541513Y-121671620D01*
X133673368Y-121803475D01*
X133916589Y-121965990D01*
X134186842Y-122077932D01*
X134473740Y-122135000D01*
X134766260Y-122135000D01*
X135053158Y-122077932D01*
X135323411Y-121965990D01*
X135566632Y-121803475D01*
X135773475Y-121596632D01*
X135890000Y-121422240D01*
X136006525Y-121596632D01*
X136213368Y-121803475D01*
X136456589Y-121965990D01*
X136726842Y-122077932D01*
X137013740Y-122135000D01*
X137306260Y-122135000D01*
X137593158Y-122077932D01*
X137863411Y-121965990D01*
X138106632Y-121803475D01*
X138313475Y-121596632D01*
X138430000Y-121422240D01*
X138546525Y-121596632D01*
X138753368Y-121803475D01*
X138996589Y-121965990D01*
X139266842Y-122077932D01*
X139553740Y-122135000D01*
X139846260Y-122135000D01*
X140133158Y-122077932D01*
X140403411Y-121965990D01*
X140646632Y-121803475D01*
X140853475Y-121596632D01*
X140970000Y-121422240D01*
X141086525Y-121596632D01*
X141293368Y-121803475D01*
X141536589Y-121965990D01*
X141806842Y-122077932D01*
X142093740Y-122135000D01*
X142386260Y-122135000D01*
X142673158Y-122077932D01*
X142943411Y-121965990D01*
X143186632Y-121803475D01*
X143393475Y-121596632D01*
X143510000Y-121422240D01*
X143626525Y-121596632D01*
X143833368Y-121803475D01*
X144076589Y-121965990D01*
X144346842Y-122077932D01*
X144633740Y-122135000D01*
X144926260Y-122135000D01*
X145213158Y-122077932D01*
X145483411Y-121965990D01*
X145726632Y-121803475D01*
X145933475Y-121596632D01*
X146095990Y-121353411D01*
X146207932Y-121083158D01*
X146265000Y-120796260D01*
X146265000Y-120503740D01*
X146207932Y-120216842D01*
X146095990Y-119946589D01*
X145933475Y-119703368D01*
X145726632Y-119496525D01*
X145483411Y-119334010D01*
X145213158Y-119222068D01*
X144926260Y-119165000D01*
X144633740Y-119165000D01*
X144346842Y-119222068D01*
X144076589Y-119334010D01*
X143833368Y-119496525D01*
X143626525Y-119703368D01*
X143510000Y-119877760D01*
X143393475Y-119703368D01*
X143186632Y-119496525D01*
X142943411Y-119334010D01*
X142673158Y-119222068D01*
X142386260Y-119165000D01*
X142093740Y-119165000D01*
X141806842Y-119222068D01*
X141536589Y-119334010D01*
X141293368Y-119496525D01*
X141086525Y-119703368D01*
X140970000Y-119877760D01*
X140853475Y-119703368D01*
X140646632Y-119496525D01*
X140403411Y-119334010D01*
X140133158Y-119222068D01*
X139846260Y-119165000D01*
X139553740Y-119165000D01*
X139266842Y-119222068D01*
X138996589Y-119334010D01*
X138753368Y-119496525D01*
X138546525Y-119703368D01*
X138430000Y-119877760D01*
X138313475Y-119703368D01*
X138106632Y-119496525D01*
X137863411Y-119334010D01*
X137593158Y-119222068D01*
X137306260Y-119165000D01*
X137013740Y-119165000D01*
X136726842Y-119222068D01*
X136456589Y-119334010D01*
X136213368Y-119496525D01*
X136006525Y-119703368D01*
X135890000Y-119877760D01*
X135773475Y-119703368D01*
X135566632Y-119496525D01*
X135323411Y-119334010D01*
X135053158Y-119222068D01*
X134766260Y-119165000D01*
X134473740Y-119165000D01*
X134186842Y-119222068D01*
X133916589Y-119334010D01*
X133673368Y-119496525D01*
X133541513Y-119628380D01*
X133519502Y-119555820D01*
X133460537Y-119445506D01*
X133381185Y-119348815D01*
X133284494Y-119269463D01*
X133174180Y-119210498D01*
X133054482Y-119174188D01*
X132930000Y-119161928D01*
X131230000Y-119161928D01*
X131105518Y-119174188D01*
X130985820Y-119210498D01*
X130875506Y-119269463D01*
X130778815Y-119348815D01*
X130699463Y-119445506D01*
X130640498Y-119555820D01*
X130604188Y-119675518D01*
X130591928Y-119800000D01*
X128488072Y-119800000D01*
X128475812Y-119675518D01*
X128439502Y-119555820D01*
X128380537Y-119445506D01*
X128301185Y-119348815D01*
X128204494Y-119269463D01*
X128094180Y-119210498D01*
X127974482Y-119174188D01*
X127850000Y-119161928D01*
X126150000Y-119161928D01*
X126025518Y-119174188D01*
X125905820Y-119210498D01*
X125795506Y-119269463D01*
X125698815Y-119348815D01*
X125619463Y-119445506D01*
X125560498Y-119555820D01*
X125536034Y-119636466D01*
X125460269Y-119552412D01*
X125226920Y-119378359D01*
X124964099Y-119253175D01*
X124816890Y-119208524D01*
X124587000Y-119329845D01*
X124333000Y-119329845D01*
X124103110Y-119208524D01*
X123955901Y-119253175D01*
X123693080Y-119378359D01*
X123459731Y-119552412D01*
X123264822Y-119768645D01*
X123190000Y-119894255D01*
X123115178Y-119768645D01*
X122920269Y-119552412D01*
X122686920Y-119378359D01*
X122424099Y-119253175D01*
X122276890Y-119208524D01*
X122047000Y-119329845D01*
X121793000Y-119329845D01*
X121563110Y-119208524D01*
X121415901Y-119253175D01*
X121153080Y-119378359D01*
X120919731Y-119552412D01*
X120724822Y-119768645D01*
X120655195Y-119885534D01*
X120533475Y-119703368D01*
X120326632Y-119496525D01*
X120083411Y-119334010D01*
X119813158Y-119222068D01*
X119526260Y-119165000D01*
X119233740Y-119165000D01*
X118946842Y-119222068D01*
X118676589Y-119334010D01*
X118433368Y-119496525D01*
X118226525Y-119703368D01*
X118110000Y-119877760D01*
X117993475Y-119703368D01*
X117786632Y-119496525D01*
X117543411Y-119334010D01*
X117273158Y-119222068D01*
X116986260Y-119165000D01*
X116693740Y-119165000D01*
X116406842Y-119222068D01*
X116136589Y-119334010D01*
X115893368Y-119496525D01*
X115686525Y-119703368D01*
X115570000Y-119877760D01*
X115453475Y-119703368D01*
X115246632Y-119496525D01*
X115003411Y-119334010D01*
X114733158Y-119222068D01*
X114446260Y-119165000D01*
X114153740Y-119165000D01*
X113866842Y-119222068D01*
X113596589Y-119334010D01*
X113353368Y-119496525D01*
X113146525Y-119703368D01*
X112984010Y-119946589D01*
X112872068Y-120216842D01*
X112815000Y-120503740D01*
X87045000Y-120503740D01*
X87045000Y-88900000D01*
X88010719Y-88900000D01*
X88015001Y-88943479D01*
X88015000Y-107906531D01*
X88010719Y-107950000D01*
X88015000Y-107993469D01*
X88015000Y-107993476D01*
X88027805Y-108123489D01*
X88078411Y-108290312D01*
X88160589Y-108444058D01*
X88271183Y-108578817D01*
X88304954Y-108606532D01*
X95863470Y-116165049D01*
X95891183Y-116198817D01*
X95924951Y-116226530D01*
X95924953Y-116226532D01*
X95996452Y-116285210D01*
X96025941Y-116309411D01*
X96179687Y-116391589D01*
X96346510Y-116442195D01*
X96476523Y-116455000D01*
X96476533Y-116455000D01*
X96519999Y-116459281D01*
X96563465Y-116455000D01*
X121876531Y-116455000D01*
X121920000Y-116459281D01*
X121963469Y-116455000D01*
X121963477Y-116455000D01*
X122093490Y-116442195D01*
X122260313Y-116391589D01*
X122414059Y-116309411D01*
X122548817Y-116198817D01*
X122576534Y-116165044D01*
X123785049Y-114956530D01*
X123818817Y-114928817D01*
X123888232Y-114844236D01*
X123929410Y-114794060D01*
X123980859Y-114697805D01*
X124011589Y-114640313D01*
X124022977Y-114602771D01*
X124209607Y-114449608D01*
X124388932Y-114231101D01*
X124460000Y-114098142D01*
X124531068Y-114231100D01*
X124710392Y-114449607D01*
X124928899Y-114628932D01*
X125178192Y-114762182D01*
X125448691Y-114844236D01*
X125730000Y-114871943D01*
X126011308Y-114844236D01*
X126281807Y-114762182D01*
X126531100Y-114628932D01*
X126749607Y-114449608D01*
X126928932Y-114231101D01*
X127000000Y-114098142D01*
X127071068Y-114231100D01*
X127250392Y-114449607D01*
X127468899Y-114628932D01*
X127718192Y-114762182D01*
X127988691Y-114844236D01*
X128270000Y-114871943D01*
X128551308Y-114844236D01*
X128821807Y-114762182D01*
X129071100Y-114628932D01*
X129289607Y-114449608D01*
X129468932Y-114231101D01*
X129602182Y-113981808D01*
X129684236Y-113711309D01*
X129705000Y-113500492D01*
X129705000Y-112559509D01*
X129684236Y-112348691D01*
X129602182Y-112078192D01*
X129468932Y-111828899D01*
X129410231Y-111757372D01*
X129405000Y-111704255D01*
X129405000Y-111704248D01*
X129396571Y-111618665D01*
X131915000Y-111618665D01*
X131915000Y-111901335D01*
X131970147Y-112178574D01*
X132078320Y-112439727D01*
X132235363Y-112674759D01*
X132435241Y-112874637D01*
X132670273Y-113031680D01*
X132931426Y-113139853D01*
X133208665Y-113195000D01*
X133491335Y-113195000D01*
X133768574Y-113139853D01*
X134029727Y-113031680D01*
X134229024Y-112898514D01*
X137095000Y-112898514D01*
X137095000Y-113161486D01*
X137146304Y-113419405D01*
X137246939Y-113662359D01*
X137393038Y-113881013D01*
X137578987Y-114066962D01*
X137797641Y-114213061D01*
X138040595Y-114313696D01*
X138298514Y-114365000D01*
X138561486Y-114365000D01*
X138819405Y-114313696D01*
X139062359Y-114213061D01*
X139281013Y-114066962D01*
X139466962Y-113881013D01*
X139613061Y-113662359D01*
X139700000Y-113452470D01*
X139786939Y-113662359D01*
X139933038Y-113881013D01*
X140118987Y-114066962D01*
X140337641Y-114213061D01*
X140580595Y-114313696D01*
X140838514Y-114365000D01*
X141101486Y-114365000D01*
X141359405Y-114313696D01*
X141602359Y-114213061D01*
X141821013Y-114066962D01*
X142006962Y-113881013D01*
X142153061Y-113662359D01*
X142253696Y-113419405D01*
X142305000Y-113161486D01*
X142305000Y-112898514D01*
X142253696Y-112640595D01*
X142153061Y-112397641D01*
X142006962Y-112178987D01*
X141821013Y-111993038D01*
X141602359Y-111846939D01*
X141359405Y-111746304D01*
X141101486Y-111695000D01*
X140838514Y-111695000D01*
X140580595Y-111746304D01*
X140337641Y-111846939D01*
X140118987Y-111993038D01*
X139933038Y-112178987D01*
X139786939Y-112397641D01*
X139700000Y-112607530D01*
X139613061Y-112397641D01*
X139466962Y-112178987D01*
X139281013Y-111993038D01*
X139062359Y-111846939D01*
X138819405Y-111746304D01*
X138561486Y-111695000D01*
X138298514Y-111695000D01*
X138040595Y-111746304D01*
X137797641Y-111846939D01*
X137578987Y-111993038D01*
X137393038Y-112178987D01*
X137246939Y-112397641D01*
X137146304Y-112640595D01*
X137095000Y-112898514D01*
X134229024Y-112898514D01*
X134264759Y-112874637D01*
X134464637Y-112674759D01*
X134621680Y-112439727D01*
X134729853Y-112178574D01*
X134785000Y-111901335D01*
X134785000Y-111618665D01*
X134729853Y-111341426D01*
X134621680Y-111080273D01*
X134464637Y-110845241D01*
X134264759Y-110645363D01*
X134029727Y-110488320D01*
X133768574Y-110380147D01*
X133491335Y-110325000D01*
X133208665Y-110325000D01*
X132931426Y-110380147D01*
X132670273Y-110488320D01*
X132435241Y-110645363D01*
X132235363Y-110845241D01*
X132078320Y-111080273D01*
X131970147Y-111341426D01*
X131915000Y-111618665D01*
X129396571Y-111618665D01*
X129388577Y-111537501D01*
X129323676Y-111323553D01*
X129218284Y-111126377D01*
X129076449Y-110953551D01*
X129033140Y-110918008D01*
X127841996Y-109726865D01*
X127806449Y-109683551D01*
X127633623Y-109541716D01*
X127436447Y-109436324D01*
X127222499Y-109371423D01*
X127055752Y-109355000D01*
X127055751Y-109355000D01*
X127000000Y-109349509D01*
X126944249Y-109355000D01*
X113085751Y-109355000D01*
X113030000Y-109349509D01*
X112974248Y-109355000D01*
X108005743Y-109355000D01*
X107949999Y-109349510D01*
X107894255Y-109355000D01*
X107894248Y-109355000D01*
X107748493Y-109369356D01*
X107727500Y-109371423D01*
X107677705Y-109386529D01*
X107513553Y-109436324D01*
X107316377Y-109541716D01*
X107143551Y-109683551D01*
X107108008Y-109726860D01*
X106209869Y-110625000D01*
X100218728Y-110625000D01*
X100264494Y-110600537D01*
X100361185Y-110521185D01*
X100440537Y-110424494D01*
X100499502Y-110314180D01*
X100535812Y-110194482D01*
X100548072Y-110070000D01*
X100545000Y-109505750D01*
X100386250Y-109347000D01*
X99187000Y-109347000D01*
X99187000Y-109367000D01*
X98933000Y-109367000D01*
X98933000Y-109347000D01*
X98913000Y-109347000D01*
X98913000Y-109093000D01*
X98933000Y-109093000D01*
X98933000Y-107893750D01*
X99187000Y-107893750D01*
X99187000Y-109093000D01*
X100386250Y-109093000D01*
X100545000Y-108934250D01*
X100548072Y-108370000D01*
X100535812Y-108245518D01*
X100499502Y-108125820D01*
X100440537Y-108015506D01*
X100361185Y-107918815D01*
X100264494Y-107839463D01*
X100154180Y-107780498D01*
X100062549Y-107752702D01*
X132536903Y-107752702D01*
X132608486Y-107996671D01*
X132863996Y-108117571D01*
X133138184Y-108186300D01*
X133420512Y-108200217D01*
X133700130Y-108158787D01*
X133966292Y-108063603D01*
X134091514Y-107996671D01*
X134163097Y-107752702D01*
X133350000Y-106939605D01*
X132536903Y-107752702D01*
X100062549Y-107752702D01*
X100034482Y-107744188D01*
X99910000Y-107731928D01*
X99345750Y-107735000D01*
X99187000Y-107893750D01*
X98933000Y-107893750D01*
X98774250Y-107735000D01*
X98210000Y-107731928D01*
X98085518Y-107744188D01*
X97965820Y-107780498D01*
X97912672Y-107808907D01*
X98156579Y-107565000D01*
X103461531Y-107565000D01*
X103505000Y-107569281D01*
X103548469Y-107565000D01*
X103548477Y-107565000D01*
X103678490Y-107552195D01*
X103845313Y-107501589D01*
X103999059Y-107419411D01*
X104133817Y-107308817D01*
X104161534Y-107275044D01*
X105899578Y-105537000D01*
X109055000Y-105537000D01*
X109055000Y-105937000D01*
X109107350Y-106214514D01*
X109212834Y-106476483D01*
X109367399Y-106712839D01*
X109565105Y-106914500D01*
X109798354Y-107073715D01*
X110058182Y-107184367D01*
X110140961Y-107201904D01*
X110363000Y-107079915D01*
X110363000Y-105537000D01*
X109055000Y-105537000D01*
X105899578Y-105537000D01*
X106553578Y-104883000D01*
X109055000Y-104883000D01*
X109055000Y-105283000D01*
X110363000Y-105283000D01*
X110363000Y-103740085D01*
X110617000Y-103740085D01*
X110617000Y-105283000D01*
X110637000Y-105283000D01*
X110637000Y-105537000D01*
X110617000Y-105537000D01*
X110617000Y-107079915D01*
X110839039Y-107201904D01*
X110921818Y-107184367D01*
X111181646Y-107073715D01*
X111414895Y-106914500D01*
X111612601Y-106712839D01*
X111762735Y-106483258D01*
X111831068Y-106611100D01*
X112010392Y-106829607D01*
X112228899Y-107008932D01*
X112478192Y-107142182D01*
X112748691Y-107224236D01*
X113030000Y-107251943D01*
X113311308Y-107224236D01*
X113581807Y-107142182D01*
X113831100Y-107008932D01*
X114049607Y-106829608D01*
X114228932Y-106611101D01*
X114300000Y-106478142D01*
X114371068Y-106611100D01*
X114550392Y-106829607D01*
X114768899Y-107008932D01*
X115018192Y-107142182D01*
X115288691Y-107224236D01*
X115570000Y-107251943D01*
X115851308Y-107224236D01*
X116121807Y-107142182D01*
X116371100Y-107008932D01*
X116589607Y-106829608D01*
X116768932Y-106611101D01*
X116840000Y-106478142D01*
X116911068Y-106611100D01*
X117090392Y-106829607D01*
X117308899Y-107008932D01*
X117558192Y-107142182D01*
X117828691Y-107224236D01*
X118110000Y-107251943D01*
X118391308Y-107224236D01*
X118661807Y-107142182D01*
X118911100Y-107008932D01*
X119129607Y-106829608D01*
X119308932Y-106611101D01*
X119380000Y-106478142D01*
X119451068Y-106611100D01*
X119630392Y-106829607D01*
X119848899Y-107008932D01*
X120098192Y-107142182D01*
X120368691Y-107224236D01*
X120650000Y-107251943D01*
X120931308Y-107224236D01*
X121201807Y-107142182D01*
X121451100Y-107008932D01*
X121669607Y-106829608D01*
X121848932Y-106611101D01*
X121920000Y-106478142D01*
X121991068Y-106611100D01*
X122170392Y-106829607D01*
X122388899Y-107008932D01*
X122638192Y-107142182D01*
X122908691Y-107224236D01*
X123190000Y-107251943D01*
X123471308Y-107224236D01*
X123741807Y-107142182D01*
X123991100Y-107008932D01*
X124209607Y-106829608D01*
X124388932Y-106611101D01*
X124460000Y-106478142D01*
X124531068Y-106611100D01*
X124710392Y-106829607D01*
X124928899Y-107008932D01*
X125178192Y-107142182D01*
X125448691Y-107224236D01*
X125730000Y-107251943D01*
X126011308Y-107224236D01*
X126281807Y-107142182D01*
X126531100Y-107008932D01*
X126749607Y-106829608D01*
X126842419Y-106716517D01*
X126844188Y-106734482D01*
X126880498Y-106854180D01*
X126939463Y-106964494D01*
X127018815Y-107061185D01*
X127115506Y-107140537D01*
X127225820Y-107199502D01*
X127345518Y-107235812D01*
X127470000Y-107248072D01*
X129070000Y-107248072D01*
X129194482Y-107235812D01*
X129314180Y-107199502D01*
X129424494Y-107140537D01*
X129521185Y-107061185D01*
X129600537Y-106964494D01*
X129659502Y-106854180D01*
X129666681Y-106830512D01*
X131909783Y-106830512D01*
X131951213Y-107110130D01*
X132046397Y-107376292D01*
X132113329Y-107501514D01*
X132357298Y-107573097D01*
X133170395Y-106760000D01*
X133529605Y-106760000D01*
X134342702Y-107573097D01*
X134586671Y-107501514D01*
X134707571Y-107246004D01*
X134776300Y-106971816D01*
X134790217Y-106689488D01*
X134748787Y-106409870D01*
X134653603Y-106143708D01*
X134586671Y-106018486D01*
X134342702Y-105946903D01*
X133529605Y-106760000D01*
X133170395Y-106760000D01*
X132357298Y-105946903D01*
X132113329Y-106018486D01*
X131992429Y-106273996D01*
X131923700Y-106548184D01*
X131909783Y-106830512D01*
X129666681Y-106830512D01*
X129695812Y-106734482D01*
X129708072Y-106610000D01*
X129708072Y-105767298D01*
X132536903Y-105767298D01*
X133350000Y-106580395D01*
X134163097Y-105767298D01*
X134091514Y-105523329D01*
X133836004Y-105402429D01*
X133561816Y-105333700D01*
X133279488Y-105319783D01*
X132999870Y-105361213D01*
X132733708Y-105456397D01*
X132608486Y-105523329D01*
X132536903Y-105767298D01*
X129708072Y-105767298D01*
X129708072Y-104210000D01*
X129695812Y-104085518D01*
X129659502Y-103965820D01*
X129600537Y-103855506D01*
X129521185Y-103758815D01*
X129424494Y-103679463D01*
X129314180Y-103620498D01*
X129194482Y-103584188D01*
X129070000Y-103571928D01*
X127470000Y-103571928D01*
X127345518Y-103584188D01*
X127225820Y-103620498D01*
X127115506Y-103679463D01*
X127018815Y-103758815D01*
X126939463Y-103855506D01*
X126880498Y-103965820D01*
X126844188Y-104085518D01*
X126842419Y-104103482D01*
X126749608Y-103990392D01*
X126531101Y-103811068D01*
X126281808Y-103677818D01*
X126011309Y-103595764D01*
X125730000Y-103568057D01*
X125448692Y-103595764D01*
X125178193Y-103677818D01*
X124928900Y-103811068D01*
X124710393Y-103990392D01*
X124531068Y-104208899D01*
X124460000Y-104341858D01*
X124388932Y-104208899D01*
X124209608Y-103990392D01*
X123991101Y-103811068D01*
X123741808Y-103677818D01*
X123471309Y-103595764D01*
X123190000Y-103568057D01*
X122908692Y-103595764D01*
X122638193Y-103677818D01*
X122388900Y-103811068D01*
X122170393Y-103990392D01*
X121991068Y-104208899D01*
X121920000Y-104341858D01*
X121848932Y-104208899D01*
X121669608Y-103990392D01*
X121451101Y-103811068D01*
X121201808Y-103677818D01*
X120931309Y-103595764D01*
X120650000Y-103568057D01*
X120368692Y-103595764D01*
X120098193Y-103677818D01*
X119848900Y-103811068D01*
X119630393Y-103990392D01*
X119451068Y-104208899D01*
X119380000Y-104341858D01*
X119308932Y-104208899D01*
X119129608Y-103990392D01*
X118911101Y-103811068D01*
X118661808Y-103677818D01*
X118391309Y-103595764D01*
X118110000Y-103568057D01*
X117828692Y-103595764D01*
X117558193Y-103677818D01*
X117308900Y-103811068D01*
X117090393Y-103990392D01*
X116911068Y-104208899D01*
X116840000Y-104341858D01*
X116768932Y-104208899D01*
X116589608Y-103990392D01*
X116371101Y-103811068D01*
X116121808Y-103677818D01*
X115851309Y-103595764D01*
X115570000Y-103568057D01*
X115288692Y-103595764D01*
X115018193Y-103677818D01*
X114768900Y-103811068D01*
X114550393Y-103990392D01*
X114371068Y-104208899D01*
X114300000Y-104341858D01*
X114228932Y-104208899D01*
X114049608Y-103990392D01*
X113831101Y-103811068D01*
X113581808Y-103677818D01*
X113311309Y-103595764D01*
X113030000Y-103568057D01*
X112748692Y-103595764D01*
X112478193Y-103677818D01*
X112228900Y-103811068D01*
X112010393Y-103990392D01*
X111831068Y-104208899D01*
X111762735Y-104336741D01*
X111612601Y-104107161D01*
X111414895Y-103905500D01*
X111181646Y-103746285D01*
X110921818Y-103635633D01*
X110839039Y-103618096D01*
X110617000Y-103740085D01*
X110363000Y-103740085D01*
X110140961Y-103618096D01*
X110058182Y-103635633D01*
X109798354Y-103746285D01*
X109565105Y-103905500D01*
X109367399Y-104107161D01*
X109212834Y-104343517D01*
X109107350Y-104605486D01*
X109055000Y-104883000D01*
X106553578Y-104883000D01*
X108545050Y-102891528D01*
X108578817Y-102863817D01*
X108689411Y-102729059D01*
X108771589Y-102575313D01*
X108822195Y-102408490D01*
X108835000Y-102278477D01*
X108835000Y-102278467D01*
X108839281Y-102235001D01*
X108835000Y-102191535D01*
X108835000Y-102159701D01*
X108874482Y-102155812D01*
X108994180Y-102119502D01*
X109104494Y-102060537D01*
X109201185Y-101981185D01*
X109280537Y-101884494D01*
X109339502Y-101774180D01*
X109375812Y-101654482D01*
X109377581Y-101636517D01*
X109470393Y-101749608D01*
X109688900Y-101928932D01*
X109938193Y-102062182D01*
X110208692Y-102144236D01*
X110490000Y-102171943D01*
X110771309Y-102144236D01*
X111041808Y-102062182D01*
X111291101Y-101928932D01*
X111509608Y-101749608D01*
X111688932Y-101531101D01*
X111760000Y-101398142D01*
X111831068Y-101531101D01*
X112010393Y-101749608D01*
X112228900Y-101928932D01*
X112478193Y-102062182D01*
X112748692Y-102144236D01*
X113030000Y-102171943D01*
X113311309Y-102144236D01*
X113581808Y-102062182D01*
X113831101Y-101928932D01*
X114049608Y-101749608D01*
X114228932Y-101531101D01*
X114300000Y-101398142D01*
X114371068Y-101531101D01*
X114550393Y-101749608D01*
X114768900Y-101928932D01*
X115018193Y-102062182D01*
X115288692Y-102144236D01*
X115570000Y-102171943D01*
X115851309Y-102144236D01*
X116121808Y-102062182D01*
X116371101Y-101928932D01*
X116589608Y-101749608D01*
X116768932Y-101531101D01*
X116840000Y-101398142D01*
X116911068Y-101531101D01*
X117090393Y-101749608D01*
X117308900Y-101928932D01*
X117558193Y-102062182D01*
X117828692Y-102144236D01*
X118110000Y-102171943D01*
X118391309Y-102144236D01*
X118661808Y-102062182D01*
X118911101Y-101928932D01*
X119129608Y-101749608D01*
X119308932Y-101531101D01*
X119380000Y-101398142D01*
X119451068Y-101531101D01*
X119630393Y-101749608D01*
X119848900Y-101928932D01*
X120098193Y-102062182D01*
X120368692Y-102144236D01*
X120650000Y-102171943D01*
X120931309Y-102144236D01*
X121201808Y-102062182D01*
X121451101Y-101928932D01*
X121669608Y-101749608D01*
X121848932Y-101531101D01*
X121920000Y-101398142D01*
X121991068Y-101531101D01*
X122170393Y-101749608D01*
X122388900Y-101928932D01*
X122638193Y-102062182D01*
X122908692Y-102144236D01*
X123190000Y-102171943D01*
X123471309Y-102144236D01*
X123741808Y-102062182D01*
X123991101Y-101928932D01*
X124209608Y-101749608D01*
X124388932Y-101531101D01*
X124460000Y-101398142D01*
X124531068Y-101531101D01*
X124710393Y-101749608D01*
X124928900Y-101928932D01*
X125178193Y-102062182D01*
X125448692Y-102144236D01*
X125730000Y-102171943D01*
X126011309Y-102144236D01*
X126281808Y-102062182D01*
X126531101Y-101928932D01*
X126749608Y-101749608D01*
X126928932Y-101531101D01*
X127000000Y-101398142D01*
X127071068Y-101531101D01*
X127250393Y-101749608D01*
X127468900Y-101928932D01*
X127718193Y-102062182D01*
X127988692Y-102144236D01*
X128270000Y-102171943D01*
X128551309Y-102144236D01*
X128821808Y-102062182D01*
X129071101Y-101928932D01*
X129289608Y-101749608D01*
X129468932Y-101531101D01*
X129540000Y-101398142D01*
X129611068Y-101531101D01*
X129790393Y-101749608D01*
X130008900Y-101928932D01*
X130258193Y-102062182D01*
X130528692Y-102144236D01*
X130810000Y-102171943D01*
X131091309Y-102144236D01*
X131361808Y-102062182D01*
X131611101Y-101928932D01*
X131829608Y-101749608D01*
X132008932Y-101531101D01*
X132080000Y-101398142D01*
X132151068Y-101531101D01*
X132330393Y-101749608D01*
X132517023Y-101902771D01*
X132528411Y-101940312D01*
X132610589Y-102094058D01*
X132721183Y-102228817D01*
X132754954Y-102256532D01*
X136503468Y-106005047D01*
X136531183Y-106038817D01*
X136564951Y-106066530D01*
X136564953Y-106066532D01*
X136665941Y-106149411D01*
X136819686Y-106231589D01*
X136916683Y-106261013D01*
X136986510Y-106282195D01*
X137116523Y-106295000D01*
X137116531Y-106295000D01*
X137160000Y-106299281D01*
X137203469Y-106295000D01*
X137427025Y-106295000D01*
X137545000Y-106412975D01*
X137545000Y-106636530D01*
X137540719Y-106680000D01*
X137545000Y-106723469D01*
X137545000Y-106723476D01*
X137555453Y-106829607D01*
X137557805Y-106853490D01*
X137573157Y-106904096D01*
X137608411Y-107020312D01*
X137690589Y-107174058D01*
X137801183Y-107308817D01*
X137834954Y-107336532D01*
X139043470Y-108545049D01*
X139071183Y-108578817D01*
X139104951Y-108606530D01*
X139104953Y-108606532D01*
X139176452Y-108665210D01*
X139205941Y-108689411D01*
X139359687Y-108771589D01*
X139526510Y-108822195D01*
X139656523Y-108835000D01*
X139656533Y-108835000D01*
X139699999Y-108839281D01*
X139743465Y-108835000D01*
X142196531Y-108835000D01*
X142240000Y-108839281D01*
X142283469Y-108835000D01*
X142283477Y-108835000D01*
X142413490Y-108822195D01*
X142580313Y-108771589D01*
X142734059Y-108689411D01*
X142868817Y-108578817D01*
X142896534Y-108545044D01*
X145375049Y-106066530D01*
X145408817Y-106038817D01*
X145519411Y-105904059D01*
X145601589Y-105750313D01*
X145652195Y-105583490D01*
X145665000Y-105453477D01*
X145665000Y-105453467D01*
X145669281Y-105410001D01*
X145665000Y-105366535D01*
X145665000Y-78472975D01*
X145816962Y-78321013D01*
X145963061Y-78102359D01*
X146063696Y-77859405D01*
X146115000Y-77601486D01*
X146115000Y-77338514D01*
X146063696Y-77080595D01*
X145963061Y-76837641D01*
X145816962Y-76618987D01*
X145631013Y-76433038D01*
X145412359Y-76286939D01*
X145202470Y-76200000D01*
X145412359Y-76113061D01*
X145631013Y-75966962D01*
X145816962Y-75781013D01*
X145963061Y-75562359D01*
X146063696Y-75319405D01*
X146115000Y-75061486D01*
X146115000Y-74798514D01*
X146063696Y-74540595D01*
X145963061Y-74297641D01*
X145816962Y-74078987D01*
X145631013Y-73893038D01*
X145412359Y-73746939D01*
X145169405Y-73646304D01*
X144911486Y-73595000D01*
X144648514Y-73595000D01*
X144390595Y-73646304D01*
X144147641Y-73746939D01*
X143928987Y-73893038D01*
X143743038Y-74078987D01*
X143596939Y-74297641D01*
X143510000Y-74507530D01*
X143423061Y-74297641D01*
X143276962Y-74078987D01*
X143091013Y-73893038D01*
X142872359Y-73746939D01*
X142629405Y-73646304D01*
X142371486Y-73595000D01*
X142108514Y-73595000D01*
X141850595Y-73646304D01*
X141607641Y-73746939D01*
X141388987Y-73893038D01*
X141203038Y-74078987D01*
X141056939Y-74297641D01*
X140970000Y-74507530D01*
X140883061Y-74297641D01*
X140736962Y-74078987D01*
X140551013Y-73893038D01*
X140332359Y-73746939D01*
X140089405Y-73646304D01*
X139831486Y-73595000D01*
X139568514Y-73595000D01*
X139310595Y-73646304D01*
X139067641Y-73746939D01*
X138848987Y-73893038D01*
X138663038Y-74078987D01*
X138516939Y-74297641D01*
X138430000Y-74507530D01*
X138343061Y-74297641D01*
X138196962Y-74078987D01*
X138011013Y-73893038D01*
X137792359Y-73746939D01*
X137549405Y-73646304D01*
X137291486Y-73595000D01*
X137028514Y-73595000D01*
X136770595Y-73646304D01*
X136527641Y-73746939D01*
X136308987Y-73893038D01*
X136123038Y-74078987D01*
X135976939Y-74297641D01*
X135890000Y-74507530D01*
X135803061Y-74297641D01*
X135656962Y-74078987D01*
X135471013Y-73893038D01*
X135252359Y-73746939D01*
X135009405Y-73646304D01*
X134751486Y-73595000D01*
X134488514Y-73595000D01*
X134230595Y-73646304D01*
X133987641Y-73746939D01*
X133768987Y-73893038D01*
X133583038Y-74078987D01*
X133436939Y-74297641D01*
X133350000Y-74507530D01*
X133263061Y-74297641D01*
X133116962Y-74078987D01*
X132931013Y-73893038D01*
X132712359Y-73746939D01*
X132469405Y-73646304D01*
X132211486Y-73595000D01*
X131948514Y-73595000D01*
X131690595Y-73646304D01*
X131447641Y-73746939D01*
X131228987Y-73893038D01*
X131043038Y-74078987D01*
X130896939Y-74297641D01*
X130810000Y-74507530D01*
X130723061Y-74297641D01*
X130576962Y-74078987D01*
X130391013Y-73893038D01*
X130172359Y-73746939D01*
X129929405Y-73646304D01*
X129671486Y-73595000D01*
X129408514Y-73595000D01*
X129150595Y-73646304D01*
X128907641Y-73746939D01*
X128688987Y-73893038D01*
X128503038Y-74078987D01*
X128356939Y-74297641D01*
X128270000Y-74507530D01*
X128183061Y-74297641D01*
X128036962Y-74078987D01*
X127851013Y-73893038D01*
X127632359Y-73746939D01*
X127389405Y-73646304D01*
X127131486Y-73595000D01*
X126868514Y-73595000D01*
X126610595Y-73646304D01*
X126367641Y-73746939D01*
X126148987Y-73893038D01*
X125963038Y-74078987D01*
X125816939Y-74297641D01*
X125716304Y-74540595D01*
X125665000Y-74798514D01*
X125665000Y-75061486D01*
X125716304Y-75319405D01*
X125816939Y-75562359D01*
X125963038Y-75781013D01*
X126148987Y-75966962D01*
X126367641Y-76113061D01*
X126577530Y-76200000D01*
X126367641Y-76286939D01*
X126148987Y-76433038D01*
X125963038Y-76618987D01*
X125816939Y-76837641D01*
X125716304Y-77080595D01*
X125665000Y-77338514D01*
X125665000Y-77601486D01*
X125716304Y-77859405D01*
X125816939Y-78102359D01*
X125963038Y-78321013D01*
X126148987Y-78506962D01*
X126367641Y-78653061D01*
X126610595Y-78753696D01*
X126868514Y-78805000D01*
X127131486Y-78805000D01*
X127389405Y-78753696D01*
X127632359Y-78653061D01*
X127851013Y-78506962D01*
X128036962Y-78321013D01*
X128183061Y-78102359D01*
X128270000Y-77892470D01*
X128356939Y-78102359D01*
X128503038Y-78321013D01*
X128688987Y-78506962D01*
X128907641Y-78653061D01*
X129150595Y-78753696D01*
X129408514Y-78805000D01*
X129671486Y-78805000D01*
X129929405Y-78753696D01*
X130172359Y-78653061D01*
X130391013Y-78506962D01*
X130576962Y-78321013D01*
X130723061Y-78102359D01*
X130810000Y-77892470D01*
X130896939Y-78102359D01*
X131043038Y-78321013D01*
X131228987Y-78506962D01*
X131447641Y-78653061D01*
X131690595Y-78753696D01*
X131948514Y-78805000D01*
X132211486Y-78805000D01*
X132469405Y-78753696D01*
X132712359Y-78653061D01*
X132931013Y-78506962D01*
X133116962Y-78321013D01*
X133263061Y-78102359D01*
X133350000Y-77892470D01*
X133436939Y-78102359D01*
X133583038Y-78321013D01*
X133768987Y-78506962D01*
X133987641Y-78653061D01*
X134230595Y-78753696D01*
X134488514Y-78805000D01*
X134751486Y-78805000D01*
X135009405Y-78753696D01*
X135252359Y-78653061D01*
X135471013Y-78506962D01*
X135656962Y-78321013D01*
X135803061Y-78102359D01*
X135890000Y-77892470D01*
X135976939Y-78102359D01*
X136123038Y-78321013D01*
X136308987Y-78506962D01*
X136527641Y-78653061D01*
X136770595Y-78753696D01*
X137028514Y-78805000D01*
X137291486Y-78805000D01*
X137549405Y-78753696D01*
X137792359Y-78653061D01*
X138011013Y-78506962D01*
X138196962Y-78321013D01*
X138343061Y-78102359D01*
X138430000Y-77892470D01*
X138516939Y-78102359D01*
X138663038Y-78321013D01*
X138848987Y-78506962D01*
X139067641Y-78653061D01*
X139310595Y-78753696D01*
X139568514Y-78805000D01*
X139831486Y-78805000D01*
X140089405Y-78753696D01*
X140332359Y-78653061D01*
X140551013Y-78506962D01*
X140736962Y-78321013D01*
X140883061Y-78102359D01*
X140970000Y-77892470D01*
X141056939Y-78102359D01*
X141203038Y-78321013D01*
X141355000Y-78472975D01*
X141355000Y-78696530D01*
X141350719Y-78740000D01*
X141355000Y-78783469D01*
X141355000Y-78783476D01*
X141364014Y-78875000D01*
X141367805Y-78913490D01*
X141371779Y-78926589D01*
X141418411Y-79080312D01*
X141500589Y-79234058D01*
X141611183Y-79368817D01*
X141644954Y-79396532D01*
X142625001Y-80376580D01*
X142625000Y-101233421D01*
X141873422Y-101985000D01*
X141674413Y-101985000D01*
X141894895Y-101834500D01*
X142092601Y-101632839D01*
X142247166Y-101396483D01*
X142352650Y-101134514D01*
X142405000Y-100857000D01*
X142405000Y-100457000D01*
X141097000Y-100457000D01*
X141097000Y-100477000D01*
X140843000Y-100477000D01*
X140843000Y-100457000D01*
X140823000Y-100457000D01*
X140823000Y-100203000D01*
X140843000Y-100203000D01*
X140843000Y-98660085D01*
X141097000Y-98660085D01*
X141097000Y-100203000D01*
X142405000Y-100203000D01*
X142405000Y-99803000D01*
X142352650Y-99525486D01*
X142247166Y-99263517D01*
X142092601Y-99027161D01*
X141894895Y-98825500D01*
X141661646Y-98666285D01*
X141401818Y-98555633D01*
X141319039Y-98538096D01*
X141097000Y-98660085D01*
X140843000Y-98660085D01*
X140620961Y-98538096D01*
X140538182Y-98555633D01*
X140278354Y-98666285D01*
X140045105Y-98825500D01*
X139847399Y-99027161D01*
X139697265Y-99256741D01*
X139628932Y-99128899D01*
X139449607Y-98910392D01*
X139231100Y-98731068D01*
X138981807Y-98597818D01*
X138711308Y-98515764D01*
X138430000Y-98488057D01*
X138148691Y-98515764D01*
X137878192Y-98597818D01*
X137628899Y-98731068D01*
X137410392Y-98910393D01*
X137231068Y-99128900D01*
X137160000Y-99261858D01*
X137088932Y-99128899D01*
X136909607Y-98910392D01*
X136691100Y-98731068D01*
X136441807Y-98597818D01*
X136171308Y-98515764D01*
X135890000Y-98488057D01*
X135608691Y-98515764D01*
X135338192Y-98597818D01*
X135088899Y-98731068D01*
X134870392Y-98910393D01*
X134691068Y-99128900D01*
X134620000Y-99261858D01*
X134548932Y-99128899D01*
X134369607Y-98910392D01*
X134151100Y-98731068D01*
X133901807Y-98597818D01*
X133631308Y-98515764D01*
X133350000Y-98488057D01*
X133068691Y-98515764D01*
X132798192Y-98597818D01*
X132548899Y-98731068D01*
X132330392Y-98910393D01*
X132151068Y-99128900D01*
X132080000Y-99261858D01*
X132008932Y-99128899D01*
X131829607Y-98910392D01*
X131611100Y-98731068D01*
X131361807Y-98597818D01*
X131091308Y-98515764D01*
X130810000Y-98488057D01*
X130528691Y-98515764D01*
X130258192Y-98597818D01*
X130008899Y-98731068D01*
X129790392Y-98910393D01*
X129611068Y-99128900D01*
X129540000Y-99261858D01*
X129468932Y-99128899D01*
X129289607Y-98910392D01*
X129071100Y-98731068D01*
X128821807Y-98597818D01*
X128551308Y-98515764D01*
X128270000Y-98488057D01*
X127988691Y-98515764D01*
X127718192Y-98597818D01*
X127468899Y-98731068D01*
X127250392Y-98910393D01*
X127071068Y-99128900D01*
X127000000Y-99261858D01*
X126928932Y-99128899D01*
X126749607Y-98910392D01*
X126531100Y-98731068D01*
X126281807Y-98597818D01*
X126011308Y-98515764D01*
X125730000Y-98488057D01*
X125448691Y-98515764D01*
X125178192Y-98597818D01*
X124928899Y-98731068D01*
X124710392Y-98910393D01*
X124531068Y-99128900D01*
X124460000Y-99261858D01*
X124388932Y-99128899D01*
X124209607Y-98910392D01*
X123991100Y-98731068D01*
X123741807Y-98597818D01*
X123471308Y-98515764D01*
X123190000Y-98488057D01*
X122908691Y-98515764D01*
X122638192Y-98597818D01*
X122388899Y-98731068D01*
X122170392Y-98910393D01*
X121991068Y-99128900D01*
X121920000Y-99261858D01*
X121848932Y-99128899D01*
X121669607Y-98910392D01*
X121451100Y-98731068D01*
X121201807Y-98597818D01*
X120931308Y-98515764D01*
X120650000Y-98488057D01*
X120368691Y-98515764D01*
X120098192Y-98597818D01*
X119848899Y-98731068D01*
X119630392Y-98910393D01*
X119451068Y-99128900D01*
X119380000Y-99261858D01*
X119308932Y-99128899D01*
X119129607Y-98910392D01*
X118911100Y-98731068D01*
X118661807Y-98597818D01*
X118391308Y-98515764D01*
X118110000Y-98488057D01*
X117828691Y-98515764D01*
X117558192Y-98597818D01*
X117308899Y-98731068D01*
X117090392Y-98910393D01*
X116911068Y-99128900D01*
X116840000Y-99261858D01*
X116768932Y-99128899D01*
X116589607Y-98910392D01*
X116371100Y-98731068D01*
X116121807Y-98597818D01*
X115851308Y-98515764D01*
X115570000Y-98488057D01*
X115288691Y-98515764D01*
X115018192Y-98597818D01*
X114768899Y-98731068D01*
X114550392Y-98910393D01*
X114371068Y-99128900D01*
X114300000Y-99261858D01*
X114228932Y-99128899D01*
X114049607Y-98910392D01*
X113831100Y-98731068D01*
X113581807Y-98597818D01*
X113311308Y-98515764D01*
X113030000Y-98488057D01*
X112748691Y-98515764D01*
X112478192Y-98597818D01*
X112228899Y-98731068D01*
X112010392Y-98910393D01*
X111831068Y-99128900D01*
X111760000Y-99261858D01*
X111688932Y-99128899D01*
X111509607Y-98910392D01*
X111291100Y-98731068D01*
X111041807Y-98597818D01*
X110771308Y-98515764D01*
X110490000Y-98488057D01*
X110208691Y-98515764D01*
X109938192Y-98597818D01*
X109688899Y-98731068D01*
X109470392Y-98910393D01*
X109377581Y-99023483D01*
X109375812Y-99005518D01*
X109339502Y-98885820D01*
X109280537Y-98775506D01*
X109201185Y-98678815D01*
X109104494Y-98599463D01*
X108994180Y-98540498D01*
X108874482Y-98504188D01*
X108750000Y-98491928D01*
X107150000Y-98491928D01*
X107025518Y-98504188D01*
X106905820Y-98540498D01*
X106795506Y-98599463D01*
X106698815Y-98678815D01*
X106619463Y-98775506D01*
X106560498Y-98885820D01*
X106524188Y-99005518D01*
X106511928Y-99130000D01*
X106511928Y-101530000D01*
X106524188Y-101654482D01*
X106560498Y-101774180D01*
X106619463Y-101884494D01*
X106698815Y-101981185D01*
X106795506Y-102060537D01*
X106845931Y-102087490D01*
X106295000Y-102638421D01*
X106295000Y-98156578D01*
X109815049Y-94636530D01*
X109848817Y-94608817D01*
X109959411Y-94474059D01*
X110010859Y-94377806D01*
X110041589Y-94320314D01*
X110092195Y-94153490D01*
X110095076Y-94124236D01*
X110105000Y-94023477D01*
X110105000Y-94023469D01*
X110109281Y-93980000D01*
X110105000Y-93936531D01*
X110105000Y-90708454D01*
X110137205Y-90660256D01*
X110215226Y-90471898D01*
X110255000Y-90271939D01*
X110255000Y-90068061D01*
X110215226Y-89868102D01*
X110137205Y-89679744D01*
X110023937Y-89510226D01*
X109879774Y-89366063D01*
X109710256Y-89252795D01*
X109521898Y-89174774D01*
X109321939Y-89135000D01*
X109118061Y-89135000D01*
X108918102Y-89174774D01*
X108729744Y-89252795D01*
X108560226Y-89366063D01*
X108416063Y-89510226D01*
X108302795Y-89679744D01*
X108224774Y-89868102D01*
X108185000Y-90068061D01*
X108185000Y-90271939D01*
X108224774Y-90471898D01*
X108302795Y-90660256D01*
X108335000Y-90708455D01*
X108335001Y-93613420D01*
X105025000Y-96923422D01*
X105025000Y-95616578D01*
X106925044Y-93716535D01*
X106981898Y-93705226D01*
X107170256Y-93627205D01*
X107339774Y-93513937D01*
X107483937Y-93369774D01*
X107597205Y-93200256D01*
X107675226Y-93011898D01*
X107715000Y-92811939D01*
X107715000Y-92608061D01*
X107675226Y-92408102D01*
X107597205Y-92219744D01*
X107483937Y-92050226D01*
X107339774Y-91906063D01*
X107170256Y-91792795D01*
X106981898Y-91714774D01*
X106781939Y-91675000D01*
X106578061Y-91675000D01*
X106378102Y-91714774D01*
X106189744Y-91792795D01*
X106020226Y-91906063D01*
X105876063Y-92050226D01*
X105762795Y-92219744D01*
X105684774Y-92408102D01*
X105673465Y-92464956D01*
X103544951Y-94593471D01*
X103511184Y-94621183D01*
X103483471Y-94654951D01*
X103483468Y-94654954D01*
X103400590Y-94755941D01*
X103368125Y-94816680D01*
X103332182Y-94698192D01*
X103198932Y-94448899D01*
X103019608Y-94230392D01*
X102801101Y-94051068D01*
X102668142Y-93980000D01*
X102801101Y-93908932D01*
X103019608Y-93729608D01*
X103198932Y-93511101D01*
X103332182Y-93261808D01*
X103414236Y-92991309D01*
X103441943Y-92710000D01*
X103414236Y-92428691D01*
X103332182Y-92158192D01*
X103198932Y-91908899D01*
X103019608Y-91690392D01*
X102801101Y-91511068D01*
X102668142Y-91440000D01*
X102801101Y-91368932D01*
X103019608Y-91189608D01*
X103172772Y-91002977D01*
X103210313Y-90991589D01*
X103364059Y-90909411D01*
X103498817Y-90798817D01*
X103526534Y-90765044D01*
X105776579Y-88515000D01*
X121876531Y-88515000D01*
X121920000Y-88519281D01*
X121963469Y-88515000D01*
X121963477Y-88515000D01*
X122093490Y-88502195D01*
X122260313Y-88451589D01*
X122414059Y-88369411D01*
X122548817Y-88258817D01*
X122576534Y-88225044D01*
X123785050Y-87016529D01*
X123818817Y-86988817D01*
X123888232Y-86904236D01*
X123929410Y-86854060D01*
X123929411Y-86854059D01*
X124011589Y-86700313D01*
X124022977Y-86662772D01*
X124209608Y-86509608D01*
X124388932Y-86291101D01*
X124460000Y-86158142D01*
X124531068Y-86291101D01*
X124710393Y-86509608D01*
X124928900Y-86688932D01*
X125178193Y-86822182D01*
X125448692Y-86904236D01*
X125730000Y-86931943D01*
X126011309Y-86904236D01*
X126281808Y-86822182D01*
X126531101Y-86688932D01*
X126749608Y-86509608D01*
X126928932Y-86291101D01*
X127000000Y-86158142D01*
X127071068Y-86291101D01*
X127250393Y-86509608D01*
X127468900Y-86688932D01*
X127718193Y-86822182D01*
X127988692Y-86904236D01*
X128270000Y-86931943D01*
X128551309Y-86904236D01*
X128821808Y-86822182D01*
X129071101Y-86688932D01*
X129289608Y-86509608D01*
X129468932Y-86291101D01*
X129540000Y-86158142D01*
X129611068Y-86291101D01*
X129790393Y-86509608D01*
X130008900Y-86688932D01*
X130258193Y-86822182D01*
X130528692Y-86904236D01*
X130810000Y-86931943D01*
X131091309Y-86904236D01*
X131361808Y-86822182D01*
X131611101Y-86688932D01*
X131829608Y-86509608D01*
X132008932Y-86291101D01*
X132080000Y-86158142D01*
X132151068Y-86291101D01*
X132330393Y-86509608D01*
X132548900Y-86688932D01*
X132798193Y-86822182D01*
X133068692Y-86904236D01*
X133350000Y-86931943D01*
X133631309Y-86904236D01*
X133901808Y-86822182D01*
X134151101Y-86688932D01*
X134369608Y-86509608D01*
X134548932Y-86291101D01*
X134620000Y-86158142D01*
X134691068Y-86291101D01*
X134870393Y-86509608D01*
X135088900Y-86688932D01*
X135338193Y-86822182D01*
X135608692Y-86904236D01*
X135890000Y-86931943D01*
X136171309Y-86904236D01*
X136441808Y-86822182D01*
X136691101Y-86688932D01*
X136909608Y-86509608D01*
X137088932Y-86291101D01*
X137160000Y-86158142D01*
X137231068Y-86291101D01*
X137410393Y-86509608D01*
X137628900Y-86688932D01*
X137878193Y-86822182D01*
X138148692Y-86904236D01*
X138430000Y-86931943D01*
X138711309Y-86904236D01*
X138981808Y-86822182D01*
X139231101Y-86688932D01*
X139449608Y-86509608D01*
X139628932Y-86291101D01*
X139700000Y-86158142D01*
X139771068Y-86291101D01*
X139950393Y-86509608D01*
X140168900Y-86688932D01*
X140418193Y-86822182D01*
X140688692Y-86904236D01*
X140970000Y-86931943D01*
X141251309Y-86904236D01*
X141521808Y-86822182D01*
X141771101Y-86688932D01*
X141989608Y-86509608D01*
X142168932Y-86291101D01*
X142302182Y-86041808D01*
X142384236Y-85771309D01*
X142405000Y-85560491D01*
X142405000Y-84619508D01*
X142384236Y-84408691D01*
X142302182Y-84138192D01*
X142168932Y-83888899D01*
X141989607Y-83670392D01*
X141771100Y-83491068D01*
X141521807Y-83357818D01*
X141251308Y-83275764D01*
X140970000Y-83248057D01*
X140688691Y-83275764D01*
X140418192Y-83357818D01*
X140168899Y-83491068D01*
X139950392Y-83670393D01*
X139771068Y-83888900D01*
X139700000Y-84021858D01*
X139628932Y-83888899D01*
X139449607Y-83670392D01*
X139231100Y-83491068D01*
X138981807Y-83357818D01*
X138711308Y-83275764D01*
X138430000Y-83248057D01*
X138148691Y-83275764D01*
X137878192Y-83357818D01*
X137628899Y-83491068D01*
X137410392Y-83670393D01*
X137231068Y-83888900D01*
X137160000Y-84021858D01*
X137088932Y-83888899D01*
X136909607Y-83670392D01*
X136691100Y-83491068D01*
X136441807Y-83357818D01*
X136171308Y-83275764D01*
X135890000Y-83248057D01*
X135608691Y-83275764D01*
X135338192Y-83357818D01*
X135088899Y-83491068D01*
X134870392Y-83670393D01*
X134691068Y-83888900D01*
X134620000Y-84021858D01*
X134548932Y-83888899D01*
X134369607Y-83670392D01*
X134151100Y-83491068D01*
X133901807Y-83357818D01*
X133631308Y-83275764D01*
X133350000Y-83248057D01*
X133068691Y-83275764D01*
X132798192Y-83357818D01*
X132548899Y-83491068D01*
X132330392Y-83670393D01*
X132151068Y-83888900D01*
X132080000Y-84021858D01*
X132008932Y-83888899D01*
X131829607Y-83670392D01*
X131611100Y-83491068D01*
X131361807Y-83357818D01*
X131091308Y-83275764D01*
X130810000Y-83248057D01*
X130528691Y-83275764D01*
X130258192Y-83357818D01*
X130008899Y-83491068D01*
X129790392Y-83670393D01*
X129611068Y-83888900D01*
X129540000Y-84021858D01*
X129468932Y-83888899D01*
X129289607Y-83670392D01*
X129102977Y-83517229D01*
X129091589Y-83479687D01*
X129009411Y-83325941D01*
X128979431Y-83289410D01*
X128926532Y-83224953D01*
X128926530Y-83224951D01*
X128898817Y-83191183D01*
X128865050Y-83163471D01*
X127656534Y-81954956D01*
X127628817Y-81921183D01*
X127494059Y-81810589D01*
X127340313Y-81728411D01*
X127173490Y-81677805D01*
X127043477Y-81665000D01*
X127043469Y-81665000D01*
X127000000Y-81660719D01*
X126956531Y-81665000D01*
X106723465Y-81665000D01*
X106679999Y-81660719D01*
X106636533Y-81665000D01*
X106636523Y-81665000D01*
X106506510Y-81677805D01*
X106339687Y-81728411D01*
X106185941Y-81810589D01*
X106185939Y-81810590D01*
X106185940Y-81810590D01*
X106084953Y-81893468D01*
X106084951Y-81893470D01*
X106051183Y-81921183D01*
X106023470Y-81954951D01*
X103544956Y-84433466D01*
X103511183Y-84461183D01*
X103400589Y-84595942D01*
X103371243Y-84650846D01*
X103263715Y-84398354D01*
X103104500Y-84165105D01*
X102902839Y-83967399D01*
X102666483Y-83812834D01*
X102404514Y-83707350D01*
X102127000Y-83655000D01*
X101727000Y-83655000D01*
X101727000Y-84963000D01*
X101747000Y-84963000D01*
X101747000Y-85217000D01*
X101727000Y-85217000D01*
X101727000Y-85237000D01*
X101473000Y-85237000D01*
X101473000Y-85217000D01*
X101453000Y-85217000D01*
X101453000Y-84963000D01*
X101473000Y-84963000D01*
X101473000Y-83655000D01*
X101073000Y-83655000D01*
X100795486Y-83707350D01*
X100533517Y-83812834D01*
X100297161Y-83967399D01*
X100195000Y-84067556D01*
X100195000Y-80894284D01*
X100331680Y-80689727D01*
X100439853Y-80428574D01*
X100495000Y-80151335D01*
X100495000Y-79868665D01*
X100439853Y-79591426D01*
X100331680Y-79330273D01*
X100251317Y-79210000D01*
X103336928Y-79210000D01*
X103336928Y-80810000D01*
X103349188Y-80934482D01*
X103385498Y-81054180D01*
X103444463Y-81164494D01*
X103523815Y-81261185D01*
X103620506Y-81340537D01*
X103730820Y-81399502D01*
X103850518Y-81435812D01*
X103975000Y-81448072D01*
X105575000Y-81448072D01*
X105699482Y-81435812D01*
X105819180Y-81399502D01*
X105929494Y-81340537D01*
X106026185Y-81261185D01*
X106105537Y-81164494D01*
X106115957Y-81145000D01*
X106624249Y-81145000D01*
X106680000Y-81150491D01*
X106735751Y-81145000D01*
X106735752Y-81145000D01*
X106902499Y-81128577D01*
X107116447Y-81063676D01*
X107313623Y-80958284D01*
X107433382Y-80860000D01*
X109001928Y-80860000D01*
X109014188Y-80984482D01*
X109050498Y-81104180D01*
X109109463Y-81214494D01*
X109188815Y-81311185D01*
X109285506Y-81390537D01*
X109395820Y-81449502D01*
X109515518Y-81485812D01*
X109640000Y-81498072D01*
X110204250Y-81495000D01*
X110363000Y-81336250D01*
X110363000Y-80137000D01*
X109163750Y-80137000D01*
X109005000Y-80295750D01*
X109001928Y-80860000D01*
X107433382Y-80860000D01*
X107486449Y-80816449D01*
X107521996Y-80773135D01*
X109002649Y-79292482D01*
X109005000Y-79724250D01*
X109163750Y-79883000D01*
X110363000Y-79883000D01*
X110363000Y-79863000D01*
X110617000Y-79863000D01*
X110617000Y-79883000D01*
X110637000Y-79883000D01*
X110637000Y-80137000D01*
X110617000Y-80137000D01*
X110617000Y-81336250D01*
X110775750Y-81495000D01*
X111340000Y-81498072D01*
X111464482Y-81485812D01*
X111584180Y-81449502D01*
X111694494Y-81390537D01*
X111791185Y-81311185D01*
X111870537Y-81214494D01*
X111929502Y-81104180D01*
X111951513Y-81031620D01*
X112083368Y-81163475D01*
X112326589Y-81325990D01*
X112596842Y-81437932D01*
X112883740Y-81495000D01*
X113176260Y-81495000D01*
X113463158Y-81437932D01*
X113733411Y-81325990D01*
X113976632Y-81163475D01*
X114183475Y-80956632D01*
X114300000Y-80782240D01*
X114416525Y-80956632D01*
X114623368Y-81163475D01*
X114866589Y-81325990D01*
X115136842Y-81437932D01*
X115423740Y-81495000D01*
X115716260Y-81495000D01*
X116003158Y-81437932D01*
X116273411Y-81325990D01*
X116516632Y-81163475D01*
X116723475Y-80956632D01*
X116885990Y-80713411D01*
X116997932Y-80443158D01*
X117055000Y-80156260D01*
X117055000Y-79878514D01*
X118680000Y-79878514D01*
X118680000Y-80141486D01*
X118731304Y-80399405D01*
X118831939Y-80642359D01*
X118978038Y-80861013D01*
X119163987Y-81046962D01*
X119382641Y-81193061D01*
X119625595Y-81293696D01*
X119883514Y-81345000D01*
X120146486Y-81345000D01*
X120404405Y-81293696D01*
X120647359Y-81193061D01*
X120866013Y-81046962D01*
X121051962Y-80861013D01*
X121198061Y-80642359D01*
X121298696Y-80399405D01*
X121350000Y-80141486D01*
X121350000Y-79878514D01*
X121298696Y-79620595D01*
X121198061Y-79377641D01*
X121051962Y-79158987D01*
X120866013Y-78973038D01*
X120647359Y-78826939D01*
X120404405Y-78726304D01*
X120146486Y-78675000D01*
X119883514Y-78675000D01*
X119625595Y-78726304D01*
X119382641Y-78826939D01*
X119163987Y-78973038D01*
X118978038Y-79158987D01*
X118831939Y-79377641D01*
X118731304Y-79620595D01*
X118680000Y-79878514D01*
X117055000Y-79878514D01*
X117055000Y-79863740D01*
X116997932Y-79576842D01*
X116885990Y-79306589D01*
X116723475Y-79063368D01*
X116705000Y-79044893D01*
X116705000Y-78795743D01*
X116710490Y-78739999D01*
X116705000Y-78684255D01*
X116705000Y-78684248D01*
X116688577Y-78517501D01*
X116623676Y-78303553D01*
X116518284Y-78106377D01*
X116376449Y-77933551D01*
X116333140Y-77898008D01*
X115141996Y-76706865D01*
X115106449Y-76663551D01*
X114933623Y-76521716D01*
X114736447Y-76416324D01*
X114522499Y-76351423D01*
X114355752Y-76335000D01*
X114355751Y-76335000D01*
X114300000Y-76329509D01*
X114244249Y-76335000D01*
X109275741Y-76335000D01*
X109219999Y-76329510D01*
X109164257Y-76335000D01*
X109164248Y-76335000D01*
X108997501Y-76351423D01*
X108783553Y-76416324D01*
X108586377Y-76521716D01*
X108413551Y-76663551D01*
X108378009Y-76706859D01*
X106209869Y-78875000D01*
X106115957Y-78875000D01*
X106105537Y-78855506D01*
X106026185Y-78758815D01*
X105929494Y-78679463D01*
X105819180Y-78620498D01*
X105699482Y-78584188D01*
X105575000Y-78571928D01*
X105567785Y-78571928D01*
X105588097Y-78502702D01*
X104775000Y-77689605D01*
X103961903Y-78502702D01*
X103982215Y-78571928D01*
X103975000Y-78571928D01*
X103850518Y-78584188D01*
X103730820Y-78620498D01*
X103620506Y-78679463D01*
X103523815Y-78758815D01*
X103444463Y-78855506D01*
X103385498Y-78965820D01*
X103349188Y-79085518D01*
X103336928Y-79210000D01*
X100251317Y-79210000D01*
X100174637Y-79095241D01*
X100069396Y-78990000D01*
X100921531Y-78990000D01*
X100965000Y-78994281D01*
X101008469Y-78990000D01*
X101008477Y-78990000D01*
X101138490Y-78977195D01*
X101305313Y-78926589D01*
X101459059Y-78844411D01*
X101593817Y-78733817D01*
X101621534Y-78700044D01*
X103525069Y-76796510D01*
X103417429Y-77023996D01*
X103348700Y-77298184D01*
X103334783Y-77580512D01*
X103376213Y-77860130D01*
X103471397Y-78126292D01*
X103538329Y-78251514D01*
X103782298Y-78323097D01*
X104595395Y-77510000D01*
X104954605Y-77510000D01*
X105767702Y-78323097D01*
X106011671Y-78251514D01*
X106132571Y-77996004D01*
X106201300Y-77721816D01*
X106215217Y-77439488D01*
X106173787Y-77159870D01*
X106078603Y-76893708D01*
X106011671Y-76768486D01*
X105767702Y-76696903D01*
X104954605Y-77510000D01*
X104595395Y-77510000D01*
X104581253Y-77495858D01*
X104760858Y-77316253D01*
X104775000Y-77330395D01*
X105588097Y-76517298D01*
X105516514Y-76273329D01*
X105261004Y-76152429D01*
X104986816Y-76083700D01*
X104704488Y-76069783D01*
X104424870Y-76111213D01*
X104158708Y-76206397D01*
X104065202Y-76256376D01*
X104506579Y-75815000D01*
X116473422Y-75815000D01*
X118088468Y-77430047D01*
X118116183Y-77463817D01*
X118149951Y-77491530D01*
X118149953Y-77491532D01*
X118250940Y-77574410D01*
X118250941Y-77574411D01*
X118404687Y-77656589D01*
X118571510Y-77707195D01*
X118701523Y-77720000D01*
X118701531Y-77720000D01*
X118745000Y-77724281D01*
X118788469Y-77720000D01*
X121241531Y-77720000D01*
X121285000Y-77724281D01*
X121328469Y-77720000D01*
X121328477Y-77720000D01*
X121458490Y-77707195D01*
X121625313Y-77656589D01*
X121779059Y-77574411D01*
X121913817Y-77463817D01*
X121941534Y-77430044D01*
X123150050Y-76221529D01*
X123183817Y-76193817D01*
X123232088Y-76135000D01*
X123294410Y-76059060D01*
X123294411Y-76059059D01*
X123376589Y-75905313D01*
X123427195Y-75738490D01*
X123440000Y-75608477D01*
X123440000Y-75608467D01*
X123444281Y-75565001D01*
X123440000Y-75521535D01*
X123440000Y-72604625D01*
X123529482Y-72595812D01*
X123649180Y-72559502D01*
X123759494Y-72500537D01*
X123856185Y-72421185D01*
X123935537Y-72324494D01*
X123994502Y-72214180D01*
X124030812Y-72094482D01*
X124043072Y-71970000D01*
X124043072Y-70973740D01*
X125515000Y-70973740D01*
X125515000Y-71266260D01*
X125572068Y-71553158D01*
X125684010Y-71823411D01*
X125846525Y-72066632D01*
X126053368Y-72273475D01*
X126296589Y-72435990D01*
X126566842Y-72547932D01*
X126853740Y-72605000D01*
X127146260Y-72605000D01*
X127433158Y-72547932D01*
X127703411Y-72435990D01*
X127946632Y-72273475D01*
X128153475Y-72066632D01*
X128270000Y-71892240D01*
X128386525Y-72066632D01*
X128593368Y-72273475D01*
X128836589Y-72435990D01*
X129106842Y-72547932D01*
X129393740Y-72605000D01*
X129686260Y-72605000D01*
X129973158Y-72547932D01*
X130243411Y-72435990D01*
X130486632Y-72273475D01*
X130693475Y-72066632D01*
X130810000Y-71892240D01*
X130926525Y-72066632D01*
X131133368Y-72273475D01*
X131376589Y-72435990D01*
X131646842Y-72547932D01*
X131933740Y-72605000D01*
X132226260Y-72605000D01*
X132513158Y-72547932D01*
X132783411Y-72435990D01*
X133026632Y-72273475D01*
X133233475Y-72066632D01*
X133350000Y-71892240D01*
X133466525Y-72066632D01*
X133673368Y-72273475D01*
X133916589Y-72435990D01*
X134186842Y-72547932D01*
X134473740Y-72605000D01*
X134766260Y-72605000D01*
X135053158Y-72547932D01*
X135323411Y-72435990D01*
X135566632Y-72273475D01*
X135773475Y-72066632D01*
X135890000Y-71892240D01*
X136006525Y-72066632D01*
X136213368Y-72273475D01*
X136456589Y-72435990D01*
X136726842Y-72547932D01*
X137013740Y-72605000D01*
X137306260Y-72605000D01*
X137593158Y-72547932D01*
X137863411Y-72435990D01*
X138106632Y-72273475D01*
X138313475Y-72066632D01*
X138430000Y-71892240D01*
X138546525Y-72066632D01*
X138753368Y-72273475D01*
X138996589Y-72435990D01*
X139266842Y-72547932D01*
X139553740Y-72605000D01*
X139846260Y-72605000D01*
X140133158Y-72547932D01*
X140403411Y-72435990D01*
X140646632Y-72273475D01*
X140853475Y-72066632D01*
X140970000Y-71892240D01*
X141086525Y-72066632D01*
X141293368Y-72273475D01*
X141536589Y-72435990D01*
X141806842Y-72547932D01*
X142093740Y-72605000D01*
X142386260Y-72605000D01*
X142673158Y-72547932D01*
X142943411Y-72435990D01*
X143186632Y-72273475D01*
X143318487Y-72141620D01*
X143340498Y-72214180D01*
X143399463Y-72324494D01*
X143478815Y-72421185D01*
X143575506Y-72500537D01*
X143685820Y-72559502D01*
X143805518Y-72595812D01*
X143930000Y-72608072D01*
X145630000Y-72608072D01*
X145754482Y-72595812D01*
X145874180Y-72559502D01*
X145984494Y-72500537D01*
X146081185Y-72421185D01*
X146160537Y-72324494D01*
X146219502Y-72214180D01*
X146255812Y-72094482D01*
X146268072Y-71970000D01*
X146268072Y-70270000D01*
X146255812Y-70145518D01*
X146219502Y-70025820D01*
X146160537Y-69915506D01*
X146081185Y-69818815D01*
X145984494Y-69739463D01*
X145874180Y-69680498D01*
X145754482Y-69644188D01*
X145630000Y-69631928D01*
X143930000Y-69631928D01*
X143805518Y-69644188D01*
X143685820Y-69680498D01*
X143575506Y-69739463D01*
X143478815Y-69818815D01*
X143399463Y-69915506D01*
X143340498Y-70025820D01*
X143318487Y-70098380D01*
X143186632Y-69966525D01*
X142943411Y-69804010D01*
X142673158Y-69692068D01*
X142386260Y-69635000D01*
X142093740Y-69635000D01*
X141806842Y-69692068D01*
X141536589Y-69804010D01*
X141293368Y-69966525D01*
X141086525Y-70173368D01*
X140970000Y-70347760D01*
X140853475Y-70173368D01*
X140646632Y-69966525D01*
X140403411Y-69804010D01*
X140133158Y-69692068D01*
X139846260Y-69635000D01*
X139553740Y-69635000D01*
X139266842Y-69692068D01*
X138996589Y-69804010D01*
X138753368Y-69966525D01*
X138546525Y-70173368D01*
X138430000Y-70347760D01*
X138313475Y-70173368D01*
X138106632Y-69966525D01*
X137863411Y-69804010D01*
X137593158Y-69692068D01*
X137306260Y-69635000D01*
X137013740Y-69635000D01*
X136726842Y-69692068D01*
X136456589Y-69804010D01*
X136213368Y-69966525D01*
X136006525Y-70173368D01*
X135890000Y-70347760D01*
X135773475Y-70173368D01*
X135566632Y-69966525D01*
X135323411Y-69804010D01*
X135053158Y-69692068D01*
X134766260Y-69635000D01*
X134473740Y-69635000D01*
X134186842Y-69692068D01*
X133916589Y-69804010D01*
X133673368Y-69966525D01*
X133466525Y-70173368D01*
X133350000Y-70347760D01*
X133233475Y-70173368D01*
X133026632Y-69966525D01*
X132783411Y-69804010D01*
X132513158Y-69692068D01*
X132226260Y-69635000D01*
X131933740Y-69635000D01*
X131646842Y-69692068D01*
X131376589Y-69804010D01*
X131133368Y-69966525D01*
X130926525Y-70173368D01*
X130810000Y-70347760D01*
X130693475Y-70173368D01*
X130486632Y-69966525D01*
X130243411Y-69804010D01*
X129973158Y-69692068D01*
X129686260Y-69635000D01*
X129393740Y-69635000D01*
X129106842Y-69692068D01*
X128836589Y-69804010D01*
X128593368Y-69966525D01*
X128386525Y-70173368D01*
X128270000Y-70347760D01*
X128153475Y-70173368D01*
X127946632Y-69966525D01*
X127703411Y-69804010D01*
X127433158Y-69692068D01*
X127146260Y-69635000D01*
X126853740Y-69635000D01*
X126566842Y-69692068D01*
X126296589Y-69804010D01*
X126053368Y-69966525D01*
X125846525Y-70173368D01*
X125684010Y-70416589D01*
X125572068Y-70686842D01*
X125515000Y-70973740D01*
X124043072Y-70973740D01*
X124043072Y-70270000D01*
X124030812Y-70145518D01*
X123994502Y-70025820D01*
X123935537Y-69915506D01*
X123856185Y-69818815D01*
X123759494Y-69739463D01*
X123649180Y-69680498D01*
X123529482Y-69644188D01*
X123405000Y-69631928D01*
X121705000Y-69631928D01*
X121580518Y-69644188D01*
X121460820Y-69680498D01*
X121350506Y-69739463D01*
X121253815Y-69818815D01*
X121174463Y-69915506D01*
X121115498Y-70025820D01*
X121093487Y-70098380D01*
X120961632Y-69966525D01*
X120718411Y-69804010D01*
X120448158Y-69692068D01*
X120161260Y-69635000D01*
X119868740Y-69635000D01*
X119581842Y-69692068D01*
X119311589Y-69804010D01*
X119068368Y-69966525D01*
X118861525Y-70173368D01*
X118745000Y-70347760D01*
X118628475Y-70173368D01*
X118421632Y-69966525D01*
X118178411Y-69804010D01*
X117908158Y-69692068D01*
X117621260Y-69635000D01*
X117328740Y-69635000D01*
X117041842Y-69692068D01*
X116771589Y-69804010D01*
X116528368Y-69966525D01*
X116321525Y-70173368D01*
X116205000Y-70347760D01*
X116088475Y-70173368D01*
X115881632Y-69966525D01*
X115638411Y-69804010D01*
X115368158Y-69692068D01*
X115081260Y-69635000D01*
X114788740Y-69635000D01*
X114501842Y-69692068D01*
X114231589Y-69804010D01*
X113988368Y-69966525D01*
X113781525Y-70173368D01*
X113665000Y-70347760D01*
X113548475Y-70173368D01*
X113341632Y-69966525D01*
X113098411Y-69804010D01*
X112828158Y-69692068D01*
X112541260Y-69635000D01*
X112248740Y-69635000D01*
X111961842Y-69692068D01*
X111691589Y-69804010D01*
X111448368Y-69966525D01*
X111241525Y-70173368D01*
X111125000Y-70347760D01*
X111008475Y-70173368D01*
X110801632Y-69966525D01*
X110558411Y-69804010D01*
X110288158Y-69692068D01*
X110001260Y-69635000D01*
X109708740Y-69635000D01*
X109421842Y-69692068D01*
X109151589Y-69804010D01*
X108908368Y-69966525D01*
X108701525Y-70173368D01*
X108579805Y-70355534D01*
X108510178Y-70238645D01*
X108315269Y-70022412D01*
X108081920Y-69848359D01*
X107819099Y-69723175D01*
X107671890Y-69678524D01*
X107442000Y-69799845D01*
X107442000Y-70993000D01*
X107462000Y-70993000D01*
X107462000Y-71247000D01*
X107442000Y-71247000D01*
X107442000Y-72440155D01*
X107671890Y-72561476D01*
X107819099Y-72516825D01*
X108081920Y-72391641D01*
X108315269Y-72217588D01*
X108510178Y-72001355D01*
X108579805Y-71884466D01*
X108701525Y-72066632D01*
X108908368Y-72273475D01*
X109151589Y-72435990D01*
X109421842Y-72547932D01*
X109708740Y-72605000D01*
X110001260Y-72605000D01*
X110288158Y-72547932D01*
X110558411Y-72435990D01*
X110801632Y-72273475D01*
X111008475Y-72066632D01*
X111125000Y-71892240D01*
X111241525Y-72066632D01*
X111448368Y-72273475D01*
X111691589Y-72435990D01*
X111961842Y-72547932D01*
X112248740Y-72605000D01*
X112541260Y-72605000D01*
X112828158Y-72547932D01*
X113098411Y-72435990D01*
X113341632Y-72273475D01*
X113548475Y-72066632D01*
X113665000Y-71892240D01*
X113781525Y-72066632D01*
X113988368Y-72273475D01*
X114231589Y-72435990D01*
X114501842Y-72547932D01*
X114788740Y-72605000D01*
X115081260Y-72605000D01*
X115368158Y-72547932D01*
X115638411Y-72435990D01*
X115881632Y-72273475D01*
X116088475Y-72066632D01*
X116205000Y-71892240D01*
X116321525Y-72066632D01*
X116528368Y-72273475D01*
X116771589Y-72435990D01*
X117041842Y-72547932D01*
X117328740Y-72605000D01*
X117621260Y-72605000D01*
X117908158Y-72547932D01*
X118178411Y-72435990D01*
X118421632Y-72273475D01*
X118628475Y-72066632D01*
X118745000Y-71892240D01*
X118861525Y-72066632D01*
X118974157Y-72179264D01*
X118378422Y-72775000D01*
X103548466Y-72775000D01*
X103504999Y-72770719D01*
X103461533Y-72775000D01*
X103461523Y-72775000D01*
X103331510Y-72787805D01*
X103164687Y-72838411D01*
X103010941Y-72920589D01*
X103010939Y-72920590D01*
X103010940Y-72920590D01*
X102909953Y-73003468D01*
X102909951Y-73003470D01*
X102876183Y-73031183D01*
X102848470Y-73064951D01*
X100417622Y-75495800D01*
X100486300Y-75221816D01*
X100500217Y-74939488D01*
X100458787Y-74659870D01*
X100363603Y-74393708D01*
X100296671Y-74268486D01*
X100052702Y-74196903D01*
X99239605Y-75010000D01*
X99253748Y-75024143D01*
X99074143Y-75203748D01*
X99060000Y-75189605D01*
X99045858Y-75203748D01*
X98866253Y-75024143D01*
X98880395Y-75010000D01*
X98067298Y-74196903D01*
X97823329Y-74268486D01*
X97702429Y-74523996D01*
X97633700Y-74798184D01*
X97619783Y-75080512D01*
X97661213Y-75360130D01*
X97756397Y-75626292D01*
X97823329Y-75751514D01*
X98067296Y-75823097D01*
X97951023Y-75939370D01*
X97961653Y-75950000D01*
X97198469Y-75950000D01*
X97155000Y-75945719D01*
X97111531Y-75950000D01*
X97111523Y-75950000D01*
X96981510Y-75962805D01*
X96814687Y-76013411D01*
X96729285Y-76059059D01*
X96660941Y-76095589D01*
X96559953Y-76178468D01*
X96559951Y-76178470D01*
X96526183Y-76206183D01*
X96498470Y-76239951D01*
X94654956Y-78083466D01*
X94621183Y-78111183D01*
X94510589Y-78245942D01*
X94428411Y-78399688D01*
X94377805Y-78566511D01*
X94365000Y-78696524D01*
X94365000Y-78696531D01*
X94360719Y-78740000D01*
X94365000Y-78783469D01*
X94365001Y-81236521D01*
X94360719Y-81280000D01*
X94377805Y-81453490D01*
X94428412Y-81620313D01*
X94510590Y-81774059D01*
X94593468Y-81875046D01*
X94593471Y-81875049D01*
X94621184Y-81908817D01*
X94654951Y-81936529D01*
X95635000Y-82916579D01*
X95635000Y-84393795D01*
X95578932Y-84288899D01*
X95399608Y-84070392D01*
X95181101Y-83891068D01*
X94931808Y-83757818D01*
X94661309Y-83675764D01*
X94450492Y-83655000D01*
X93509508Y-83655000D01*
X93298691Y-83675764D01*
X93028192Y-83757818D01*
X92778899Y-83891068D01*
X92560392Y-84070392D01*
X92407228Y-84257023D01*
X92369686Y-84268411D01*
X92215941Y-84350589D01*
X92114953Y-84433468D01*
X92114951Y-84433470D01*
X92081183Y-84461183D01*
X92053470Y-84494951D01*
X88304951Y-88243470D01*
X88271184Y-88271183D01*
X88243471Y-88304951D01*
X88243468Y-88304954D01*
X88160590Y-88405941D01*
X88078412Y-88559687D01*
X88027805Y-88726510D01*
X88010719Y-88900000D01*
X87045000Y-88900000D01*
X87045000Y-74017298D01*
X98246903Y-74017298D01*
X99060000Y-74830395D01*
X99873097Y-74017298D01*
X99801514Y-73773329D01*
X99546004Y-73652429D01*
X99271816Y-73583700D01*
X98989488Y-73569783D01*
X98709870Y-73611213D01*
X98443708Y-73706397D01*
X98318486Y-73773329D01*
X98246903Y-74017298D01*
X87045000Y-74017298D01*
X87045000Y-71476891D01*
X105873519Y-71476891D01*
X105970843Y-71751252D01*
X106119822Y-72001355D01*
X106314731Y-72217588D01*
X106548080Y-72391641D01*
X106810901Y-72516825D01*
X106958110Y-72561476D01*
X107188000Y-72440155D01*
X107188000Y-71247000D01*
X105994186Y-71247000D01*
X105873519Y-71476891D01*
X87045000Y-71476891D01*
X87045000Y-70763109D01*
X105873519Y-70763109D01*
X105994186Y-70993000D01*
X107188000Y-70993000D01*
X107188000Y-69799845D01*
X106958110Y-69678524D01*
X106810901Y-69723175D01*
X106548080Y-69848359D01*
X106314731Y-70022412D01*
X106119822Y-70238645D01*
X105970843Y-70488748D01*
X105873519Y-70763109D01*
X87045000Y-70763109D01*
X87045000Y-69265000D01*
X146635000Y-69265000D01*
X146635001Y-122505000D01*
G37*
G04 #@! TD.AperFunction*
G04 #@! TD*
M02*
